<?xml version="1.0" encoding="UTF-8"?>
<svg id="_レイヤー_1" xmlns="http://www.w3.org/2000/svg" xmlns:xlink="http://www.w3.org/1999/xlink" version="1.1" viewBox="0 0 986.9 694.1">
  <!-- Generator: Adobe Illustrator 29.3.0, SVG Export Plug-In . SVG Version: 2.1.0 Build 146)  -->
  <defs>
    <style>
      .st0 {
        fill: #3457a5;
      }

      .st1 {
        fill: #4d4d4d;
      }

      .st2 {
        isolation: isolate;
      }

      .st3 {
        fill: #fff;
      }

      .st4 {
        fill: #9534a3;
      }

      .st5 {
        fill: #dd0707;
      }
    </style>
  </defs>
  <g>
    <rect class="st5" x="362.3" y="289.6" width="262.3" height="115" rx="5" ry="5"/>
    <g>
      <path class="st3" d="M414.6,335.4h-4.6l-1,3.6h-2.8l4.5-14.1h3.3l4.5,14.1h-2.9l-1-3.6ZM414,333.2l-.4-1.5c-.4-1.5-.8-3.1-1.2-4.6h0c-.4,1.5-.8,3.1-1.2,4.6l-.4,1.5h3.3,0Z"/>
      <path class="st3" d="M420.1,324.9h2.8v14.1h-2.8v-14.1Z"/>
      <path class="st3" d="M438.9,342.4c-.5.2-1.3.4-2.4.4-2.9,0-4.9-1.5-5.8-3.7-3-.6-5-3.2-5-7.2s2.6-7.2,6.3-7.2,6.3,2.7,6.3,7.2-1.8,6.4-4.6,7.1c.6,1.1,1.9,1.5,3.2,1.5s1.1,0,1.5-.2l.5,2.1h0ZM432,337c2.1,0,3.4-1.9,3.4-5.1s-1.3-4.8-3.4-4.8-3.4,1.8-3.4,4.8,1.3,5.1,3.4,5.1Z"/>
      <path class="st3" d="M441,324.9h3.1l2.4,6.6c.3.9.6,1.8.9,2.7h0c.3-.9.6-1.8.9-2.7l2.3-6.6h3.1v14.1h-2.6v-5.9c0-1.3.2-3.3.3-4.6h0l-1.1,3.3-2.2,5.9h-1.6l-2.2-5.9-1.1-3.3h0c.1,1.3.4,3.3.4,4.6v5.9h-2.5v-14.1h0Z"/>
      <path class="st3" d="M471.1,337.4c0,.8,0,2,.2,2.5h-3c0-.5.1-1.7.1-2.5v-6.2c-2,1-4.3,2-6.5,2.6l-1.4-2.3c3.3-.7,6.5-2.1,8.6-3.4,1.9-1.2,3.9-2.9,5-4.3l2,1.8c-1.4,1.4-3.2,2.9-5,4.1v7.8h0Z"/>
      <path class="st3" d="M478.5,335.4c.7,0,1.6.1,2.4.1h10.9c.6,0,1.4,0,2.1-.1v2.9c-.7,0-1.5-.1-2.1-.1h-10.9c-.7,0-1.7,0-2.4.1v-2.9ZM480.1,326.1c.7,0,1.6.1,2.2.1h7.9c.8,0,1.6,0,2.1-.1v2.8h-12.1v-2.8h-.1Z"/>
      <path class="st3" d="M502.5,331l-1.4,2.1c-1.1-.7-3-2-4.3-2.7l1.4-2.1c1.3.7,3.4,2,4.3,2.7ZM504,335.3c3.2-1.8,5.9-4.4,7.4-7.1l1.5,2.6c-1.8,2.6-4.4,5-7.6,6.8-1.9,1.1-4.7,2.1-6.3,2.4l-1.4-2.5c2.1-.4,4.4-1,6.5-2.1h-.1ZM505.4,326.7l-1.4,2.1c-1.1-.7-3-2-4.3-2.7l1.4-2.1c1.3.7,3.3,2,4.3,2.7Z"/>
      <path class="st3" d="M530.7,326.1c-.2.2-.6.7-.7,1-.9,1.5-2.7,3.9-4.6,5.2l-2-1.6c1.5-.9,3-2.6,3.5-3.5h-9.9c-.8,0-1.4,0-2.3.1v-2.6c.7.1,1.5.2,2.3.2h10.2c.5,0,1.6,0,1.9-.2l1.5,1.4h.1ZM522.9,328.7c0,4.7,0,8.6-5.3,11.4l-2.2-1.8c.6-.2,1.3-.5,2-1,2.4-1.7,2.9-3.7,2.9-6.8s0-1.1-.1-1.7h2.8,0Z"/>
      <path class="st3" d="M545.9,329.4c.4,0,1.2,0,1.7-.1v2.5h-6.3c-.1,2-.5,3.6-1.2,4.9s-2.1,2.8-3.8,3.6l-2.2-1.6c1.3-.5,2.7-1.6,3.4-2.7.8-1.2,1.1-2.6,1.2-4.2h-7v-2.5c.6,0,1.2.1,1.8.1h12.4ZM535.9,326.8h-2v-2.5c.6,0,1.4.1,2,.1h7.6c.6,0,1.4,0,2.1-.1v2.5h-9.7Z"/>
      <path class="st3" d="M561.7,328.9c-.9,1-2.5,2.3-4.3,3.4v6.3c0,.7,0,1.7.1,2.1h-2.8v-7c-1.7.8-3.8,1.6-5.4,2.1l-1.3-2.2c2.5-.5,5.2-1.7,6.7-2.6,1.9-1.1,3.9-2.7,4.9-4l1.9,1.8h.2Z"/>
      <path class="st3" d="M577.2,325.8l1.2.8c-.2.4-.3.9-.4,1.3-.4,1.9-1.3,4.8-2.8,6.9-1.7,2.3-4.2,4.2-7.6,5.2l-2.1-2.3c3.8-.9,5.9-2.5,7.4-4.5,1.3-1.6,2-3.7,2.2-5.4h-11.2v-2.7c.6,0,1.6.2,2.3.2h9.7c-.3-.6-.7-1.3-1.1-1.8l1.6-.6c.5.7,1.1,1.8,1.5,2.5l-.7.3h0ZM579.1,322.5c.5.7,1.2,1.8,1.5,2.5l-1.6.7c-.4-.8-1-1.9-1.5-2.5l1.6-.6h0Z"/>
      <path d="M475.6,363.1h7.2v8.5h-2.3v-.9h-2.8v.9h-2.1v-8.5h0ZM477.7,365.3v3.3h2.8v-3.3h-2.8ZM489.3,361.5h-11.1v-6.9h11.1v6.9ZM487,356.8h-6.6v2.6h6.6v-2.6ZM491.9,363.1v8.5h-2.3v-.9h-3v.9h-2.2v-8.5h7.5ZM489.6,368.5v-3.3h-3v3.3h3Z"/>
      <path d="M505.9,368.5c1.9.7,4.1,1.6,5.4,2.2l-2.6,1c-1.1-.6-3-1.5-4.9-2.2l1.7-1h-5.5l1.7.8c-1.6,1-4,2-5.9,2.5-.4-.4-1.2-1.3-1.7-1.7,1.8-.3,3.9-1,5.2-1.6h-2.8v-7.8h6.3c-.3-.5-.9-1.1-1.3-1.4.5-.3.8-.6,1.1-1h-1.7v2h-2v-2h-1.7c-.3,1.1-.8,2.2-1.8,3.2-.3-.4-1-1.1-1.5-1.4,1.4-1.3,1.6-2.8,1.6-4.1v-1.7l1.4.4c1.5-.2,3-.5,4-.8l1.4,1.3c-1.4.4-3.2.7-4.8.8h0v.7h5.2v1.5c.6-.7.7-1.5.7-2.2v-1.7l1.5.4c1.6-.2,3.2-.5,4.3-.8l1.4,1.3c-1.5.4-3.4.7-5.2.8h0v.6h5.9v1.6h-2.4v2h-2v-2h-1.9c-.3.8-.9,1.7-1.9,2.3h6.2v7.8h-3.3v.2ZM498.6,362.9h8.2v-.8h-8.2v.8ZM498.6,365h8.2v-.8h-8.2v.8ZM498.6,367.1h8.2v-.8h-8.2v.8Z"/>
    </g>
  </g>
  <g>
    <circle class="st0" cx="493.1" cy="85.6" r="85.6"/>
    <g>
      <path class="st3" d="M490.1,67.2v16.3h-2.4v-1.2h-8.4v1.2h-2.3v-16.4h13.2-.1ZM479.2,69.4v4.1h8.4v-4.1h-8.4ZM487.7,80v-4.3h-8.4v4.3h8.4Z"/>
      <path class="st3" d="M505,72c1.5,2.8,3.9,5.5,6.6,6.9-.6.5-1.3,1.4-1.7,2.1-1.1-.7-2.1-1.5-3.1-2.5v2.2h-3.2v3.2h-2.4v-3.2h-3.3v-2c-.9.9-1.9,1.8-3,2.4-.4-.6-1.1-1.4-1.7-1.9,2.7-1.5,5.1-4.2,6.5-7.1h-5.8v-2.3h7.1v-3.7h2.4v3.7h7.2v2.3h-5.8.2ZM501.3,78.3v-4.1c-.9,1.5-1.9,2.9-3,4.1h3ZM506.7,78.3c-1.1-1.2-2.2-2.6-3-4.2v4.2h3Z"/>
      <path class="st3" d="M483,101.3h-4.6l-1,3.6h-2.8l4.5-14.1h3.3l4.5,14.1h-2.9l-1-3.6ZM482.4,99.1l-.4-1.5c-.4-1.5-.8-3.1-1.2-4.6h0c-.4,1.5-.8,3.1-1.2,4.6l-.4,1.5h3.3,0Z"/>
      <path class="st3" d="M488.6,90.9h2.8v14.1h-2.8v-14.1Z"/>
      <path class="st3" d="M493.9,103.1l1.6-1.9c1,.9,2.3,1.6,3.6,1.6s2.2-.6,2.2-1.6-.9-1.4-2.1-1.9l-1.9-.8c-1.4-.6-2.8-1.7-2.8-3.8s2-4.1,4.9-4.1,3.3.6,4.4,1.8l-1.4,1.8c-.9-.7-1.8-1.2-3-1.2s-2,.6-2,1.5,1,1.4,2.2,1.8l1.8.8c1.7.7,2.8,1.8,2.8,3.8s-1.9,4.3-5.2,4.3-3.8-.7-5.1-2.1h0Z"/>
      <path class="st3" d="M506.7,90.9h2.8v14.1h-2.8v-14.1Z"/>
    </g>
  </g>
  <g>
    <circle class="st0" cx="689.2" cy="165.6" r="85.6"/>
    <g>
      <path class="st3" d="M648.1,159.6l1.6-1.9c1,.9,2.3,1.6,3.6,1.6s2.2-.6,2.2-1.6-.9-1.4-2.1-1.9l-1.9-.8c-1.4-.6-2.8-1.7-2.8-3.8s2-4.1,4.9-4.1,3.3.6,4.4,1.8l-1.4,1.8c-.9-.7-1.8-1.2-3-1.2s-2,.6-2,1.5,1,1.4,2.2,1.8l1.8.8c1.7.7,2.8,1.8,2.8,3.8s-1.9,4.3-5.2,4.3-3.8-.7-5.1-2.1h0Z"/>
      <path class="st3" d="M660.1,154.4c0-4.6,3-7.4,6.5-7.4s3.2.9,4.1,1.8l-1.5,1.8c-.7-.7-1.5-1.2-2.6-1.2-2.1,0-3.7,1.8-3.7,4.8s1.4,4.9,3.7,4.9,2.1-.6,2.9-1.4l1.5,1.7c-1.2,1.3-2.7,2.1-4.5,2.1-3.6,0-6.4-2.5-6.4-7.2h0Z"/>
      <path class="st3" d="M682.2,157.8h-1.7v3.6h-2.6v-3.6h-6v-1.9l5.2-8.5h3.3v8.3h1.7v2.1h0ZM678,155.6v-2.9c0-.8,0-2.1,0-2.9h0c-.3.7-.7,1.5-1.1,2.3l-2.2,3.5h3.3,0Z"/>
      <path class="st3" d="M683.6,159.8c3.8-3.4,6.1-6.1,6.1-8.2s-.8-2.3-2.1-2.3-1.9.7-2.6,1.4l-1.5-1.5c1.3-1.4,2.5-2.1,4.5-2.1s4.4,1.7,4.4,4.3-2.1,5.3-4.7,7.8c.7,0,1.6-.2,2.3-.2h3.1v2.4h-9.4v-1.6h0Z"/>
      <path class="st3" d="M711.4,146.1v17h-2.4v-.9h-11.2v.9h-2.3v-17h16,0ZM709,160v-11.9h-11.2v11.9h11.2ZM708.4,157.1v1.8h-9.8v-1.8h3.8v-2.2h-3.1v-1.9h3.1v-1.8h-3.6v-2h9.3v2h-3.6v1.8h3.2v1.9h-1c.5.5,1.1,1.2,1.4,1.7l-1,.6h1.3,0ZM704.4,157.1h1.9c-.3-.5-.9-1.2-1.3-1.7l1.2-.6h-1.8v2.2h0Z"/>
      <path class="st3" d="M730.3,160.5c0,1.2-.2,1.8-1,2.2s-2,.4-3.7.4c0-.6-.4-1.7-.7-2.2h2.8c.4,0,.5-.1.5-.5v-9.7h-4.4c0,.7,0,1.4-.3,2.1,1.6,1.5,3.7,3.4,4.7,4.7l-1.9,1.5c-.8-1-2.2-2.6-3.6-4-.7,1.6-2,3.2-4.1,4.4-.3-.5-1-1.3-1.6-1.7v5.4h-2.3v-14.6h6.6v-3.2h2.3v3.2h6.6v12h.1ZM717,157.7c3.6-1.9,4.2-4.7,4.3-7h-4.3v7Z"/>
      <path class="st3" d="M665.2,177c1.5.8,3.2,1.5,5,1.8-.5.4-1.1,1.2-1.4,1.8-.5-.1-.9-.3-1.4-.5v5.6h-2.2v-.4h-8v.5h-2.1v-5.4c-.5.2-1,.5-1.5.6-.3-.6-1-1.3-1.4-1.8,1.7-.5,3.6-1.3,5.1-2.2h-4.4v-1.8h3.1c-.2-.4-.4-.9-.6-1.3l.8-.2c0-.4-.3-1.1-.5-1.5,3.4,0,7.4-.3,9.9-.7l1.2,1.5c-.5,0-1,.2-1.6.2l2.2.6c-.3.5-.6.9-.9,1.3h3.2v1.8h-4.5ZM655,173.2h-2.1v-3.8h7v-1.3h2.3v1.3h7v3.8h-2.2v-1.9h-12v1.9ZM660,180.6h-2.9v.9h2.9v-.9ZM657.1,183.8h2.9v-.9h-2.9v.9ZM660,173.7h-2.7c.3.4.5,1,.6,1.4h2.1v-1.5h0ZM665,179c-1-.6-2-1.3-2.7-2h-.2v1.8h-2.1v-1.7c-.7.7-1.6,1.3-2.5,1.9h7.5ZM665.1,180.6h-3v.9h3v-.9ZM665.1,183.8v-.9h-3v.9h3ZM664.2,175.2c.3-.6.6-1.3.8-1.9-.9,0-1.9.2-2.8.3v1.6h2Z"/>
      <path class="st3" d="M677.5,173h-6.3v-1.8h6.3v1.8ZM677,184.8h-3.3v.8h-1.7v-6.5h5.1v5.7h0ZM672,173.9h5v1.7h-5v-1.7ZM672,176.5h5v1.7h-5v-1.7ZM677,170.4h-4.9v-1.7h4.9v1.7ZM673.7,180.9v2.2h1.5v-2.2h-1.5ZM688.1,181.4c-.5.7-1.1,1.4-1.8,2.1.3.5.6.7,1,.7s.5-.5.5-1.5c.4.3.9.6,1.3.8-.3,1.8-.9,2.5-2,2.5s-1.7-.5-2.2-1.3c-.6.4-1.3.8-1.9,1-.2-.3-.7-.9-1.1-1.2.8-.3,1.6-.8,2.4-1.3-.2-.8-.4-1.7-.6-2.7h-1.8v.7l1.5-.2v1.6l-1.5.2v1.3c0,.9-.2,1.3-.7,1.5-.6.2-1.4.3-2.5.3,0-.5-.3-1.1-.6-1.6h1.6c.2,0,.3,0,.3-.3v-1c-.8.1-1.6.2-2.3.3l-.2-1.7c.7,0,1.6-.1,2.5-.2v-.9h-2.4v-1.6h2.4v-.8c-.6,0-1.2.1-1.8.2,0-.4-.3-.9-.4-1.3,1.6-.2,3.5-.4,4.6-.8l1.2,1.3v-1.1h1.9v2.5h2c-.4-.6-1.1-1.3-1.8-1.7l1.3-.9c.7.5,1.6,1.2,1.9,1.7l-1.2.9h1.3v1.6h-3.3c0,.5.2,1,.3,1.4.3-.4.7-.8.9-1.2l1.5.7h-.3ZM682,171.4h-4v-1.5h2.1c-.2-.4-.5-.8-.7-1.2l1.6-.6c.4.5.9,1.3,1.1,1.7h2.3c.3-.5.7-1.3.9-1.7l2,.5c-.3.5-.6.9-.9,1.3h2.1v1.5h-4.2v.7h3.6v1.4h-3.6v.8h4.6v1.6h-11.3v-1.6h4.6v-.8h-3.4v-1.4h3.4v-.7h-.2ZM683.5,178.8v-1.4c-.5.1-1,.2-1.6.4v1.1h1.7-.1Z"/>
      <path class="st3" d="M707.2,168.9v16.9h-2.4v-.7h-11.6v.7h-2.2v-16.9h16.2ZM704.9,182.9v-11.8h-11.6v11.8h11.6ZM704.3,175.4h-2.1v4.9c0,1-.2,1.5-.9,1.8s-1.6.3-3,.3c0-.6-.3-1.3-.6-1.9h2q.3,0,.3-.3v-4.9h-6.1v-1.9h6.1v-1.9h2.1v1.9h2.1v1.9h.1ZM696.5,175.8c.9.9,1.7,2.2,2.1,3.1l-1.7.9c-.3-.9-1.1-2.2-2-3.2l1.6-.9h0Z"/>
      <path class="st3" d="M715,168.8c-.4,1.2-.9,2.5-1.5,3.7v13.3h-2.1v-9.7c-.4.5-.8,1-1.2,1.5-.2-.6-.8-1.8-1.3-2.4,1.6-1.7,3.1-4.4,3.9-7.1l2.1.6h0ZM722.7,173.6c1,2.9,2.8,5.9,4.6,7.6-.5.4-1.3,1.2-1.7,1.7-.5-.6-1-1.3-1.5-2v1.7h-2.5v3.1h-2.2v-3.1h-2.5v-1.7c-.5.8-1.1,1.5-1.7,2.1-.4-.5-1.1-1.3-1.6-1.7,1.9-1.7,3.7-4.7,4.7-7.7h-3.7v-2.1h4.8v-3.3h2.2v3.3h5.2v2.1h-4.1ZM719.4,180.7v-4.8c-.6,1.7-1.4,3.4-2.3,4.8h2.3ZM723.9,180.7c-.9-1.5-1.7-3.2-2.3-5v5h2.3Z"/>
    </g>
  </g>
  <g>
    <circle class="st0" cx="802.2" cy="346.3" r="85.6"/>
    <g>
      <path class="st3" d="M788.7,355c-.5.2-1.3.4-2.4.4-2.9,0-4.9-1.5-5.8-3.7-3-.6-5-3.2-5-7.2s2.6-7.2,6.3-7.2,6.3,2.7,6.3,7.2-1.8,6.4-4.6,7.1c.6,1.1,1.9,1.5,3.2,1.5s1.1,0,1.5-.2l.5,2.1h0ZM781.8,349.5c2.1,0,3.4-1.9,3.4-5.1s-1.3-4.8-3.4-4.8-3.4,1.8-3.4,4.8,1.3,5.1,3.4,5.1Z"/>
      <path class="st3" d="M797.2,348h-4.6l-1,3.6h-2.8l4.5-14.1h3.3l4.5,14.1h-2.9l-1-3.6ZM796.6,345.8l-.4-1.5c-.4-1.5-.8-3.1-1.2-4.6h0c-.4,1.5-.8,3.1-1.2,4.6l-.4,1.5h3.3,0Z"/>
      <path class="st3" d="M811.7,347.9h-1.7v3.6h-2.6v-3.6h-6v-1.9l5.2-8.5h3.3v8.3h1.7v2.1h0ZM807.4,345.8v-2.9c0-.8,0-2.1,0-2.9h0c-.3.7-.7,1.5-1.1,2.3l-2.2,3.5h3.3,0Z"/>
      <path class="st3" d="M820.6,348h-4.6l-1,3.6h-2.8l4.5-14.1h3.3l4.5,14.1h-2.9l-1-3.6ZM819.9,345.8l-.4-1.5c-.4-1.5-.8-3.1-1.2-4.6h0c-.4,1.5-.8,3.1-1.2,4.6l-.4,1.5h3.3,0Z"/>
      <path class="st3" d="M826.1,337.5h2.8v14.1h-2.8v-14.1Z"/>
    </g>
  </g>
  <g>
    <circle class="st0" cx="689.2" cy="533.8" r="85.6"/>
    <g>
      <path class="st3" d="M659,526.9h3.9c4.3,0,7,2.2,7,7s-2.7,7.1-6.8,7.1h-4v-14.1h-.1ZM662.7,538.7c2.6,0,4.3-1.4,4.3-4.8s-1.6-4.7-4.3-4.7h-.9v9.6h.9Z"/>
      <path class="st3" d="M672.5,526.9h2.8v11.7h5.7v2.4h-8.5v-14.1h0Z"/>
      <path class="st3" d="M699.9,534.7v.8c0,4.2-.2,5.9-.6,6.4-.3.4-.6.6-1.1.7h-1.6c0-.6-.2-1.3-.5-1.8h1.1c.2,0,.3,0,.5-.2.2-.3.3-1.3.3-4.2h-.9c-.3,2.6-1.1,4.6-2.7,6.2-.2-.4-.8-1.1-1.2-1.4,0,.4-.2.6-.3.7-.3.4-.6.6-1,.6h-1.5c0-.6-.2-1.3-.5-1.7h1c.2,0,.3,0,.4-.2.2-.3.3-1.4.4-4.3h-.9c-.3,2.7-1,4.7-2.6,6.2-.2-.4-.8-1.1-1.2-1.4,1.2-1.2,1.8-2.8,2-4.8h-1.4v-1.7h1.5v-1.7h.6c-.2-.5-.7-1.1-1.1-1.5v.2h-1.9v10.9h-2.1v-10.9h-2.1v-2.1h2.1v-4.7h2.1v4.7h1.9v1.8c2-.7,3-1.6,3.6-2.9h-2.8v-1.8h3.3c0-.6.2-1.2.2-1.9h2.1c0,.7,0,1.3-.2,1.9h4.5v.8c-.3,2.7-.5,4-1,4.5s-.8.5-1.3.6h-2.1c0-.6-.2-1.4-.6-1.9h1.8q.4,0,.6-.2c.2-.2.4-.8.5-2.1h-2.8c-.7,2-2,3.4-4.6,4.4h1.3v1.7h2.5v.7c0,3,0,4.7-.3,5.6,1.3-1.1,1.8-2.7,2-4.7h-1.3v-1.7h1.4v-1.8h2v1.8h2.6v.4Z"/>
      <path class="st3" d="M705.8,531.3c-1,.7-2.1,1.4-3.2,1.9-.3-.6-.9-1.4-1.3-1.9,3.2-1.4,6.2-4.1,7.7-6.4h2.4c2,2.8,5,5,8,6-.6.6-1.1,1.4-1.5,2.1-1-.5-2.1-1.1-3.2-1.8v1.5h-8.9v-1.4h0ZM702.5,534.2h15.7v2.1h-8.5c-.6,1.1-1.2,2.3-1.7,3.4,1.8,0,3.8,0,5.7-.2-.6-.7-1.2-1.4-1.9-1.9l2-1c1.7,1.5,3.5,3.5,4.4,4.9l-2.1,1.3c-.2-.4-.5-.8-.8-1.2-4.5.2-9.2.4-12.4.6l-.3-2.2h2.9c.5-1.2,1-2.4,1.4-3.5h-4.4v-2.3ZM713.9,530.6c-1.5-1.1-2.8-2.3-3.6-3.5-.8,1.2-2,2.4-3.5,3.5h7.1Z"/>
    </g>
  </g>
  <g>
    <circle class="st4" cx="493.4" cy="608.5" r="85.6"/>
    <g>
      <path class="st3" d="M477.1,588.3h-4.6l-1,3.6h-2.8l4.5-14.1h3.3l4.5,14.1h-2.9l-1-3.6ZM476.5,586.1l-.4-1.5c-.4-1.5-.8-3.1-1.2-4.6h0c-.4,1.5-.8,3.1-1.2,4.6l-.4,1.5h3.3,0Z"/>
      <path class="st3" d="M482.7,577.9h2.8v14.1h-2.8v-14.1Z"/>
      <path class="st3" d="M501.4,595.3c-.5.2-1.3.4-2.4.4-2.9,0-4.9-1.5-5.8-3.7-3-.6-5-3.2-5-7.2s2.6-7.2,6.3-7.2,6.3,2.7,6.3,7.2-1.8,6.4-4.6,7.1c.6,1.1,1.9,1.5,3.2,1.5s1.1,0,1.5-.2l.5,2.1h0ZM494.5,589.9c2.1,0,3.4-1.9,3.4-5.1s-1.3-4.8-3.4-4.8-3.4,1.8-3.4,4.8,1.3,5.1,3.4,5.1Z"/>
      <path class="st3" d="M503.5,577.9h3.1l2.4,6.6c.3.9.6,1.8.9,2.7h0c.3-.9.6-1.8.9-2.7l2.3-6.6h3.1v14.1h-2.6v-5.9c0-1.3.2-3.3.3-4.6h0l-1.1,3.3-2.2,5.9h-1.6l-2.2-5.9-1.1-3.3h0c.1,1.3.4,3.3.4,4.6v5.9h-2.5v-14.1h0Z"/>
      <path class="st3" d="M460.4,601.6c-.2,1.3-.6,2.6-1,3.8h3.6v8.7h-3.6v1.4h-1.9v-5.9c-.2.4-.5.7-.8,1,0-.6-.5-2.1-.8-2.7,1.2-1.6,1.9-3.9,2.4-6.3h-2v-2.1h6.9v2.1h-2.8ZM461,607.4h-1.7v4.7h1.7v-4.7ZM473.8,608.5h-2v7.9h-2.1v-7.9h-2.2c-.1,2.8-.7,6-2.6,8-.4-.4-1.2-1-1.7-1.3,1.6-1.8,2.1-4.4,2.2-6.7h-1.8v-2.1h1.8v-4.7h-1.3v-2.1h9.3v2.1h-1.6v4.7h2v2.1h0ZM469.6,606.4v-4.7h-2.1v4.7h2.1Z"/>
      <path class="st3" d="M490.2,614c.4,0,.5-.3.6-2.7.5.4,1.5.8,2.1,1-.2,3.1-.8,4-2.4,4h-1.7c-1.9,0-2.4-.6-2.4-2.9v-2.7h-2.7c-.5,2.2-2.1,4.5-7,5.8-.3-.6-1-1.4-1.5-1.9,4-1,5.5-2.5,6.1-3.9h-4.7v-2.1h5v-2.1h2.3v2.1h4.9v4.7c0,.6,0,.7.5.7h1,0ZM482.8,602.3c-.4,2.9-1.5,4.7-6.2,5.7-.2-.6-.7-1.4-1.2-1.8,3.9-.6,4.7-1.8,5-3.8h-2.4v1.9h-2.3v-3.9h7v-1.6h2.3v1.6h7.1v3.7h-2.4v-1.7h-2.7v2.5c0,.5,0,.6.6.6h1.5c.5,0,.6-.2.6-1.3.4.3,1.3.6,2,.8-.2,2-.8,2.5-2.3,2.5h-2.1c-2.1,0-2.5-.6-2.5-2.5v-2.6h-2.1.1Z"/>
      <path class="st3" d="M497.1,606.1v10.3h-2.2v-17h7.3v6.7h-5.1,0ZM497.1,601v1h3v-1h-3ZM500.1,604.5v-1h-3v1h3ZM505.7,612.1v3.9h-2v-3.9h-1.8c-.2,1.3-.8,3.2-2.4,4.3-.3-.4-1-1-1.4-1.3,1.2-.8,1.7-2,1.9-3h-1.9v-1.8h2v-1.4h-1.7v-1.8h9.2v1.8h-1.8v1.4h2.1v1.8h-2.2ZM503.7,610.3v-1.4h-1.8v1.4h1.8ZM510.9,613.7c0,1.2-.2,1.8-.9,2.1-.7.4-1.7.4-3.1.4,0-.6-.4-1.7-.7-2.2h2.1c.3,0,.4,0,.4-.4v-7.6h-5.2v-6.8h7.4v14.4h0ZM505.6,601v1h3.1v-1h-3.1ZM508.7,604.5v-1.1h-3.1v1.1h3.1Z"/>
      <path class="st3" d="M525.3,607.2v2.1h4v2.1h-4v2.1c0,.7,0,.8.6.8h1.5c.5,0,.6-.4.7-2.2.5.4,1.4.8,2,.9-.2,2.5-.8,3.3-2.5,3.3h-2.1c-2.1,0-2.6-.7-2.6-2.8v-2.1h-2.5c-.4,2-1.7,3.9-5.2,5.1-.3-.5-1-1.4-1.4-1.8,2.6-.8,3.8-2,4.2-3.2h-3.8v-2.1h4.1v-2.1h-1.6v-.6c-.8.6-1.7,1.1-2.5,1.5-.3-.5-.9-1.3-1.4-1.7,1.1-.5,2.2-1.1,3.2-2-.5-.5-1.3-1.1-1.9-1.6l1.4-1.2c.6.4,1.3,1,1.8,1.4.5-.5.9-1.1,1.2-1.7h-3.9v-1.9h5.4l1.5.6c-.7,2-1.7,3.7-3.1,5.1h6.9c-1.5-1.6-2.6-3.6-3.5-5.8l2-.6c.3.7.6,1.4,1,2,.6-.6,1.3-1.2,1.7-1.8l1.7,1.2c-.8.7-1.7,1.4-2.4,2,.3.3.6.7.9,1,.8-.6,1.6-1.4,2.1-2.1l1.7,1.2c-.8.7-1.7,1.5-2.5,2.1.9.7,1.9,1.3,2.9,1.7-.5.5-1.2,1.3-1.6,2-.8-.4-1.6-.9-2.3-1.4v.6h-1.7ZM523,607.2h-2.3v2.1h2.3v-2.1Z"/>
      <path class="st3" d="M467,630.3c0-4.1,1.7-7.1,3.7-9.1l1.8.8c-1.9,2.1-3.4,4.7-3.4,8.3s1.5,6.3,3.4,8.3l-1.8.8c-2.1-2-3.7-5.1-3.7-9.1Z"/>
      <path class="st3" d="M480.8,633.9h-4.6l-1,3.6h-2.8l4.5-14.1h3.3l4.5,14.1h-2.9l-1-3.6ZM480.2,631.7l-.4-1.5c-.4-1.5-.8-3.1-1.2-4.6h0c-.4,1.5-.8,3.1-1.2,4.6l-.4,1.5h3.3,0Z"/>
      <path class="st3" d="M486.4,623.5h2.8v14.1h-2.8v-14.1Z"/>
      <path class="st3" d="M491.8,635.7l1.6-1.9c1,.9,2.3,1.6,3.6,1.6s2.2-.6,2.2-1.6-.9-1.4-2.1-1.9l-1.9-.8c-1.4-.6-2.8-1.7-2.8-3.8s2-4.1,4.9-4.1,3.3.6,4.4,1.8l-1.4,1.8c-.9-.7-1.8-1.2-3-1.2s-2,.6-2,1.5,1,1.4,2.2,1.8l1.8.8c1.7.7,2.8,1.8,2.8,3.8s-1.9,4.3-5.2,4.3-3.8-.7-5.1-2.1h0Z"/>
      <path class="st3" d="M506.9,625.8h-4v-2.3h10.8v2.3h-4v11.7h-2.8v-11.7Z"/>
      <path class="st3" d="M519.8,630.3c0,4.1-1.7,7.1-3.7,9.1l-1.8-.8c1.9-2.1,3.4-4.7,3.4-8.3s-1.5-6.3-3.4-8.3l1.8-.8c2.1,2,3.7,5.1,3.7,9.1Z"/>
    </g>
  </g>
  <g>
    <circle class="st0" cx="297" cy="533.8" r="85.6"/>
    <g>
      <path class="st3" d="M257.4,537.8h-4.6l-1,3.6h-2.8l4.5-14.1h3.3l4.5,14.1h-2.9l-1-3.6ZM256.8,535.6l-.4-1.5c-.4-1.5-.8-3.1-1.2-4.6h0c-.4,1.5-.8,3.1-1.2,4.6l-.4,1.5h3.3-.1Z"/>
      <path class="st3" d="M263,527.3h2.8v14.1h-2.8v-14.1Z"/>
      <path class="st3" d="M280.2,537.8h-4.6l-1,3.6h-2.8l4.5-14.1h3.3l4.5,14.1h-2.9l-1-3.6ZM279.6,535.6l-.4-1.5c-.4-1.5-.8-3.1-1.2-4.6h0c-.4,1.5-.8,3.1-1.2,4.6l-.4,1.5h3.3-.1Z"/>
      <path class="st3" d="M285.5,538.4v-12.2h2.8v12.3c0,.6.3.8.6.8h.4l.3,2.1c-.3,0-.8.2-1.4.2-1.9,0-2.6-1.3-2.6-3.2h-.1Z"/>
      <path class="st3" d="M291.5,538.4v-12.2h2.8v12.3c0,.6.3.8.6.8h.4l.3,2.1c-.3,0-.8.2-1.4.2-1.9,0-2.6-1.3-2.6-3.2h-.1Z"/>
      <path class="st3" d="M297.2,527.5c0-.9.7-1.5,1.7-1.5s1.7.6,1.7,1.5-.7,1.5-1.7,1.5-1.7-.6-1.7-1.5ZM297.5,530.7h2.8v10.6h-2.8v-10.6Z"/>
      <path class="st3" d="M302.8,538.5c0-2.3,1.8-3.5,6.1-3.9,0-1-.5-1.8-1.8-1.8s-1.9.4-2.9,1l-1-1.8c1.3-.8,2.8-1.4,4.4-1.4,2.7,0,4.1,1.6,4.1,4.7v6.2h-2.3l-.2-1.1h0c-.9.8-2,1.4-3.2,1.4-1.9,0-3.2-1.3-3.2-3.2h0ZM308.9,538.4v-2.1c-2.6.3-3.5,1-3.5,2s.6,1.2,1.4,1.2,1.4-.4,2.1-1h0Z"/>
      <path class="st3" d="M314.5,530.7h2.3l.2,1.4h0c.9-.9,2-1.7,3.5-1.7,2.3,0,3.3,1.6,3.3,4.3v6.6h-2.8v-6.3c0-1.6-.5-2.2-1.5-2.2s-1.4.4-2.2,1.2v7.3h-2.8v-10.6Z"/>
      <path class="st3" d="M326,536.1c0-3.6,2.5-5.6,5.4-5.6s2.3.5,3.1,1.2l-1.3,1.8c-.5-.5-1-.7-1.6-.7-1.6,0-2.7,1.3-2.7,3.3s1.1,3.3,2.6,3.3,1.5-.4,2.1-.9l1.1,1.8c-1,.9-2.3,1.3-3.5,1.3-2.9,0-5.2-2.1-5.2-5.6h0Z"/>
      <path class="st3" d="M335.5,536.1c0-3.5,2.4-5.6,5-5.6s4.4,2.1,4.4,5.1,0,1-.1,1.3h-6.6c.2,1.7,1.4,2.7,2.9,2.7s1.6-.3,2.4-.7l1,1.7c-1,.7-2.4,1.2-3.7,1.2-3,0-5.3-2.1-5.3-5.6h0ZM342.5,535c0-1.4-.6-2.4-2-2.4s-2.1.8-2.3,2.4h4.3Z"/>
    </g>
  </g>
  <g>
    <circle class="st0" cx="184.6" cy="346.3" r="85.6"/>
    <g>
      <path class="st3" d="M157.6,338.2h-4.6l-1,3.6h-2.8l4.5-14.1h3.3l4.5,14.1h-2.9l-1-3.6ZM157,336l-.4-1.5c-.4-1.5-.8-3.1-1.2-4.6h0c-.4,1.5-.8,3.1-1.2,4.6l-.4,1.5h3.3,0Z"/>
      <path class="st3" d="M163.2,327.8h2.8v14.1h-2.8v-14.1Z"/>
      <path class="st3" d="M176.6,330.1h-4v-2.3h10.8v2.3h-4v11.7h-2.8v-11.7Z"/>
      <path class="st3" d="M184.5,331.2h2.3l.2,1.9h0c.8-1.4,1.9-2.1,3-2.1s.9,0,1.3.2l-.5,2.4c-.4-.1-.7-.2-1.1-.2-.8,0-1.8.6-2.5,2.1v6.3h-2.8v-10.6h0Z"/>
      <path class="st3" d="M192.6,337.8v-6.6h2.8v6.3c0,1.7.5,2.2,1.5,2.2s1.4-.4,2.2-1.3v-7.2h2.8v10.6h-2.3l-.2-1.5h0c-.9,1.1-1.9,1.8-3.4,1.8-2.3,0-3.3-1.6-3.3-4.3h0Z"/>
      <path class="st3" d="M203.9,340.6l1.3-1.7c1,.7,1.9,1.2,2.8,1.2s1.5-.5,1.5-1.1-1.1-1.2-2.2-1.6c-1.3-.5-2.9-1.3-2.9-3.1s1.6-3.3,4-3.3,2.7.6,3.6,1.3l-1.3,1.7c-.8-.5-1.5-.9-2.3-.9s-1.4.4-1.4,1,1,1.1,2.2,1.5c1.4.5,3,1.2,3,3.2s-1.5,3.4-4.2,3.4-3-.6-4-1.5h0Z"/>
      <path class="st3" d="M214.2,338.1v-4.7h-1.5v-2.1h1.6c0-.1.3-3,.3-3h2.3v2.8h2.6v2.2h-2.6v4.7c0,1.2.5,1.8,1.4,1.8s.8-.1,1-.2l.5,2c-.6.2-1.3.4-2.2.4-2.5,0-3.5-1.6-3.5-4h0Z"/>
      <path class="st3" d="M130.7,357.6c0-4.6,3-7.4,6.5-7.4s3.2.9,4.1,1.8l-1.5,1.8c-.7-.7-1.5-1.2-2.6-1.2-2.1,0-3.7,1.8-3.7,4.8s1.4,4.9,3.7,4.9,2.1-.6,2.9-1.4l1.5,1.7c-1.2,1.3-2.7,2.1-4.5,2.1-3.6,0-6.4-2.5-6.4-7.2h0Z"/>
      <path class="st3" d="M143,359.3c0-3.6,2.5-5.6,5.1-5.6s5.1,2.1,5.1,5.6-2.5,5.6-5.1,5.6-5.1-2.1-5.1-5.6ZM150.3,359.3c0-2-.8-3.3-2.3-3.3s-2.3,1.3-2.3,3.3.8,3.3,2.3,3.3,2.3-1.3,2.3-3.3Z"/>
      <path class="st3" d="M155.5,354h2.3l.2,1.4h0c.9-.9,2-1.7,3.5-1.7,2.3,0,3.3,1.6,3.3,4.3v6.6h-2.8v-6.3c0-1.6-.5-2.2-1.5-2.2s-1.4.4-2.2,1.2v7.3h-2.8v-10.6h0Z"/>
      <path class="st3" d="M166.7,363.4l1.3-1.7c1,.7,1.9,1.2,2.8,1.2s1.5-.5,1.5-1.1-1.1-1.2-2.2-1.6c-1.3-.5-2.9-1.3-2.9-3.1s1.6-3.3,4-3.3,2.7.6,3.6,1.3l-1.3,1.7c-.8-.5-1.5-.9-2.3-.9s-1.4.4-1.4,1,1,1.1,2.2,1.5c1.4.5,3,1.2,3,3.2s-1.5,3.4-4.2,3.4-3-.6-4-1.5h0Z"/>
      <path class="st3" d="M176.4,359.3c0-3.6,2.5-5.6,5.1-5.6s5.1,2.1,5.1,5.6-2.5,5.6-5.1,5.6-5.1-2.1-5.1-5.6ZM183.8,359.3c0-2-.8-3.3-2.3-3.3s-2.3,1.3-2.3,3.3.8,3.3,2.3,3.3,2.3-1.3,2.3-3.3Z"/>
      <path class="st3" d="M189,354h2.3l.2,1.9h0c.8-1.4,1.9-2.1,3-2.1s.9,0,1.3.2l-.5,2.4c-.4-.1-.7-.2-1.1-.2-.8,0-1.8.6-2.5,2.1v6.3h-2.8v-10.6h0Z"/>
      <path class="st3" d="M197.7,360.9v-4.7h-1.5v-2.1h1.6c0-.1.3-3,.3-3h2.3v2.8h2.6v2.2h-2.6v4.7c0,1.2.5,1.8,1.4,1.8s.8-.1,1-.2l.5,2c-.6.2-1.3.4-2.2.4-2.5,0-3.5-1.6-3.5-4h0Z"/>
      <path class="st3" d="M205,350.7c0-.9.7-1.5,1.7-1.5s1.7.6,1.7,1.5-.7,1.5-1.7,1.5-1.7-.6-1.7-1.5ZM205.3,354h2.8v10.6h-2.8v-10.6Z"/>
      <path class="st3" d="M210.9,360.6v-6.6h2.8v6.3c0,1.7.5,2.2,1.5,2.2s1.4-.4,2.2-1.3v-7.2h2.8v10.6h-2.3l-.2-1.5h0c-.9,1.1-1.9,1.8-3.4,1.8-2.3,0-3.3-1.6-3.3-4.3h0Z"/>
      <path class="st3" d="M223.1,354h2.3l.2,1.4h0c.9-.9,1.9-1.7,3.3-1.7s2.4.7,2.9,1.9c1-1,2-1.9,3.4-1.9,2.3,0,3.3,1.6,3.3,4.3v6.6h-2.8v-6.3c0-1.6-.5-2.2-1.5-2.2s-1.3.4-2.1,1.2v7.3h-2.8v-6.3c0-1.6-.5-2.2-1.5-2.2s-1.3.4-2.1,1.2v7.3h-2.8v-10.6h.2Z"/>
    </g>
  </g>
  <g>
    <circle class="st0" cx="297" cy="165.6" r="85.6"/>
    <g>
      <path class="st3" d="M265.4,154.9v-7.7h2.8v8c0,2.9,1,3.9,2.7,3.9s2.7-1,2.7-3.9v-8h2.7v7.7c0,4.7-2,6.6-5.4,6.6s-5.5-1.9-5.5-6.6Z"/>
      <path class="st3" d="M278.6,159.5l1.6-1.9c1,.9,2.3,1.6,3.6,1.6s2.2-.6,2.2-1.6-.9-1.4-2.1-1.9l-1.9-.8c-1.4-.6-2.8-1.7-2.8-3.8s2-4.1,4.9-4.1,3.3.6,4.4,1.8l-1.4,1.8c-.9-.7-1.8-1.2-3-1.2s-2,.6-2,1.5,1,1.4,2.2,1.8l1.8.8c1.7.7,2.8,1.8,2.8,3.8s-1.9,4.3-5.2,4.3-3.8-.7-5.1-2.1h0Z"/>
      <path class="st3" d="M302.2,157.6h-4.6l-1,3.6h-2.8l4.5-14.1h3.3l4.5,14.1h-2.9l-1-3.6ZM301.6,155.5l-.4-1.5c-.4-1.5-.8-3.1-1.2-4.6h0c-.4,1.5-.8,3.1-1.2,4.6l-.4,1.5h3.3-.1Z"/>
      <path class="st3" d="M307.8,147.2h2.8v14.1h-2.8v-14.1Z"/>
      <path class="st3" d="M313.2,159.5l1.6-1.9c1,.9,2.3,1.6,3.6,1.6s2.2-.6,2.2-1.6-.9-1.4-2.1-1.9l-1.9-.8c-1.4-.6-2.8-1.7-2.8-3.8s2-4.1,4.9-4.1,3.3.6,4.4,1.8l-1.4,1.8c-.9-.7-1.8-1.2-3-1.2s-2,.6-2,1.5,1,1.4,2.2,1.8l1.8.8c1.7.7,2.8,1.8,2.8,3.8s-1.9,4.3-5.2,4.3-3.8-.7-5.1-2.1h0Z"/>
      <path class="st3" d="M326,147.2h2.8v14.1h-2.8v-14.1Z"/>
      <path class="st3" d="M243,177.1c0-4.6,3-7.4,6.5-7.4s3.2.9,4.1,1.8l-1.5,1.8c-.7-.7-1.5-1.2-2.6-1.2-2.1,0-3.7,1.8-3.7,4.8s1.4,4.9,3.7,4.9,2.1-.6,2.9-1.4l1.5,1.7c-1.2,1.3-2.7,2.1-4.5,2.1-3.6,0-6.4-2.5-6.4-7.2h0Z"/>
      <path class="st3" d="M255.3,178.7c0-3.6,2.5-5.6,5.1-5.6s5.1,2.1,5.1,5.6-2.5,5.6-5.1,5.6-5.1-2.1-5.1-5.6ZM262.7,178.7c0-2-.8-3.3-2.3-3.3s-2.3,1.3-2.3,3.3.8,3.3,2.3,3.3,2.3-1.3,2.3-3.3Z"/>
      <path class="st3" d="M267.9,173.4h2.3l.2,1.4h0c.9-.9,2-1.7,3.5-1.7,2.3,0,3.3,1.6,3.3,4.3v6.6h-2.8v-6.3c0-1.6-.5-2.2-1.5-2.2s-1.4.4-2.2,1.2v7.3h-2.8v-10.6Z"/>
      <path class="st3" d="M279,182.8l1.3-1.7c1,.7,1.9,1.2,2.8,1.2s1.5-.5,1.5-1.1-1.1-1.2-2.2-1.6c-1.3-.5-2.9-1.3-2.9-3.1s1.6-3.3,4-3.3,2.7.6,3.6,1.3l-1.3,1.7c-.8-.5-1.5-.9-2.3-.9s-1.4.4-1.4,1,1,1.1,2.2,1.5c1.4.5,3,1.2,3,3.2s-1.5,3.4-4.2,3.4-3-.6-4-1.5h-.1Z"/>
      <path class="st3" d="M288.8,178.7c0-3.6,2.5-5.6,5.1-5.6s5.1,2.1,5.1,5.6-2.5,5.6-5.1,5.6-5.1-2.1-5.1-5.6ZM296.1,178.7c0-2-.8-3.3-2.3-3.3s-2.3,1.3-2.3,3.3.8,3.3,2.3,3.3,2.3-1.3,2.3-3.3Z"/>
      <path class="st3" d="M301.3,173.4h2.3l.2,1.9h0c.8-1.4,1.9-2.1,3-2.1s.9,0,1.3.2l-.5,2.4c-.4-.1-.7-.2-1.1-.2-.8,0-1.8.6-2.5,2.1v6.3h-2.8v-10.6h.1Z"/>
      <path class="st3" d="M310,180.3v-4.7h-1.5v-2.1h1.6c0-.1.3-3,.3-3h2.3v2.8h2.6v2.2h-2.6v4.7c0,1.2.5,1.8,1.4,1.8s.8-.1,1-.2l.5,2c-.6.2-1.3.4-2.2.4-2.5,0-3.5-1.6-3.5-4h0Z"/>
      <path class="st3" d="M317.3,170.2c0-.9.7-1.5,1.7-1.5s1.7.6,1.7,1.5-.7,1.5-1.7,1.5-1.7-.6-1.7-1.5ZM317.6,173.4h2.8v10.6h-2.8v-10.6Z"/>
      <path class="st3" d="M323.3,180.1v-6.6h2.8v6.3c0,1.7.5,2.2,1.5,2.2s1.4-.4,2.2-1.3v-7.2h2.8v10.6h-2.3l-.2-1.5h0c-.9,1.1-1.9,1.8-3.4,1.8-2.3,0-3.3-1.6-3.3-4.3h-.1Z"/>
      <path class="st3" d="M335.5,173.4h2.3l.2,1.4h0c.9-.9,1.9-1.7,3.3-1.7s2.4.7,2.9,1.9c1-1,2-1.9,3.4-1.9,2.3,0,3.3,1.6,3.3,4.3v6.6h-2.8v-6.3c0-1.6-.5-2.2-1.5-2.2s-1.3.4-2.1,1.2v7.3h-2.8v-6.3c0-1.6-.5-2.2-1.5-2.2s-1.3.4-2.1,1.2v7.3h-2.8v-10.6h.2Z"/>
    </g>
  </g>
  <g class="st2">
    <g class="st2">
      <path d="M477.6,191c-.7,0-1.2,0-1.5-.2-1.2.5-2.4,1-3.7,1.3-.1-.3-.5-.9-.8-1.1,1.4-.3,2.7-.7,3.9-1.3v-3h1.3v2.4c1.7-.9,3.2-2,4.2-3.3l1.2.5c-1.1,1.5-2.6,2.7-4.3,3.6h2.5c.6,0,.8-.2.8-1.3.3.2.8.4,1.1.4-.2,1.6-.5,2-1.8,2h-2.8ZM474.8,187.2c-.4,1.1-1,2.2-2,2.9l-1.1-.7c1-.6,1.6-1.6,2-2.6l1.2.4ZM473.5,186.7h-1.4v-3h5.6v-1.2h1.4v1.2h5.7v3h-1.4v-1.7h-9.9v1.7ZM482.3,192h1.4v4.3h-1.4v-.6h-7.6v.6h-1.4v-4.4h1.4v2.5h3v-3.3h1.4v3.3h3.2v-2.5ZM478.7,187.4c-.6-.5-1.6-1.2-2.6-1.6l.7-.8c.9.4,2,1,2.6,1.5l-.7.9ZM482.8,186.9c1,.8,2.1,1.9,2.6,2.8l-1.1.8c-.5-.8-1.6-2-2.5-2.8l1-.7Z"/>
      <path d="M489.8,193.2c.6,1,1.8,1.5,3.5,1.6,1.7,0,5.2,0,7.1-.1-.2.3-.4,1-.5,1.4-1.7,0-4.9.1-6.6,0-1.9,0-3.1-.6-4.1-1.7-.6.6-1.3,1.2-2,1.9l-.7-1.4c.6-.4,1.3-1,2-1.5v-3.6h-1.8v-1.3h3.1v4.8ZM489.1,186.2c-.4-.8-1.4-1.8-2.3-2.5l1.1-.8c.9.7,1.9,1.7,2.4,2.4l-1.1.9ZM494.5,192.7h-4.1v-1.1h4.1v-.9h-3.3v-4.9h3.3v-.9h-3.9v-1.2h3.9v-1.2h1.4v1.2h4.1v1.2h-4.1v.9h3.4v4.9h-3.4v.9h4.3v1.1h-4.3v1.6h-1.4v-1.6ZM492.5,187.7h2v-1h-2v1ZM494.5,189.7v-1h-2v1h2ZM495.8,186.8v1h2v-1h-2ZM497.8,188.7h-2v1h2v-1Z"/>
      <path d="M506.3,190c-.5.2-1.1.4-1.6.5v4.2c0,.7-.1,1.1-.5,1.3-.4.2-1,.3-2,.3,0-.3-.2-.9-.4-1.3.6,0,1.2,0,1.3,0,.2,0,.3,0,.3-.3v-3.8l-1.6.5-.3-1.4c.5-.1,1.2-.3,2-.5v-2.8h-1.7v-1.3h1.7v-2.9h1.3v2.9h1.5v.2c.8-.8,1.5-2,1.9-3.2l1.2.3c-.2.4-.3.9-.5,1.3h2c.2-.5.5-1.1.6-1.5l1.3.3c-.2.4-.4.8-.7,1.2h2.9v1h-3.1v.8h2.7v.9h-2.7v.8h2.7v.9h-2.7v.8h3.3v1h-7.8v-3.9c-.2.3-.5.5-.7.8,0-.1-.2-.3-.4-.4h0c0,.1-1.5.1-1.5.1v2.5c.5-.1,1-.3,1.4-.4l.2,1.3ZM515.2,192.2s0,.3,0,.5c-.2,1.9-.4,2.8-.8,3.2-.3.3-.6.4-1,.4-.4,0-1.1,0-1.8,0,0-.4-.2-.8-.4-1.2.7,0,1.4,0,1.7,0s.4,0,.5-.1c.2-.2.3-.7.5-1.8h-1.6c0,.2-.1.5-.2.7l-1.2-.2c.1-.5.3-1.1.4-1.6h-1.6c-.3,2.2-1.3,3.5-3.2,4.3-.2-.3-.6-.8-.9-1,1.6-.6,2.5-1.6,2.7-3.3h-1.9v-1.1h6.4c0,.4-.2.8-.3,1.2h2.7ZM510.5,185.1h-2.1v.8h2.1v-.8ZM510.5,186.7h-2.1v.8h2.1v-.8ZM510.5,188.4h-2.1v.8h2.1v-.8Z"/>
    </g>
  </g>
  <g class="st2">
    <g class="st2">
      <path d="M617,257.1v13.1h-1.5v-.7h-9.5v.7h-1.4v-13.1h12.4ZM615.5,268.2v-9.8h-9.5v9.8h9.5ZM614.8,265.8v1.2h-8v-1.2h3.3v-2.2h-2.7v-1.2h2.7v-1.8h-3v-1.2h7.5v1.2h-3.1v1.8h2.8v1.2h-2.8v2.2h2.1c-.3-.5-.8-1.1-1.3-1.6l.9-.5c.5.5,1.1,1.1,1.4,1.6l-.9.6h1.3Z"/>
      <path d="M632.5,257.9c-.5,1.3-1.1,2.6-1.8,3.5.6.7,1.3,1.3,2.1,1.7-.3.3-.6.7-.8,1-.7-.4-1.3-.8-1.8-1.3v.8h-4.9v-.6c-.5.5-1.1.9-1.6,1.3-.2-.3-.5-.7-.7-.9.2.6.2,1.1.2,1.6,0,.9-.2,1.5-.5,1.8-.2.2-.4.3-.7.3-.2,0-.5,0-.8,0,0-.3,0-.8-.3-1.2.2,0,.4,0,.6,0s.3,0,.3-.1c.2-.2.2-.6.2-1,0-.8-.1-1.8-.9-3,.3-1,.6-2.4.8-3.4h-1.2v11.9h-1.2v-13.1h3s.8.4.8.4c-.2.8-.5,1.8-.7,2.7,1-.9,1.8-2.3,2.2-3.7l1.1.2c-.1.3-.2.6-.3.9h1.5s.6.2.6.2c0-.3-.2-.6-.2-.9l1.1-.2c.3,1.4.8,2.7,1.4,3.8.4-.6.7-1.2,1-1.9h-1.7v-1h2.5s.8.4.8.4ZM624.8,261.7c-.3-.3-.7-.7-1.2-1-.1.1-.3.3-.4.4-.1-.1-.5-.4-.7-.6-.1.4-.2.7-.3,1.1.4.6.6,1.1.8,1.6.7-.4,1.3-.9,1.8-1.5ZM625.8,266.8c-.4,1-1.2,2.2-1.9,2.9-.2-.2-.8-.5-1.1-.7.7-.6,1.4-1.6,1.8-2.5l1.2.3ZM628.4,265.9v2.9c0,.6-.1,1-.6,1.2-.4.2-1.1.2-2,.2,0-.4-.3-.9-.4-1.2.7,0,1.3,0,1.5,0s.2,0,.2-.2v-2.9h-3.2v-1.2h7.8v1.2h-3.2ZM625.7,260.4c-.3-.3-.8-.6-1.2-.8-.1.2-.3.4-.4.6.4.3.9.6,1.2.9.1-.2.3-.4.4-.6ZM625.2,258.6c0,.1-.1.3-.2.4.4.2.8.5,1.1.7.2-.3.3-.7.4-1.1h-1.3ZM630,262.5c-1-1.1-1.7-2.6-2.2-4.3-.4,1.7-1.2,3.1-2.1,4.3h4.3ZM630.5,266.4c.7.8,1.5,1.9,1.9,2.6l-1.1.6c-.3-.7-1.1-1.9-1.8-2.7l1.1-.6Z"/>
      <path d="M638.3,265.4c-.2-.5-.6-1.3-1-2v6.8h-1.3v-6.3c-.5,1.4-1,2.7-1.6,3.6-.1-.4-.5-.9-.7-1.2.9-1.2,1.7-3.5,2.1-5.4h-1.8v-1.3h2v-3.2h1.3v3.2h1.6v1.3h-1.6v.9c.4.6,1.5,2.2,1.8,2.7l-.8,1ZM641.6,267.3c-.6.9-1.5,1.8-2.4,2.4-.2-.3-.6-.6-.9-.9.8-.5,1.7-1.4,2.2-2.1l1.1.6ZM643.9,266.5v2.4c0,.6,0,.9-.5,1.1-.4.2-1,.2-1.9.2,0-.3-.2-.8-.4-1.1.6,0,1.1,0,1.3,0,.2,0,.2,0,.2-.2v-2.4h-3.7v-1.1h8.7v1.1h-3.7ZM641.6,258.2h-2.6v-1.1h8.6v1.1h-2.7v.9h2.3v3.6h-7.8v-3.6h2.1v-.9ZM639.9,264.5v-1.1h7v1.1h-7ZM640.6,261.7h1.1v-1.6h-1.1v1.6ZM643.9,258.2h-1.2v.9h1.2v-.9ZM642.7,260.1v1.6h1.2v-1.6h-1.2ZM645.7,266.8c.7.7,1.6,1.6,2.1,2.2l-1,.7c-.4-.6-1.3-1.6-2-2.3l1-.7ZM646.1,260.1h-1.2v1.6h1.2v-1.6Z"/>
      <path d="M651.2,261c-.5-.4-1.6-.9-2.4-1.2l.7-.9c.8.2,1.8.7,2.4,1l-.7,1.1ZM662.5,267.4h-6.1v2.8h-1.4v-2.8h-5.9v-1.2h5.9v-1.1h1.4v1.1h6.1v1.2ZM649.3,264.4c.8-.7,2-1.9,3-3l.8.9c-.8,1-1.8,2.2-2.7,3.2l-1-1.1ZM652.3,258.7c-.5-.4-1.5-.9-2.3-1.2l.7-1c.8.3,1.8.8,2.4,1.1l-.8,1.1ZM653.8,260.3c-.3.3-.6.6-.8.8-.2-.3-.8-.8-1.1-1,1.2-.9,2.4-2.3,3-3.8l1.3.4c-.2.4-.4.8-.7,1.3h1.8c.3-.5.6-1.1.7-1.6l1.5.3c-.3.5-.6.9-.8,1.3h3.1v1.1h-3.2v.9h2.8v1h-2.8v.9h2.8v1h-2.8v.9h3.6v1.1h-8.4v-4.7ZM657.3,259.1h-2.1v.9h2.1v-.9ZM657.3,261h-2.1v.9h2.1v-.9ZM657.3,262.9h-2.1v.9h2.1v-.9Z"/>
      <path d="M669.2,257.1c-.4,1-1,2.1-1.6,3.1v10h-1.4v-8c-.6.7-1.2,1.4-1.7,1.9-.1-.4-.6-1.1-.8-1.5,1.7-1.4,3.3-3.6,4.2-5.9l1.4.5ZM675.5,268.7c.8,0,.9-.5,1-2.7.3.3.9.5,1.3.6-.2,2.5-.6,3.4-2.2,3.4h-2.8c-1.7,0-2.2-.5-2.2-2.3v-10.9h1.4v5.4c1.6-.9,3.1-2,4.2-2.9l1,1.2c-1.4,1.1-3.4,2.2-5.2,3.1v4.1c0,.9.1,1,.9,1h2.6Z"/>
    </g>
  </g>
  <g class="st2">
    <g class="st2">
      <path d="M640.8,318.5c-.6.2-1.1.3-1.7.5v3.9c0,.7-.2,1.1-.6,1.3-.4.2-1.1.3-2.1.2,0-.3-.2-.9-.4-1.3.7,0,1.3,0,1.5,0,.2,0,.3,0,.3-.3v-3.6c-.6.2-1.1.3-1.7.5l-.4-1.3c.6-.1,1.3-.3,2-.5v-3h-1.8v-1.3h1.8v-2.9h1.4v2.9h1.6v1.3h-1.6v2.6l1.5-.4.2,1.3ZM648.9,316.6c-.6,2.1-1.6,3.7-2.9,5,1,.8,2.3,1.4,3.7,1.7-.3.3-.7.8-.9,1.2-1.5-.4-2.8-1.1-3.9-2-1.2.9-2.6,1.6-4.1,2-.2-.4-.5-1-.8-1.3,1.4-.3,2.7-.9,3.9-1.7-1-1.1-1.8-2.4-2.3-3.9h.2c0,0-.6,0-.6,0v-1.3h3.1v-2.1h-3.4v-1.3h3.4v-2.2h1.4v2.2h3.5v1.3h-3.5v2.1h2.4s.9.3.9.3ZM642.9,317.6c.5,1.2,1.1,2.2,2,3.1.9-.9,1.7-1.9,2.2-3.1h-4.2Z"/>
      <path d="M658.2,315.3v9h-1.3v-9h-2.1v-.8c-.3.6-.7,1.3-1.1,1.9v8.1h-1.3v-6.4c-.4.4-.8.8-1.1,1.2-.1-.3-.5-.9-.8-1.2,1.2-1,2.4-2.6,3.2-4.2l1.1.4v-.2h2.1v-3h1.3v3h2.1v1.3h-2.1ZM654.5,311.2c-.8,1.3-2,2.6-3.1,3.5-.2-.3-.5-.8-.8-1,1-.7,2.1-1.9,2.6-2.9l1.3.5ZM656.2,317.1c-.2,2.1-.5,4.1-1.1,5.5-.2-.2-.7-.5-.9-.7.6-1.2.8-3.1.9-5l1.1.2ZM659.6,313.6c-.2-.6-.7-1.4-1.1-2.1l.9-.4c.5.6,1,1.5,1.2,2l-1,.5ZM659.8,316.9c.4,1.4.7,3.2.8,4.4l-1.1.2c0-1.2-.4-3-.7-4.4l1-.2ZM664.5,317h-1.3v6c0,.7-.1,1.1-.6,1.3-.5.2-1.2.2-2.2.2,0-.4-.2-.9-.4-1.3.7,0,1.3,0,1.6,0,.2,0,.3,0,.3-.3v-5.9h-1.5v-1.3h4.1v1.3ZM664.3,312.8h-3.5v-1.2h3.5v1.2Z"/>
      <path d="M669,324.2c-.9-1.2-2.2-2.4-3.3-3.3l1.2-1.1c1.1.9,2.5,2.3,3.3,3.3l-1.3,1.1Z"/>
      <path d="M687,320.3h-1.6v2.6h-1.4v-.6h-3.2v.8c0,.8-.2,1.1-.7,1.3-.5.2-1.3.2-2.5.2,0-.3-.3-.8-.5-1.1.8,0,1.7,0,2,0,.3,0,.4,0,.4-.3v-.8h-4.7v-1h4.7v-.9h-6v-1.1h6v-.9h-4.5v-1h4.5v-.9h-4.2v-2.8h4.2v-.8h-5.7v-1.1h5.7v-1.1h1.4v1.1h5.8v1.1h-5.8v.8h4.4v2.8h-4.4v.9h4.6v1.8h1.6v1.1ZM679.4,315.6v-.9h-2.8v.9h2.8ZM680.8,314.7v.9h3v-.9h-3ZM680.8,319.2h3.2v-.9h-3.2v.9ZM684,320.3h-3.2v.9h3.2v-.9Z"/>
      <path d="M692.3,311.1c-.3,1-.8,2.1-1.2,3v10.3h-1.3v-8c-.4.6-.8,1.2-1.2,1.6-.1-.3-.5-1.1-.7-1.5,1.2-1.4,2.4-3.7,3.1-5.9l1.3.4ZM697.7,321v-8.4h-2.8c-.1.6-.2,1.3-.4,1.9h2s.8.2.8.2c-.6,4.8-2.2,8.1-4.5,9.8-.2-.3-.6-.9-.9-1.1,1.2-.8,2.1-2,2.8-3.6-.4-.5-1.1-1-1.6-1.5-.3.5-.6,1-.9,1.4-.2-.3-.6-.8-.8-1,1.2-1.5,1.9-4,2.2-6.1h-1.2v-1.2h5.3v1h1.2v8.6h-1.2ZM694.1,315.8c-.2.5-.3,1-.5,1.5.6.4,1.2.9,1.6,1.3.3-.8.5-1.7.6-2.7h-1.7ZM701.6,311v11.8c0,.8-.2,1.2-.6,1.4-.5.2-1.2.3-2.4.3,0-.4-.2-1-.4-1.4.9,0,1.6,0,1.9,0,.3,0,.3,0,.3-.3v-11.8h1.3Z"/>
    </g>
  </g>
  <g class="st2">
    <g class="st2">
      <path d="M604.6,426.9h2.9c3.4,0,5.3,1.9,5.3,5.5s-1.9,5.6-5.2,5.6h-3v-11ZM607.4,436.5c2.4,0,3.6-1.4,3.6-4.1s-1.3-4.1-3.6-4.1h-1v8.2h1Z"/>
      <path d="M615.1,426.9h1.7v9.6h4.7v1.5h-6.4v-11Z"/>
      <path d="M625.9,438.9c-.9-1.2-2.2-2.4-3.3-3.3l1.2-1.1c1.1.9,2.5,2.3,3.3,3.3l-1.3,1.1Z"/>
      <path d="M632.2,431.1v8.1h-1.4v-13.2h5.6v5.1h-4.2ZM632.2,427v1h2.9v-1h-2.9ZM635.1,430.1v-1.1h-2.9v1.1h2.9ZM639.1,435.6v3.2h-1.2v-3.2h-1.8c-.1,1-.6,2.5-2,3.4-.2-.3-.6-.6-.9-.8,1.1-.7,1.5-1.8,1.6-2.6h-1.7v-1.2h1.8v-1.4h-1.5v-1.1h7.3v1.1h-1.6v1.4h1.9v1.2h-1.9ZM637.8,434.5v-1.4h-1.8v1.4h1.8ZM643.3,437.4c0,.8-.1,1.2-.6,1.4-.5.2-1.2.3-2.4.3,0-.4-.2-1-.5-1.4.8,0,1.5,0,1.8,0,.2,0,.3,0,.3-.3v-6.3h-4.3v-5.1h5.7v11.5ZM638.9,427v1h3v-1h-3ZM641.9,430.1v-1.1h-3v1.1h3Z"/>
      <path d="M654.5,431.9v2h3.4v1.3h-3.4v2.1c0,.5,0,.6.6.6h1.5c.4,0,.5-.3.6-1.8.3.2.9.5,1.2.5-.1,1.9-.5,2.5-1.7,2.5h-1.8c-1.4,0-1.8-.4-1.8-1.8v-2.1h-2.4c-.3,1.6-1.2,3.1-4.1,4.1-.2-.3-.6-.9-.9-1.1,2.3-.8,3.2-1.8,3.5-3h-3.2v-1.3h3.3v-2h-1.5v-.5c-.7.5-1.4.9-2.1,1.3-.2-.3-.6-.8-.8-1,1-.4,1.9-1,2.8-1.8-.4-.5-1.1-1-1.7-1.4l.9-.7c.5.4,1.2.9,1.6,1.3.5-.5.9-1.1,1.2-1.7h-3.4v-1.2h4.3s.9.4.9.4c-.6,1.7-1.6,3.1-2.8,4.2h6.3c-1.3-1.3-2.3-2.9-3-4.8l1.2-.4c.2.6.5,1.2.9,1.8.6-.5,1.2-1.1,1.6-1.6l1,.7c-.6.6-1.4,1.3-2.1,1.8.3.3.5.7.8,1,.7-.5,1.5-1.2,1.9-1.8l1,.7c-.7.6-1.5,1.3-2.2,1.8.8.7,1.7,1.2,2.6,1.6-.3.3-.7.8-1,1.2-.7-.3-1.4-.7-2-1.2v.5h-1.6ZM653.1,431.9h-2.3v1.9h0c0,.1,2.3.1,2.3.1v-2Z"/>
      <path d="M663.4,438.9c-.9-1.2-2.2-2.4-3.3-3.3l1.2-1.1c1.1.9,2.5,2.3,3.3,3.3l-1.3,1.1Z"/>
      <path d="M672.7,433.1c-.6.2-1.1.3-1.7.5v3.9c0,.7-.1,1.1-.6,1.3-.4.2-1.1.3-2.1.2,0-.3-.2-.9-.4-1.3.7,0,1.3,0,1.5,0,.2,0,.3,0,.3-.3v-3.6c-.6.2-1.1.3-1.6.5l-.4-1.3c.6-.1,1.3-.3,2-.5v-3h-1.8v-1.3h1.8v-2.9h1.4v2.9h1.6v1.3h-1.6v2.6l1.5-.4.2,1.3ZM680.8,431.3c-.6,2.1-1.6,3.7-2.9,5,1,.8,2.3,1.4,3.7,1.7-.3.3-.7.8-.9,1.2-1.5-.4-2.8-1.1-3.9-2-1.2.9-2.6,1.6-4.1,2-.1-.4-.5-1-.8-1.3,1.4-.3,2.7-.9,3.9-1.7-1-1.1-1.8-2.4-2.3-3.9h.2c0,0-.6,0-.6,0v-1.3h3.1v-2.1h-3.4v-1.3h3.4v-2.2h1.4v2.2h3.5v1.3h-3.5v2.1h2.4s.9.3.9.3ZM674.8,432.2c.5,1.2,1.1,2.2,2,3.1.9-.9,1.7-1.9,2.2-3.1h-4.2Z"/>
      <path d="M690,429.9v9h-1.3v-9h-2.1v-.8c-.3.6-.7,1.3-1.1,1.9v8.1h-1.3v-6.4c-.4.4-.8.8-1.1,1.2-.1-.3-.5-.9-.8-1.2,1.2-1,2.4-2.6,3.2-4.2l1.1.4v-.2h2.1v-3h1.3v3h2.1v1.3h-2.1ZM686.4,425.8c-.8,1.3-2,2.6-3.1,3.5-.2-.3-.5-.8-.8-1,1-.7,2.1-1.9,2.6-2.9l1.3.5ZM688,431.7c-.2,2.1-.5,4.1-1.1,5.5-.2-.2-.7-.5-.9-.7.6-1.2.8-3.1.9-5l1.1.2ZM691.4,428.2c-.2-.6-.7-1.4-1.1-2.1l.9-.4c.5.6,1,1.5,1.2,2l-1,.5ZM691.6,431.6c.4,1.4.7,3.2.8,4.4l-1.1.2c0-1.2-.4-3-.7-4.4l1-.2ZM696.4,431.6h-1.3v6c0,.7-.1,1.1-.6,1.3-.5.2-1.2.2-2.2.2,0-.4-.2-.9-.4-1.3.7,0,1.4,0,1.6,0,.2,0,.3,0,.3-.3v-5.9h-1.5v-1.3h4.1v1.3ZM696.2,427.5h-3.5v-1.2h3.5v1.2Z"/>
    </g>
  </g>
  <g class="st2">
    <g class="st2">
      <path d="M518.2,477.6c-.8,2.1-2.1,3.6-3.7,4.8,1.5.8,3.4,1.3,5.6,1.6-.3.3-.7,1-.9,1.3-2.4-.4-4.4-1-6.1-2-1.8,1-3.9,1.6-6.1,2-.1-.4-.5-1-.8-1.3,2.1-.3,4-.8,5.6-1.6-1.2-1-2.1-2.1-2.8-3.6l1-.4h-2.5v-1.4h4.9v-2.1h-5.5v-1.4h5.5v-2.1h1.4v2.1h5.6v1.4h-5.6v2.1h3.4c0,0,1,.5,1,.5ZM510.3,478.4c.7,1.3,1.6,2.3,2.9,3.2,1.3-.8,2.3-1.9,3-3.2h-5.9Z"/>
      <path d="M524.3,480v3.7c0,.7-.1,1.1-.5,1.3-.4.2-1,.3-2,.3,0-.3-.2-.9-.4-1.3.6,0,1.2,0,1.3,0,.2,0,.3,0,.3-.3v-3.3l-1.7.5-.2-1.4c.5-.1,1.2-.3,1.9-.5v-3.4h-1.7v-1.3h1.7v-2.9h1.3v2.9h1.5v1.3h-1.5v3c.5-.1,1-.3,1.4-.4l.2,1.3-1.6.5ZM533.9,479.9c-.4,1.4-1.1,2.4-1.9,3.3.9.5,2,.8,3.1,1-.3.3-.7.8-.9,1.2-1.3-.3-2.4-.7-3.3-1.3-.9.6-1.9,1-3.1,1.3-.2-.3-.5-.8-.8-1,1-.2,1.9-.6,2.8-1-.6-.5-1-1-1.5-1.6-.6,1.4-1.5,2.7-2.9,3.6-.2-.3-.6-.8-.9-1,2.1-1.3,2.9-3.4,3.2-5.5h-1.9v-1.2h2.1c0-.3,0-.7,0-1h-1.9v-1.1h1c-.1-.5-.4-1.2-.6-1.8l1.1-.3c.3.6.6,1.3.7,1.8l-.9.3h3.9c.5-.7,1-1.7,1.3-2.5l1.3.4c-.4.7-.9,1.4-1.3,2.1h1.6v1.1h-5c0,.3,0,.6-.1,1h5.5v1.2h-5.7c0,.3-.1.5-.1.8h4.1s.8.3.8.3ZM534.3,472.6c-2.1.5-5.3.7-8,.8,0-.3-.2-.8-.3-1.1,2.6,0,5.7-.3,7.5-.7l.8,1ZM529.2,480.6c.5.7,1,1.3,1.8,1.9.6-.5,1-1.1,1.4-1.9h-3.2ZM529.7,475.4c0-.5-.2-1.3-.4-2l1.1-.2c.2.6.3,1.4.4,1.9l-1.2.3Z"/>
    </g>
  </g>
  <g class="st2">
    <g class="st2">
      <path d="M308.5,431.7v8.1h-1.4v-13.2h5.6v5.1h-4.2ZM308.5,427.6v1h2.9v-1h-2.9ZM311.3,430.7v-1.1h-2.9v1.1h2.9ZM315.3,436.3v3.2h-1.2v-3.2h-1.8c-.1,1-.6,2.5-2,3.4-.2-.3-.6-.6-.9-.8,1.1-.7,1.5-1.8,1.6-2.6h-1.7v-1.2h1.8v-1.4h-1.5v-1.1h7.3v1.1h-1.6v1.4h1.9v1.2h-1.9ZM314.1,435.1v-1.4h-1.8v1.4h1.8ZM319.5,438.1c0,.8-.1,1.2-.6,1.4-.5.2-1.2.3-2.4.3,0-.4-.2-1-.5-1.4.8,0,1.5,0,1.8,0,.2,0,.3,0,.3-.3v-6.3h-4.3v-5.1h5.7v11.5ZM315.1,427.6v1h3v-1h-3ZM318.1,430.7v-1.1h-3v1.1h3Z"/>
      <path d="M330.7,432.5v2h3.4v1.3h-3.4v2.1c0,.5,0,.6.6.6h1.5c.4,0,.5-.3.6-1.8.3.2.9.5,1.2.5-.1,1.9-.5,2.5-1.7,2.5h-1.8c-1.4,0-1.8-.4-1.8-1.8v-2.1h-2.4c-.3,1.6-1.2,3.1-4.1,4.1-.2-.3-.6-.9-.9-1.1,2.3-.8,3.2-1.8,3.5-3h-3.2v-1.3h3.3v-2h-1.5v-.5c-.7.5-1.4.9-2.1,1.3-.2-.3-.6-.8-.8-1,1-.4,1.9-1,2.8-1.8-.4-.5-1.1-1-1.7-1.4l.9-.7c.5.4,1.2.9,1.6,1.3.5-.5.9-1.1,1.2-1.7h-3.4v-1.2h4.3s.9.4.9.4c-.6,1.7-1.6,3.1-2.8,4.2h6.3c-1.3-1.3-2.3-2.9-3-4.8l1.2-.4c.2.6.5,1.2.9,1.8.6-.5,1.2-1.1,1.6-1.6l1,.7c-.6.6-1.4,1.3-2.1,1.8.3.3.5.7.8,1,.7-.5,1.5-1.2,1.9-1.8l1,.7c-.7.6-1.5,1.3-2.2,1.8.8.7,1.7,1.2,2.6,1.6-.3.3-.7.8-1,1.2-.7-.3-1.4-.7-2-1.2v.5h-1.6ZM329.3,432.5h-2.3v1.9h0c0,.1,2.3.1,2.3.1v-2Z"/>
      <path d="M339.6,439.5c-.9-1.2-2.2-2.4-3.3-3.3l1.2-1.1c1.1.9,2.5,2.3,3.3,3.3l-1.3,1.1Z"/>
      <path d="M347.4,432.2l-1.5.6c-.3-1-1.3-3.4-1.7-4.2l1.5-.5c.4.9,1.3,3.2,1.7,4.2ZM356.6,428.2c-.1.3-.2.7-.3,1-.5,1.8-1.3,4-2.5,5.6-1.6,2.1-3.8,3.6-5.9,4.3l-1.3-1.3c2.1-.6,4.4-2,5.9-3.9,1.2-1.6,2.1-4.1,2.4-6.2l1.8.5ZM351.4,431.1l-1.5.5c-.3-.9-1.1-3.2-1.5-4l1.5-.5c.4.7,1.3,3.1,1.5,4Z"/>
      <path d="M358.4,431.9c.5,0,1.4,0,2.2,0h8.1c.7,0,1.3,0,1.7,0v1.8c-.3,0-1,0-1.7,0h-8.2c-.8,0-1.7,0-2.2,0v-1.8Z"/>
      <path d="M371.9,438.1c1.3-.9,2.1-2.3,2.6-3.6.4-1.3.4-4.3.4-6s0-.9-.1-1.2h1.7c0,.1,0,.7,0,1.2,0,1.7,0,4.9-.5,6.4-.5,1.7-1.4,3.1-2.7,4.2l-1.4-1ZM378.8,438.2c0-.3.1-.6.1-.9v-8.9c0-.6,0-1.1,0-1.2h1.7c0,0,0,.6,0,1.2v8.3c1.3-.6,3-1.9,4.1-3.4l.9,1.3c-1.3,1.7-3.4,3.3-5.1,4.1-.3.1-.4.3-.6.4l-1-.8Z"/>
    </g>
  </g>
  <g class="st2">
    <g class="st2">
      <path d="M288.4,314.3h-5.4v-1.1h5.4v1.1ZM288,323.7h-3.1v.6h-1.2v-5h4.3v4.4ZM288,316.3h-4.3v-1.1h4.3v1.1ZM283.7,317.3h4.3v1.1h-4.3v-1.1ZM287.9,312.3h-4.2v-1.1h4.2v1.1ZM284.9,320.4v2.2h1.9v-2.2h-1.9ZM288,323.1c.7-.7,1-2,1.1-3.2l1.1.3c-.1,1.3-.4,2.7-1.2,3.6l-1-.6ZM289.6,313.2c.5.2,1.1.4,1.6.6.1-.4.2-.8.3-1.2h-2.4v-1.2h7.3s0,.4,0,.6c-.2,3.5-.3,4.8-.7,5.2-.3.3-.5.5-.9.5-.3,0-1,0-1.7,0,0-.4-.1-.9-.4-1.3.6,0,1.2,0,1.4,0,.2,0,.4,0,.5-.2.2-.3.3-1.2.5-3.7h-2.2c0,.6-.2,1.2-.4,1.8.6.3,1.2.6,1.6.9l-.7,1.1c-.4-.3-.8-.6-1.4-.8-.5,1-1.4,1.9-2.7,2.6-.1-.3-.5-.8-.8-1,1.2-.5,1.9-1.3,2.3-2.2-.6-.3-1.2-.5-1.8-.7l.7-1ZM293.4,323.2c.4,0,.4-.2.5-1.6.2.2.8.4,1.2.5-.1,1.9-.5,2.3-1.5,2.3h-1.5c-1.2,0-1.5-.4-1.5-1.6v-3.5h1.3v3.5c0,.4,0,.4.4.4h1.1ZM291.7,317.3c.9.5,2.1,1.3,2.7,1.9l-.9.9c-.5-.6-1.6-1.5-2.6-2l.8-.8ZM295.4,319.5c.8,1.1,1.5,2.6,1.7,3.6l-1.2.5c-.2-1-.8-2.5-1.6-3.7l1.1-.5Z"/>
      <path d="M298,313.3h5.5v1.1h-5.5v-1.1ZM303.1,323.9h-3.1v.6h-1.2v-5h4.4v4.4ZM303,316.4h-4.2v-1.1h4.2v1.1ZM298.7,317.4h4.2v1.1h-4.2v-1.1ZM303,312.3h-4.1v-1.1h4.1v1.1ZM299.9,320.6v2.2h1.9v-2.2h-1.9ZM311.9,322.7v1.3h-8.4v-1.3h1v-7.3h1.3v7.3h1.5v-9.8h-3.4v-1.3h7.6v1.3h-2.9v3.9h2.8v1.3h-2.8v4.6h3.1Z"/>
      <path d="M316.3,324.2c-.9-1.2-2.2-2.4-3.3-3.3l1.2-1.1c1.1.9,2.5,2.3,3.3,3.3l-1.3,1.1Z"/>
      <path d="M325.9,314.3h-5.4v-1.1h5.4v1.1ZM325.5,323.7h-3.1v.6h-1.2v-5h4.3v4.4ZM325.5,316.3h-4.3v-1.1h4.3v1.1ZM321.2,317.3h4.3v1.1h-4.3v-1.1ZM325.4,312.3h-4.2v-1.1h4.2v1.1ZM322.4,320.4v2.2h1.9v-2.2h-1.9ZM325.5,323.1c.7-.7,1-2,1.1-3.2l1.1.3c-.1,1.3-.4,2.7-1.2,3.6l-1-.6ZM327.1,313.2c.5.2,1.1.4,1.6.6.1-.4.2-.8.3-1.2h-2.4v-1.2h7.3s0,.4,0,.6c-.2,3.5-.3,4.8-.7,5.2-.3.3-.5.5-.9.5-.3,0-1,0-1.7,0,0-.4-.1-.9-.4-1.3.6,0,1.2,0,1.4,0,.2,0,.4,0,.5-.2.2-.3.3-1.2.5-3.7h-2.2c0,.6-.2,1.2-.4,1.8.6.3,1.2.6,1.6.9l-.7,1.1c-.4-.3-.8-.6-1.4-.8-.5,1-1.4,1.9-2.7,2.6-.1-.3-.5-.8-.8-1,1.2-.5,1.9-1.3,2.3-2.2-.6-.3-1.2-.5-1.8-.7l.7-1ZM330.9,323.2c.4,0,.4-.2.5-1.6.2.2.8.4,1.2.5-.1,1.9-.5,2.3-1.5,2.3h-1.5c-1.2,0-1.5-.4-1.5-1.6v-3.5h1.3v3.5c0,.4,0,.4.4.4h1.1ZM329.2,317.3c.9.5,2.1,1.3,2.7,1.9l-.9.9c-.5-.6-1.6-1.5-2.6-2l.8-.8ZM332.9,319.5c.8,1.1,1.5,2.6,1.7,3.6l-1.2.5c-.2-1-.8-2.5-1.6-3.7l1.1-.5Z"/>
      <path d="M343.1,322.8c.7,0,1.4.1,2.1.1s3.2,0,4,0c-.2.3-.5,1-.5,1.4h-3.6c-2.9,0-5.1-.5-6.5-2.9-.5,1.3-1.2,2.3-2.1,3.1-.2-.3-.8-.7-1.2-1,1.7-1.2,2.4-3.3,2.7-6h1.4c0,.8-.2,1.5-.4,2.1.5,1.4,1.4,2.2,2.4,2.6v-5.8h-3.5v-1.3h8.4v1.3h-3.5v2.2h4.3v1.3h-4.3v2.7ZM337.6,315.8h-1.4v-3.5h5.5v-1.6h1.5v1.6h5.5v3.5h-1.4v-2.1h-9.7v2.1Z"/>
    </g>
  </g>
  <g class="st2">
    <g class="st2">
      <path d="M340.2,267.9l1-1.2c.8.8,1.9,1.3,2.9,1.3s2.1-.6,2.1-1.6-.8-1.3-1.8-1.8l-1.5-.7c-1.1-.5-2.2-1.3-2.2-2.9s1.5-3,3.6-3,2.5.5,3.3,1.4l-.9,1.1c-.7-.6-1.5-1-2.4-1s-1.9.5-1.9,1.4.9,1.3,1.8,1.7l1.5.6c1.3.6,2.2,1.4,2.2,3s-1.5,3.2-3.9,3.2-2.9-.6-3.9-1.6Z"/>
      <path d="M349.5,267.2c0-1.8,1.5-2.7,4.9-3.1,0-1-.4-1.8-1.6-1.8s-1.7.4-2.4.8l-.6-1.2c.9-.5,2-1.1,3.3-1.1,2.1,0,3,1.3,3,3.5v5h-1.4v-.9h-.2c-.8.6-1.6,1.1-2.6,1.1-1.4,0-2.4-.9-2.4-2.4ZM354.4,267.2v-2c-2.4.3-3.3.9-3.3,1.8s.6,1.1,1.3,1.1,1.3-.3,2-1Z"/>
      <path d="M362.6,258.8c-.3-.1-.6-.2-.9-.2-.7,0-1.1.5-1.1,1.5v1h1.7v1.4h-1.7v6.9h-1.7v-6.9h-1.1v-1.3h1.1v-1.1c0-1.7.8-2.9,2.6-2.9s1.1.1,1.5.3l-.3,1.3Z"/>
      <path d="M363,265.3c0-2.7,1.8-4.4,3.8-4.4s3.4,1.6,3.4,3.9,0,.7,0,.9h-5.4c.1,1.6,1.1,2.5,2.5,2.5s1.4-.2,2-.6l.6,1.1c-.8.5-1.7.9-2.8.9-2.2,0-4-1.6-4-4.3ZM368.7,264.5c0-1.4-.6-2.2-1.8-2.2s-1.9.8-2.1,2.2h4Z"/>
      <path d="M372.2,266.7v-4.2h-1.2v-1.3h1.3c0,0,.2-2.4.2-2.4h1.5v2.3h2.1v1.4h-2.1v4.2c0,1,.3,1.5,1.2,1.5s.6,0,.9-.2l.3,1.3c-.5.2-1,.3-1.6.3-1.9,0-2.5-1.2-2.5-2.9Z"/>
      <path d="M381.5,269.9c-.6,1.8-1.5,3-3.3,3s-.7,0-1-.2l.3-1.4c.1,0,.4.1.6.1.9,0,1.4-.7,1.7-1.5l.2-.6-3.3-8.2h1.8l1.5,4.2c.2.7.5,1.6.8,2.3h0l.6-2.3,1.3-4.2h1.7l-3,8.7Z"/>
    </g>
  </g>
  <g>
    <g>
      <path class="st1" d="M493.4,233.9c1.7,0,3,1.3,3,3s-1.3,3-3,3-3-1.3-3-3,1.3-3,3-3Z"/>
      <path class="st1" d="M493.4,241.4c1.7,0,3,1.3,3,3s-1.3,3-3,3-3-1.3-3-3,1.3-3,3-3Z"/>
      <path class="st1" d="M493.4,248.9c1.7,0,3,1.3,3,3s-1.3,3-3,3-3-1.3-3-3,1.3-3,3-3Z"/>
      <path class="st1" d="M493.4,256.5c1.7,0,3,1.3,3,3s-1.3,3-3,3-3-1.3-3-3,1.3-3,3-3Z"/>
      <path class="st1" d="M493.4,226.3c1.7,0,3,1.3,3,3s-1.3,3-3,3-3-1.3-3-3,1.3-3,3-3Z"/>
      <path class="st1" d="M493.4,264c1.7,0,3,1.3,3,3s-1.3,3-3,3-3-1.3-3-3,1.3-3,3-3Z"/>
    </g>
    <polygon id="Arrow" class="st1" points="504.8 218.5 493.5 211.9 482.2 218.2 482.1 225.4 493.5 219 504.7 225.6 504.8 218.5"/>
    <polygon id="Arrow1" data-name="Arrow" class="st1" points="504.8 277.9 493.5 284.5 482.2 278.1 482.1 270.9 493.5 277.3 504.7 270.7 504.8 277.9"/>
  </g>
  <g>
    <path class="st1" d="M493.4,451.2c3,0,5.5,2.4,5.5,5.4,0,3-2.4,5.5-5.5,5.5-3,0-5.5-2.4-5.5-5.5s2.4-5.4,5.5-5.4Z"/>
    <path class="st1" d="M493.4,464.9c3,0,5.5,2.4,5.5,5.4,0,3-2.4,5.5-5.5,5.5-3,0-5.5-2.4-5.5-5.5,0-3,2.4-5.4,5.5-5.4Z"/>
    <path class="st1" d="M493.4,478.6c3,0,5.5,2.4,5.5,5.4s-2.4,5.5-5.5,5.5c-3,0-5.5-2.4-5.5-5.5s2.4-5.4,5.5-5.4Z"/>
    <path class="st1" d="M493.4,492.3c3,0,5.5,2.4,5.5,5.4s-2.4,5.5-5.5,5.5c-3,0-5.5-2.4-5.5-5.5s2.4-5.4,5.5-5.4Z"/>
    <path class="st1" d="M493.4,437.5c3,0,5.5,2.4,5.5,5.4,0,3-2.4,5.5-5.5,5.5-3,0-5.5-2.4-5.5-5.5,0-3,2.4-5.4,5.5-5.4Z"/>
    <path class="st1" d="M493.4,506c3,0,5.5,2.4,5.5,5.4,0,3-2.4,5.5-5.5,5.5-3,0-5.5-2.4-5.5-5.5,0-3,2.4-5.4,5.5-5.4Z"/>
    <polygon id="Arrow2" data-name="Arrow" class="st1" points="514.1 421.9 493.6 409.9 472.9 421.5 472.8 434.5 493.5 422.9 514 434.9 514.1 421.9"/>
  </g>
  <g>
    <g>
      <g>
        <path class="st1" d="M389.5,241c1.2-1.2,3.1-1.2,4.2,0s1.2,3.1,0,4.2-3.1,1.2-4.2,0-1.2-3.1,0-4.2Z"/>
        <path class="st1" d="M394.8,246.3c1.2-1.2,3.1-1.2,4.2,0s1.2,3.1,0,4.2-3.1,1.2-4.2,0-1.2-3.1,0-4.2Z"/>
        <path class="st1" d="M400.2,251.6c1.2-1.2,3.1-1.2,4.2,0s1.2,3.1,0,4.2-3.1,1.2-4.2,0-1.2-3.1,0-4.2Z"/>
        <path class="st1" d="M405.5,256.9c1.2-1.2,3.1-1.2,4.2,0s1.2,3.1,0,4.2-3.1,1.2-4.2,0-1.2-3.1,0-4.2Z"/>
        <path class="st1" d="M384.2,235.6c1.2-1.2,3.1-1.2,4.2,0s1.2,3.1,0,4.2-3.1,1.2-4.2,0-1.2-3.1,0-4.2Z"/>
        <path class="st1" d="M410.8,262.3c1.2-1.2,3.1-1.2,4.2,0s1.2,3.1,0,4.2-3.1,1.2-4.2,0-1.2-3.1,0-4.2Z"/>
      </g>
      <polygon id="Arrow3" data-name="Arrow" class="st1" points="386.7 222 374 225.3 370.5 237.9 375.5 243 379.1 230.4 391.7 227.2 386.7 222"/>
      <polygon id="Arrow4" data-name="Arrow" class="st1" points="428.6 264 425.4 276.7 412.8 280.2 407.7 275.2 420.2 271.6 423.5 259 428.6 264"/>
    </g>
    <g>
      <g>
        <path class="st1" d="M302.3,346.3c0-1.7,1.3-3,3-3s3,1.3,3,3-1.3,3-3,3-3-1.3-3-3Z"/>
        <path class="st1" d="M309.8,346.3c0-1.7,1.3-3,3-3s3,1.3,3,3-1.3,3-3,3-3-1.3-3-3Z"/>
        <path class="st1" d="M317.3,346.3c0-1.7,1.3-3,3-3s3,1.3,3,3-1.3,3-3,3-3-1.3-3-3Z"/>
        <path class="st1" d="M324.8,346.3c0-1.7,1.3-3,3-3s3,1.3,3,3-1.3,3-3,3-3-1.3-3-3Z"/>
        <path class="st1" d="M294.7,346.3c0-1.7,1.3-3,3-3s3,1.3,3,3-1.3,3-3,3-3-1.3-3-3Z"/>
        <path class="st1" d="M332.4,346.3c0-1.7,1.3-3,3-3s3,1.3,3,3-1.3,3-3,3-3-1.3-3-3Z"/>
      </g>
      <polygon id="Arrow5" data-name="Arrow" class="st1" points="286.9 335 280.2 346.2 286.6 357.6 293.8 357.7 287.4 346.3 294 335 286.9 335"/>
      <polygon id="Arrow6" data-name="Arrow" class="st1" points="346.2 335 352.8 346.2 346.5 357.6 339.3 357.7 345.7 346.3 339.1 335 346.2 335"/>
    </g>
    <g>
      <g>
        <path class="st1" d="M389.6,453c-1.2-1.2-1.2-3.1,0-4.2s3.1-1.2,4.2,0,1.2,3.1,0,4.2-3.1,1.2-4.2,0Z"/>
        <path class="st1" d="M395,447.7c-1.2-1.2-1.2-3.1,0-4.2s3.1-1.2,4.2,0,1.2,3.1,0,4.2-3.1,1.2-4.2,0Z"/>
        <path class="st1" d="M400.3,442.4c-1.2-1.2-1.2-3.1,0-4.2s3.1-1.2,4.2,0,1.2,3.1,0,4.2-3.1,1.2-4.2,0Z"/>
        <path class="st1" d="M405.6,437.1c-1.2-1.2-1.2-3.1,0-4.2s3.1-1.2,4.2,0,1.2,3.1,0,4.2-3.1,1.2-4.2,0Z"/>
        <path class="st1" d="M384.3,458.4c-1.2-1.2-1.2-3.1,0-4.2s3.1-1.2,4.2,0,1.2,3.1,0,4.2-3.1,1.2-4.2,0Z"/>
        <path class="st1" d="M410.9,431.7c-1.2-1.2-1.2-3.1,0-4.2s3.1-1.2,4.2,0,1.2,3.1,0,4.2-3.1,1.2-4.2,0Z"/>
      </g>
      <polygon id="Arrow7" data-name="Arrow" class="st1" points="370.7 455.9 374 468.5 386.6 472.1 391.7 467.1 379.1 463.5 375.8 450.9 370.7 455.9"/>
      <polygon id="Arrow8" data-name="Arrow" class="st1" points="412.7 413.9 425.3 417.2 428.9 429.8 423.8 434.9 420.3 422.3 407.7 419 412.7 413.9"/>
    </g>
  </g>
  <g>
    <g>
      <g>
        <path class="st1" d="M597.1,453.2c-1.2,1.2-3.1,1.2-4.2,0s-1.2-3.1,0-4.2,3.1-1.2,4.2,0,1.2,3.1,0,4.2Z"/>
        <path class="st1" d="M591.8,447.8c-1.2,1.2-3.1,1.2-4.2,0s-1.2-3.1,0-4.2,3.1-1.2,4.2,0,1.2,3.1,0,4.2Z"/>
        <path class="st1" d="M586.4,442.5c-1.2,1.2-3.1,1.2-4.2,0s-1.2-3.1,0-4.2,3.1-1.2,4.2,0,1.2,3.1,0,4.2Z"/>
        <path class="st1" d="M581.1,437.2c-1.2,1.2-3.1,1.2-4.2,0s-1.2-3.1,0-4.2,3.1-1.2,4.2,0,1.2,3.1,0,4.2Z"/>
        <path class="st1" d="M602.4,458.5c-1.2,1.2-3.1,1.2-4.2,0s-1.2-3.1,0-4.2,3.1-1.2,4.2,0c1.2,1.2,1.2,3.1,0,4.2Z"/>
        <path class="st1" d="M575.8,431.9c-1.2,1.2-3.1,1.2-4.2,0s-1.2-3.1,0-4.2,3.1-1.2,4.2,0,1.2,3.1,0,4.2Z"/>
      </g>
      <polygon id="Arrow9" data-name="Arrow" class="st1" points="599.9 472.1 612.6 468.8 616.1 456.2 611.1 451.1 607.5 463.7 594.9 467 599.9 472.1"/>
      <polygon id="Arrow10" data-name="Arrow" class="st1" points="558 430.1 561.2 417.5 573.8 413.9 578.9 418.9 566.4 422.5 563.1 435.1 558 430.1"/>
    </g>
    <g>
      <g>
        <path class="st1" d="M684.3,347.8c0,1.7-1.3,3-3,3s-3-1.3-3-3,1.3-3,3-3,3,1.3,3,3Z"/>
        <path class="st1" d="M676.8,347.8c0,1.7-1.3,3-3,3s-3-1.3-3-3,1.3-3,3-3,3,1.3,3,3Z"/>
        <path class="st1" d="M669.3,347.8c0,1.7-1.3,3-3,3s-3-1.3-3-3,1.3-3,3-3,3,1.3,3,3Z"/>
        <path class="st1" d="M661.8,347.8c0,1.7-1.3,3-3,3s-3-1.3-3-3,1.3-3,3-3,3,1.3,3,3Z"/>
        <path class="st1" d="M691.9,347.8c0,1.7-1.3,3-3,3s-3-1.3-3-3,1.3-3,3-3,3,1.3,3,3Z"/>
        <path class="st1" d="M654.2,347.8c0,1.7-1.3,3-3,3s-3-1.3-3-3,1.3-3,3-3,3,1.3,3,3Z"/>
      </g>
      <polygon id="Arrow11" data-name="Arrow" class="st1" points="699.7 359.1 706.4 347.9 700 336.5 692.8 336.5 699.2 347.8 692.6 359.1 699.7 359.1"/>
      <polygon id="Arrow12" data-name="Arrow" class="st1" points="640.4 359.1 633.8 347.9 640.1 336.5 647.3 336.5 640.9 347.8 647.5 359.1 640.4 359.1"/>
    </g>
    <g>
      <g>
        <path class="st1" d="M597,241.1c1.2,1.2,1.2,3.1,0,4.2s-3.1,1.2-4.2,0-1.2-3.1,0-4.2,3.1-1.2,4.2,0Z"/>
        <path class="st1" d="M591.6,246.4c1.2,1.2,1.2,3.1,0,4.2s-3.1,1.2-4.2,0-1.2-3.1,0-4.2,3.1-1.2,4.2,0Z"/>
        <path class="st1" d="M586.3,251.7c1.2,1.2,1.2,3.1,0,4.2s-3.1,1.2-4.2,0-1.2-3.1,0-4.2,3.1-1.2,4.2,0Z"/>
        <path class="st1" d="M581,257c1.2,1.2,1.2,3.1,0,4.2s-3.1,1.2-4.2,0-1.2-3.1,0-4.2,3.1-1.2,4.2,0Z"/>
        <path class="st1" d="M602.3,235.7c1.2,1.2,1.2,3.1,0,4.2-1.2,1.2-3.1,1.2-4.2,0s-1.2-3.1,0-4.2,3.1-1.2,4.2,0Z"/>
        <path class="st1" d="M575.7,262.4c1.2,1.2,1.2,3.1,0,4.2s-3.1,1.2-4.2,0-1.2-3.1,0-4.2,3.1-1.2,4.2,0Z"/>
      </g>
      <polygon id="Arrow13" data-name="Arrow" class="st1" points="615.9 238.2 612.6 225.6 600 222 594.9 227.1 607.5 230.6 610.8 243.2 615.9 238.2"/>
      <polygon id="Arrow14" data-name="Arrow" class="st1" points="573.9 280.2 561.3 276.9 557.7 264.3 562.8 259.2 566.3 271.8 578.9 275.1 573.9 280.2"/>
    </g>
  </g>
</svg>