<?xml version="1.0" encoding="UTF-8"?>
<svg id="_レイヤー_1" xmlns="http://www.w3.org/2000/svg" xmlns:xlink="http://www.w3.org/1999/xlink" version="1.1" viewBox="0 0 802.5 518.2">
  <!-- Generator: Adobe Illustrator 29.3.0, SVG Export Plug-In . SVG Version: 2.1.0 Build 146)  -->
  <defs>
    <style>
      .st0 {
        fill: #7d5835;
      }

      .st1 {
        fill: #75346c;
      }

      .st2 {
        fill: #474f6f;
      }

      .st3 {
        fill: url(#_名称未設定グラデーション_5);
      }

      .st4 {
        fill: url(#_名称未設定グラデーション_4);
      }

      .st5 {
        fill: url(#_名称未設定グラデーション_3);
      }

      .st6 {
        fill: none;
        stroke: #999;
        stroke-miterlimit: 10;
        stroke-width: 2px;
      }

      .st7 {
        fill: #fff;
      }

      .st8 {
        fill: #368285;
      }

      .st9 {
        fill: #999;
      }
    </style>
    <linearGradient id="_名称未設定グラデーション_3" data-name="名称未設定グラデーション 3" x1="275.1" y1="963.9" x2="360.3" y2="963.9" gradientTransform="translate(0 -706.5)" gradientUnits="userSpaceOnUse">
      <stop offset="0" stop-color="#f2f2f2"/>
      <stop offset="0" stop-color="#f4f4f4"/>
      <stop offset=".4" stop-color="#fcfcfc"/>
      <stop offset="1" stop-color="#fff"/>
    </linearGradient>
    <linearGradient id="_名称未設定グラデーション_4" data-name="名称未設定グラデーション 4" x1="275.1" y1="1070.5" x2="360.3" y2="1070.5" gradientTransform="translate(0 -706.5)" gradientUnits="userSpaceOnUse">
      <stop offset="0" stop-color="#f2f2f2"/>
      <stop offset="0" stop-color="#f4f4f4"/>
      <stop offset=".4" stop-color="#fcfcfc"/>
      <stop offset="1" stop-color="#fff"/>
    </linearGradient>
    <linearGradient id="_名称未設定グラデーション_5" data-name="名称未設定グラデーション 5" x1="275.1" y1="1177.6" x2="360.3" y2="1177.6" gradientTransform="translate(0 -706.5)" gradientUnits="userSpaceOnUse">
      <stop offset="0" stop-color="#f2f2f2"/>
      <stop offset="0" stop-color="#f4f4f4"/>
      <stop offset=".4" stop-color="#fcfcfc"/>
      <stop offset="1" stop-color="#fff"/>
    </linearGradient>
  </defs>
  <path class="st8" d="M316.8,210.1h277c26,0,47.2,21.2,47.2,47.2h0c0,26-21.2,47.2-47.2,47.2h-277c-26,0-47.2-21.2-47.2-47.2h0c0-26,21.2-47.2,47.2-47.2h0Z"/>
  <circle class="st5" cx="317.8" cy="257.4" r="42.7"/>
  <path class="st0" d="M316.8,316.7h277c26,0,47.2,21.2,47.2,47.2h0c0,26-21.2,47.2-47.2,47.2h-277c-26,0-47.2-21.2-47.2-47.2h0c0-26,21.2-47.2,47.2-47.2h0Z"/>
  <circle class="st4" cx="317.8" cy="364" r="42.7"/>
  <path class="st1" d="M316.8,423.8h277c26,0,47.2,21.2,47.2,47.2h0c0,26-21.2,47.2-47.2,47.2h-277c-26,0-47.2-21.2-47.2-47.2h0c0-26,21.2-47.2,47.2-47.2h0Z"/>
  <circle class="st3" cx="317.8" cy="471.1" r="42.7"/>
  <circle class="st9" cx="250.8" cy="260" r="4"/>
  <circle class="st9" cx="250.8" cy="367.4" r="4"/>
  <circle class="st9" cx="250.8" cy="152.5" r="4"/>
  <circle class="st9" cx="202.1" cy="102" r="4"/>
  <circle class="st9" cx="250.1" cy="477.3" r="4"/>
  <path class="st6" d="M202.1,102v375.3h46.9"/>
  <path class="st6" d="M202.1,260.6h48"/>
  <path class="st6" d="M202.1,153h48"/>
  <path class="st6" d="M202.1,368.3h48"/>
  <g>
    <circle class="st9" cx="412.5" cy="37.4" r="4"/>
    <circle class="st9" cx="390" cy="37.4" r="4"/>
    <path class="st6" d="M390,37.8h22.6"/>
  </g>
  <g>
    <path d="M291,249.6h2.9l1.8,9.6.9,5.8h0c.4-2,.9-4,1.3-5.8l2.5-9.6h2.5l2.5,9.6c.4,2,.9,3.8,1.3,5.8h0c.2-2,.7-4,.9-5.8l1.8-9.6h2.7l-3.6,18.3h-3.6l-2.5-10.3c-.2-1.3-.7-2.9-.9-4.2h0c-.2,1.3-.4,2.7-.9,4.2l-2.5,10.3h-3.6l-3.8-18.3h.2Z"/>
    <path d="M314.1,258.8c0-6,3.8-9.6,8.5-9.6s4.2,1.1,5.6,2.2l-1.6,1.8c-.9-.9-2-1.6-3.8-1.6-3.4,0-5.8,2.7-5.8,6.9s2,7.2,5.8,7.2,2.2-.2,2.9-.9v-4.2h-3.6v-2.5h6.3v8c-1.1,1.1-3.4,2.2-5.8,2.2-4.9,0-8.5-3.4-8.5-9.4v-.2Z"/>
    <path d="M332.4,265.7h4v-12.7h-3.4v-1.8c1.8-.2,2.9-.7,4-1.3h2.2v16.1h3.6v2.5h-10.5v-2.7Z"/>
  </g>
  <g>
    <path d="M290.9,465.4h2.9l1.8,9.6.9,5.8h0c.4-2,.9-4,1.3-5.8l2.5-9.6h2.5l2.5,9.6c.4,2,.9,3.8,1.3,5.8h0c.2-2,.7-4,.9-5.8l1.8-9.6h2.7l-3.6,18.3h-3.6l-2.5-10.3c-.2-1.6-.7-2.9-.9-4.2h0c-.2,1.3-.4,2.7-.9,4.2l-2.5,10.3h-3.6l-3.8-18.3h.2Z"/>
    <path d="M314,474.6c0-6,3.8-9.6,8.5-9.6s4.2,1.1,5.6,2.2l-1.6,1.8c-.9-.9-2-1.6-3.8-1.6-3.4,0-5.8,2.7-5.8,6.9s2,7.2,5.8,7.2,2.2-.2,2.9-.9v-4.2h-3.6v-2.5h6.3v8c-1.1,1.1-3.4,2.2-5.8,2.2-4.9,0-8.5-3.4-8.5-9.4v-.2Z"/>
    <path d="M331,481.5l1.3-1.8c1.1,1.1,2.5,2,4.2,2s3.6-1.1,3.6-3.1-1.3-3.4-5.4-3.4v-2.2c3.6,0,4.9-1.3,4.9-3.1s-1.1-2.7-2.9-2.7-2.7.7-3.6,1.8l-1.6-1.8c1.3-1.3,3.1-2.2,5.4-2.2,3.4,0,5.6,1.8,5.6,4.7s-1.1,3.6-3.1,4.2h0c2.2.7,3.8,2.2,3.8,4.7s-2.7,5.4-6.3,5.4-4.7-1.1-6-2.5Z"/>
  </g>
  <g>
    <path d="M290.9,356.9h2.9l1.8,9.6.9,5.8h0c.4-2,.9-4,1.3-5.8l2.5-9.6h2.5l2.5,9.6c.4,2,.9,3.8,1.3,5.8h0c.2-2,.7-4,.9-5.8l1.8-9.6h2.7l-3.6,18.3h-3.6l-2.5-10.3c-.2-1.6-.7-2.9-.9-4.2h0c-.2,1.3-.4,2.7-.9,4.2l-2.5,10.3h-3.6l-3.8-18.3h.2Z"/>
    <path d="M313.9,366.1c0-6,3.8-9.6,8.5-9.6s4.2,1.1,5.6,2.2l-1.6,1.8c-.9-.9-2-1.6-3.8-1.6-3.4,0-5.8,2.7-5.8,6.9s2,7.2,5.8,7.2,2.2-.2,2.9-.9v-4.2h-3.6v-2.5h6.3v8c-1.1,1.1-3.4,2.2-5.8,2.2-4.9,0-8.5-3.4-8.5-9.4v-.2Z"/>
    <path d="M331.4,373.7c5.4-4.9,8.3-8.5,8.3-11.4s-1.1-3.4-3.1-3.4-2.7.9-3.6,2l-1.6-1.6c1.6-1.8,3.1-2.7,5.6-2.7s5.6,2.2,5.6,5.6-2.9,7.2-6.7,11h7.6v2.5h-11.9v-1.8l-.2-.2Z"/>
  </g>
  <path class="st2" d="M152.7,0h192.2c20.6,0,37.4,16.8,37.4,37.4h0c0,20.6-16.8,37.4-37.4,37.4h-192.2c-20.6,0-37.4-16.8-37.4-37.4h0c0-20.6,16.8-37.4,37.4-37.4Z"/>
  <g>
    <path class="st7" d="M147.7,39.9h-5.2l-1.3,4.3h-2.4l4.9-14.9h2.7l4.9,14.9h-2.5l-1.2-4.3h.1ZM147.2,38.1l-.5-2c-.5-1.6-.9-3.3-1.5-4.9h0c-.4,1.7-.9,3.3-1.3,4.9l-.7,2h4.1-.1Z"/>
    <path class="st7" d="M153.4,29.3h2.4v14.9h-2.4s0-14.9,0-14.9Z"/>
    <path class="st7" d="M172.3,47.6c-.5.3-1.3.4-2.3.4-2.9,0-4.9-1.6-5.7-3.7-3.2-.5-5.3-3.3-5.3-7.7s2.7-7.7,6.5-7.7,6.5,2.9,6.5,7.7-2,6.9-5.1,7.6c.7,1.2,2,1.9,3.6,1.9s1.2,0,1.6-.3l.4,1.7h-.3ZM165.3,42.6c2.5,0,4.1-2.3,4.1-5.9s-1.6-5.6-4.1-5.6-4.1,2.1-4.1,5.6,1.6,5.9,4.1,5.9Z"/>
    <path class="st7" d="M174.8,29.3h2.7l2.8,7.6c.4.9.7,2,.9,3.1h0c.4-1.1.7-2,.9-3.1l2.7-7.6h2.7v14.9h-2.1v-7.3c0-1.3.1-3.2.3-4.7h0l-1.2,3.5-2.5,7.1h-1.5l-2.7-7.1-1.2-3.5h0c0,1.3.3,3.3.3,4.7v7.3h-2.1v-14.9h.1Z"/>
    <path class="st7" d="M205.7,42.6c0,.8,0,2,.1,2.4h-2.5v-9.6c-2.1,1.2-4.8,2.3-7.3,2.9l-1.2-2c3.5-.8,6.9-2.3,9.2-3.7,2-1.3,4.1-3.1,5.3-4.5l1.7,1.6c-1.5,1.5-3.3,3.1-5.5,4.4v8.5h.1Z"/>
    <path class="st7" d="M213.3,40.7h16.1v2.4h-16.1v-2.4ZM215,30.7h12.8v2.3h-12.8v-2.3Z"/>
    <path class="st7" d="M238.2,35.8l-1.2,1.9c-1.1-.8-3.2-2.1-4.5-2.8l1.2-1.7c1.3.7,3.6,2.1,4.5,2.8h0ZM240.2,40.6c3.3-1.9,6.1-4.7,7.7-7.5l1.2,2.1c-1.9,2.8-4.7,5.3-7.9,7.2-2,1.2-4.9,2.1-6.7,2.5l-1.2-2.1c2.3-.4,4.7-1.2,6.8-2.3h0ZM241.1,31.3l-1.2,1.7c-1.1-.8-3.2-2.1-4.4-2.9l1.2-1.7c1.2.7,3.6,2.3,4.5,2.9h-.1Z"/>
    <path class="st7" d="M267.9,30.5c-.1.3-.5.7-.7.8-.9,1.5-2.8,4-4.9,5.6l-1.7-1.3c1.7-1.1,3.6-3.1,4.1-4.1h-13.4v-2.3c.8,0,1.6.1,2.4.1h11.3c.4,0,1.3,0,1.7-.1l1.3,1.2h-.1ZM259.6,33.1c0,5.3-.3,9.2-5.6,11.8l-1.9-1.5c.5-.3,1.3-.5,2-.9,2.9-1.9,3.3-4.4,3.3-7.7s0-1.1,0-1.6h2.3-.1Z"/>
    <path class="st7" d="M284.4,34.2h1.7v2.1h-6.9c0,2.1-.5,3.9-1.2,5.5-.7,1.3-2.3,2.9-4,3.7l-1.9-1.3c1.5-.7,2.9-1.7,3.7-3.1.9-1.3,1.2-2.9,1.2-4.8h-7.7v-2.1h15,0ZM273.7,31h-2v-2.1c.7,0,1.3.1,2,.1h8.1c.7,0,1.3,0,2-.1v2.1h-10.1Z"/>
    <path class="st7" d="M300.2,33.3c-.9,1.1-2.8,2.5-4.5,3.7v8.9h-2.4v-7.7c-1.7.9-4.1,1.9-6.1,2.4l-1.1-1.9c2.5-.5,5.5-1.7,7.1-2.8,2-1.2,4.1-2.9,5.2-4.1l1.6,1.5h.3Z"/>
    <path class="st7" d="M316.1,30.2l1.1.7c-.1.3-.3.8-.4,1.2-.4,2-1.3,5.3-3.1,7.5-1.9,2.4-4.4,4.4-8,5.5l-1.7-1.9c4-.9,6.3-2.7,7.9-4.8,1.3-1.7,2.3-4.4,2.5-6.3h-12.1v-2.3c.5,0,1.5.1,2.1.1h10.8c-.4-.8-.9-1.6-1.3-2.3l1.3-.5c.5.7,1.2,1.9,1.6,2.7l-.8.3h.1ZM317.9,26.8c.5.7,1.2,1.9,1.6,2.7l-1.3.7c-.4-.8-1.1-2-1.6-2.7l1.3-.5h0Z"/>
    <path class="st7" d="M322.1,39c-.3,1.9-.7,3.9-1.3,5.2-.3-.3-1.1-.5-1.3-.7.7-1.2.9-3.1,1.2-4.8l1.6.3h-.1ZM324.5,37.3v8.5h-1.6v-8.3c-1.1,0-2.1.1-2.9.3l-.3-1.6h1.3c.4-.4.8-.9,1.1-1.5-.5-.9-1.6-2-2.4-2.8l.9-1.2c.1.1.4.4.5.5.7-1.2,1.3-2.5,1.6-3.7l1.6.7c-.7,1.3-1.6,2.9-2.3,4.1.3.4.7.7.9,1.1.8-1.2,1.5-2.4,2-3.5l1.6.7c-1.2,1.7-2.5,3.9-3.9,5.6h2.5c-.3-.7-.5-1.2-.8-1.6l1.3-.5c.8,1.3,1.7,3.1,2.1,4.1l-1.5.7c0-.4-.3-.8-.4-1.3h-1.3l-.3-.3ZM326.2,38.7c.5,1.2,1.1,2.7,1.2,3.7.3-.8.4-1.6.5-2.4l1.5.3c-.3,1.6-.8,3.5-1.6,4.7l-1.5-.7c.4-.5.7-1.2.9-1.9l-1.5.5c-.1-1.1-.7-2.5-1.2-3.7l1.3-.4h.3ZM331.5,27.9c-.7,2-2,3.9-3.3,5.2-.4-.3-1.1-.9-1.5-1.2,1.3-1.1,2.5-2.7,3.1-4.4l1.7.4ZM333.1,31.1c-.5,1.2-1.2,2.7-1.7,3.9h3.2c-.4-.7-.7-1.2-1.1-1.6l1.5-.7c1.1,1.3,2.3,3.1,2.8,4.3l-1.5.8c-.1-.4-.4-.9-.8-1.5-2.7.3-5.5.4-7.5.5l-.3-1.7h2c.5-1.5,1.2-3.2,1.6-4.4l1.9.4h-.1ZM333.6,44.2c.4,0,.5-.3.5-2,.3.3,1.1.5,1.6.7-.1,2.4-.7,2.9-1.9,2.9h-1.9c-1.6,0-2-.5-2-2.1v-4.1h1.7v4.1q0,.5.5.5s1.3,0,1.3,0ZM331.2,36.9c1.3.7,2.7,1.6,3.3,2.5l-1.2,1.2c-.7-.9-2.1-2-3.3-2.5l1.2-1.1h0ZM335,27.4c.8,1.5,2.3,3.1,3.6,4-.4.3-1.1.9-1.3,1.3-1.3-1.1-2.9-3.1-3.9-4.7l1.6-.7ZM336.2,39.7c1.1,1.5,2.1,3.2,2.4,4.5l-1.6.8c-.3-1.3-1.2-3.2-2.3-4.7l1.5-.7h0Z"/>
    <path class="st7" d="M344.4,33.7c-1.1.8-2.3,1.5-3.5,2.1-.3-.4-.7-1.2-1.1-1.6,3.5-1.6,6.8-4.5,8.3-6.9h2c2.1,2.9,5.5,5.5,8.7,6.7-.4.4-.9,1.2-1.2,1.7-1.2-.5-2.4-1.3-3.6-2.1v1.6h-9.5v-1.5h-.1ZM341,37.1h16.6v1.7h-9.3c-.7,1.3-1.5,2.9-2.1,4.1,2.3,0,4.8-.1,7.2-.3-.8-.8-1.6-1.7-2.4-2.4l1.6-.9c1.9,1.6,3.7,3.7,4.7,5.2l-1.7,1.1c-.3-.4-.5-.8-.9-1.3-4.8.3-10,.4-13.4.7l-.3-1.9h2.9c.7-1.3,1.3-2.9,1.9-4.4h-5.1v-1.7h.4ZM353.7,33.4c-1.9-1.3-3.5-2.8-4.5-4.3-.9,1.5-2.5,2.9-4.3,4.3h8.9-.1Z"/>
  </g>
  <g>
    <path class="st7" d="M375.7,246.8v7.2h-1.3v-11.5h4.9v4.3h-3.7ZM375.7,243.4v.9h2.5v-.9h-2.5ZM378.3,245.9v-.9h-2.5v.9h2.5ZM385.3,252.6c0,.6,0,1-.5,1.1-.4.3-.9.3-1.8.3,0-.3-.1-.6-.3-1,0,.1-.1.3-.3.4-1.1-.4-2.1-1-2.7-1.8-.4.6-1.3,1.4-2.8,1.9-.1-.3-.5-.6-.8-.8,1.6-.5,2.4-1.1,2.7-1.8h-2.5v-.9h2.7v-.9h-2.5v-.9h1.3c0-.3-.3-.6-.5-1l.9-.3c.3.4.5.9.6,1.3h1.5c.3-.4.4-.9.5-1.3l1.1.4c-.3.4-.4.6-.6.9h1.4v.9h-2.8v.9h2.9v.9h-2.7c.5.9,1.5,1.4,2.8,1.6,0,0-.3.3-.3.4h1c.1,0,.3,0,.3-.3v-5.8h-3.8v-4.3h4.9v10.1h.1ZM381.5,243.4v.9h2.7v-.9h-2.7ZM384.2,245.9v-.9h-2.7v.9h2.7Z"/>
    <path class="st7" d="M389.9,251.2c.5.9,1.6,1.3,3,1.4h6.2c-.1.3-.4.9-.4,1.1h-5.8c-1.6,0-2.8-.5-3.5-1.5-.5.5-1.1,1-1.8,1.6l-.6-1.3c.5-.4,1.1-.9,1.8-1.4v-3.2h-1.5v-1.1h2.8v4.2h-.1ZM389.2,245.1c-.4-.6-1.3-1.5-2-2.1l.9-.6c.8.6,1.6,1.5,2,2.1l-1,.8h.1ZM393.9,250.8h-3.7v-1h3.7v-.8h-2.9v-4.3h2.9v-.8h-3.4v-1h3.4v-1h1.1v1h3.5v1h-3.5v.8h2.9v4.3h-2.9v.8h3.8v1h-3.8v1.4h-1.1v-1.4ZM392.1,246.4h1.8v-.9h-1.8v.9ZM393.9,248.2v-.9h-1.8v.9h1.8ZM395,245.6v.9h1.8v-.9h-1.8ZM396.8,247.3h-1.8v.9h1.8v-.9Z"/>
    <path class="st7" d="M400,247.8c.3-.9.5-2.4.5-3.4h.9c0,1.1-.3,2.7-.5,3.7l-.9-.3h0ZM403.4,246c-.1-.5-.4-1.3-.6-1.9v9.7h-1.1v-12h1.1v2.1l.8-.3c.3.6.6,1.4.8,1.9l-.9.4ZM412.1,246.2v.9h-8.6v-.9h3.7v-.8h-2.9v-.9h2.9v-.6h-3.2v-.9h3.2v-1h1.3v1h3.3v.9h-3.3v.6h3v.9h-3v.8h3.7ZM411.2,252.7c0,.5,0,.9-.5,1-.4.1-1,.1-1.9.1,0-.3-.3-.8-.4-1h1.4c.1,0,.3,0,.3-.3v-.8h-4.3v2h-1.1v-6.3h6.7v5h-.1ZM405.6,248.6v.8h4.3v-.8h-4.3ZM410.1,251.1v-.8h-4.3v.8h4.3Z"/>
    <path class="st7" d="M416.8,245.4h2.3v1h-1.3.5c-.3.8-.5,1.3-.6,1.6h1.1v1h-2.1v1.3h2v1h-2v2.5h-1.1v-2.5h-2v-1h2v-1.3h-2.1v-1h1.1c0-.5-.3-1-.5-1.5h.5c0-.1-1.4-.1-1.4-.1v-1h2.4v-1.1h-1.9v-1h1.9v-1.3h1.1v1.3h1.8v1h-1.8v1.1h.1ZM416.9,247.9c.1-.5.4-1.1.5-1.5h-2.3c.3.5.5,1.1.5,1.5h-.4,2.1-.5ZM425,247.2c-.3,1.5-.8,3-1.5,4.3.5.6,1.3,1.1,1.9,1.5-.3.3-.6.6-.8,1-.6-.4-1.3-.9-1.8-1.5-.5.6-1,1.1-1.6,1.5-.1-.3-.4-.5-.6-.8v.8h-1.1v-11.5h5.2v2.5c0,.5,0,.9-.6,1-.4.1-1.1.1-2.1.1,0-.3-.3-.8-.4-1h1.6q.3,0,.3-.3v-1.4h-3v3.4h3.7l.8.3h.3ZM420.5,253.1c.6-.4,1.1-1,1.5-1.5-.6-1-1.1-2.3-1.5-3.5v5.2h0ZM421.5,247.9c.3.9.6,1.8,1.1,2.5.4-.8.8-1.6.9-2.5h-2.1.1Z"/>
    <path class="st7" d="M430.6,245h-4.3v-1h4.3v1ZM438.1,252.5c0,.6-.1,1-.5,1.3s-1,.3-2,.3c0-.3-.3-.9-.4-1.3h1.5q.3,0,.3-.3v-9.1h-4.7v3.7c0,2-.1,4.9-1.1,6.8-.3-.3-.8-.5-1-.6h0c0-.1-2.4-.1-2.4-.1v.6h-1v-4.4h3.4v3.8c.9-1.8.9-4.2.9-5.9v-4.8h6.8v10.1h.3ZM430.3,246.8h-3.4v-.9h3.4v.9ZM426.8,247.7h3.4v1h-3.4v-1ZM430.3,243.4h-3.3v-1h3.3v1ZM429.2,250.3h-1.4v1.9h1.4v-1.9ZM434,246.7v-1.1h-1.1v-.9h1.1v-1h1v1h1.3v.9h-1.3v1.1h1.4v.9h-3.7v-.9h1.3ZM433.8,251.8v.5h-.9v-3.9h3.3v3.4h-2.4ZM433.8,249.3v1.6h1.5v-1.6h-1.5Z"/>
    <path class="st7" d="M447.3,244.5c1.1,1.1,2.8,2,4.3,2.5-.3.3-.6.6-.8,1-1.8-.6-3.5-1.9-4.7-3.4v2.4h-1.3v-2.5c-1.1,1.5-2.9,2.8-4.7,3.4-.1-.3-.5-.8-.8-.9,1.5-.5,3.2-1.5,4.2-2.7h-3.9v-1h5.2v-1.5h1.3v1.5h5.2v1h-4,0ZM449.2,252.6h2.1v1.1h-11.7v-1.1h2.1v-5h7.3v5h.1ZM443,248.6v.8h4.9v-.8h-4.9ZM447.9,250.2h-4.9v.8h4.9v-.8ZM443,252.6h4.9v-.8h-4.9v.8Z"/>
    <g>
      <path class="st7" d="M374.2,263.7c0-2.7,1.1-4.8,2.7-6.3l1,.5c-1.4,1.5-2.4,3.4-2.4,5.8s1,4.3,2.4,5.8l-1,.5c-1.5-1.5-2.7-3.7-2.7-6.3Z"/>
      <path class="st7" d="M382.9,267.7c-.3-.5-1-1.4-1.5-2-.3,1.4-.9,2.8-2.1,3.8-.1-.3-.5-.6-.9-.9,1.5-1.1,2-3,2.1-4.8h-2v-1.1h2v-1.9h-1.8v-1.1h1.8v-1.9h1.1v1.9h1.8v1.1h-1.8v1.9h2v1.1h-2v.5c.5.5,1.9,2,2.1,2.4l-.9.9h0ZM389.2,268.4c.3,0,.3-.1.4-1.6.3.3.8.4,1,.5,0,1.8-.4,2.3-1.3,2.3h-1c-1,0-1.3-.4-1.3-1.4v-2.5h-.9c-.3,1.9-.9,3.4-3.2,4.2-.1-.3-.4-.8-.6-.9,1.9-.6,2.4-1.8,2.7-3.3h-.9v-7.3h5.7v7.3h-1.5v2.5q0,.4.3.4h.6,0ZM385.2,260.3h3.4v-1h-3.4v1ZM385.2,262.3h3.4v-1.1h-3.4v1.1ZM385.2,264.5h3.4v-1h-3.4v1Z"/>
      <path class="st7" d="M395.8,261.8h3v1.1h-3v1.1h2.7v3.4c0,.5,0,.8-.4,1-.4.1-.9.3-1.5.1,0-.3-.1-.8-.4-1h1q.1,0,.1-.1v-2.4h-1.5v4.5h-1.1v-4.5h-1.4v3.5h-1.1v-4.5h2.5v-1.1h-3v-1.1h.9c-.3-.1-.8-.3-1-.4.6-.9,1-2.1,1.3-3.4l1.1.3c0,.4-.3.9-.4,1.3h1.1v-1.8h1.1v1.8h2.5v1.1h-2.5v1.1h0ZM394.7,261.8v-1.1h-1.5c-.1.5-.4.9-.6,1.1h2.1ZM400.8,266.1h-1.1v-7.3h1.1v7.3ZM403.1,257.9v10.3c0,.8-.1,1.1-.6,1.3-.4.3-1.1.3-2.1.3,0-.4-.3-.9-.4-1.3h1.6q.3,0,.3-.3v-10.3h1.3Z"/>
      <path class="st7" d="M405.3,269.4c1-.4,1.6-1,1.6-1.8h-.1c-.6,0-1.1-.4-1.1-1s.5-1,1.1-1,1.3.6,1.3,1.6-.9,2.5-2.4,3l-.4-.9Z"/>
      <path class="st7" d="M415.1,265.6c-.1-.4-.5-1.1-.9-1.8v5.9h-1.1v-5.6c-.4,1.3-.9,2.4-1.4,3.2,0-.4-.4-.8-.6-1,.8-1.1,1.5-3,1.9-4.7h-1.6v-1.1h1.8v-2.8h1.1v2.8h1.4v1.1h-1.4v.8c.4.5,1.4,2,1.5,2.3l-.6.9h0ZM418,267.2c-.5.8-1.3,1.6-2.1,2.1-.1-.3-.5-.5-.8-.8.8-.5,1.5-1.3,1.9-1.9l.9.5h.1ZM420,266.5v2c0,.5,0,.8-.5,1-.4.1-.9.1-1.6.1,0-.3-.3-.8-.4-1h1.1q.1,0,.1-.1v-2h-3.2v-1h7.6v1h-3.3.1ZM418,259.3h-2.3v-1h7.6v1h-2.4v.8h2v3.2h-6.8v-3.2h1.9v-.8h0ZM416.5,264.7v-.9h6.1v.9h-6.1ZM417.1,262.3h1v-1.4h-1v1.4ZM419.9,259.3h-1v.8h1v-.8ZM418.9,260.9v1.4h1v-1.4h-1ZM421.5,266.7c.6.6,1.4,1.4,1.8,1.9l-.9.6c-.4-.5-1.1-1.4-1.8-2l.9-.6h0ZM421.9,260.9h-1.1v1.4h1.1v-1.4Z"/>
      <path class="st7" d="M426.5,261.7c-.5-.4-1.4-.8-2-1l.6-.9c.6.3,1.6.6,2.1.9l-.6.9h-.1ZM436.3,267.4h-5.3v2.4h-1.3v-2.4h-5.2v-1.1h5.2v-1h1.3v1h5.3v1.1ZM424.7,264.6c.8-.6,1.8-1.6,2.7-2.7l.6.9c-.8.9-1.6,1.9-2.4,2.8l-.9-.9h0ZM427.4,259.7c-.5-.4-1.4-.8-2-1.1l.6-.9c.8.3,1.6.6,2,1l-.6.9h0ZM428.6,261l-.8.8c-.3-.3-.6-.6-1-.9,1-.8,2-2,2.7-3.3l1.1.4c-.1.4-.4.8-.6,1.1h1.5c.3-.5.5-1,.6-1.4l1.4.3c-.3.4-.5.8-.8,1.1h2.7v1h-2.8v.8h2.4v.9h-2.4v.8h2.4v.9h-2.4v.9h3.2v1h-7.3v-4.3ZM431.8,260h-1.9v.8h1.9v-.8ZM431.8,261.7h-1.9v.8h1.9v-.8ZM431.8,263.4h-1.9v.9h1.9v-.9Z"/>
      <path class="st7" d="M442.1,258.3c-.4.9-.9,1.8-1.4,2.7v8.7h-1.3v-7.1c-.5.6-1,1.1-1.5,1.6-.1-.3-.5-1-.8-1.3,1.5-1.3,2.9-3.2,3.7-5.2l1.1.4h.1ZM447.5,268.4c.6,0,.8-.5.9-2.4.3.3.8.5,1.1.5-.1,2.1-.5,2.9-1.9,2.9h-2.5c-1.5,0-1.9-.5-1.9-2v-9.5h1.3v4.7c1.4-.8,2.8-1.8,3.7-2.5l.9,1c-1.3,1-2.9,1.9-4.5,2.8v3.5c0,.8.1.9.8.9h2.3Z"/>
      <path class="st7" d="M459.9,264.6v1h2.4v1h-2.4v1.8c0,.6-.1,1-.6,1.1s-1.3.3-2.3.3c0-.4-.3-.9-.5-1.1h1.8q.3,0,.3-.3v-1.8h-4.5c.8.5,1.5,1.3,1.9,1.8l-.9.8c-.4-.6-1.3-1.4-2.1-2l.8-.5h-2.5v-1h7.4v-1h-7.8v-1h5.3v-1h-3.9v-1h3.9v-.8h.3c-.1-.1-.4-.3-.5-.4.3-.3.5-.4.6-.6h-2.1c.1.4.4.8.4,1l-1,.4c0-.4-.4-.9-.6-1.4h-.4c-.4.6-.8,1.1-1.3,1.5-.3-.3-.8-.5-1-.8.9-.8,1.6-1.9,2-3l1.1.3c0,.3-.3.5-.4.8h3.2v1c.5-.6.9-1.4,1.1-2l1.1.3c0,.3-.3.5-.4.9h3.9v1h-2.5c.3.4.5.8.6,1l-1,.4c-.1-.4-.5-1-.9-1.5h-.8c-.3.4-.5.6-.8,1h0v.8h4v1h-4v1h5.3v1h-2.7l.5.3Z"/>
      <path class="st7" d="M469.3,267.9c.5,0,.9,0,1.1-.1,1.6-.4,3.2-1.6,3.2-3.7s-1.1-3.4-3.2-3.7c-.1,1.1-.4,2.4-.8,3.7-.8,2.7-1.9,4.2-3.2,4.2s-2.5-1.5-2.5-3.7,2.5-5.4,5.8-5.4,5,2.1,5,4.9-1.8,4.7-4.9,5l-.8-1.3h.1ZM468.4,263.8c.4-1,.6-2.1.8-3.4-2.4.4-3.7,2.4-3.7,4s.6,2.1,1.1,2.1,1.1-.9,1.8-2.9h0Z"/>
      <path class="st7" d="M488.2,260.7v.5c-.1,5.4-.3,7.3-.6,7.8-.3.4-.5.5-.9.5h-1.6c0-.4-.1-.9-.4-1.1h1.4c.3,0,.4,0,.5-.3.3-.4.4-2,.5-6.6h-1.5c-.1,3.5-.8,6.3-3,8-.1-.3-.6-.8-.9-.9,0,0,.1,0,.3-.1-1.9.3-3.8.4-5.2.5v-1c.6,0,1.5-.1,2.5-.3v-1h-2.4v-.9h2.4v-.6h-2.4v-3.9h2.4v-.6h-2.7v-.9h2.7v-.8c-.8,0-1.6,0-2.4.1,0-.3-.1-.6-.3-.9,1.9,0,4.3-.4,5.7-.6l.6.9c-.8.1-1.5.3-2.5.4v.9h2.7v.8h1.4v-2.8h1.1v2.8h2.8-.1ZM477.8,263.1h1.4v-.8h-1.4v.8ZM479.1,264.7v-.8h-1.4v.8h1.4ZM480.2,267.9c.8,0,1.6-.1,2.5-.3,1.1-1.5,1.4-3.4,1.5-5.8h-1.4v-1h-2.7v.6h2.4v3.9h-2.4v.6h2.5v.9h-2.5v.9h0ZM481.6,263.1v-.8h-1.4v.8h1.4ZM480.2,263.8v.8h1.4v-.8h-1.4Z"/>
      <path class="st7" d="M500.9,268.2c0,.8-.1,1.1-.6,1.3s-1.4.3-2.5.3c0-.4-.3-.9-.4-1.3h2c.3,0,.4,0,.4-.3v-7.1h-8.2v8.6h-1.3v-9.8h3.5c.3-.8.6-1.5.8-2.3l1.5.3c-.3.6-.6,1.4-1,2h5.7v8.3h.1ZM494.1,267v.9h-1.1v-5.3h5v4.4h-4,.1ZM494.1,263.7v2.1h2.9v-2.1h-2.9Z"/>
      <path class="st7" d="M506.9,260.8h-4.3v-1h4.3v1ZM514.3,268.2c0,.6-.1,1-.5,1.3s-1,.3-2,.3c0-.3-.3-.9-.4-1.3h1.5q.3,0,.3-.3v-9.1h-4.7v3.7c0,2-.1,4.9-1.1,6.8-.3-.3-.8-.5-1-.6h0c0-.1-2.4-.1-2.4-.1v.6h-1v-4.4h3.4v3.8c.9-1.8.9-4.2.9-5.9v-4.8h6.8v10.1h.3ZM506.5,262.6h-3.4v-.9h3.4v.9ZM503.2,263.3h3.4v1h-3.4v-1ZM506.5,259h-3.3v-1h3.3v1ZM505.5,266.1h-1.4v1.9h1.4v-1.9ZM510.4,262.4v-1.1h-1.1v-.9h1.1v-1h1v1h1.3v.9h-1.3v1.1h1.4v.9h-3.7v-.9h1.3ZM510.1,267.6v.5h-.9v-3.9h3.3v3.4h-2.4ZM510.1,265.1v1.6h1.5v-1.6h-1.5Z"/>
      <path class="st7" d="M523.5,260.3c1.1,1.1,2.8,2,4.3,2.5-.3.3-.6.6-.8,1-1.8-.6-3.5-1.9-4.7-3.4v2.4h-1.3v-2.5c-1.1,1.5-2.9,2.8-4.7,3.4-.1-.3-.5-.8-.8-.9,1.5-.5,3.2-1.5,4.2-2.7h-3.9v-1h5.2v-1.5h1.3v1.5h5.2v1h-4,0ZM525.4,268.4h2.1v1.1h-11.7v-1.1h2.1v-5h7.3v5h.1ZM519.4,264.3v.8h4.9v-.8h-4.9ZM524.3,266h-4.9v.8h4.9v-.8ZM519.4,268.4h4.9v-.8h-4.9v.8Z"/>
      <path class="st7" d="M529.5,269.4c1-.4,1.6-1,1.6-1.8h-.1c-.6,0-1.1-.4-1.1-1s.5-1,1.1-1,1.3.6,1.3,1.6-.9,2.5-2.4,3l-.4-.9Z"/>
      <path class="st7" d="M535.4,268.7c.9-.5,1.5-1.4,1.8-2.3l1,.4c-.4,1-.9,1.9-1.9,2.5l-1-.6h.1ZM547.1,261.6h-11.2v-1h3c0-.4-.3-.8-.5-1.1h.3-2.3v-1h4.3v-.8h1.3v.8h4.4v1h-2,.4c-.3.5-.5.9-.6,1.1h3v1ZM545.7,266h-4.5c.6.3,1.4.8,1.8,1l-.8.8c-.5-.4-1.4-1-2.1-1.3l.5-.5h-3.2v-3.8h8.5v3.8h-.1ZM544.5,263.1h-6.1v.6h6.1v-.6ZM544.5,264.5h-6.1v.6h6.1v-.6ZM542.8,268.6c.5,0,.6-.1.6-1.3.3.1.8.4,1,.4-.1,1.5-.5,1.8-1.6,1.8h-2.3c-1.5,0-1.8-.3-1.8-1.4v-1.5h1.1v1.5c0,.3,0,.4.8.4h2.1,0ZM539.7,259.4c.3.4.4.9.5,1.1h-.3,3.3-.3c.1-.4.4-.9.5-1.1h-3.8,0ZM545.2,266.5c.9.6,1.8,1.6,2.3,2.4l-1,.6c-.4-.8-1.4-1.8-2.1-2.4l.9-.5h0Z"/>
      <path class="st7" d="M558.9,268.5c.5,0,.6-.3.6-1.8.3.3.8.4,1.1.5-.1,2-.5,2.4-1.6,2.4h-1.9c-1.4,0-1.8-.4-1.8-1.6v-2.4h-1.9c-.3,2.1-1.1,3.4-4.2,4.2,0-.3-.5-.9-.8-1.1,2.7-.5,3.3-1.5,3.5-3h-1.6v-7.6h8.3v7.6h-2.3v2.4c0,.4,0,.5.6.5h1.8ZM551.7,260.3h5.9v-1.1h-5.9v1.1ZM551.7,262.4h5.9v-1.1h-5.9v1.1ZM551.7,264.6h5.9v-1.1h-5.9v1.1Z"/>
      <path class="st7" d="M567.2,267.9c.5,0,.9,0,1.1-.1,1.6-.4,3.2-1.6,3.2-3.7s-1.1-3.4-3.2-3.7c-.1,1.1-.4,2.4-.8,3.7-.8,2.7-1.9,4.2-3.2,4.2s-2.5-1.5-2.5-3.7,2.5-5.4,5.8-5.4,5,2.1,5,4.9-1.8,4.7-4.9,5l-.8-1.3h.1ZM566.3,263.8c.4-1,.6-2.1.8-3.4-2.4.4-3.7,2.4-3.7,4s.6,2.1,1.1,2.1,1.1-.9,1.8-2.9h0Z"/>
      <path class="st7" d="M582.6,263.3v1.8h3v1.1h-3v1.8q0,.5.5.5h1.3c.4,0,.5-.3.5-1.5.3.3.8.4,1.1.5,0,1.6-.5,2.1-1.5,2.1h-1.6c-1.3,0-1.5-.4-1.5-1.6v-1.8h-2.1c-.3,1.4-1.1,2.7-3.5,3.5-.1-.3-.5-.8-.8-1,2-.6,2.8-1.6,3-2.7h-2.8v-1.1h2.9v-1.8h-1.3v-.5c-.6.4-1.3.8-1.9,1.1-.1-.3-.5-.8-.8-.9.9-.4,1.6-.9,2.4-1.5-.4-.4-1-.9-1.4-1.3l.8-.6c.5.3,1,.8,1.4,1.1.4-.5.8-1,1-1.5h-3v-1h3.8l.8.4c-.5,1.5-1.4,2.7-2.4,3.7h5.6c-1.1-1.1-2-2.5-2.7-4.2l1.1-.3c.3.5.5,1,.8,1.5l1.4-1.4.9.6c-.5.5-1.3,1.1-1.8,1.5.3.3.5.6.8.9.6-.5,1.3-1.1,1.6-1.5l.9.6c-.6.5-1.3,1.1-1.9,1.5.6.6,1.4,1,2.3,1.4-.3.3-.6.8-.9,1-.6-.3-1.3-.6-1.8-1.1v.5h-1.4.3ZM581.3,263.3h-2v1.6h2v-1.8h0Z"/>
      <path class="st7" d="M591.7,258c-.4.9-.8,1.8-1.3,2.7v9h-1.1v-7.2c-.4.5-.9,1.1-1.3,1.5,0-.3-.5-.9-.6-1.3,1.3-1.3,2.5-3.2,3.3-5l1.1.4h-.1ZM599.5,260v1h-8.5v-1h8.5ZM592.1,265.6h6.7v4.2h-1.3v-.5h-4.3v.5h-1.1v-4.2ZM598.6,262.9h-6.4v-1h6.4v1ZM592.2,263.7h6.3v1h-6.3v-1ZM598.4,259.3h-5.9v-1h5.9v1ZM593.2,266.5v1.6h4.3v-1.6h-4.3Z"/>
      <path class="st7" d="M603.8,263.7c0,2.7-1.1,4.8-2.7,6.3l-1-.5c1.4-1.5,2.4-3.4,2.4-5.8s-1-4.3-2.4-5.8l1-.5c1.5,1.5,2.7,3.7,2.7,6.3Z"/>
    </g>
  </g>
  <path class="st7" d="M381.2,352.1c.9,1.3,2.5,2,4.7,2.3-.3.3-.5.8-.8,1-2.5-.4-4.2-1.5-5.2-3.3-.8,1.3-2.1,2.4-5,3.3-.1-.3-.5-.8-.8-1,2.4-.6,3.7-1.4,4.4-2.4h-4.2v-1h4.8c0-.4.1-.8.3-1h-3.5v-1h3.5v-1h-3.8v-.8h-1.1v-2.7h4.9v-1.3h1.3v1.3h4.9v2.7h-1v.8h-3.9v1h3.7v1h-3.8c0,.4,0,.8-.1,1h5.3v1h-4.5,0ZM379.4,347v-.9h1.3v.9h3.7v-1.3h-8.6v1.3h3.7Z"/>
  <path class="st7" d="M392.4,353.6c-1.8.5-3.7.9-5,1.3l-.3-1.1h.6v-4.5h1v4.2h.8v-5.3h-1.6v-4.2h4.2v4.2h-1.4v1.8h1.6v1h-1.6v2.1l1.8-.4v1h0ZM388.7,347h2v-2h-2v2ZM398.6,351c-.5.8-1.1,1.4-1.9,2,.4.8.8,1.1,1.1,1.1s.4-.4.5-1.6c.3.3.6.5.9.6-.3,1.8-.5,2.3-1.5,2.3s-1.5-.6-2-1.6c-1,.6-2.1,1.1-3.3,1.5-.1-.3-.5-.8-.8-1,1.3-.4,2.5-.9,3.5-1.5-.3-.6-.4-1.4-.5-2.1l-2.4.3v-1l2.1-.3c0-.4,0-.8-.1-1h-1.8c0,.1,0-.9,0-.9h1.8v-1.1l-1.9.3v-1h1.9v-2.3h1.3v2l2.3-.3c-.4-.4-1.1-.8-1.8-1.1l.6-.8c.6.3,1.4.8,1.9,1.1l-.6.8h.8v1l-3.2.3v1l2.8-.3v1l-2.7.3c0,.4,0,.8.1,1l3.3-.4v1l-3,.4c0,.5.3,1,.4,1.5.5-.4.9-.9,1.3-1.4l1,.5v-.3Z"/>
  <path class="st7" d="M410.7,348.6c-.8,1.8-1.8,3.2-3.3,4.2,1.4.6,3,1.1,4.9,1.4-.3.3-.6.9-.8,1.1-2.1-.3-3.9-.9-5.3-1.8-1.5.9-3.4,1.4-5.3,1.8,0-.3-.4-.9-.6-1.1,1.8-.3,3.4-.8,4.9-1.4-1-.9-1.9-1.9-2.5-3.2l.9-.3h-2.1v-1.3h4.3v-1.8h-4.8v-1.3h4.8v-1.9h1.3v1.9h4.9v1.3h-4.9v1.8h3l.9.5h-.3ZM403.8,349.4c.6,1.1,1.4,2,2.5,2.8,1.1-.8,2-1.6,2.7-2.8h-5.2Z"/>
  <path class="st7" d="M416,350.9v3.2c0,.6,0,.9-.5,1.1-.4.3-.9.3-1.8.3,0-.3-.1-.8-.4-1.1h1.1c.1,0,.3,0,.3-.3v-2.9l-1.5.5-.3-1.3c.5,0,1-.3,1.6-.5v-2.9h-1.5v-1.1h1.5v-2.5h1.1v2.5h1.3v1.1h-1.3v2.7c.4,0,.9-.3,1.3-.4v1.1c.1,0-1.3.5-1.3.5h.3ZM424.5,350.7c-.4,1.3-.9,2.1-1.6,2.9.8.4,1.8.8,2.8.9-.3.3-.6.8-.8,1-1.1-.3-2-.6-2.9-1.1-.8.5-1.6.9-2.7,1.1-.1-.3-.5-.8-.6-.9.9-.3,1.8-.5,2.4-.9-.5-.4-.9-.9-1.3-1.4-.5,1.3-1.3,2.4-2.5,3.2-.1-.3-.5-.6-.8-.9,1.8-1.1,2.5-3,2.8-4.8h-1.6v-1h1.9v-.9h-1.6v-1h.9c0-.4-.4-1-.5-1.5l.9-.3c.3.5.5,1.1.6,1.5l-.8.3h3.4c.4-.6.9-1.5,1.1-2.1l1.1.4c-.4.6-.8,1.3-1.1,1.8h1.4v1h-4.3v.9h4.8v1h-4.9c0,.3,0,.5-.1.8h3.7l.6.3h-.3ZM424.8,344.4c-1.9.4-4.7.6-6.9.6,0-.3-.1-.6-.3-.9,2.3,0,5-.3,6.6-.6l.6.9ZM420.3,351.4c.4.6.9,1.1,1.5,1.6.5-.4.9-1,1.3-1.6h-2.8ZM420.7,346.7c0-.4-.3-1.1-.4-1.8h1c.1.4.3,1.1.4,1.5l-1,.3h0Z"/>
  <path class="st7" d="M430.4,347c-1.1.4-2.4.8-3.3,1l-.5-1.1c1-.3,2.4-.5,3.7-.9v1h.1ZM431.6,353.8c-1,.6-2.7,1.3-4,1.6-.3-.3-.6-.8-.9-.9,1.4-.3,2.9-.8,3.8-1.3l1.1.5h0ZM429.9,345.5c-.6-.4-1.8-.8-2.8-1.1l.5-.9c.9.3,2.1.6,2.8,1l-.5.9h0ZM432.4,345.1c-.3.4-.6.8-1.1,1.1-.3-.3-.6-.5-.9-.6,1-.6,1.6-1.5,1.9-2.3h1.1c0,.4-.3.6-.4.9h5.2c-.4.8-.9,1.5-1.3,2l-1-.3c.3-.3.5-.5.6-.9h-1.8c.3.9,1,1.8,3.7,2.1-.3.3-.5.8-.6,1-.4,0-.8-.1-1-.3v5.2h-8.6v-5.3h2.7c0-.3-.4-.6-.5-.8,2.1-.4,2.9-1,3.2-2h-1.1ZM435.7,348.8h-6.2v.8h6.2v-.8ZM435.7,350.3h-6.2v.8h6.2v-.8ZM435.7,351.8h-6.2v.8h6.2v-.8ZM436.7,348c-1.3-.4-2-1-2.4-1.8-.5.8-1.4,1.4-2.9,1.8h5.3,0ZM434.4,353.3c1.4.5,3,1.1,3.9,1.5l-1.4.6c-.8-.4-2.1-1-3.5-1.5l1-.6Z"/>
  <path class="st7" d="M442.9,349c.4.4,1.6,2,1.9,2.4l-.8,1c-.3-.5-.8-1.3-1.1-2v5h-1.1v-5c-.5,1.3-1,2.7-1.6,3.5,0-.4-.4-.9-.6-1.3.8-.9,1.5-2.4,1.9-3.8h-1.6v-1.1h2v-4.3h1.1v4.3h2v1.1h-2ZM440.4,347.4c0-.8-.4-2-.6-2.9l.9-.3c.4.9.6,2.1.8,2.9l-.9.3h-.1ZM445,344.4c-.4,1-.8,2.3-1.1,3l-.8-.3c.3-.8.6-2.1.8-3l1,.3h.1ZM450.1,351.8v3.7h-1.1v-3.4l-3.9.8-.3-1.1,4-.8v-7.4h1.1v7.3l1.5-.3v1.1c.1,0-1.5.3-1.5.3h.1ZM447.3,349.9c-.5-.5-1.4-1.1-2.1-1.5l.6-.9c.8.4,1.8,1,2.1,1.5l-.6,1h0ZM447.8,346.7c-.4-.5-1.3-1.3-2-1.6l.6-.9c.8.5,1.6,1.1,2,1.6l-.6.9Z"/>
  <path class="st7" d="M458.3,353.6c.5,0,.9,0,1.1-.1,1.6-.4,3.2-1.6,3.2-3.7s-1.1-3.4-3.2-3.7c-.1,1.1-.4,2.4-.8,3.7-.8,2.7-1.9,4.2-3.2,4.2s-2.5-1.5-2.5-3.7,2.5-5.4,5.8-5.4,5,2.1,5,4.9-1.8,4.7-4.9,5l-.8-1.3h.1ZM457.4,349.4c.4-1,.6-2.1.8-3.4-2.4.4-3.7,2.4-3.7,4s.6,2.1,1.1,2.1,1.1-.9,1.8-2.9h0Z"/>
  <path class="st7" d="M467.2,348.4v7.1h-1.3v-11.5h4.9v4.4h-3.7ZM467.2,344.7v.9h2.5v-.9h-2.5ZM469.8,347.5v-1h-2.5v1h2.5ZM473.2,352.3v2.8h-1.1v-2.8h-1.6c0,.9-.5,2.3-1.8,3-.1-.3-.5-.5-.8-.8,1-.6,1.4-1.5,1.4-2.3h-1.5v-1h1.5v-1.3h-1.3v-1h6.3v1h-1.4v1.3h1.6v1h-1.6.3ZM472.2,351.3v-1.3h-1.5v1.3h1.5ZM476.8,353.9c0,.6-.1,1-.5,1.3s-1.1.3-2,.3c0-.4-.3-.9-.4-1.3h1.5q.3,0,.3-.3v-5.6h-3.8v-4.5h4.9v10h0ZM473,344.7v.9h2.7v-.9h-2.7ZM475.7,347.5v-1h-2.7v1h2.7Z"/>
  <path class="st7" d="M486.8,349v1.8h3v1.1h-3v1.8q0,.5.5.5h1.3c.4,0,.5-.3.5-1.5.3.3.8.4,1.1.5,0,1.6-.5,2.1-1.5,2.1h-1.6c-1.3,0-1.5-.4-1.5-1.6v-1.8h-2.1c-.3,1.4-1.1,2.7-3.5,3.5-.1-.3-.5-.8-.8-1,2-.6,2.8-1.6,3-2.7h-2.8v-1.1h2.9v-1.8h-1.3v-.5c-.6.4-1.3.8-1.9,1.1-.1-.3-.5-.8-.8-.9.9-.4,1.6-.9,2.4-1.5-.4-.4-1-.9-1.4-1.3l.8-.6c.5.3,1,.8,1.4,1.1.4-.5.8-1,1-1.5h-3v-1h3.8l.8.4c-.5,1.5-1.4,2.7-2.4,3.7h5.6c-1.1-1.1-2-2.5-2.7-4.2l1.1-.3c.3.5.5,1,.8,1.5l1.4-1.4.9.6c-.5.5-1.3,1.1-1.8,1.5.3.3.5.6.8.9.6-.5,1.3-1.1,1.6-1.5l.9.6c-.6.5-1.3,1.1-1.9,1.5.6.6,1.4,1,2.3,1.4-.3.3-.6.8-.9,1-.6-.3-1.3-.6-1.8-1.1v.5h-1.4.3ZM485.5,349h-2v1.6h2v-1.8h0Z"/>
  <path class="st7" d="M375.2,365.2c0-2.7,1.1-4.8,2.7-6.3l1,.5c-1.4,1.5-2.4,3.4-2.4,5.8s1,4.3,2.4,5.8l-1,.5c-1.5-1.5-2.7-3.7-2.7-6.3Z"/>
  <path class="st7" d="M384.2,362.3h-4.7v-1h4.7v1ZM383.8,370.5h-2.8v.5h-1v-4.4h3.8v3.9ZM383.8,364h-3.8v-.9h3.8v.9ZM380.1,364.8h3.8v1h-3.8v-1ZM383.8,360.5h-3.7v-1h3.7v1ZM381.2,367.6v1.9h1.8v-1.9h-1.8ZM389,366.8c.6,1.1,1.8,2.1,2.8,2.8-.3.3-.6.6-.9.9-.9-.6-1.8-1.6-2.4-2.8v3.4h-1.1v-3.3c-.8,1.1-1.6,2.1-2.5,2.8-.1-.3-.5-.8-.8-.9,1.1-.6,2.1-1.6,2.9-2.8h-2.4v-1.1h2.9v-.9h-2.5v-5.2h6.2v5.2h-2.5v.9h2.9v1.1h-2.5ZM385.8,361.8h1.5v-1.1h-1.5v1.1ZM385.8,363.8h1.5v-1.1h-1.5v1.1ZM389.9,360.6h-1.5v1.1h1.5v-1.1ZM389.9,362.7h-1.5v1.1h1.5v-1.1Z"/>
  <path class="st7" d="M396.3,369.5c.9.4,2.1.4,3.5.4h4.9c-.1.3-.4.8-.4,1h-4.5c-2.7,0-4.4-.3-5.6-1.9-.1.9-.5,1.6-1,2.3-.1-.3-.5-.6-.8-.9.8-.9.9-2.5,1-4.2h1v1.5c.3.5.5.9.9,1.1v-3.3h-2.5v-.9h5.8v.9h-2.3v1.3h2v.9h-2v1.8h-.1ZM397.9,363.8h-4.4v-4.2h4.4v4.2ZM396.8,360.5h-2.3v.9h2.3v-.9ZM396.8,362.1h-2.3v.9h2.3v-.9ZM401.1,367.8c-.5.8-1.5,1.5-2.3,1.9-.1-.3-.5-.6-.8-.8.8-.4,1.6-.9,2.1-1.5l1,.3h-.1ZM400.7,361.5c0-.3.1-.5.3-.9h-2.4v-.9h5.9v.9h-2.4c0,.3-.3.6-.4.9h2.4v5.8h-5v-5.8h1.6,0ZM402.9,362.3h-2.8v.8h2.8v-.8ZM402.9,363.9h-2.8v.8h2.8v-.8ZM402.9,365.6h-2.8v.9h2.8v-.9ZM402.7,367.4c.8.5,1.5,1.1,2,1.6l-.9.5c-.4-.5-1.3-1.3-1.9-1.8l.9-.5h-.1Z"/>
  <path class="st7" d="M410.2,365.8c-.5.1-1,.3-1.5.5v3.5c0,.6-.1.9-.5,1.1-.4.1-.9.3-1.8.3,0-.3-.3-.8-.4-1.1h1.3c.1,0,.3,0,.3-.3v-3.2c-.5.1-1.1.3-1.6.5l-.3-1.1c.5-.1,1.1-.3,1.9-.5v-2.7h-1.8v-1.1h1.8v-2.5h1.1v2.5h1.4v1.1h-1.4v2.3l1.4-.4v1.1h.1ZM417.6,362v9h-1.3v-.9h-4.8v.9h-1.1v-9.1h2.9v-2.9h1.1v2.9h3.2ZM411.6,363.3v2.3h1.8v-2.3h-1.8ZM411.6,369.1h1.8v-2.4h-1.8v2.4ZM414.6,363.3v2.3h1.8v-2.3h-1.8ZM416.4,369.1v-2.4h-1.8v2.4h1.8Z"/>
  <path class="st7" d="M430.1,365.7v5.4h-1.3v-.8h-7.7v.8h-1.3v-5.4h1.3v3.4h3.2v-4.3h-3.9v-4.5h1.3v3.4h2.7v-4.5h1.3v4.5h2.8v-3.4h1.3v4.5h-4v4.3h3.4v-3.4h1.3-.1Z"/>
  <path class="st7" d="M434.8,363.7c.9,0,1.5.6,1.5,1.5s-.6,1.5-1.5,1.5-1.5-.6-1.5-1.5.6-1.5,1.5-1.5Z"/>
  <path class="st7" d="M443.9,362.8c-.3,1.5-.6,2.8-1.1,3.9.6.8,1.1,1.5,1.4,2.1l-1,.9c-.3-.5-.6-1.1-1-1.8-.8,1.3-1.6,2.3-2.8,3-.1-.3-.6-.8-.9-.9,1.3-.8,2.3-1.9,2.9-3.2-.8-1-1.5-1.9-2.3-2.8l.9-.8c.6.6,1.3,1.4,1.9,2.1.3-.9.5-1.9.8-3h1.1v.3ZM450.6,363.3h-1.5v6.3c0,.8-.1,1.1-.6,1.4s-1.1.3-2.3.3c0-.4-.3-.9-.4-1.3h1.8q.3,0,.3-.3v-6.3h-3.4v-1h-5.7v-1.1h2.4v-2h1.1v2h2.5v.9h3v-3h1.3v3h1.5v1.1h0ZM445.9,367.8c-.3-.8-.8-2-1.4-2.9l1-.5c.6.9,1.3,2,1.4,2.8l-1,.5h0Z"/>
  <path class="st7" d="M458.5,366.9c1,1.1,3,2.1,5.4,2.7-.3.3-.6.8-.8,1.1-1.9-.5-3.5-1.4-4.5-2.4v2.9h-1.3v-2.9c-1.3,1.1-2.9,2-4.7,2.5-.1-.3-.5-.8-.8-1,2.1-.5,4.3-1.5,5.4-2.9v-1h-2.9v2.4h-1.3v-3.4h4.2v-.9h-5v-1h5v-.6c-.1,0-.3-.3-.4-.3l.8-.8h-2c.3.4.4.8.5,1.1l-1.1.4c0-.4-.4-1-.6-1.5h-.5c-.4.5-.8,1-1.1,1.4-.3-.3-.8-.5-1-.6.9-.8,1.6-1.8,2-2.9l1.1.3c0,.3-.3.5-.4.9h3.2v1c.5-.6,1-1.4,1.3-2.1l1.1.3c0,.3-.3.6-.4.9h3.9v1h-2.4c.3.4.5.8.5,1.1l-1.1.4c-.1-.4-.4-.9-.8-1.4h-.9c-.3.3-.4.6-.6.9h.1v.8h4.9v1h-4.9v.9h4.2v2.3c0,.5,0,.8-.5,1-.4.1-1,.1-1.6.1,0-.3-.3-.8-.4-1h1.1c.1,0,.3,0,.3-.1v-1.3h-2.9v1.1-.3Z"/>
  <path class="st7" d="M473.9,367.7c.8,1.5,1.8,2,3.2,2.5-.3.3-.6.6-.8,1-1.4-.5-2.5-1.3-3.3-2.8-.5,1.1-1.5,2.1-3.7,2.8,0-.3-.5-.8-.6-.9,2.1-.6,3-1.6,3.4-2.7h-2.5v-3.4h2.8v-1h-1.9v-.6c-.4.3-.8.5-1.1.6,0-.1-.1-.4-.3-.5v.3h-1.3v.9c.4.5,1.4,1.9,1.5,2.3l-.6,1c-.1-.4-.5-1.1-.9-1.8v5.9h-1.1v-5.6c-.4,1.3-.9,2.4-1.4,3.2-.1-.4-.4-.8-.6-1,.8-1.1,1.5-3,1.9-4.7h-1.6v-1.1h1.8v-2.8h1.1v2.8h1.3c1.3-.5,2.5-1.6,3.2-2.8h1.1c.9,1.3,2.3,2.4,3.7,3-.3.3-.5.8-.6,1.1-.4-.1-.8-.4-1.1-.6v.6h-1.9v1h2.9v3.4h-2.4v-.3ZM472.4,366.7v-1.6h-1.6v1.5h1.6ZM474.9,362.1c-.8-.6-1.5-1.3-1.9-2-.4.6-1.1,1.4-1.9,2h3.8ZM473.5,365.2v1.5h1.8v-1.5h-1.8Z"/>
  <path class="st7" d="M478,361.3h5.2v1h-5.2v-1ZM482.6,370.5h-3v.5h-1.1v-4.4h4.2v3.9ZM478.6,363h4.2v.9h-4.2v-.9ZM478.6,364.8h4.2v1h-4.2v-1ZM482.8,360.5h-4v-1h4v1ZM479.6,367.6v1.9h1.9v-1.9h-1.9ZM490.1,363.2h-1.5v6.4c0,.8-.1,1.1-.6,1.4s-1.3.3-2.4.3c0-.4-.3-.9-.5-1.3h2c.3,0,.4,0,.4-.3v-6.4h-3.9v-1.1h3.9v-2.9h1.3v2.9h1.5v1.1h-.1ZM485.4,367.8c-.3-.9-.9-2.1-1.6-3l1-.5c.6.9,1.4,2.1,1.6,2.9l-1,.6Z"/>
  <path class="st7" d="M491.7,370.9c1-.4,1.6-1,1.6-1.8h-.1c-.6,0-1.1-.4-1.1-1s.5-1,1.1-1,1.3.6,1.3,1.6-.9,2.5-2.4,3l-.4-.9Z"/>
  <path class="st7" d="M501.4,365.4v.8c.6.6,2.1,2.4,2.5,2.8l-.9,1c-.4-.6-1.3-1.8-2-2.5-.4,1.4-1.3,2.7-2.7,3.7-.1-.3-.6-.8-.9-.9,1.9-1.3,2.4-3.2,2.7-4.8h-2.5v-1.1h2.5v-2.4h-.8c-.3.8-.6,1.4-1,1.9-.3-.3-.8-.5-1-.8.8-1,1.3-2.5,1.5-4l1.1.3c0,.5-.3,1-.4,1.5h3.5v1.1h-1.9v2.4h2.3v1.1h-2.4.3ZM509,360.3v10.3h-1.3v-.9h-2.4v1h-1.1v-10.6h4.8ZM507.9,368.7v-7.3h-2.4v7.3h2.4Z"/>
  <path class="st7" d="M521.1,369.8c.5,0,.6-.3.6-1.8.3.3.8.4,1.1.5-.1,2-.5,2.4-1.6,2.4h-1.9c-1.4,0-1.8-.4-1.8-1.6v-2.4h-1.9c-.3,2.1-1.1,3.4-4.2,4.2,0-.3-.5-.9-.8-1.1,2.7-.5,3.3-1.5,3.5-3h-1.6v-7.6h8.3v7.6h-2.3v2.4c0,.4,0,.5.6.5h1.8ZM513.8,361.8h5.9v-1.1h-5.9v1.1ZM513.8,363.8h5.9v-1.1h-5.9v1.1ZM513.8,365.9h5.9v-1.1h-5.9v1.1Z"/>
  <path class="st7" d="M533.1,363.9c1,.6,2.3,1.5,2.9,2.1l-1,.6-.6-.6c-3.7,0-7.6.1-10.2.3v-1h3.5c-.6-.4-1.5-.9-2.3-1.1l.8-.6c.3,0,.5.3.9.4.3-.3.6-.5.9-.6h-3.7v-1h5v-.8h1.1v.8h5v1h-4.2l.9.5c-.8.5-1.6,1.1-2.5,1.6h3.4c-.4-.4-.8-.6-1.1-.9l.9-.5h.3ZM527.1,360.9h-2.8v-1h2.8v-.8h1.1v.8h3.3v-.8h1.1v.8h3v1h-3v.9h-1.1v-.9h-3.3v.9h-1.1v-.9ZM525.4,366.8h9.2v4.3h-1.3v-.4h-6.8v.4h-1.1v-4.3ZM526.6,367.7v.8h2.8v-.8h-2.8ZM529.5,370v-.9h-2.8v.9h2.8ZM529.5,363.2c-.5.4-1,.8-1.5,1.1.4.3.8.4,1,.6.9-.5,1.8-1.1,2.4-1.6h-1.9,0ZM533.4,367.7h-2.9v.8h2.9v-.8ZM533.4,370v-.9h-2.9v.9h2.9Z"/>
  <path class="st7" d="M541.2,367.2c-.1-.4-.6-.9-1-1.4v5.4h-1.1v-5.2c-.5,1.1-1,2.3-1.6,3-.1-.4-.4-.9-.6-1.1.8-.9,1.6-2.5,2.1-3.9h-1.8v-1.1h1.9v-1.8c-.5,0-1.1.1-1.6.3,0-.3-.3-.6-.4-.9,1.4-.3,3-.5,3.9-1l.9.9c-.5.1-1,.4-1.6.5v2h1.3v-.3h3v-.6h-2.4v-.8h2.4v-.5h-2.7v-.8h2.7v-.6h1.3v.6h2.9v.8h-2.9v.5h2.5v.8h-2.5v.6h3.2v.8h-7.3v.5h-1.4v.6c.4.4,1.4,1.4,1.6,1.8l-.8,1h.1ZM548.4,369.1h-4.4l.9.6c-.8.6-2,1.3-3.2,1.5-.1-.3-.5-.6-.8-.8,1-.3,2.3-.9,2.9-1.4h-1.4v-5.2h5.9v5.2ZM547.3,364.7h-3.7v.8h3.7v-.8ZM547.3,366.1h-3.7v.8h3.7v-.8ZM547.3,367.6h-3.7v.8h3.7v-.8ZM546.8,369.1c.9.5,1.9,1.1,2.5,1.5l-1,.6c-.5-.4-1.4-1-2.3-1.5l.8-.6h0Z"/>
  <path class="st7" d="M550.8,370.9c1-.4,1.6-1,1.6-1.8h-.1c-.6,0-1.1-.4-1.1-1s.5-1,1.1-1,1.3.6,1.3,1.6-.9,2.5-2.4,3l-.4-.9Z"/>
  <path class="st7" d="M568.7,367.1h-5.3v2.5c0,.8-.3,1.1-.8,1.4s-1.4.3-2.8.3c0-.4-.3-.9-.5-1.3h2.4c.3,0,.4,0,.4-.4v-2.5h-5.3v-1.1h5.3v-1.9h-4.4v-1.1h4.4v-1.8c-1.4,0-2.8.3-4.2.3,0-.3-.1-.8-.3-1,3.2-.1,6.8-.5,8.8-1.1l.9,1c-1.1.4-2.5.5-4,.8v1.9h4.5v1.1h-4.5v1.9h5.3v1.1h0Z"/>
  <path class="st7" d="M576,365.4v.5c-.3,3-.5,4.3-.9,4.7-.3.4-.6.4-1.1.5h-2c0-.4-.3-.9-.5-1.3h2q.4,0,.6-.1c.3-.3.5-1.1.6-3.3h-3.2v.6c-.1,0-1.4-.3-1.4-.3.3-1.1.6-2.9.8-4.3h3.8v-1.9h-4.2v-1.1h5.3v4.2h-3.9c0,.5-.1,1.1-.3,1.6h4.3ZM580.4,359.2v11.9h-1.3v-11.9h1.3Z"/>
  <path class="st7" d="M594.8,365.7v.9h-11.6v-.9h5.2v-.6h-4.3v-.8h4.3v-.6h-3.9v-.8h3.9v-.6h-5.2v-.9h5.2v-.6h-3.8v-.8h3.8v-.9h1.3v.9h3.7v1.4h1.5v.9h-1.5v1.4h-3.7v.6h4.3v.8h-4.3v.6h5.3-.1ZM584.9,367.1h8.5v4h-1.3v-.4h-6.1v.4h-1.1v-4.2h0ZM586,367.8v.6h6.1v-.6h-6.1ZM592.1,370v-.8h-6.1v.8h6.1ZM589.5,361.4h2.5v-.6h-2.5v.6ZM589.5,362.9h2.5v-.6h-2.5v.6Z"/>
  <path class="st7" d="M600.1,364.9c.9,0,1.5.6,1.5,1.5s-.6,1.5-1.5,1.5-1.5-.6-1.5-1.5.6-1.5,1.5-1.5Z"/>
  <path class="st7" d="M379.3,381.3c.6-.6,1.6-2,2.5-3,.8-.9,1.4-1,2.4,0,.9.6,1.9,1.8,2.7,2.7.9.9,2.3,2.4,3.2,3.5l-1.1,1.1c-.9-1.1-2-2.5-2.9-3.4-.9-1-2-2.1-2.5-2.7-.5-.4-.8-.4-1.1,0-.6.8-1.6,2.1-2.1,2.8-.3.4-.6.8-.8,1.1l-1.3-1.3c.4-.3.6-.5,1-.9h.1ZM388,378.9l-.9.4c-.4-.8-.8-1.5-1.3-2.1l.9-.4c.4.5.9,1.5,1.3,2.1ZM389.7,378.3l-.9.5c-.4-.8-.8-1.5-1.3-2l.9-.4c.4.5,1,1.4,1.3,2h0Z"/>
  <path class="st7" d="M401.1,377c0,.1-.3.5-.4.6-.5,1.1-1.3,2.5-2.1,3.8,1.4,1.1,2.9,2.9,3.8,3.8l-1.1,1c-.9-1.1-2.1-2.7-3.4-3.8-1.4,1.5-3.2,2.9-5,3.8l-1-1.1c2.1-.8,4-2.4,5.4-3.8.9-1,1.8-2.4,2.1-3.4h-6.2v-1.5h6.3c.5,0,.9,0,1.1-.1l.9.6h-.4Z"/>
  <path class="st7" d="M411.6,382.7c-1.4-.8-3.5-1.5-4.9-2v5.7h-1.6v-10.7h1.6v3.5c1.8.5,4.3,1.5,5.6,2.1l-.6,1.4h0Z"/>
  <path class="st7" d="M421.5,376.8h.5v-.4c0-.9.6-1.5,1.5-1.5s1.5.6,1.5,1.5-.6,1.5-1.5,1.5-.3,0-.4,0v.3c-.4,1.4-1,3.4-2,4.8-1.1,1.5-2.8,2.8-5.2,3.5l-1.1-1.3c2.5-.6,4-1.8,5.2-3.2.9-1.1,1.5-2.8,1.6-4h-7.8v-1.5h7.7v.3ZM424.5,376.4c0-.5-.4-.8-.9-.8s-.8.4-.8.8.4.8.8.8.9-.4.9-.8Z"/>
  <path class="st7" d="M435.8,379.6c0,.1-.1.4-.3.5-.4,1.3-1,2.7-1.9,3.7-1.4,1.5-3,2.3-4.7,2.8l-1-1.1c1.9-.4,3.5-1.3,4.5-2.4.8-.8,1.3-1.8,1.5-2.7h-8.1v-1.4h9l.9.6h0ZM427.1,376h7.7v1.4h-7.6v-1.4h-.1Z"/>
  <path class="st7" d="M447.7,377.7c-.1.3-.3.5-.4.8-.4,1.3-1.1,3-2.3,4.4-1.3,1.5-2.8,2.7-5.3,3.7l-1.3-1.1c2.5-.8,4-1.9,5.3-3.3,1-1.1,1.8-2.8,2-3.9h-4c-.9,1.1-1.9,2.3-3.3,3.2l-1.1-.9c2.3-1.4,3.5-3.2,4.2-4.3.1-.3.4-.8.5-1.1l1.5.5c-.3.4-.5.9-.6,1.1,0,0,0,.3-.1.4h3.2c.4,0,.8,0,1-.1l1.1.6h-.4Z"/>
  <path class="st7" d="M458.7,379.4h1.1v1.4h-4.5c0,1.4-.3,2.5-.8,3.5-.5.9-1.5,1.9-2.7,2.4l-1.3-.9c1-.4,1.9-1.1,2.4-1.9.5-.9.8-1.9.8-3.2h-4.9v-1.4h9.8ZM451.7,377.3h-1.3v-1.4h7.8v1.4h-6.6Z"/>
  <path class="st7" d="M468.9,378.8c-.6.6-1.8,1.6-3,2.4v5.8h-1.5v-5c-1.1.6-2.7,1.3-3.9,1.5l-.8-1.3c1.6-.4,3.5-1.1,4.5-1.8,1.3-.8,2.8-1.9,3.4-2.7l1,1h.3Z"/>
  <path class="st7" d="M480.7,377.7c-.1.3-.3.5-.4.8-.4,1.3-1.1,3-2.3,4.4-1.3,1.5-2.8,2.7-5.3,3.7l-1.3-1.1c2.5-.8,4-1.9,5.3-3.3,1-1.1,1.8-2.8,2-3.9h-4c-.9,1.1-1.9,2.3-3.3,3.2l-1.1-.9c2.3-1.4,3.5-3.2,4.2-4.3.1-.3.4-.8.5-1.1l1.5.5c-.3.4-.5.9-.6,1.1,0,0,0,.3-.1.4h3.2c.4,0,.8,0,1-.1l1.1.6h-.4Z"/>
  <path class="st7" d="M491,377c0,.1-.3.5-.4.6-.5,1.1-1.3,2.5-2.1,3.8,1.4,1.1,2.9,2.9,3.8,3.8l-1.1,1c-.9-1.1-2.1-2.7-3.4-3.8-1.4,1.5-3.2,2.9-5,3.8l-1-1.1c2.1-.8,4-2.4,5.4-3.8.9-1,1.8-2.4,2.1-3.4h-6.2v-1.5h6.3c.5,0,.9,0,1.1-.1l.9.6h-.4Z"/>
  <path class="st7" d="M496,379.3c.9,0,1.5.6,1.5,1.5s-.6,1.5-1.5,1.5-1.5-.6-1.5-1.5.6-1.5,1.5-1.5Z"/>
  <path class="st7" d="M508.4,386.1v-.8h-7.7v-1.5h7.8v-5.8h-7.7v-1.4h9.1v9.3h-1.5Z"/>
  <path class="st7" d="M517.8,383.1c2.1-1.3,3.8-3.3,4.5-4.9l.8,1.4c-.9,1.6-2.5,3.5-4.7,4.8-1.4.8-3,1.6-5,1.9l-.9-1.4c2.1-.4,3.9-1,5.2-1.9h.1ZM517.5,378.8l-1,1c-.6-.8-2.3-2.1-3.3-2.8l1-1c.9.6,2.7,2,3.4,2.8h-.1Z"/>
  <path class="st7" d="M533.9,378.2h1.3v1.4h-2.5v.5c0,3.4-.8,5.3-3.8,6.7l-1.1-1c2.4-.9,3.7-2,3.7-5.6v-.5h-3.4v3.3h-1.4v-3.3h-2.7v-1.4h2.7v-2.5h1.5v2.5h3.4v-2.7h1.5v2.7h1.3-.4Z"/>
  <path class="st7" d="M535.9,385.5c1.1-.8,1.9-2,2.3-3.2s.4-3.8.4-5.2,0-.8,0-1h1.5v1c0,1.5,0,4.3-.4,5.6-.4,1.4-1.3,2.8-2.4,3.7l-1.3-.9h-.1ZM541.8,385.6v-9.7h1.5v8.3c1.1-.5,2.7-1.6,3.5-3l.8,1.1c-1.1,1.5-2.9,2.9-4.4,3.7-.3,0-.4.3-.5.4l-.9-.8h0Z"/>
  <path class="st7" d="M560.5,383.2h-1.4v2.3h-1.3v-.5h-2.8v.6c0,.6-.1.9-.6,1.1-.5.1-1.1.1-2.3.1,0-.3-.3-.8-.4-1h1.8q.3,0,.3-.3v-.8h-4v-.9h4v-.8h-5.3v-1h5.3v-.8h-4v-.9h4v-.8h-3.7v-2.4h3.7v-.6h-4.9v-1h4.9v-1h1.3v1h5.2v1h-5.2v.6h3.8v2.4h-3.8v.8h4v1.6h1.4v1h0ZM553.9,379.1v-.8h-2.5v.8h2.5ZM555.2,378.3v.8h2.5v-.8h-2.5ZM555.2,382.2h2.8v-.8h-2.8v.8ZM558,383.2h-2.8v.8h2.8v-.8Z"/>
  <path class="st7" d="M565.3,375.3c-.3.9-.6,1.8-1,2.7v9.1h-1.1v-6.9c-.4.5-.6,1-1,1.4,0-.3-.4-1-.6-1.3,1.1-1.3,2.1-3.2,2.7-5.2l1.1.3h0ZM570,383.9v-7.3h-2.4c0,.5-.3,1.1-.4,1.6h2.5c-.5,4.4-1.9,7.2-3.9,8.7-.1-.3-.5-.8-.8-.9,1-.8,1.9-1.8,2.5-3.2-.4-.4-.9-.9-1.4-1.3-.3.5-.5.9-.9,1.3-.1-.3-.5-.6-.8-.9,1.1-1.3,1.6-3.5,1.9-5.3h-1v-1.1h4.7v.9h1.1v7.6h-1.3ZM566.8,379.3c-.1.5-.3.9-.5,1.3.5.4,1,.8,1.4,1.1.3-.8.4-1.5.5-2.4h-1.5.1ZM573.4,375v10.3c0,.8-.1,1-.5,1.3s-1.1.3-2.1.3c0-.3-.3-.9-.4-1.1h1.6q.3,0,.3-.3v-10.3h1.1Z"/>
  <path class="st7" d="M583.9,383.5c.8,1.5,1.8,2,3.2,2.5-.3.3-.6.6-.8,1-1.4-.5-2.5-1.3-3.3-2.8-.5,1.1-1.5,2.1-3.7,2.8,0-.3-.5-.8-.6-.9,2.1-.6,3-1.6,3.4-2.7h-2.5v-3.4h2.8v-1h-1.9v-.6c-.4.3-.8.5-1.1.6,0-.1-.1-.4-.3-.5v.3h-1.3v.9c.4.5,1.4,1.9,1.5,2.3l-.6,1c-.1-.4-.5-1.1-.9-1.8v5.9h-1.1v-5.6c-.4,1.3-.9,2.4-1.4,3.2-.1-.4-.4-.8-.6-1,.8-1.1,1.5-3,1.9-4.7h-1.6v-1.1h1.8v-2.8h1.1v2.8h1.3c1.3-.5,2.5-1.6,3.2-2.8h1.1c.9,1.3,2.3,2.4,3.7,3-.3.3-.5.8-.6,1.1-.4-.1-.8-.4-1.1-.6v.6h-1.9v1h2.9v3.4h-2.4v-.3ZM582.3,382.5v-1.6h-1.6v1.5h1.6ZM584.9,377.9c-.8-.6-1.5-1.3-1.9-2-.4.6-1.1,1.4-1.9,2h3.8ZM583.5,381v1.5h1.8v-1.5h-1.8Z"/>
  <path class="st7" d="M587.9,377h5.2v1h-5.2v-1ZM592.7,386.1h-3v.5h-1.1v-4.4h4.2v3.9ZM588.5,378.8h4.2v.9h-4.2v-.9ZM588.5,380.6h4.2v1h-4.2v-1ZM592.7,376.3h-4v-1h4v1ZM589.7,383.4v1.9h1.9v-1.9h-1.9ZM600,378.9h-1.5v6.4c0,.8-.1,1.1-.6,1.4s-1.3.3-2.4.3c0-.4-.3-.9-.5-1.3h2c.3,0,.4,0,.4-.3v-6.4h-3.9v-1.1h3.9v-2.9h1.3v2.9h1.5v1.1h-.1ZM595.3,383.6c-.3-.9-.9-2.1-1.6-3l1-.5c.6.9,1.4,2.1,1.6,2.9l-1,.6Z"/>
  <path class="st7" d="M604.3,380.8c0,2.7-1.1,4.8-2.7,6.3l-1-.5c1.4-1.5,2.4-3.4,2.4-5.8s-1-4.3-2.4-5.8l1-.5c1.5,1.5,2.7,3.7,2.7,6.3Z"/>
  <g>
    <path class="st7" d="M384.1,475.6h1.1v1.5h-11.1v-1.5h4.8v-5.7h-3.9v-1.4h9.5v1.4h-4.2v5.7h3.8Z"/>
    <path class="st7" d="M395,477.6v-.8h-7.7v-1.5h7.8v-5.8h-7.7v-1.4h9.1v9.3h-1.5Z"/>
    <path class="st7" d="M403.2,471.9l-.8,1.1c-.8-.5-2.1-1.4-2.9-1.9l.8-1.1c.9.5,2.3,1.4,2.9,1.8h0ZM404.5,475.1c2.1-1.3,3.9-3,5-4.9l.8,1.4c-1.1,1.8-3,3.4-5.2,4.7-1.4.8-3.2,1.4-4.4,1.6l-.8-1.4c1.5-.3,3-.8,4.4-1.5h.1ZM405.1,469l-.8,1.1c-.6-.5-2-1.4-2.9-1.9l.8-1.1c.8.5,2.3,1.4,2.9,1.9Z"/>
    <path class="st7" d="M420.7,468.5c0,.1-.3.5-.4.6-.5,1.1-1.3,2.5-2.1,3.8,1.4,1.1,2.9,2.9,3.8,3.8l-1.1,1c-.9-1.1-2.1-2.7-3.4-3.8-1.4,1.5-3.2,2.9-5,3.8l-1-1.1c2.1-.8,4-2.4,5.4-3.8.9-1,1.8-2.4,2.1-3.4h-6.2v-1.5h6.3c.5,0,.9,0,1.1-.1l.9.6h-.4Z"/>
    <path class="st7" d="M432.8,470.9h1.1v1.4h-4.5c0,1.4-.3,2.5-.8,3.5-.5.9-1.5,1.9-2.7,2.4l-1.3-.9c1-.4,1.9-1.1,2.4-1.9.5-.9.8-1.9.8-3.2h-4.9v-1.4h9.8ZM425.8,468.8h-1.3v-1.4h7.8v1.4h-6.6Z"/>
    <path class="st7" d="M444.4,477.8c-.1-.5-.4-1-.6-1.6-2.1.3-6.3.8-8,.9-.4,0-.8,0-1.1.1l-.3-1.5h1.8c.8-1.9,2-5.8,2.4-7.1.1-.6.3-1,.3-1.4l1.6.4c-.1.4-.3.8-.5,1.3-.4,1.3-1.6,4.9-2.3,6.7,1.8-.1,4-.4,5.4-.6-.5-1-1-2-1.5-2.5l1.3-.5c.9,1.4,2.3,4,2.9,5.4l-1.4.6h0Z"/>
    <path class="st7" d="M450.7,474.3c-.1-.4-.5-1.1-.9-1.8v5.9h-1.1v-5.6c-.4,1.3-.9,2.4-1.4,3.2,0-.4-.4-.8-.6-1,.8-1.1,1.5-3,1.9-4.7h-1.6v-1.1h1.8v-2.8h1.1v2.8h1.4v1.1h-1.4v.8c.4.5,1.4,2,1.5,2.3l-.6.9h0ZM458.9,476.3h-.8v.9c0,.5,0,.9-.5,1-.4.1-1,.1-1.8.1,0-.3-.3-.8-.4-1h1.3c.1,0,.3,0,.3-.3v-.9h-4.2v2h-1.1v-2h-.9v-.9h.9v-3.3h2.5v-.6h-3.2v-.9h1.8v-.8h-1.1v-.9h1.1v-.8h-1.4v-.9h1.4v-1h1.1v1h1.8v-1h1.1v1h1.5v.9h-1.5v.8h1.4v.9h-1.4v.8h1.8v.9h-3.3v.6h2.7v3.3h.8v.9h.1ZM452.8,473v.8h1.5v-.8h-1.5ZM452.8,475.4h1.5v-.8h-1.5v.8ZM454,469h1.8v-.8h-1.8v.8ZM454,470.5h1.8v-.8h-1.8v.8ZM455.5,473v.8h1.5v-.8h-1.5ZM457,475.4v-.8h-1.5v.8h1.5Z"/>
    <path class="st7" d="M467.4,475.3c1.1.8,3,1.4,4.7,1.6-.3.3-.6.8-.8,1-1.6-.4-3.5-1.3-4.8-2.3v2.5h-1.1v-2.5c-1.3,1-3,1.9-4.7,2.3-.1-.3-.5-.8-.8-1,1.6-.3,3.4-1,4.5-1.8h-4.3v-1h5.2v-.6c-.3.1-.5.3-.8.4-.1-.3-.6-.6-.8-.8.4-.1.6-.3.9-.4-1.5.3-3.2.5-4.4.8v-1c.4,0,1.1-.1,1.9-.3v-1.5h-1.8v-.9h4.7v.9h-1.8v1.4c.6,0,1.1-.1,1.8-.3v.8c.5-.5.6-1,.6-1.5v-1.3h4.7v2.9h.6v-1.3c.3.1.5.4.9.4,0,.5,0,1-.1,1.3,0,.3-.3.4-.4.5-.1,0-.4.1-.6.1h-.6c-.3,0-.6,0-.8-.3-.3-.3-.3-.4-.3-1.1v-1.6h-2.4v.5c0,.8-.3,1.6-1.1,2.4h.9v.9h5.3v1h-4.4v-.3ZM461.9,468.2c-.4.5-.8.9-1.1,1.3-.3-.3-.8-.5-1-.6.8-.6,1.5-1.6,1.9-2.7l1.1.3c0,.3-.3.5-.4.8h3.2v.9c.5-.5.9-1.3,1.1-1.9l1.1.3c0,.3-.3.5-.4.8h4.2v1h-2.7c.3.4.5.6.6.9l-1,.4c-.1-.4-.5-.9-.8-1.3h-.9c-.4.5-.8.9-1.1,1.3-.3-.1-.8-.5-1-.6.3-.1.5-.4.8-.6h-2.1c.3.4.4.8.5.9l-1,.3c0-.4-.4-.9-.6-1.3h-.4ZM467.4,471c.6.4,1.4.9,1.6,1.3l-.8.8c-.4-.4-1-1-1.6-1.4l.8-.6Z"/>
  </g>
  <path class="st2" d="M457.6,0h192.2c20.6,0,37.4,16.8,37.4,37.4h0c0,20.6-16.8,37.4-37.4,37.4h-192.2c-20.6,0-37.4-16.8-37.4-37.4h0c0-20.6,16.8-37.4,37.4-37.4Z"/>
  <g>
    <path class="st7" d="M519.2,42.3c.9,1.4,2.4,2,4.6,2.1,2.2,0,6.8,0,9.3-.1-.2.4-.5,1.3-.6,1.8-2.3,0-6.5.1-8.8,0-2.5,0-4.2-.8-5.4-2.3-.8.8-1.7,1.6-2.7,2.5l-.9-1.8c.8-.5,1.8-1.3,2.6-2v-4.8h-2.4v-1.7h4.1v6.3ZM518.3,33.1c-.6-1-1.9-2.4-3-3.3l1.4-1c1.1.9,2.5,2.2,3.1,3.2l-1.5,1.2ZM525.5,42.3h-5.4v-1.4h5.4v-1h-4.1v-5.7h4.1v-1h-4.7v-1.3h4.7v-1.2h1.8v1.2h4.7v1.3h-4.7v1h4.3v5.7h-4.3v1h5.6v1.4h-5.6v1.6h-1.8v-1.6ZM522,31.6h-1.6v-2.6h12.2v2.6h-1.7v-1.2h-8.9v1.2ZM522.9,36.5h2.5v-1.1h-2.5v1.1ZM525.5,38.7v-1.1h-2.5v1.1h2.5ZM527.3,35.4v1.1h2.6v-1.1h-2.6ZM529.9,37.6h-2.6v1.1h2.6v-1.1Z"/>
    <path class="st7" d="M552.1,31.4v4h-1.8v-2.4h-12.9v2.4h-1.7v-4h2.6c-.4-.7-.9-1.5-1.5-2.1l1.6-.7c.7.8,1.5,1.8,1.8,2.5l-.6.3h3.5c-.3-.8-.9-1.8-1.4-2.6l1.6-.6c.6.8,1.3,2,1.5,2.7l-1.2.5h3.5c.7-.8,1.4-2.1,1.9-2.9l2,.6c-.6.8-1.3,1.6-1.9,2.3h2.9ZM544.5,38.9c-.2.5-.4,1-.6,1.4h6.8v6.1h-1.8v-.7h-9.9v.7h-1.8v-6.2h4.9c.1-.5.3-1,.4-1.4h-3.8v-4.6h10.3v4.6h-4.5ZM548.9,41.9h-9.9v2.3h9.9v-2.3ZM540.4,37.5h6.8v-1.9h-6.8v1.9Z"/>
    <path class="st7" d="M558.9,34.6c-1.1.8-2.3,1.5-3.4,2.1-.2-.4-.7-1.1-1.1-1.5,3.4-1.5,6.6-4.4,8.1-6.8h1.9c2.1,2.9,5.4,5.3,8.5,6.5-.4.5-.8,1.1-1.2,1.7-1.1-.6-2.4-1.2-3.5-2.1v1.5h-9.2v-1.4ZM555.5,38h16.2v1.7h-9.1c-.7,1.3-1.4,2.8-2.1,4.1,2.2,0,4.6-.2,7.1-.3-.7-.8-1.5-1.7-2.3-2.4l1.6-.9c1.8,1.5,3.7,3.6,4.6,5.1l-1.7,1c-.2-.4-.5-.8-.9-1.3-4.7.2-9.7.5-13.1.6l-.2-1.8h2.9c.7-1.3,1.4-2.9,1.8-4.2h-4.9v-1.7ZM567.9,34.3c-1.8-1.3-3.4-2.7-4.4-4.2-.9,1.4-2.5,2.9-4.2,4.2h8.7Z"/>
    <path class="st7" d="M580.6,33h-6.4v-1.5h6.4v1.5ZM580.1,45.3h-3.6v.9h-1.5v-6.6h5.1v5.8ZM575,34.2h5.1v1.4h-5.1v-1.4ZM575,36.9h5.1v1.4h-5.1v-1.4ZM580.1,30.4h-4.9v-1.4h4.9v1.4ZM576.5,41v2.8h2.2v-2.8h-2.2ZM591.5,41.7c-.5.8-1.2,1.6-1.9,2.3.4.8.8,1.1,1.3,1.1s.5-.5.6-1.7c.3.3.8.5,1.1.7-.2,1.8-.8,2.4-1.9,2.4-1,0-1.8-.6-2.4-1.6-.7.5-1.5.9-2.3,1.3-.2-.3-.6-.7-.9-1,.9-.4,1.8-.9,2.6-1.5-.3-.8-.5-1.8-.6-3h-2.4v1.1c.6,0,1.3-.2,1.9-.2v1.3s-1.9.3-1.9.3v1.7c0,.8-.1,1.1-.7,1.3-.5.2-1.3.2-2.5.2,0-.4-.3-1-.5-1.3.8,0,1.5,0,1.7,0,.2,0,.3,0,.3-.3v-1.4c-.9.1-1.8.2-2.5.3l-.2-1.4c.8,0,1.7-.2,2.7-.3v-1.2h-2.6v-1.4h2.6v-1.1c-.7,0-1.4.2-2,.2,0-.3-.2-.8-.4-1.1,1.7-.2,3.7-.5,4.8-.9l1,1.1c-.6.2-1.2.3-1.9.5v1.4h2.2c0-.8-.1-1.8-.2-2.7h1.6c0,1,0,1.9.1,2.7h3.7v1.4h-3.6c0,.7.2,1.3.4,1.9.4-.5.8-1,1.1-1.5l1.3.6ZM585.5,31.5h-4.3v-1.3h2.3c-.2-.5-.6-1-.9-1.4l1.3-.5c.5.6,1,1.4,1.2,1.9h2.7c.4-.5.8-1.3,1-1.9l1.6.5c-.4.5-.7,1-1,1.4h2.3v1.3h-4.5v1h4v1.2h-4v1.1h4.9v1.4h-11.6v-1.4h4.9v-1.1h-3.7v-1.2h3.7v-1ZM590,36.6c.8.5,1.7,1.3,2.1,1.9l-1.1.9c-.4-.6-1.3-1.4-2-1.9l1.1-.8Z"/>
  </g>
  <path class="st2" d="M307,115.1h219.5c20.6,0,37.4,16.8,37.4,37.4h0c0,20.6-16.8,37.4-37.4,37.4h-219.5c-20.6,0-37.4-16.8-37.4-37.4h0c0-20.6,16.8-37.4,37.4-37.4h0Z"/>
  <g>
    <path class="st7" d="M406.3,156h-2.1v3.5h-1.9v-.8h-4.2v1c0,1-.3,1.4-.9,1.7-.7.2-1.7.3-3.4.3,0-.4-.4-1.1-.6-1.5,1.1,0,2.3,0,2.6,0,.4,0,.5-.1.5-.5v-1h-6.2v-1.4h6.2v-1.2h-7.9v-1.4h7.9v-1.1h-6v-1.3h6v-1.2h-5.5v-3.6h5.5v-1h-7.5v-1.5h7.5v-1.4h1.9v1.4h7.7v1.5h-7.7v1h5.8v3.6h-5.8v1.2h6.1v2.4h2.1v1.4ZM396.3,149.8v-1.2h-3.7v1.2h3.7ZM398.2,148.6v1.2h3.9v-1.2h-3.9ZM398.2,154.6h4.2v-1.1h-4.2v1.1ZM402.4,156h-4.2v1.2h4.2v-1.2Z"/>
    <path class="st7" d="M424.6,147c-.5,1.2-1.3,2.3-2.2,3.2,1.2.7,2.5,1.2,4,1.5-.4.4-.9,1.1-1.1,1.5-1.6-.4-3-1-4.3-1.9-1.2.8-2.6,1.4-4.2,1.9,0-.2-.3-.5-.5-.8-.3,1.2-.7,2.3-1.1,3.2l-1.3-.6c.3-.8.6-1.9.9-3h-1.5v7.6c0,.9-.1,1.4-.7,1.7-.6.3-1.4.3-2.6.3,0-.5-.3-1.2-.5-1.7.8,0,1.6,0,1.8,0,.2,0,.3,0,.3-.3v-5.4c-.7,1.7-1.7,3.3-2.7,4.3-.2-.5-.6-1.3-.9-1.8,1.2-1,2.3-2.9,3-4.7h-2.7v-1.6h5c-1.1-.8-2.8-1.7-4.2-2.3l1.1-1.2c.6.2,1.2.5,1.8.8.6-.5,1.2-1.1,1.7-1.7h-5.2v-1.6h6.8c0,0,1.2.7,1.2.7-.7,1.2-1.9,2.4-3.1,3.3.6.4,1.2.7,1.6,1l-.9.9h1.5c0,0,1.1.3,1.1.3,0,.3-.1.5-.2.8,1.1-.3,2.1-.7,3-1.2-.7-.6-1.3-1.3-1.8-2.1-.4.4-.8.8-1.2,1.1-.4-.3-1.1-.8-1.5-1,1.6-1.1,3-2.9,3.8-4.8l1.7.5c-.2.5-.5,1-.8,1.6h6.2v1.5h-1.4ZM425.6,154.4s0,.5,0,.7c-.3,3.5-.7,5.1-1.2,5.7-.4.4-.8.5-1.3.6-.5,0-1.3,0-2.2,0,0-.5-.2-1.2-.5-1.7.8,0,1.5,0,1.8,0s.5,0,.6-.2c.3-.3.6-1.3.9-3.6h-2.9c-.7,2.4-2.1,4.4-5.2,5.6-.2-.4-.7-1.1-1.1-1.4,2.6-.9,3.8-2.4,4.4-4.2h-2.8v-1.5h3.2c0-.6.2-1.2.2-1.9h1.8c0,.7-.1,1.3-.2,1.9h4.5ZM418.9,147c.5.8,1.2,1.5,2,2.2.7-.6,1.2-1.3,1.7-2.2h-3.7Z"/>
    <path class="st7" d="M445.1,151.2s0,.6,0,.8c-.2,5.9-.5,8.1-1,8.8-.4.5-.8.7-1.4.7-.6,0-1.5,0-2.5,0,0-.5-.2-1.2-.5-1.7.9,0,1.8.1,2.2,0,.3,0,.5,0,.7-.3.4-.4.6-2.2.8-6.8h-11.5c-.3,2.8-1,6-2.6,8.3-.3-.4-1.1-.9-1.5-1.2,2.2-3.1,2.4-7.6,2.4-10.8v-4.7h13.7v5.3h-11.9c0,.5,0,1,0,1.5h13.3ZM431.8,145.9v2.2h10v-2.2h-10ZM434.8,159.4v1.1h-1.7v-6.4h7.6v5.2h-5.9ZM434.8,155.6v2.3h4.2v-2.3h-4.2Z"/>
  </g>
</svg>