<?xml version="1.0" encoding="UTF-8"?>
<svg xmlns="http://www.w3.org/2000/svg" version="1.1" viewBox="0 0 578.7 586.4">
  <!-- Generator: Adobe Illustrator 29.3.0, SVG Export Plug-In . SVG Version: 2.1.0 Build 146)  -->
  <defs>
    <style>
      .st0, .st1 {
        fill: #4a818e;
      }

      .st2, .st3, .st4, .st1 {
        isolation: isolate;
      }

      .st2, .st4, .st1 {
        mix-blend-mode: multiply;
      }

      .st5, .st4 {
        fill: #6ec2da;
      }

      .st6 {
        fill: #ca2f1c;
      }

      .st7 {
        fill: #fff;
      }

      .st4 {
        opacity: .5;
      }
    </style>
  </defs>
  <g class="st3">
    <g id="_レイヤー_1" data-name="レイヤー_1">
      <g id="Circle_x5F_with_x5F_Arrow1">
        <path id="Circle1" class="st5" d="M255.1,490.9c-7.8,0-14.2,6.4-14.2,14.2s6.4,14.2,14.2,14.2,14.2-6.4,14.2-14.2-6.4-14.2-14.2-14.2Z"/>
        <g id="Arrow2">
          <polygon class="st7" points="250.7 511.2 256.6 505.3 250.7 499.4 253.2 496.8 261.7 505.3 253.2 513.6 250.7 511.2 250.7 511.2"/>
        </g>
      </g>
      <path id="Arrow3" class="st5" d="M237.2,505.3c0-9.9,8-17.9,17.9-17.9v-63.4l-32,18.2-32-18.2v144l32,18.2,32-18.2v-45c-9.9,0-17.9-8-17.9-17.9h0v.2h0Z"/>
      <g id="Place_x5F_for_x5F_Date2">
        <rect id="Place_x5F_for_x5F_Date3" class="st5" x="106.1" y="468.3" width="117" height="73.8"/>
      </g>
      <polygon id="Halved_x5F_Arrow1" class="st4" points="191.1 424 191.1 568.2 223.1 586.4 223.1 442.4 191.1 424"/>
      <g id="Circle_x5F_with_x5F_Arrow11" data-name="Circle_x5F_with_x5F_Arrow1">
        <path id="Circle11" data-name="Circle1" class="st5" d="M255.1,66.9c-7.8,0-14.2,6.4-14.2,14.2s6.4,14.2,14.2,14.2,14.2-6.4,14.2-14.2-6.4-14.2-14.2-14.2Z"/>
        <g id="Arrow21" data-name="Arrow2">
          <polygon class="st7" points="250.7 87.2 256.6 81.3 250.7 75.4 253.2 72.8 261.7 81.3 253.2 89.6 250.7 87.2 250.7 87.2"/>
        </g>
      </g>
      <path id="Arrow31" data-name="Arrow3" class="st5" d="M237.2,81.3c0-9.9,8-17.9,17.9-17.9V0l-32,18.2L191.1,0v144l32,18.2,32-18.2v-45c-9.9,0-17.9-8-17.9-17.9h0v.2h0Z"/>
      <g id="Place_x5F_for_x5F_Date21" data-name="Place_x5F_for_x5F_Date2">
        <rect id="Place_x5F_for_x5F_Date31" data-name="Place_x5F_for_x5F_Date3" class="st5" x="106.1" y="44.3" width="117" height="73.8"/>
      </g>
      <polygon id="Halved_x5F_Arrow11" data-name="Halved_x5F_Arrow1" class="st4" points="191.1 0 191.1 144.2 223.1 162.4 223.1 18.4 191.1 0"/>
      <g id="Circle_x5F_with_x5F_Arrow12" data-name="Circle_x5F_with_x5F_Arrow1">
        <path id="Circle12" data-name="Circle1" class="st5" d="M255.1,329.1c-7.8,0-14.2,6.4-14.2,14.2s6.4,14.2,14.2,14.2,14.2-6.4,14.2-14.2-6.4-14.2-14.2-14.2Z"/>
        <g id="Arrow22" data-name="Arrow2">
          <polygon class="st7" points="250.7 349.4 256.6 343.5 250.7 337.6 253.2 335 261.7 343.5 253.2 351.8 250.7 349.4 250.7 349.4"/>
        </g>
      </g>
      <path id="Arrow32" data-name="Arrow3" class="st5" d="M237.2,343.5c0-9.9,8-17.9,17.9-17.9v-63.4l-32,18.2-32-18.2v144l32,18.2,32-18.2v-45c-9.9,0-17.9-8-17.9-17.9h0v.2h0Z"/>
      <g id="Place_x5F_for_x5F_Date22" data-name="Place_x5F_for_x5F_Date2">
        <rect id="Place_x5F_for_x5F_Date32" data-name="Place_x5F_for_x5F_Date3" class="st5" x="106.1" y="306.5" width="117" height="73.8"/>
      </g>
      <polygon id="Halved_x5F_Arrow12" data-name="Halved_x5F_Arrow1" class="st4" points="191.1 262.2 191.1 406.4 223.1 424.6 223.1 280.6 191.1 262.2"/>
      <path class="st1" d="M297.1,301.4v1.7h-12.2v1c0,2.4-.3,5.9-1.9,8.2-.3-.4-1.1-1-1.5-1.3,1.4-2,1.5-5,1.5-7v-2.7h3c-.1-.5-.4-1.2-.6-1.7h.4c0-.1-2.9-.1-2.9-.1v-1.7h5.7v-1.2h2v1.2h5.7v1.7h-2.1c-.4.6-.8,1.3-1.1,1.8h4ZM292,310.4h5v1.6h-11.8v-1.6h4.8v-1.5h-3.5v-1.5h-.1c-.4-.2-1.1-.6-1.6-.8.9-.8,1.7-2,2.1-3.3l1.8.4c-.1.3-.2.6-.4.9h1.7v-1.2h2v1.2h4.1v1.5h-4.1v1.3h3.6v1.5h-3.6v1.5h0ZM290,307.4v-1.3h-2.5c-.3.5-.6.9-1,1.3h3.5ZM287.4,299.6c.3.6.5,1.2.6,1.6h-.5c0,.1,3.9.1,3.9.1h-.3c.2-.6.4-1.2.6-1.8h-4.4,0Z"/>
      <path class="st1" d="M300.6,306.7c-.2,1.6-.5,3.3-1,4.3-.3-.2-1.1-.6-1.4-.7.5-1,.7-2.5.8-3.9l1.6.3h0ZM302.6,305.3v7h-1.7v-6.8l-2.3.2-.3-1.7h1.2c.3-.4.5-.7.8-1.1-.5-.8-1.2-1.7-1.9-2.4l1-1.3c.1.1.3.2.4.4.5-.9.9-2,1.2-2.9l1.7.6c-.6,1.1-1.3,2.4-1.9,3.4.2.2.4.5.5.7.6-.9,1.1-1.9,1.5-2.7l1.6.8c-.9,1.4-2.1,3.1-3.1,4.4h1.5c-.2-.5-.4-.8-.6-1.2l1.4-.6c.7,1.1,1.4,2.6,1.6,3.6l-1.5.7c0-.3-.2-.7-.3-1.1h-.8ZM304.1,306.4c.3.8.7,1.8.9,2.7.2-.6.3-1.1.4-1.7l1.6.3c-.2,1.4-.6,3-1.2,4l-1.6-.7c.3-.4.5-.8.7-1.4l-1.2.4c-.1-.8-.5-2.1-.9-3.2l1.4-.4h0ZM308.7,297.4c-.6,1.7-1.7,3.3-2.8,4.3-.4-.3-1.1-.9-1.5-1.2,1.1-.8,2-2.2,2.5-3.6l1.9.5h-.1ZM312.1,305.6c-.1-.3-.3-.8-.6-1.2-2.2.2-4.4.4-6.1.5l-.3-1.8h1.8c.4-1.1.8-2.4,1.1-3.4l2,.5c-.4,1-.8,2-1.3,2.9h1.9c-.2-.5-.5-.8-.7-1.1l1.5-.7c.9,1.1,1.9,2.6,2.3,3.7l-1.6.9v-.3ZM312.4,307.1c.9,1.2,1.7,2.7,2,3.8l-1.7.8c-.1-.5-.3-1.2-.7-1.9-.2,1.9-.7,2.5-1.8,2.5h-1.3c-1.5,0-1.8-.5-1.8-2.2v-3.1h1.8v3.1q0,.5.3.5h.8c.3,0,.4-.2.4-1.6.3.3,1,.6,1.5.7-.3-.7-.7-1.3-1.1-1.9l1.5-.8h.1ZM308.4,304.7c1.1.5,2.3,1.4,2.9,2l-1.3,1.2c-.6-.8-1.7-1.7-2.8-2.2l1.3-1.1h-.1ZM311.5,296.9c.7,1.1,1.9,2.4,2.9,3.1-.5.3-1.1,1-1.4,1.4-1.1-.9-2.4-2.6-3.1-3.9l1.6-.7h0Z"/>
      <path class="st1" d="M319.1,299.3c-.2,1.1-.5,2.3-.9,3.3h3.1v7.7h-3.2v1.2h-1.7v-5.2c-.2.3-.5.6-.7.9,0-.5-.4-1.8-.7-2.4,1-1.4,1.7-3.4,2.1-5.6h-1.8v-1.8h6.1v1.8h-2.5.2ZM319.7,304.4h-1.5v4.2h1.5v-4.2ZM330.9,305.4h-1.8v7h-1.9v-7h-1.9c-.1,2.5-.6,5.3-2.3,7.1-.3-.4-1.1-.9-1.5-1.2,1.4-1.6,1.9-3.9,2-5.9h-1.6v-1.9h1.6v-4.1h-1.2v-1.8h8.2v1.8h-1.4v4.1h1.8v1.9h0ZM327.3,303.5v-4.1h-1.9v4.1h1.9Z"/>
      <path class="st1" d="M343.3,311.3v-.9h-7.7c-.7,0-1.6,0-2.2.1v-2.4c.6,0,1.3.1,2.1.1h7.7v-7h-9.6v-2.3c.6,0,1.5.1,2.1.1h9.9v12.2h-2.4.1Z"/>
      <path class="st1" d="M355.6,307.1c2.9-1.7,5.1-4.3,6.1-6.5l1.3,2.4c-1.3,2.3-3.5,4.6-6.2,6.2-1.7,1-3.9,2-6.2,2.4l-1.4-2.2c2.6-.4,4.8-1.2,6.4-2.2h0ZM355.6,301.7l-1.7,1.8c-.9-.9-3-2.8-4.2-3.6l1.6-1.7c1.2.8,3.4,2.5,4.3,3.5h0Z"/>
      <path class="st1" d="M366.6,298.3c.8,1.2,2.3,3.7,2.9,4.9l-2.2,1.3c-.7-1.5-1.9-3.8-2.8-5.1l2.1-1.1h0ZM372.7,305.3c1.2-1.8,1.7-3.7,2-5.1.2-.8.2-1.6.2-2l2.7.4c-.2.6-.4,1.5-.5,1.9-.4,2-1.1,4-2.3,5.9-1.3,2-3.2,3.9-5.8,5.2l-2-1.7c2.7-1.1,4.5-2.8,5.7-4.6h0Z"/>
      <path class="st1" d="M379.8,303.1c.6,0,1.8.1,2.7.1h9c.8,0,1.5,0,2-.1v2.6h-13.7v-2.6Z"/>
      <path class="st1" d="M400.6,303.8l-1.2,1.9c-1-.7-2.7-1.8-3.8-2.4l1.2-1.9c1.1.6,3,1.8,3.8,2.4ZM402,307.6c2.9-1.6,5.2-3.9,6.5-6.3l1.3,2.3c-1.6,2.3-3.9,4.5-6.7,6-1.7,1-4.1,1.8-5.6,2.1l-1.3-2.2c1.9-.3,3.9-.9,5.7-1.9h.1ZM403.2,300l-1.3,1.9c-.9-.7-2.7-1.8-3.8-2.4l1.2-1.8c1.1.6,3,1.8,3.8,2.4h0Z"/>
      <path class="st1" d="M425.5,299.5c-.2.2-.5.6-.7.9-.8,1.3-2.4,3.4-4,4.6l-1.7-1.4c1.3-.8,2.7-2.3,3.1-3.1h-8.8c-.7,0-1.3,0-2,.1v-2.3c.6.1,1.3.2,2,.2h9.1c.5,0,1.4,0,1.7-.2l1.3,1.2ZM418.7,301.8c0,4.2,0,7.6-4.7,10l-1.9-1.6c.5-.2,1.1-.5,1.8-.9,2.1-1.5,2.5-3.3,2.5-6s0-1-.1-1.5h2.4Z"/>
      <path class="st1" d="M437.4,311.6c-.2-.6-.5-1.3-.8-2-2.7.3-7.8.9-9.9,1.1-.4,0-1,.1-1.6.2l-.4-2.5h2.3c1-2.5,2.4-7.1,2.9-8.9.2-.9.3-1.4.4-1.9l2.7.5c-.2.5-.5,1.1-.7,1.9-.5,1.6-1.9,5.9-2.7,8.2,2-.2,4.4-.5,6.1-.7-.6-1.2-1.2-2.3-1.8-3.1l2.1-.9c1.2,1.8,2.9,5.1,3.7,7l-2.3,1h0Z"/>
      <path class="st1" d="M447.1,301h-6.6v-1.6h6.6v1.6ZM455.4,304.3c-.5,2-1.4,3.6-2.6,4.9,1,.6,2.2,1.1,3.5,1.4-.4.4-1,1.2-1.3,1.7-1.4-.4-2.6-1-3.7-1.8-1.1.8-2.4,1.4-3.8,1.8-.2-.5-.7-1.3-1-1.7v.9h-3.5v.7h-1.7v-5.7h5.2v4.2c1.3-.3,2.4-.8,3.4-1.4-.8-.8-1.4-1.8-1.9-2.9l1.7-.6h-2.3v-1.8h.6c-.3-.3-1-.9-1.4-1.2v.6h-5.2v-1.5h5.2v.8c1.4-1,1.6-2.3,1.6-3.4v-2h5.6v3.8q0,.5.2.5h.4c.2,0,.3-.2.3-1.7.4.3,1.1.6,1.6.7-.2,2.1-.6,2.7-1.7,2.7h-1c-1.3,0-1.7-.5-1.7-2.2v-2h-1.9v.3c0,1.6-.3,3.5-2.1,4.7h6.2l1.3.4v-.2ZM446.5,305.6h-5.2v-1.5h5.2v1.5ZM446.4,298.7h-5.1v-1.5h5.1v1.5ZM444.7,308h-1.8v1.9h1.8v-1.9ZM449.7,305.7c.4.8,1,1.6,1.6,2.3.7-.7,1.2-1.4,1.6-2.3h-3.2Z"/>
      <path class="st1" d="M472.8,309.7v2h-15.2v-2h8.4c.8-2,1.6-5.2,1.9-7.6l2.3.4c-.6,2.5-1.4,5.2-2.1,7.2h4.7ZM472.3,301.6h-14.2v-2h6v-2.9h2.1v2.9h6.1v2ZM461.7,309.2c-.1-1.7-.7-4.4-1.4-6.5l1.9-.5c.8,2.1,1.4,4.7,1.6,6.4l-2,.6h-.1Z"/>
      <g>
        <path d="M283.4,346.4c-.5-.3-1.4-.9-2.1-1.2l.6-.8c.6.3,1.6.8,2.1,1.1l-.6.9ZM281.6,350.7c.6-.8,1.5-2.3,2.1-3.5l.8.7c-.6,1.2-1.3,2.5-2,3.5l-.9-.7h0ZM283.9,343.4c-.5-.3-1.4-.9-2.1-1.2l.6-.7c.6.3,1.6.8,2.1,1.1l-.6.8h0ZM288.6,345.5v1.7h2.3v4.3h-1v-.4h-3.7v.5h-1v-4.4h2.4v-1.7h-3.1v-1h3.1v-1.6c-.8.1-1.6.2-2.3.3,0-.2-.2-.6-.3-.9,1.9-.2,4.1-.6,5.3-1l.8.8c-.7.3-1.6.5-2.5.6v1.8h3v1h-3,0ZM289.9,348.1h-3.7v2h3.7v-2Z"/>
        <path d="M302.6,343.8v.5c-.1,4.6-.2,6.2-.6,6.7-.2.3-.4.4-.8.5h-1.4c0-.3-.1-.7-.3-1h1.2c.2,0,.3,0,.4-.2.2-.3.4-1.7.4-5.6h-1.3c-.1,3-.6,5.4-2.6,6.8-.2-.2-.5-.6-.8-.8,0,0,.1-.1.2-.2-1.6.2-3.2.4-4.4.5v-.9c.5,0,1.3-.1,2.2-.2v-.9h-2v-.8h2v-.6h-2v-3.4h2v-.6h-2.3v-.8h2.3v-.6c-.7,0-1.4,0-2,.1,0-.2-.1-.5-.2-.8,1.7,0,3.6-.3,4.8-.5l.5.8c-.6.1-1.3.2-2.1.3v.7h2.3v.6h1.2v-2.4h1v2.4h2.3v.4ZM293.7,345.9h1.2v-.7h-1.2v.7ZM294.9,347.2v-.7h-1.2v.7h1.2ZM295.8,350c.7,0,1.4-.1,2.1-.2.9-1.3,1.2-3,1.3-5h-1.2v-.8h-2.2v.6h2.1v3.4h-2.1v.6h2.1v.8h-2.1v.8-.2ZM297,345.9v-.7h-1.2v.7h1.2ZM295.8,346.5v.7h1.2v-.7h-1.2Z"/>
        <path d="M310,344.5c.9,1.8,2.4,3.5,4.1,4.3-.2.2-.6.6-.8.9-1.6-.9-3-2.5-4-4.3v3h2v1.1h-2v2h-1.1v-2h-2.1v-1.1h2.1v-3c-1,1.8-2.4,3.4-3.9,4.3-.2-.3-.5-.7-.7-.9,1.6-.9,3.1-2.6,4.1-4.4h-3.7v-1.1h4.3v-2.3h1.1v2.3h4.3v1.1h-3.7,0Z"/>
        <path d="M324.5,342.7c-.4,1.2-1,2.1-1.7,2.9.7.6,1.6,1.1,2.7,1.4-.2.2-.5.6-.6.9-.1,0-.2,0-.4-.1v3.8h-1v-.4h-2.8v.4h-1v-3.7c-.2.1-.5.2-.8.3-.1-.2-.4-.6-.6-.8h0c-.2-.3-.5-.8-.7-1.2v5.4h-1v-4.8c-.4,1.1-.8,2.2-1.3,2.8,0-.3-.3-.7-.5-.9.7-.9,1.4-2.6,1.7-4h-1.5v-1h1.6v-2.3h1v2.3h1.4v.6c.8-.8,1.5-1.8,1.9-3l1,.3c-.1.3-.3.6-.4.9h2.3l.6.3h0ZM318.6,347.2c1-.3,1.9-.9,2.8-1.6-.4-.4-.7-.9-1-1.4-.3.4-.6.7-1,1-.2-.2-.6-.5-.8-.7h-1v.4c.3.3,1.2,1.4,1.4,1.7l-.4.6ZM323.7,347.4c-.6-.3-1.2-.7-1.7-1.1-.5.4-1,.8-1.6,1.1h3.3ZM323.4,350.2v-1.9h-2.8v1.9h2.8ZM321,343.3v.2c.2.5.5,1,1,1.5.5-.5.9-1.1,1.2-1.7h-2.2Z"/>
        <path d="M330.1,341.7c-.3.8-.7,1.6-1.2,2.3v7.5h-1v-6c-.4.5-.9,1-1.3,1.4-.1-.3-.4-.8-.6-1.1,1.2-1,2.4-2.7,3.2-4.4l1,.3h-.1ZM334.8,350.4c.6,0,.7-.4.8-2,.3.2.7.4,1,.4-.1,1.9-.4,2.5-1.7,2.5h-2.1c-1.3,0-1.6-.4-1.6-1.7v-8.1h1v4c1.2-.6,2.3-1.5,3.1-2.2l.8.9c-1.1.8-2.5,1.6-3.9,2.3v3.1c0,.6.1.8.7.8h1.9Z"/>
        <path d="M283.5,363c-.5-.4-1.4-.9-2.2-1.1l.5-.8c.8.2,1.7.7,2.2,1l-.6.9h.1ZM284.4,364.6c-.5,1.2-1.2,2.5-1.9,3.5l-.9-.7c.6-.9,1.4-2.3,2-3.6l.8.7h0ZM284,360.1c-.4-.4-1.4-.9-2.1-1.2l.6-.8c.8.3,1.7.8,2.2,1.1l-.6.9h0ZM290.7,368.3c-.1-.3-.2-.6-.4-.9-2.1.2-4.3.3-5.8.4v-1.1c-.1,0,.8,0,.8,0,.4-.9.9-2.1,1.2-3.1h-2.1v-1h3v-1.9h-2.4v-1h2.4v-1.7h1.1v1.7h2.6v1h-2.6v1.9h3.1v1h-3.8c-.4,1-.9,2.2-1.3,3.1,1.1,0,2.2-.1,3.4-.2-.3-.5-.7-1-1-1.5l.9-.5c.8,1,1.7,2.3,2.1,3.2l-1,.5h-.2Z"/>
        <path d="M298.1,358.3v.5c.1,1.5.7,6.5,4.9,8.4-.3.2-.6.6-.8.9-2.7-1.3-4-3.9-4.5-6-.5,2.1-1.7,4.6-4.3,6.1-.2-.3-.5-.6-.9-.8,4.5-2.4,4.4-7.6,4.5-9.1h1.2-.1Z"/>
        <path d="M306.6,358.1h1v10.2h-1v-2.9c-1,.3-1.9.5-2.7.8l-.2-1.1c.2,0,.5-.1.8-.2v-5.6h1v5.4l1.2-.3v-6.3h0ZM313.7,359c-.3,2.6-1.1,4.6-2.1,6.2.7.9,1.5,1.7,2.5,2.2-.2.2-.6.6-.7.9-1-.5-1.8-1.3-2.5-2.1-.7.9-1.6,1.6-2.5,2.1-.2-.3-.5-.7-.7-.9,1-.5,1.8-1.2,2.6-2.2-.8-1.4-1.4-3.1-1.7-5.1l1-.2c.3,1.6.8,3,1.4,4.2.7-1.2,1.2-2.7,1.5-4.3h-4.4v-1h4.9l.7.2h0Z"/>
        <path d="M322.1,361.3c.8,1.2,2,2.3,3.2,2.9-.2.2-.6.6-.7.8-.3-.2-.6-.4-1-.6v2.7h1.5v.9h-10.1v-.9h1.5v-2.6c-.3.2-.6.5-.9.7-.2-.2-.6-.6-.8-.8,1.2-.7,2.4-1.8,3.1-3.1h-2.7v-.9h2.7c-.3-.6-.7-1.3-1.2-1.9l.9-.4c.5.6,1,1.4,1.3,2l-.5.3h3.3l-.6-.2c.4-.6,1-1.5,1.3-2.1l1.1.3c-.4.7-1,1.5-1.4,2h2.8v.9h-2.8,0ZM323.1,364c-.9-.8-1.6-1.7-2.2-2.7h-1.9c-.5,1-1.3,1.9-2.1,2.7h6.2ZM318.6,364.9h-1.1v2.2h1.1v-2.2ZM320.6,364.9h-1.1v2.2h1.1v-2.2ZM322.7,367v-2.2h-1.1v2.2h1.1Z"/>
        <path d="M330.8,365.7c0,.6.4.9,1.4.9s2,0,2.9-.2v1.2h-3.1c-1.8,0-2.4-.6-2.4-1.6v-2.4h-3.1v-1.2h3.1v-2.2h-2.4v-1.1h7.4v1.1h-3.8v2.2h4.6v1.1h-4.6v2.2Z"/>
        <path d="M345.2,362h.9v1.2h-3.8c0,1.2-.3,2.2-.7,3-.4.8-1.3,1.6-2.2,2.1l-1-.8c.8-.3,1.6-1,2.1-1.7.5-.8.6-1.6.7-2.6h-4.2v-1.2h8.3,0ZM339.3,360.2h-1.1v-1.2h6v1.2h-4.9ZM344.9,360.1c-.2-.4-.6-1.1-.9-1.5l.7-.3c.3.4.7,1.1.9,1.5l-.7.3ZM346,357.8c.3.4.7,1.1.9,1.5l-.7.3c-.2-.5-.6-1.1-.9-1.5l.7-.3Z"/>
        <path d="M346.9,367.1c1-.7,1.6-1.7,1.9-2.7s.3-3.2.3-4.5,0-.6,0-.9h1.3v.9c0,1.3,0,3.7-.3,4.8-.3,1.2-1,2.3-2,3.1l-1.1-.7h0ZM352,367.2v-8.2h1.3v7.1c1-.4,2.2-1.4,3-2.6l.7,1c-1,1.3-2.5,2.4-3.8,3.1-.2,0-.3.2-.4.3l-.7-.6h-.1Z"/>
        <path d="M361.1,364.8c-.1-.4-.5-1-.8-1.5v5h-1v-4.7c-.3,1.1-.8,2.1-1.2,2.7-.1-.3-.3-.7-.5-.9.7-.9,1.3-2.6,1.6-4h-1.4v-1h1.5v-2.4h1v2.4h1.2v1h-1.2v.7c.3.4,1.1,1.7,1.3,2l-.6.8h.1ZM368.1,366.5h-.7v.7c0,.5-.1.7-.4.9-.3.1-.8.1-1.5.1,0-.2-.2-.6-.3-.8h1.1c.1,0,.2,0,.2-.2v-.7h-3.5v1.7h-1v-1.7h-.7v-.8h.7v-2.8h2.2v-.5h-2.7v-.8h1.5v-.6h-1v-.7h1v-.6h-1.2v-.8h1.2v-.9h1v.9h1.5v-.9h1v.9h1.3v.8h-1.3v.6h1.2v.7h-1.2v.6h1.6v.8h-2.8v.5h2.3v2.8h.7v.8h-.2ZM363,363.7v.6h1.2v-.6h-1.2ZM363,365.7h1.2v-.7h-1.2v.7ZM363.9,360.3h1.5v-.6h-1.5v.6ZM363.9,361.6h1.5v-.6h-1.5v.6ZM365.2,363.7v.6h1.3v-.6h-1.3ZM366.5,365.7v-.7h-1.3v.7h1.3Z"/>
        <path d="M375.3,365.7c1,.7,2.5,1.2,4,1.4-.2.2-.5.6-.7.9-1.4-.3-3-1.1-4.1-1.9v2.2h-1v-2.2c-1.1.9-2.6,1.6-4,2-.1-.3-.4-.6-.6-.9,1.4-.3,2.9-.8,3.9-1.5h-3.7v-.8h4.5v-.6c-.2.1-.4.2-.7.3-.1-.2-.5-.6-.7-.7.3-.1.6-.2.8-.4-1.3.2-2.7.4-3.7.6v-.9c.3,0,.9-.1,1.6-.2v-1.3h-1.5v-.7h3.9v.7h-1.5v1.2c.5,0,1-.2,1.5-.2v.6c.5-.4.6-.8.6-1.3v-1.1h4v2.4h.6s0-.1.1-.2v-.8c.2.1.5.3.7.4,0,.4,0,.9-.1,1.1,0,.2-.2.3-.3.4-.1,0-.4.1-.5.1h-.5c-.2,0-.5,0-.7-.2s-.2-.4-.2-1v-1.4h-2v.4c0,.7-.2,1.4-.9,2h.7v.8h4.5v.8h-4ZM370.7,359.7c-.3.4-.6.8-.9,1.1-.2-.2-.6-.4-.9-.6.7-.5,1.3-1.4,1.6-2.2l1,.3c0,.2-.2.4-.3.6h2.7v.8c.4-.5.8-1.1,1-1.6l1,.2c0,.2-.2.4-.3.6h3.5v.8h-2.3c.2.3.4.6.5.8l-.9.3c-.1-.3-.4-.7-.7-1.1h-.8c-.3.4-.6.8-1,1.1-.2-.2-.7-.4-.9-.5.2-.2.4-.3.6-.5h-1.9c.2.3.3.6.4.8l-.8.3c0-.3-.3-.7-.5-1.1h-.3.2ZM375.4,362c.5.3,1.1.8,1.4,1.1l-.6.6c-.3-.4-.9-.9-1.4-1.2l.6-.5h0Z"/>
      </g>
      <g id="Circle_x5F_with_x5F_Arrow13" data-name="Circle_x5F_with_x5F_Arrow1">
        <path id="Circle13" data-name="Circle1" class="st5" d="M255.1,197.2c-7.8,0-14.2,6.4-14.2,14.2s6.4,14.2,14.2,14.2,14.2-6.4,14.2-14.2-6.4-14.2-14.2-14.2Z"/>
        <g id="Arrow23" data-name="Arrow2">
          <polygon class="st7" points="250.7 217.5 256.6 211.6 250.7 205.7 253.2 203.1 261.7 211.6 253.2 219.9 250.7 217.5 250.7 217.5"/>
        </g>
      </g>
      <path id="Arrow33" data-name="Arrow3" class="st5" d="M237.2,211.6c0-9.9,8-17.9,17.9-17.9v-33.4l-32,18.2-32-18.2v84l32,18.2,32-18.2v-15c-9.9,0-17.9-8-17.9-17.9h0v.2h0Z"/>
      <rect id="Place_x5F_for_x5F_Date33" data-name="Place_x5F_for_x5F_Date3" class="st5" x="106.1" y="187.3" width="117" height="45.3"/>
      <polygon id="Halved_x5F_Arrow13" data-name="Halved_x5F_Arrow1" class="st4" points="191.1 160.3 191.1 244.5 223.1 262.7 223.1 178.7 191.1 160.3"/>
      <path class="st1" d="M298.3,480.6v2.2h-15.5v-2.2h15.5Z"/>
      <path class="st1" d="M306.2,482.4v5.5c0,.8-.1,1.2-.6,1.5s-1.1.3-2.1.3c0-.4-.3-1.1-.5-1.6h1.3c.2,0,.3,0,.3-.3v-5.3l-2.4.3c0,2.2-.3,5-1.4,6.8-.3-.3-1-.7-1.3-.9,1-1.6,1.1-3.8,1.2-5.8h-1c0,.1-.2-1.5-.2-1.5h1.2v-5.3h1.5c.2-.7.4-1.6.5-2.3l2.1.3c-.3.7-.5,1.4-.8,1.9h2.2v4.6h.7v1.4h-.8v.4ZM302.2,481.3c.8,0,1.6-.2,2.4-.2v-3.2h-2.4v3.5h0ZM303.5,478.2c.4.6.8,1.5.9,2.1l-1.3.5c0-.6-.4-1.5-.8-2.1l1.2-.5h0ZM303.9,486.9h-1.1v-3.8h1.1v3.8ZM314.6,481.4c-.5,2.1-1.3,3.8-2.5,5.1.9.7,2,1.2,3.3,1.4-.4.4-.9,1.1-1.2,1.6-1.4-.4-2.6-1-3.5-1.8-1,.8-2.1,1.4-3.4,1.8-.2-.5-.7-1.3-1.1-1.7,1.2-.3,2.2-.9,3.1-1.5-.7-.9-1.3-2-1.7-3.3l1.5-.4h-2v-1.7h.7c-.3-.3-1-.9-1.4-1.1,1.2-.9,1.3-2.1,1.3-3.2v-2.2h5.3v4.2h.7s.1-.1.1-.4v-1.4c.3.3.9.6,1.4.7,0,.7-.1,1.4-.2,1.7-.1.3-.3.6-.6.7-.2.1-.6.2-.9.2h-.9c-.4,0-.9-.1-1.1-.4-.3-.3-.4-.6-.4-1.7v-2h-1.8v.5c0,1.4-.3,3.2-1.6,4.2h5.4l1.3.4.2.3ZM309.4,482.8c.3.9.8,1.7,1.4,2.5.6-.7,1.1-1.5,1.5-2.5h-2.9Z"/>
      <path class="st1" d="M322.6,485.1c-.4-.5-.9-1.1-1.5-1.8v6.3h-2v-5.8c-.7.6-1.4,1.2-2.1,1.6-.2-.5-.6-1.5-.9-1.9,1.8-1,3.6-2.8,4.7-4.7h-4.1v-1.8h2.4v-3.1h2v3.1h1.1l1.1.6c-.5,1.3-1.2,2.5-2,3.6.8.7,2.1,1.8,2.5,2.1l-1.2,1.6v.2ZM332.2,487.2v1.9h-9.5v-1.9h3.9v-6.1h-3.2v-1.9h3.2v-5h2v5h3.2v1.9h-3.2v6.1h3.6Z"/>
      <path class="st1" d="M348.2,474.7v14.9h-2.1v-.7h-10.3v.7h-2v-14.9h14.4ZM346.1,487v-10.4h-10.3v10.4h10.3ZM345.6,480.4h-1.9v4.3c0,.9-.2,1.4-.8,1.6-.6.3-1.4.3-2.7.3,0-.5-.3-1.2-.5-1.7h1.8c.2,0,.3,0,.3-.3v-4.3h-5.4v-1.7h5.4v-1.7h1.8v1.7h1.9v1.7h.1ZM338.6,480.8c.8.8,1.5,1.9,1.9,2.7l-1.5.8c-.3-.8-1-2-1.7-2.8l1.4-.8h0Z"/>
      <path class="st1" d="M353.1,481.8c-.7-.6-2.1-1.3-3.2-1.7l1-1.5c1.1.4,2.5,1,3.2,1.6l-1.1,1.7h.1ZM354.9,484.2c-.8,1.7-1.8,3.7-2.7,5.3l-1.7-1.3c.8-1.3,2-3.3,3-5.3l1.5,1.3h0ZM354,477.4c-.7-.6-2-1.4-3.1-1.8l1.1-1.5c1.1.4,2.5,1.1,3.2,1.7l-1.2,1.6h0ZM363.9,489.7c-.1-.4-.3-.9-.6-1.3-3,.3-6.2.5-8.5.7l-.3-2h1.3c.6-1.3,1.2-3,1.6-4.4h-2.9v-1.9h4.3v-2.4h-3.5v-1.9h3.5v-2.4h2.1v2.4h3.6v1.9h-3.6v2.4h4.4v1.9h-5.6c-.5,1.4-1.2,3-1.8,4.2,1.3,0,2.8-.2,4.3-.2-.4-.7-.9-1.3-1.3-1.9l1.7-.9c1.2,1.5,2.6,3.5,3.1,4.9l-1.9,1h0Z"/>
      <path class="st1" d="M375.5,474.4v1c.1,2.3,1,9.6,7.2,12.5-.6.5-1.2,1.2-1.5,1.7-3.8-1.9-5.7-5.3-6.6-8.4-.9,3-2.7,6.3-6.2,8.4-.4-.5-1-1.1-1.7-1.6,6.7-3.7,6.5-11.3,6.6-13.6h2.3,0Z"/>
      <path class="st1" d="M390.1,478.3h-6.6v-1.6h6.6v1.6ZM398.5,481.6c-.5,2-1.4,3.6-2.6,4.9,1,.6,2.2,1.1,3.5,1.4-.4.4-1,1.2-1.3,1.7-1.4-.4-2.6-1-3.7-1.8-1.1.8-2.4,1.4-3.8,1.8-.2-.5-.7-1.3-1-1.7v.9h-3.5v.7h-1.7v-5.7h5.2v4.2c1.3-.3,2.4-.8,3.4-1.4-.8-.8-1.4-1.8-1.9-2.9l1.7-.6h-2.3v-1.8h.6c-.3-.3-1-.9-1.4-1.2v.6h-5.2v-1.5h5.2v.8c1.4-1,1.6-2.3,1.6-3.4v-2h5.6v3.8q0,.5.2.5h.4c.2,0,.3-.2.3-1.7.4.3,1.1.6,1.6.7-.2,2.1-.6,2.7-1.7,2.7h-1c-1.3,0-1.7-.5-1.7-2.2v-2h-1.9v.3c0,1.6-.3,3.5-2.1,4.7h6.2l1.3.4v-.2ZM389.5,482.9h-5.2v-1.5h5.2v1.5ZM389.5,476h-5.1v-1.5h5.1v1.5ZM387.8,485.3h-1.8v1.9h1.8v-1.9ZM392.7,483c.4.8,1,1.6,1.6,2.3.7-.7,1.2-1.4,1.6-2.3h-3.2Z"/>
      <path class="st1" d="M415.8,487v2h-15.2v-2h8.4c.8-2,1.6-5.2,1.9-7.6l2.3.4c-.6,2.5-1.4,5.2-2.1,7.2h4.7ZM415.3,478.9h-14.2v-2h6v-2.9h2.1v2.9h6.1v2ZM404.8,486.5c-.1-1.7-.7-4.4-1.4-6.5l1.9-.5c.8,2.1,1.4,4.7,1.6,6.4l-2,.6h-.1Z"/>
      <g>
        <path d="M289.1,533.4c1,.7,2.4,1.3,3.8,1.5-.2.2-.5.6-.7.9-1.5-.4-3-1.1-4-2.1v2.3h-1v-2.2c-1.1.9-2.6,1.6-4,2-.2-.3-.4-.7-.7-.9,1.3-.3,2.8-.9,3.8-1.6h-3.5v-.9h4.3v-.7h-3.3v-.8h3.3v-.7h-3.9v-.8h2.3c-.1-.3-.3-.7-.5-1h.3-2.5v-.9h1.7c-.2-.4-.5-1.1-.8-1.5l.9-.3c.3.5.7,1.2.9,1.6l-.6.2h1.2v-1.9h1v1.9h1.1v-1.9h1v1.9h1.2-.4c.3-.6.6-1.3.8-1.8l1.1.3c-.3.5-.6,1.1-.9,1.5h1.6v.9h-2.2c-.2.4-.4.8-.6,1.1h2.4v.8h-4v.7h3.4v.8h-3.4v.7h4.4v.9h-3.5ZM286.2,528.5c.2.3.4.7.5,1h-.3,2.4c.2-.3.3-.7.5-1.1h-3.1Z"/>
        <path d="M300.7,530.7c.8.8,2.1,1.4,3.3,1.7-.2.2-.5.6-.7.9-.7-.2-1.5-.6-2.1-1v3.7h-1.1v-3.9h.8c-.6-.4-1.1-.9-1.5-1.4h-1.2c-.4.5-.9,1-1.5,1.4h.9v.7c0,1.1-.3,2.4-2.5,3.3-.1-.3-.5-.6-.7-.9,1.9-.7,2.1-1.7,2.1-2.5v-.6c-.7.5-1.5.9-2.2,1.2-.2-.3-.5-.6-.7-.9,1.2-.3,2.4-1,3.3-1.8h-2v-4.6h7.8v4.6h-2,0ZM296.1,528h2.3v-1h-2.3v1ZM296.1,529.9h2.3v-1h-2.3v1ZM301.7,527h-2.3v1h2.3v-1ZM301.7,528.8h-2.3v1h2.3v-1Z"/>
        <path d="M315.1,534.7v1h-9.9v-1h4.4v-2.5h-3.3v-1h3.3v-2.2h-3.9v-1h4.7c-.5-.5-1.2-1.1-1.8-1.6l.9-.6c.7.5,1.6,1.2,2.1,1.8l-.5.4h3.6v1h-3.9v2.2h3.4v1h-3.4v2.5h4.4-.1Z"/>
        <path d="M323.9,533h2.4v.8h-2.4v1.2c0,.5-.1.8-.5.9s-1,.1-1.8.1c0-.3-.2-.6-.3-.9h1.4q.2,0,.2-.2v-1.1h-3.9c.5.3,1.1.8,1.4,1.2l-.8.6c-.3-.4-1-1-1.6-1.3l.6-.5h-2.5v-.8h6.7v-.6h-2.1c-1.2,0-2-.3-2.5-1-.5.4-1.1.7-1.7,1.1l-.4-.9c.4-.2,1-.5,1.5-.8v-1.5h-1.4v-.8h2.3v2.1c.4.6,1.2.9,2.2.9h5.7c-.1.2-.2.6-.3.8h-2.3v.6h0ZM318.1,527.9c-.3-.4-.9-1-1.5-1.4l.7-.6c.6.4,1.2,1,1.5,1.4l-.7.6ZM321.9,527.9c0-.1,0-.3.1-.5h-3v-.7h1.8c-.1-.3-.3-.5-.4-.8l.8-.2c.2.3.5.7.6,1h1.7c.2-.3.4-.7.6-1l1,.2c-.2.3-.4.6-.6.8h1.8v.7h-3.3c0,.2-.1.3-.2.5h2.6v3.3h-5.5v-3.3h2ZM324.4,528.4h-3.5v.4h3.5v-.4ZM324.4,529.3h-3.5v.4h3.5v-.4ZM324.4,530.3h-3.5v.4h3.5v-.4Z"/>
        <path d="M328.4,527.6c.8,0,2.8-.3,4.8-.4,1.2-.1,2.3-.2,3-.2v1.1c-.6,0-1.6,0-2.2.2-1.5.4-2.4,2-2.4,3.3,0,2,1.9,2.7,3.7,2.8l-.4,1.2c-2.2-.1-4.4-1.3-4.4-3.7s1-3,1.9-3.6c-1,.1-3.7.4-4.9.6v-1.2h.9ZM335.6,530.9l-.7.3c-.3-.6-.6-1.1-.9-1.6l.7-.3c.3.4.7,1.1.9,1.5h0ZM336.9,530.4l-.7.3c-.3-.6-.6-1.1-.9-1.5l.7-.3c.3.4.7,1.1,1,1.5h-.1Z"/>
        <path d="M346.8,527.3v8.8h-1.1v-.6h-5.7v.6h-1v-8.8h2.8c.2-.5.3-1.1.4-1.5h1.2c-.2.6-.4,1.1-.5,1.5h3.9ZM340.1,528.3v1.4h5.7v-1.4h-5.7ZM340.1,530.6v1.4h5.7v-1.4h-5.7ZM345.7,534.5v-1.4h-5.7v1.4h5.7Z"/>
        <path d="M359.1,534.5v1h-10v-1h5.6c.5-1.4,1.1-3.6,1.4-5.2l1.2.2c-.4,1.7-1,3.7-1.5,5h3.3ZM358.7,528.9h-9.3v-1h4.1v-2.1h1.1v2.1h4.2v1h-.1ZM351.9,534.1c0-1.2-.5-3-1-4.4l1-.3c.6,1.4,1,3.2,1.1,4.4l-1.1.3Z"/>
      </g>
      <g class="st2">
        <path class="st0" d="M298.2,195.5v1.7h-12.2v1c0,2.4-.3,5.9-1.9,8.2-.3-.4-1.1-1-1.5-1.3,1.4-2,1.5-5,1.5-7v-2.7h3c-.1-.5-.4-1.2-.6-1.7h.4c0-.1-2.9-.1-2.9-.1v-1.7h5.7v-1.2h2v1.2h5.7v1.7h-2.1c-.4.6-.8,1.3-1.1,1.8h4ZM293.1,204.5h5v1.6h-11.8v-1.6h4.8v-1.5h-3.5v-1.5h-.1c-.4-.2-1.1-.6-1.6-.8.9-.8,1.7-2,2.1-3.3l1.8.4c-.1.3-.2.6-.4.9h1.7v-1.2h2v1.2h4.1v1.5h-4.1v1.3h3.6v1.5h-3.6v1.5h0ZM291.1,201.5v-1.3h-2.5c-.3.5-.6.9-1,1.3h3.5ZM288.5,193.7c.3.6.5,1.2.6,1.6h-.5c0,.1,3.9.1,3.9.1h-.3c.2-.6.4-1.2.6-1.8h-4.4,0Z"/>
        <path class="st0" d="M301.7,200.8c-.2,1.6-.5,3.3-1,4.3-.3-.2-1.1-.6-1.4-.7.5-1,.7-2.5.8-3.9l1.6.3h0ZM303.7,199.4v7h-1.7v-6.8l-2.3.2-.3-1.7h1.2c.3-.4.5-.7.8-1.1-.5-.8-1.2-1.7-1.9-2.4l1-1.3c.1.1.3.2.4.4.5-.9.9-2,1.2-2.9l1.7.6c-.6,1.1-1.3,2.4-1.9,3.4.2.2.4.5.5.7.6-.9,1.1-1.9,1.5-2.7l1.6.8c-.9,1.4-2.1,3.1-3.1,4.4h1.5c-.2-.5-.4-.8-.6-1.2l1.4-.6c.7,1.1,1.4,2.6,1.6,3.6l-1.5.7c0-.3-.2-.7-.3-1.1h-.8ZM305.2,200.5c.3.8.7,1.8.9,2.7.2-.6.3-1.1.4-1.7l1.6.3c-.2,1.4-.6,3-1.2,4l-1.6-.7c.3-.4.5-.8.7-1.4l-1.2.4c-.1-.8-.5-2.1-.9-3.2l1.4-.4h0ZM309.8,191.5c-.6,1.7-1.7,3.3-2.8,4.3-.4-.3-1.1-.9-1.5-1.2,1.1-.8,2-2.2,2.5-3.6l1.9.5h-.1ZM313.2,199.7c-.1-.3-.3-.8-.6-1.2-2.2.2-4.4.4-6.1.5l-.3-1.8h1.8c.4-1.1.8-2.4,1.1-3.4l2,.5c-.4,1-.8,2-1.3,2.9h1.9c-.2-.5-.5-.8-.7-1.1l1.5-.7c.9,1.1,1.9,2.6,2.3,3.7l-1.6.9v-.3ZM313.5,201.2c.9,1.2,1.7,2.7,2,3.8l-1.7.8c-.1-.5-.3-1.2-.7-1.9-.2,1.9-.7,2.5-1.8,2.5h-1.3c-1.5,0-1.8-.5-1.8-2.2v-3.1h1.8v3.1q0,.5.3.5h.8c.3,0,.4-.2.4-1.6.3.3,1,.6,1.5.7-.3-.7-.7-1.3-1.1-1.9l1.5-.8h.1ZM309.5,198.8c1.1.5,2.3,1.4,2.9,2l-1.3,1.2c-.6-.8-1.7-1.7-2.8-2.2l1.3-1.1h-.1ZM312.6,191c.7,1.1,1.9,2.4,2.9,3.1-.5.3-1.1,1-1.4,1.4-1.1-.9-2.4-2.6-3.1-3.9l1.6-.7h0Z"/>
        <path class="st0" d="M320.2,193.4c-.2,1.1-.5,2.3-.9,3.3h3.1v7.7h-3.2v1.2h-1.7v-5.2c-.2.3-.5.6-.7.9,0-.5-.4-1.8-.7-2.4,1-1.4,1.7-3.4,2.1-5.6h-1.8v-1.8h6.1v1.8h-2.5.2ZM320.8,198.5h-1.5v4.2h1.5v-4.2ZM332,199.5h-1.8v7h-1.9v-7h-1.9c-.1,2.5-.6,5.3-2.3,7.1-.3-.4-1.1-.9-1.5-1.2,1.4-1.6,1.9-3.9,2-5.9h-1.6v-1.9h1.6v-4.1h-1.2v-1.8h8.2v1.8h-1.4v4.1h1.8v1.9h0ZM328.4,197.6v-4.1h-1.9v4.1h1.9Z"/>
        <path class="st0" d="M344.4,205.4v-.9h-7.7c-.7,0-1.6,0-2.2.1v-2.4c.6,0,1.3.1,2.1.1h7.7v-7h-9.6v-2.3c.6,0,1.5.1,2.1.1h9.9v12.2h-2.4.1Z"/>
        <path class="st0" d="M356.7,201.2c2.9-1.7,5.1-4.3,6.1-6.5l1.3,2.4c-1.3,2.3-3.5,4.6-6.2,6.2-1.7,1-3.9,2-6.2,2.4l-1.4-2.2c2.6-.4,4.8-1.2,6.4-2.2h0ZM356.7,195.8l-1.7,1.8c-.9-.9-3-2.8-4.2-3.6l1.6-1.7c1.2.8,3.4,2.5,4.3,3.5h0Z"/>
        <path class="st0" d="M367.7,192.4c.8,1.2,2.3,3.7,2.9,4.9l-2.2,1.3c-.7-1.5-1.9-3.8-2.8-5.1l2.1-1.1h0ZM373.8,199.4c1.2-1.8,1.7-3.7,2-5.1.2-.8.2-1.6.2-2l2.7.4c-.2.6-.4,1.5-.5,1.9-.4,2-1.1,4-2.3,5.9-1.3,2-3.2,3.9-5.8,5.2l-2-1.7c2.7-1.1,4.5-2.8,5.7-4.6h0Z"/>
        <path class="st0" d="M380.9,197.2c.6,0,1.8.1,2.7.1h9c.8,0,1.5,0,2-.1v2.6h-13.7v-2.6Z"/>
        <path class="st0" d="M401.7,197.9l-1.2,1.9c-1-.7-2.7-1.8-3.8-2.4l1.2-1.9c1.1.6,3,1.8,3.8,2.4ZM403.1,201.7c2.9-1.6,5.2-3.9,6.5-6.3l1.3,2.3c-1.6,2.3-3.9,4.5-6.7,6-1.7,1-4.1,1.8-5.6,2.1l-1.3-2.2c1.9-.3,3.9-.9,5.7-1.9h.1ZM404.3,194.1l-1.3,1.9c-.9-.7-2.7-1.8-3.8-2.4l1.2-1.8c1.1.6,3,1.8,3.8,2.4h0Z"/>
        <path class="st0" d="M426.6,193.6c-.2.2-.5.6-.7.9-.8,1.3-2.4,3.4-4,4.6l-1.7-1.4c1.3-.8,2.7-2.3,3.1-3.1h-8.8c-.7,0-1.3,0-2,.1v-2.3c.6.1,1.3.2,2,.2h9.1c.5,0,1.4,0,1.7-.2l1.3,1.2ZM419.8,195.9c0,4.2,0,7.6-4.7,10l-1.9-1.6c.5-.2,1.1-.5,1.8-.9,2.1-1.5,2.5-3.3,2.5-6s0-1-.1-1.5h2.4Z"/>
        <path class="st0" d="M438.5,205.7c-.2-.6-.5-1.3-.8-2-2.7.3-7.8.9-9.9,1.1-.4,0-1,.1-1.6.2l-.4-2.5h2.3c1-2.5,2.4-7.1,2.9-8.9.2-.9.3-1.4.4-1.9l2.7.5c-.2.5-.5,1.1-.7,1.9-.5,1.6-1.9,5.9-2.7,8.2,2-.2,4.4-.5,6.1-.7-.6-1.2-1.2-2.3-1.8-3.1l2.1-.9c1.2,1.8,2.9,5.1,3.7,7l-2.3,1h0Z"/>
        <g>
          <path class="st0" d="M448.3,193.5v1.6h-6.6v-1.6h6.6ZM455.6,197.9l1.3.5c0,.1-.1.2-.2.3-.5,1.9-1.4,3.4-2.5,4.7,1,.7,2.2,1.1,3.5,1.5-.4.4-1,1.2-1.3,1.7-1.4-.4-2.7-1-3.7-1.8-1.1.8-2.4,1.4-3.9,1.8-.2-.5-.7-1.3-1-1.7v.9h-3.5v.7h-1.7v-5.8h5.3v4.2c1.3-.3,2.4-.8,3.4-1.4-.8-.9-1.4-1.8-1.9-3l1.7-.6h-2.4v-1.8h.6c-.3-.3-1-1-1.4-1.2v.6h-5.2v-1.5h5.2v.8c1.5-1,1.6-2.3,1.6-3.5v-2h5.7v3.8c0,.5,0,.5.2.5h.4c.2,0,.3-.2.3-1.7.4.3,1.1.6,1.6.7-.2,2.1-.6,2.7-1.7,2.7h-1c-1.4,0-1.7-.5-1.7-2.2v-2h-1.9c0,1.2,0,3.6-2.1,5h6.5ZM447.6,198.2v1.5h-5.2v-1.5h5.2ZM447.6,191.2v1.5h-5.1v-1.5h5.1ZM445.9,204v-1.9h-1.8v1.9h1.8ZM450.9,199.8c.4.8,1,1.6,1.7,2.3.7-.7,1.2-1.4,1.6-2.3h-3.3Z"/>
          <path class="st0" d="M463.1,197.8h2v-.7c.1,0-6.2,0-6.2,0v-1.5h6.5v-.7c0,0-5.7,0-5.7,0v-3.7h13.4v3.7h-5.3c0,0-.2.1-.4.1v.5c0,0,6.4,0,6.4,0v1.5h-6.7v.7c-.1,0,5.2,0,5.2,0v5.9h-9.3v-5.9ZM474.3,204.4v1.5h-12.5v.6h-1.9v-8.5h2.4c0,.3-.1.4-.4.4v5.9h12.5ZM463.5,193.7v-1h-1.9v1h1.9ZM470.5,199.5v-.6h-5.5v.6h5.5ZM470.5,201.1v-.6h-5.5v.6h5.5ZM470.5,202.7v-.6h-5.5v.6h5.5ZM465.3,192.7v1h1.9v-1h-1.9ZM469.1,192.7v1h1.9v-1h-1.9Z"/>
        </g>
      </g>
      <g>
        <path class="st6" d="M298.7,225.6h-3.7c1.1,1.1,2.5,2.2,4,2.7-.4.4-1,1.1-1.3,1.6-1.9-.9-3.7-2.5-5-4.3h-3.5c-.5.7-1,1.3-1.5,1.8,1.3-.3,2.7-.8,3.5-1.3l1.8.8c0,.1-.2.2-.4.2-1.2.7-3.2,1.4-4.9,1.8-.2-.2-.4-.5-.7-.8-.9.8-1.9,1.4-2.9,1.9-.3-.4-1-1.1-1.4-1.5,1.6-.7,3-1.7,4-2.9h-3.5v-1.7h4.7c.2-.4.4-.7.5-1.1-1.4,0-2.7.1-3.8.1,0,.2-.2.2-.3.3l-.7-2c.9,0,1.9,0,3,0,.6-.8,1.2-1.9,1.6-2.7l2.4.7c0,.1-.2.2-.5.2-.3.5-.8,1.1-1.3,1.7,1.5,0,3.2,0,4.8-.1-.5-.4-.9-.7-1.3-1l1.6-.9c1.4,1,3.2,2.5,4.1,3.6l-1.7,1c-.3-.3-.6-.7-1-1.1-1.5,0-3.1.2-4.6.2h.2c0,.2-.2.3-.5.3-.1.3-.3.6-.4.9h8.4v1.7ZM297,230.5c0,.1-.2.2-.5.2-2.1,2-5.8,3-10.1,3.6-.2-.5-.6-1.2-.9-1.6,3.9-.3,7.6-1.2,9.4-2.9l2.1.8ZM294.7,228.7c0,.1-.2.2-.4.2-1.5,1.1-4.2,2-6.6,2.6-.2-.4-.7-1-1.1-1.4,2.3-.4,4.9-1.1,6.2-2.1l1.9.8Z"/>
        <path class="st6" d="M306.1,221.6h.5s1.1,0,1.1,0c0,.2,0,.4,0,.7-.1,7.4-.2,10-.7,10.7-.4.5-.7.9-2.3.9s-.5,0-.7,0c0-.6-.2-1.4-.6-2,.6,0,1,0,1.3,0s.4,0,.5-.3c.3-.5.4-2.5.5-8.1h-1.7c-.2,4.4-.7,8.1-2.8,10.7-.3-.5-1-1.1-1.5-1.4,1.7-2.2,2.2-5.4,2.3-9.3h-1.9v-2h1.9c0-1,0-2.1,0-3.2h2.5c0,.3-.2.4-.5.5,0,.9,0,1.8,0,2.7h2.1ZM308.8,220.3h6v13.4h-2v-1h-2.1v1.2h-1.9v-13.6ZM310.8,230.7h2.1v-8.5h-2.1v8.5Z"/>
        <path class="st6" d="M326.2,218.5c0,.2-.2.3-.5.3,1.6,2.3,4.5,4.6,7.1,5.7-.5.5-1,1.2-1.4,1.8-2.6-1.5-5.5-3.9-6.9-5.9-1.4,2-4,4.4-6.8,6-.3-.5-.8-1.2-1.3-1.6,2.9-1.5,5.7-4.2,7-6.4l2.7.2ZM325.8,228.6v3.4h6.1v1.8h-14.4v-1.8h1.8v-5.9h2.4c0,.3-.1.4-.5.5v5.4h2.4v-8.8l2.6.2c0,.2-.2.3-.5.3v3.2h4.5v1.8h-4.5Z"/>
        <path class="st6" d="M349,230.4h-4.9c1.4.9,3.4,1.5,5.4,1.8-.5.4-1.1,1.3-1.4,1.8-2.1-.5-4.1-1.5-5.7-2.9v3h-2v-2.9c-1.6,1.2-3.7,2.2-5.7,2.7-.3-.5-.9-1.3-1.3-1.7,1.9-.4,3.9-1.1,5.4-2h-4.9v-1.7h6.5v-.8h-4.9v-1.5h4.9v-.8h-5.7v-1.6h3.2c-.1-.4-.4-.9-.6-1.3h.2c0,0-3.5,0-3.5,0v-1.6h2.3c-.2-.6-.7-1.5-1.1-2.1l1.7-.6c.5.7,1.1,1.7,1.3,2.4l-.8.3h1.5v-2.8h2.3c0,.3-.2.4-.4.4v2.3h1.2v-2.8h2.4c0,.3-.2.4-.5.5v2.3h1.4l-.6-.2c.4-.7.9-1.7,1.1-2.4l2.3.7c0,.1-.2.2-.4.2-.3.5-.7,1.2-1.1,1.7h2.2v1.6h-3.1.2c0,.2-.2.2-.4.2-.2.3-.4.8-.7,1.1h3.4v1.6h-5.9v.8h5.1v1.5h-5.1v.8h6.6v1.7ZM342.9,224.2c.2-.4.4-.9.6-1.4h-4c.2.4.5,1,.6,1.3h-.3c0,0,3.1,0,3.1,0Z"/>
        <path class="st6" d="M365.9,228.7h-2.9c1,.6,2.2,1.1,3.4,1.4-.4.4-1,1.1-1.3,1.6-.7-.3-1.4-.6-2.1-1-.3,3.3-.7,3.5-2.9,3.5s-.7,0-1,0c0-.5-.2-1.1-.5-1.5.7,0,1.3,0,1.6,0,.7,0,.8-.3.9-1.5h-3c-.7,1.4-2,2.4-5.1,3-.1-.4-.6-1.1-.9-1.5,2.1-.3,3.2-.8,3.9-1.6h-2.7v-.6c-.6.3-1.2.6-1.9.9-.2-.5-.8-1.1-1.1-1.4,1.3-.4,2.3-.9,3.1-1.4h-2.7v-1.6h4.4c.2-.2.3-.4.4-.7h-2.6v-4.7h11.1v4.7h-6.1c0,.1-.2.2-.4.2,0,.2-.2.3-.3.5h8.8v1.6ZM354.4,221.6v-.6h-3.7v-1.6h3.7v-1h2.4c0,.3-.2.4-.4.4v.6h3.6v-1h2.4c0,.3-.1.4-.4.5v.6h3.8v1.6h-3.8v.6h-2v-.6h-3.6v.6h-2ZM354.6,222.9v.7h7.3v-.7h-7.3ZM354.6,224.7v.7h7.3v-.7h-7.3ZM356.7,229.9c0-.3.1-.6.2-1l2.2.2c0,.2-.2.3-.4.3v.5c-.1,0,3,0,3,0-.4-.4-.8-.7-1.1-1.1h-4.6c-.4.4-.8.8-1.3,1.1h2.1Z"/>
        <path class="st6" d="M382.7,230.4h-5.1c1.5.9,3.6,1.6,5.4,2-.4.4-1,1.1-1.3,1.6-2-.6-4.1-1.6-5.8-2.8v3h-2v-2.9c-1.7,1.2-3.8,2.2-5.7,2.8-.3-.5-.9-1.2-1.3-1.7,1.9-.4,4-1.2,5.5-2.1h-5.1v-1.6h6.6v-.8h-4.7v-4.2c-.4.4-.7.7-1.1,1-.3-.5-.9-1.2-1.3-1.5,1.9-1.5,3.3-3.4,4.1-5l2.3.4c0,.2-.2.3-.4.3-.2.4-.5.8-.7,1.2h2.3c.3-.6.6-1.3.8-1.8l2.5.5c0,.1-.2.2-.5.2-.2.4-.4.8-.7,1.2h4.9v1.6h-5.1v.7h4.4v1.3h-4.4v.7h4.4v1.3h-4.4v.7h5.8v1.5h-5.8c0,0-.2.1-.4.1v.6h6.7v1.6ZM374.5,222.5v-.7h-3.2v.7h3.2ZM374.5,224.5v-.7h-3.2v.7h3.2ZM371.3,225.8v.7h3.2v-.7h-3.2Z"/>
      </g>
      <g>
        <g>
          <path class="st7" d="M116.2,347.7c3-2.6,4.7-4.7,4.7-6.4s-.6-1.8-1.6-1.8-1.5.5-2,1.1l-1.2-1.2c1-1.1,2-1.6,3.5-1.6s3.4,1.3,3.4,3.3-1.6,4.1-3.6,6c.5,0,1.3-.1,1.8-.1h2.4v1.8h-7.3v-1.2Z"/>
          <path class="st7" d="M124.7,347.7l1-1.4c.6.6,1.4,1.1,2.4,1.1s1.9-.7,1.9-2-.7-2-1.8-2-1,.2-1.6.6l-1-.6.3-5.3h5.8v1.8h-4l-.2,2.3c.4-.2.8-.3,1.3-.3,1.8,0,3.4,1.1,3.4,3.5s-1.8,3.8-3.8,3.8-2.9-.7-3.7-1.5Z"/>
          <path class="st7" d="M147,347.1h-5v3.1h-1.8v-3.1h-6.6v-1.7h2.3v-3.9h4.3v-1.8h-3.1c-.6,1-1.3,2-2,2.7-.3-.3-1.1-.9-1.5-1.1,1.3-1.1,2.5-3,3.1-4.9l1.8.5c-.1.4-.3.8-.5,1.2h8.3v1.7h-4.2v1.8h3.9v1.6h-3.9v2.2h5v1.7ZM140.2,345.4v-2.2h-2.5v2.2h2.5Z"/>
        </g>
        <g>
          <path class="st7" d="M165.9,346.1h-1.3v2.8h-2v-2.8h-4.6v-1.5l4.1-6.6h2.6v6.4h1.3v1.6ZM162.6,344.5v-2.2c0-.6,0-1.6,0-2.2h0c-.3.6-.6,1.2-.9,1.8l-1.7,2.7h2.5Z"/>
          <path class="st7" d="M178.6,348c0,1.1-.2,1.6-.9,1.9-.7.3-1.7.3-3.2.3-.1-.5-.5-1.4-.7-1.8,1,0,2.3,0,2.6,0s.5-.1.5-.4v-2.1h-6.3c-.4,1.6-1.1,3.2-2.5,4.4-.3-.4-1-1-1.4-1.3,2.2-1.9,2.4-4.7,2.4-6.9v-4.8h9.6v10.8ZM176.8,344.1v-1.8h-5.9c0,.6,0,1.2-.1,1.8h6ZM170.9,338.9v1.8h5.9v-1.8h-5.9Z"/>
        </g>
      </g>
      <g>
        <g>
          <path class="st7" d="M116.2,85.2c3-2.6,4.7-4.7,4.7-6.4s-.6-1.8-1.6-1.8-1.5.5-2,1.1l-1.2-1.2c1-1.1,2-1.6,3.5-1.6s3.4,1.3,3.4,3.3-1.6,4.1-3.6,6c.5,0,1.3-.1,1.8-.1h2.4v1.8h-7.3v-1.2Z"/>
          <path class="st7" d="M132.5,83.6h-1.3v2.8h-2v-2.8h-4.6v-1.5l4.1-6.6h2.6v6.4h1.3v1.6ZM129.2,82v-2.2c0-.6,0-1.6,0-2.2h0c-.3.6-.6,1.2-.9,1.8l-1.7,2.7h2.5Z"/>
          <path class="st7" d="M147,84.6h-5v3.1h-1.8v-3.1h-6.6v-1.7h2.3v-3.9h4.3v-1.8h-3.1c-.6,1-1.3,2-2,2.7-.3-.3-1.1-.9-1.5-1.1,1.3-1.1,2.5-3,3.1-4.9l1.8.5c-.1.4-.3.8-.5,1.2h8.3v1.7h-4.2v1.8h3.9v1.6h-3.9v2.2h5v1.7ZM140.2,82.9v-2.2h-2.5v2.2h2.5Z"/>
        </g>
        <g>
          <path class="st7" d="M159.5,84.1c.4.4,1.1.8,1.7.8,1.2,0,2.2-.9,2.3-3.7-.6.7-1.5,1.2-2.2,1.2-1.8,0-3.1-1.1-3.1-3.4s1.6-3.6,3.4-3.6,3.9,1.6,3.9,5.4-2,5.9-4.2,5.9-2.3-.6-3-1.2l1.1-1.3ZM163.5,79.7c-.2-2-.9-2.7-1.9-2.7s-1.5.7-1.5,2,.6,1.9,1.5,1.9,1.3-.3,1.8-1.2Z"/>
          <path class="st7" d="M178.6,85.5c0,1.1-.2,1.6-.9,1.9-.7.3-1.7.3-3.2.3-.1-.5-.5-1.4-.7-1.8,1,0,2.3,0,2.6,0s.5-.1.5-.4v-2.1h-6.3c-.4,1.6-1.1,3.2-2.5,4.4-.3-.4-1-1-1.4-1.3,2.2-1.9,2.4-4.7,2.4-6.9v-4.8h9.6v10.8ZM176.8,81.6v-1.8h-5.9c0,.6,0,1.2-.1,1.8h6ZM170.9,76.4v1.8h5.9v-1.8h-5.9Z"/>
        </g>
      </g>
      <g>
        <g>
          <path class="st7" d="M116.2,214.8c3-2.6,4.7-4.7,4.7-6.4s-.6-1.8-1.6-1.8-1.5.5-2,1.1l-1.2-1.2c1-1.1,2-1.6,3.5-1.6s3.4,1.3,3.4,3.3-1.6,4.1-3.6,6c.5,0,1.3-.1,1.8-.1h2.4v1.8h-7.3v-1.2Z"/>
          <path class="st7" d="M132.5,213.3h-1.3v2.8h-2v-2.8h-4.6v-1.5l4.1-6.6h2.6v6.4h1.3v1.6ZM129.2,211.6v-2.2c0-.6,0-1.6,0-2.2h0c-.3.6-.6,1.2-.9,1.8l-1.7,2.7h2.5Z"/>
          <path class="st7" d="M147,214.2h-5v3.1h-1.8v-3.1h-6.6v-1.7h2.3v-3.9h4.3v-1.8h-3.1c-.6,1-1.3,2-2,2.7-.3-.3-1.1-.9-1.5-1.1,1.3-1.1,2.5-3,3.1-4.9l1.8.5c-.1.4-.3.8-.5,1.2h8.3v1.7h-4.2v1.8h3.9v1.6h-3.9v2.2h5v1.7ZM140.2,212.6v-2.2h-2.5v2.2h2.5Z"/>
        </g>
        <g>
          <path class="st7" d="M150.2,214.3h2.3v-6.9h-2v-1.3c1.1-.2,1.8-.5,2.5-.9h1.6v9.1h2v1.7h-6.5v-1.7Z"/>
          <path class="st7" d="M158.3,214.8c3-2.6,4.7-4.7,4.7-6.4s-.6-1.8-1.6-1.8-1.5.5-2,1.1l-1.2-1.2c1-1.1,2-1.6,3.5-1.6s3.4,1.3,3.4,3.3-1.6,4.1-3.6,6c.5,0,1.3-.1,1.8-.1h2.4v1.8h-7.3v-1.2Z"/>
          <path class="st7" d="M178.6,215.1c0,1.1-.2,1.6-.9,1.9-.7.3-1.7.3-3.2.3-.1-.5-.5-1.4-.7-1.8,1,0,2.3,0,2.6,0s.5-.1.5-.4v-2.1h-6.3c-.4,1.6-1.1,3.2-2.5,4.4-.3-.4-1-1-1.4-1.3,2.2-1.9,2.4-4.7,2.4-6.9v-4.8h9.6v10.8ZM176.8,211.3v-1.8h-5.9c0,.6,0,1.2-.1,1.8h6ZM170.9,206v1.8h5.9v-1.8h-5.9Z"/>
        </g>
      </g>
      <g>
        <g>
          <path class="st7" d="M116.2,511.2c3-2.6,4.7-4.7,4.7-6.4s-.6-1.8-1.6-1.8-1.5.5-2,1.1l-1.2-1.2c1-1.1,2-1.6,3.5-1.6s3.4,1.3,3.4,3.3-1.6,4.1-3.6,6c.5,0,1.3-.1,1.8-.1h2.4v1.8h-7.3v-1.2Z"/>
          <path class="st7" d="M125,509.7c0-1.4.9-2.3,1.9-2.8h0c-.8-.7-1.4-1.5-1.4-2.7,0-1.7,1.4-2.9,3.3-2.9s3.2,1.2,3.2,2.9-.7,2-1.4,2.5h0c1,.6,1.8,1.5,1.8,3s-1.5,2.9-3.7,2.9-3.6-1.2-3.6-2.9ZM130.2,509.7c0-1.1-1-1.6-2.4-2.2-.6.5-1,1.2-1,2s.8,1.6,1.8,1.6,1.6-.5,1.6-1.5ZM130.1,504.4c0-.9-.5-1.5-1.4-1.5s-1.3.5-1.3,1.4.8,1.5,2,2c.5-.6.8-1.2.8-1.8Z"/>
          <path class="st7" d="M147,510.6h-5v3.1h-1.8v-3.1h-6.6v-1.7h2.3v-3.9h4.3v-1.8h-3.1c-.6,1-1.3,2-2,2.7-.3-.3-1.1-.9-1.5-1.1,1.3-1.1,2.5-3,3.1-4.9l1.8.5c-.1.4-.3.8-.5,1.2h8.3v1.7h-4.2v1.8h3.9v1.6h-3.9v2.2h5v1.7ZM140.2,508.9v-2.2h-2.5v2.2h2.5Z"/>
        </g>
        <g>
          <path class="st7" d="M165.9,509.6h-1.3v2.8h-2v-2.8h-4.6v-1.5l4.1-6.6h2.6v6.4h1.3v1.6ZM162.6,508v-2.2c0-.6,0-1.6,0-2.2h0c-.3.6-.6,1.2-.9,1.8l-1.7,2.7h2.5Z"/>
          <path class="st7" d="M178.6,511.5c0,1.1-.2,1.6-.9,1.9-.7.3-1.7.3-3.2.3-.1-.5-.5-1.4-.7-1.8,1,0,2.3,0,2.6,0s.5-.1.5-.4v-2.1h-6.3c-.4,1.6-1.1,3.2-2.5,4.4-.3-.4-1-1-1.4-1.3,2.2-1.9,2.4-4.7,2.4-6.9v-4.8h9.6v10.8ZM176.8,507.6v-1.8h-5.9c0,.6,0,1.2-.1,1.8h6ZM170.9,502.4v1.8h5.9v-1.8h-5.9Z"/>
        </g>
      </g>
      <g class="st2">
        <path class="st0" d="M293.6,24.5v4.3h4v1.9h-9.9v-1.9h3.9v-4.3h-4.6v-1.9h4.6v-3.7c-1.2.2-2.4.4-3.5.5,0-.5-.4-1.2-.6-1.7-.3.7-.7,1.4-1,2v11.6h-2v-8.6c-.5.6-.9,1.1-1.4,1.5-.2-.5-.8-1.6-1.2-2.1,1.7-1.5,3.3-4,4.2-6.5l2,.6c-.2.5-.4.9-.6,1.3,3-.4,6.3-1,8.4-1.8l1.5,1.7c-1.1.4-2.4.7-3.8,1v4.1h4.2v1.9h-4.2Z"/>
        <path class="st0" d="M298.9,29.9c1-.7,1.8-1.7,2.2-2.8l1.7.6c-.5,1.3-1.1,2.5-2.3,3.3l-1.6-1.1h0ZM314.1,20.7h-14.5v-1.5h3.6c-.1-.4-.3-.8-.4-1.1h-2.4v-1.5h5.4v-.9h2v.9h5.4v1.5h-2.4.3c-.3.5-.5.8-.7,1.1h3.7v1.5ZM308.4,29.5c.6,0,.7-.2.8-1.4.4.3,1.2.5,1.7.6-.2,1.9-.8,2.3-2.3,2.3h-2.7c-2.1,0-2.6-.5-2.6-2.1v-1.8h1.8-.2l.7-.8h-4.2v-5.1h11.1v5.1h-5.5c.7.3,1.3.7,1.7,1l-1.2,1.2c-.5-.5-1.5-1-2.4-1.4v1.7c0,.5.1.5.9.5h2.3v.2ZM303.2,23.4h7.3v-.7h-7.3v.7ZM303.2,25.3h7.3v-.8h-7.3v.8ZM304.7,18.1c.2.4.3.8.4,1.1h-.2,3.7-.2c.2-.4.4-.8.5-1.1h-4.2,0ZM312,26.9c1,.9,2.2,2.1,2.7,3l-1.6,1c-.5-.9-1.6-2.2-2.6-3.1l1.5-.9Z"/>
        <path class="st0" d="M330.8,16.3v14.9h-2.1v-.7h-10.3v.7h-2v-14.9h14.4ZM328.7,28.7v-10.4h-10.3v10.4h10.3ZM328.2,22h-1.9v4.3c0,.9-.2,1.4-.8,1.6-.6.3-1.4.3-2.7.3,0-.5-.3-1.2-.5-1.7h1.8c.2,0,.3,0,.3-.3v-4.3h-5.4v-1.7h5.4v-1.7h1.8v1.7h1.9v1.7h.1ZM321.3,22.4c.8.8,1.5,1.9,1.9,2.7l-1.5.8c-.3-.8-1-2-1.7-2.8l1.4-.8h0Z"/>
        <path class="st0" d="M337.7,16.3c-.4,1.1-.8,2.2-1.3,3.2v11.8h-1.9v-8.5c-.3.5-.7.9-1,1.3-.2-.5-.7-1.6-1.1-2.1,1.4-1.5,2.7-3.9,3.5-6.3l1.9.6h-.1ZM344.5,20.5c.9,2.6,2.5,5.2,4.1,6.7-.5.4-1.1,1-1.5,1.5-.5-.5-.9-1.1-1.3-1.8v1.5h-2.3v2.7h-1.9v-2.7h-2.2v-1.5c-.5.7-1,1.4-1.5,1.9-.3-.5-1-1.2-1.4-1.5,1.7-1.5,3.3-4.2,4.2-6.8h-3.3v-1.9h4.2v-2.9h1.9v2.9h4.6v1.9h-3.6ZM341.5,26.7v-4.3c-.6,1.5-1.3,3-2,4.3h2ZM345.5,26.7c-.8-1.3-1.5-2.8-2.1-4.4v4.4h2.1Z"/>
        <path class="st0" d="M361.4,20.1c-.5.3-1,.6-1.6.9-1,.5-3.1,1.5-4.6,2.5-1.4.9-2.3,1.9-2.3,3s1.2,1.8,3.5,1.8,4-.3,5.4-.6v2.4c-1.4.2-3.2.4-5.4.4-3.3,0-5.8-.9-5.8-3.8s1.2-3.2,2.8-4.4c-.8-1.4-1.6-3.2-2.3-5l2.1-.9c.6,1.7,1.4,3.3,2.1,4.6,1.4-.8,2.8-1.5,3.6-2,.6-.4,1.1-.7,1.5-1l1.2,1.9-.2.2Z"/>
        <path class="st0" d="M368.1,16.6c-.1.7-.2,1.5-.2,2.2,0,1.8-.2,5.5-.2,7.6s1,2.2,2.3,2.2c2.8,0,4.5-1.6,5.7-3.4l1.5,1.9c-1.1,1.6-3.4,3.8-7.2,3.8s-4.5-1.2-4.5-4,.2-6.6.2-8,0-1.6-.2-2.3h2.7,0Z"/>
        <path class="st0" d="M379.2,18.2c1.4-.1,4.1-.4,7.2-.6,1.7-.1,3.5-.2,4.7-.3v2.1c-.9,0-2.3,0-3.2.2-2,.5-3.5,2.7-3.5,4.7s2.6,3.7,5.4,3.9l-.8,2.3c-3.5-.2-6.8-2.1-6.8-5.7s1.3-4.3,2.5-5.1c-1.4.2-4.9.5-6.9.9l-.2-2.3h1.6,0Z"/>
        <path class="st0" d="M395.5,23.7c-.7-.5-2.1-1.3-3.1-1.8l1.1-1.5c.9.5,2.4,1.2,3.2,1.6l-1.1,1.7h-.1ZM392.6,29.8c.9-1.3,2.2-3.3,3.2-5.3l1.5,1.3c-.9,1.8-1.9,3.7-3,5.3l-1.7-1.4h0ZM396.2,19.1c-.7-.5-2.1-1.3-3.1-1.8l1.1-1.4c.9.5,2.4,1.2,3.1,1.7l-1.2,1.6h.1ZM403.7,22.4v2.1h3.4v6.7h-1.9v-.6h-5.1v.7h-1.8v-6.8h3.4v-2.1h-4.5v-1.9h4.5v-2c-1.1.2-2.2.3-3.3.4,0-.5-.3-1.3-.6-1.7,2.9-.3,6-.8,7.8-1.6l1.5,1.6c-1.1.4-2.3.7-3.7,1v2.3h4.3v1.9h-4.3.3ZM405.2,26.3h-5.1v2.5h5.1v-2.5Z"/>
        <path class="st0" d="M424.4,19.4v.9c-.2,6.9-.3,9.3-.8,10.1-.4.6-.8.7-1.3.8-.5.1-1.3,0-2.1,0,0-.6-.3-1.4-.6-1.9h1.7c.3,0,.4,0,.6-.3.4-.5.5-2.5.6-7.9h-1.5c-.2,4.5-1,8-3.8,10.2-.3-.4-.7-1-1.2-1.3-2.4.3-4.8.5-6.7.7l-.2-1.7c.9,0,2.1-.2,3.4-.2v-1h-3v-1.4h3v-.7h-2.9v-5.2h2.9v-.7h-3.3v-1.4h3.3v-.7c-1,0-1.9.1-2.8.1,0-.4-.3-1-.4-1.4,2.5-.1,5.4-.4,7.2-.8l.9,1.5c-.9.2-1.9.3-3,.5v.8h3.2v.9h1.6v-3.5h1.9v3.5h3.4-.1ZM411.2,22.6h1.3v-.7h-1.3v.7ZM412.5,24.5v-.8h-1.3v.8h1.3ZM414.3,28.7c1,0,1.9-.2,2.9-.2,1.3-1.8,1.7-4.2,1.8-7.2h-1.5v-1.3h-3.2v.7h3v5.2h-3v.7h3v1.4h-3v.9-.2ZM415.6,22.6v-.7h-1.3v.7h1.3ZM414.3,23.8v.8h1.3v-.8h-1.3Z"/>
        <path class="st0" d="M428.6,22.2v9.1h-1.9v-15.1h6.5v5.9h-4.6ZM428.6,17.7v.9h2.6v-.9h-2.6ZM431.3,20.8v-.9h-2.6v.9h2.6ZM436.2,27.5v3.5h-1.7v-3.5h-1.6c-.2,1.2-.7,2.8-2.1,3.8-.3-.4-.9-.9-1.3-1.1,1.1-.7,1.5-1.8,1.7-2.6h-1.7v-1.6h1.8v-1.3h-1.5v-1.6h8.1v1.6h-1.6v1.3h1.8v1.6h-1.9ZM434.5,25.9v-1.3h-1.6v1.3h1.6ZM440.9,29c0,1-.2,1.6-.8,1.9-.6.3-1.5.4-2.8.4,0-.6-.3-1.5-.6-2h1.8c.3,0,.4-.1.4-.3v-6.7h-4.6v-6h6.6v12.7ZM436.2,17.7v.9h2.7v-.9h-2.7ZM438.9,20.8v-1h-2.7v1h2.7Z"/>
        <path class="st0" d="M449.4,19.1c-.2,3.1-.6,5.5-1.4,7.4.7.6,1.4,1.2,1.8,1.7l-1.2,1.6c-.4-.5-.9-1-1.5-1.6-.8,1.3-1.8,2.3-3,3.1-.3-.5-.8-1.2-1.2-1.6,1.1-.6,2-1.5,2.7-2.7-.3-.3-.7-.5-1-.8l-.2.6-1.6-.9c.4-1.4.9-3.2,1.3-5.2h-1.2v-1.8h1.6c.2-1.2.5-2.3.6-3.3l1.9.2c-.2,1-.4,2.1-.6,3.2h3.1c0,.1,0,0,0,0ZM445.9,20.8c-.3,1.3-.6,2.5-.9,3.6.4.3.9.6,1.3.9.5-1.3.8-2.8,1-4.5h-1.5.1ZM450.7,21.1c.6-1.6,1.2-3.8,1.5-5.5l2.2.4c-.5,1.7-1.2,3.5-1.8,5,1,0,2-.1,3-.2-.4-.6-.7-1.2-1.1-1.8l1.6-.8c1,1.4,2.2,3.3,2.6,4.6l-1.7.9c-.1-.4-.2-.7-.4-1.2-2.5.2-5.1.4-7.1.5l-.2-1.9s1.4,0,1.4,0ZM450.4,24.3h7.4v6.9h-2v-.6h-3.5v.7h-1.9v-7ZM452.2,26.1v2.8h3.5v-2.8h-3.5Z"/>
      </g>
      <g>
        <path d="M284.2,63.5c-.5-.3-1.4-.9-2.1-1.2l.6-.8c.6.3,1.6.8,2.1,1.1l-.6.9ZM282.4,67.8c.6-.8,1.5-2.3,2.1-3.5l.8.7c-.6,1.2-1.3,2.5-2,3.5l-.9-.7h0ZM284.7,60.5c-.5-.3-1.4-.9-2.1-1.2l.6-.7c.6.3,1.6.8,2.1,1.1,0,0-.6.8-.6.8ZM289.4,62.6v1.7h2.3v4.3h-1v-.4h-3.7v.5h-1v-4.4h2.4v-1.7h-3.1v-1h3.1v-1.6c-.8,0-1.6.2-2.3.3,0-.2-.2-.6-.3-.9,1.9-.2,4.1-.6,5.3-1l.8.8c-.7.3-1.6.5-2.5.7v1.8h3v1h-3,0ZM290.7,65.2h-3.7v2h3.7v-2Z"/>
        <path d="M303.4,60.9v.5c-.1,4.6-.2,6.2-.6,6.7-.2.3-.4.4-.8.5h-1.4c0-.3-.1-.7-.3-1h1.2c.2,0,.3,0,.4-.2.2-.3.4-1.7.4-5.6h-1.3c-.1,3-.6,5.4-2.6,6.8-.2-.2-.5-.6-.8-.8l.2-.2c-1.6.2-3.2.4-4.4.5v-.9c.5,0,1.3,0,2.2-.2v-.9h-2v-.8h2v-.6h-2v-3.4h2v-.6h-2.3v-.8h2.3v-.6c-.7,0-1.4,0-2,0,0-.2-.1-.5-.2-.8,1.7,0,3.6-.3,4.8-.5l.5.8c-.6,0-1.3.2-2.1.3v.7h2.3v.7h1.2v-2.4h1v2.4h2.3v.3ZM294.5,63h1.2v-.7h-1.2v.7ZM295.7,64.3v-.7h-1.2v.7h1.2ZM296.6,67.1c.7,0,1.4,0,2.1-.2.9-1.3,1.2-3,1.3-5h-1.2v-.8h-2.2v.6h2.1v3.4h-2.1v.6h2.1v.8h-2.1v.8-.2ZM297.8,63v-.7h-1.2v.7h1.2ZM296.6,63.6v.7h1.2v-.7h-1.2Z"/>
        <path d="M314.2,67.3c0,.6-.1.9-.6,1.1-.4.2-1.1.2-2.1.2,0-.3-.2-.8-.4-1.1h1.7c.2,0,.3,0,.3-.3v-6.1h-3c0,.4,0,.9-.2,1.4,1,.9,2.3,2.2,3,3l-.9.7c-.5-.7-1.5-1.7-2.4-2.6-.4,1-1.2,2-2.6,2.8-.1-.2-.5-.6-.7-.8,2.3-1.2,2.7-3,2.8-4.4h-2.9v7.4h-1v-8.4h4v-1.9h1.1v1.9h4v7.1h0Z"/>
        <path d="M321.4,61.9c1.2,1.4,3,2.7,4.7,3.3-.2.3-.5.6-.6,1-.5-.2-1-.5-1.4-.8v3.2h-1.1v-.3h-4.1v.3h-1v-3.1c-.4.3-.9.5-1.4.8-.1-.2-.4-.6-.6-.9,1.9-.8,3.7-2.2,4.5-3.5h1.1-.1ZM317.2,61.5h-1v-2.2h4.1v-1h1.1v1h4.2v2.2h-1.1v-1.2h-7.3v1.2h0ZM319.9,61c-.7,1-1.8,1.9-2.9,2.5-.1-.2-.5-.6-.7-.8,1-.5,2-1.2,2.6-2l1,.3ZM323.1,64.9c-.9-.6-1.7-1.3-2.2-1.9-.5.6-1.2,1.3-2.1,1.9h4.3ZM322.9,67.4v-1.6h-4.1v1.6h4.1ZM322.4,60.6c1,.6,2.2,1.5,2.9,2.1l-.8.7c-.6-.6-1.8-1.6-2.8-2.2l.7-.6h0Z"/>
        <path d="M336.6,64.2c-.3,1.1-.9,1.9-1.6,2.6.6.4,1.3.8,2.1,1-.2.2-.5.6-.6.8-.9-.2-1.6-.6-2.2-1.2-.6.5-1.3.9-2.1,1.1-.1-.2-.3-.6-.5-.8v.8h-1v-1c-1.3,0-2.6.3-3.7.4v-.9h.9v-3.6h-.9v-.9h9.8v.9h-5.2v4.3c.7-.2,1.3-.5,1.9-.9-.5-.5-.8-1.1-1.1-1.8l.6-.2h-1v-.8h3.9l.6.2h.1ZM335.7,62h-7.2v-3.4h7.2v3.4ZM329,63.4v.6h1.8v-.6h-1.8ZM329,65.4h1.8v-.7h-1.8v.7ZM330.8,66.8v-.6h-1.8v.7l1.8-.2h0ZM334.7,59.4h-5.2v.6h5.2v-.6ZM334.7,60.7h-5.2v.6h5.2v-.6ZM333.4,64.8c.2.5.5,1,.9,1.4.4-.4.8-.9,1-1.4h-2,.1Z"/>
        <path d="M339.5,64.9c-.1,1.1-.4,2.1-.8,2.9-.2,0-.6-.3-.8-.4.3-.7.5-1.7.7-2.6l.9.2h0ZM347.8,59.8c-.4,1.1-1.1,2-1.8,2.8.8.7,1.7,1.2,2.6,1.5-.2.2-.5.6-.7.8-1-.4-1.8-1-2.6-1.7-.8.7-1.7,1.2-2.6,1.6,0,0-.2-.3-.4-.5l-.6.3c0-.2,0-.4-.2-.6h-.7v4.7h-.9v-4.5c-.6,0-1.2,0-1.7,0v-.9h.7c.2-.3.4-.6.6-.9-.3-.5-.9-1.1-1.4-1.6l.5-.7c.1,0,.2.2.3.3.3-.6.7-1.4.9-2l.9.4c-.4.8-.9,1.6-1.3,2.2.2.2.4.4.5.6.4-.7.8-1.3,1.1-1.9l.9.4c-.6,1-1.4,2.2-2.2,3.2h1.4c-.1-.3-.3-.6-.5-.9l.7-.3c.4.6.7,1.3.9,1.9.8-.3,1.6-.8,2.3-1.3-.4-.4-.7-.9-1-1.4-.3.4-.7.8-1.1,1.1-.1-.2-.5-.5-.7-.7,1.2-.9,2-2.2,2.4-3.2l1,.2c-.1.3-.3.6-.5.9h2.4l.6.3.2-.2ZM341.7,64.7c.3.6.6,1.5.7,2l-.8.3c-.1-.5-.4-1.4-.7-2.1,0,0,.8-.2.8-.2ZM343.3,66.2c1.5.4,3.2,1.1,4.3,1.7l-.6.8c-1-.6-2.8-1.3-4.2-1.8l.6-.7h0ZM344.6,64.2c.8.3,1.7.8,2.3,1.2l-.6.7c-.5-.4-1.5-1-2.3-1.3,0,0,.6-.6.6-.6ZM344.1,60.4c.3.5.7,1.1,1.1,1.5.5-.5.9-1,1.2-1.5h-2.3Z"/>
        <path d="M352.9,61h-3.6v-.8h3.6v.8ZM359.3,67.4c0,.5-.1.9-.4,1-.3.2-.9.2-1.7.2,0-.3-.2-.8-.3-1h1.3q.2,0,.2-.2v-7.7h-3.9v3.2c0,1.7-.1,4.2-1,5.8-.2-.2-.6-.5-.8-.6h0c0,0-2,0-2,0v.5h-.8v-3.8h2.9v3.2c.7-1.5.8-3.5.8-5.1v-4.1h5.8v8.6h-.1ZM352.6,62.5h-2.9v-.8h2.9v.8ZM349.8,63.2h2.9v.8h-2.9v-.8ZM352.6,59.5h-2.8v-.8h2.8v.8ZM351.8,65.6h-1.2v1.6h1.2v-1.6ZM355.9,62.4v-.9h-1v-.8h1v-.9h.8v.9h1.1v.8h-1.1v.9h1.2v.8h-3.1v-.8h1.1ZM355.7,66.8v.4h-.8v-3.3h2.8v2.9h-2.1.1ZM355.7,64.7v1.4h1.3v-1.4h-1.3Z"/>
        <path d="M369.9,60.4c-.2.8-.6,1.5-1.1,2.1.5.4,1.2.8,2,1-.2.2-.5.6-.6.8-.8-.3-1.5-.7-2.1-1.2-.6.5-1.3.9-2.2,1.2-.1-.2-.4-.6-.6-.8.9-.2,1.6-.6,2.1-1.1-.3-.4-.6-.8-.8-1.3-.2.2-.4.5-.6.7-.1-.2-.4-.4-.6-.6v1.1h-1.7c.5.2,1.4.7,1.7.9l-.5.7c-.3-.2-.9-.6-1.4-.9v1.3h-.9v-1.3c-.5.5-1.2,1-1.7,1.3-.1-.2-.4-.5-.6-.6.7-.3,1.4-.8,1.9-1.3h-1.4v-2.1h1.8v-.5h-2.1v-.7h2.1v-.6h.9v.6h2.1v.7h-2.1v.5h1.9v.8c.7-.6,1.2-1.6,1.5-2.6l1,.2c-.1.3-.2.7-.4,1h2.9v.8h-.7.2ZM366.2,67.6h4.6v.9h-10.1v-.9h1.7v-1.8h1v1.8h1.8v-2.3h-3.8v-.8h8.7v.8h-3.9v.7h3.1v.8h-3.1v.8h0ZM361.8,61.6h1v-.8h-1v.8ZM364.8,60.9h-1v.8h1v-.8ZM367.3,60.4c.2.5.5,1,.9,1.4.3-.4.6-.9.7-1.4h-1.6Z"/>
        <path d="M292.4,79.6v1.1h-10.2v-1.1h10.2Z"/>
        <path d="M297.6,80.6v3.9c0,.4,0,.7-.4.8-.3,0-.7.2-1.3.2,0-.2-.2-.6-.3-.8h.9c.1,0,.2,0,.2-.2v-3.8l-1.8.2c0,1.4-.1,3.3-.9,4.6-.1,0-.5-.4-.7-.5.7-1.1.8-2.7.8-4h-.7v-.8c-.1,0,.7,0,.7,0v-3.5h1c.1-.5.3-1.1.4-1.5l1.1.2c-.2.4-.4.9-.5,1.3h1.6v3.1h.5v.8h-.6ZM296.7,79.8v-2.3h-1.8v2.5l1.8-.2ZM295.8,77.9c.3.4.5,1,.6,1.4l-.7.3c0-.4-.3-1-.6-1.5l.6-.3h.1ZM296.1,83.6h-.6v-2.6h.6v2.6ZM303.1,80.1c-.3,1.4-.9,2.5-1.7,3.3.6.5,1.4.9,2.3,1.1-.2.2-.5.6-.6.9-.9-.3-1.7-.7-2.4-1.3-.7.6-1.5,1-2.4,1.3-.1-.3-.4-.7-.6-.9.8-.2,1.6-.6,2.3-1.2-.5-.7-1-1.5-1.3-2.4l.7-.2h-1.1v-.9h4.2l.6.2h0ZM299.8,77c0,.9-.2,2-1.1,2.7-.2-.2-.5-.5-.8-.6.8-.6.9-1.5.9-2.2v-1.4h3.4v2.8h.6s0,0,.1-.2v-.9c.2.2.5.3.8.4,0,.4,0,.9-.1,1.1,0,.2-.2.3-.4.4-.1,0-.4,0-.5,0h-.6c-.2,0-.5,0-.7-.2s-.2-.4-.2-1v-1.6h-1.5v.6h.1ZM299.6,80.9c.3.7.6,1.4,1.1,1.9.5-.5.9-1.2,1.2-1.9h-2.3Z"/>
        <path d="M308.6,82.3c-.3-.3-.8-.9-1.2-1.3v4.5h-1v-4.1c-.5.5-1,.9-1.6,1.3-.1-.3-.4-.8-.5-1,1.3-.7,2.6-2,3.3-3.4h-2.9v-1h1.7v-2.1h1v2.1h1l.6.4c-.3.9-.8,1.7-1.4,2.4.5.4,1.5,1.2,1.7,1.5l-.6.9v-.2ZM314.9,84.1v1h-6.3v-1h2.7v-4.4h-2.3v-1h2.3v-3.5h1.1v3.5h2.3v1h-2.3v4.4h2.5,0Z"/>
        <path d="M325.6,75.6v9.8h-1.1v-.5h-7.3v.5h-1v-9.8h9.4ZM324.5,83.9v-7.3h-7.3v7.3h7.3ZM324.1,79.2h-1.4v3.3c0,.5-.1.8-.5.9s-.9.2-1.7.2c0-.3-.2-.6-.3-.9h1.3q.2,0,.2-.2v-3.3h-4v-.9h4v-1.3h1v1.3h1.4v.9ZM319.2,79.6c.5.6,1.1,1.4,1.3,1.9l-.8.4c-.2-.5-.7-1.4-1.3-2l.8-.4h0Z"/>
        <path d="M329.1,80.1c-.5-.4-1.4-.9-2.2-1.1l.5-.8c.8.2,1.7.7,2.2,1l-.6.9h.1ZM330,81.7c-.5,1.2-1.2,2.5-1.9,3.5l-.9-.7c.6-.9,1.4-2.3,2-3.6l.8.7h0ZM329.6,77.2c-.4-.4-1.4-.9-2.1-1.2l.6-.8c.8.3,1.7.8,2.2,1.1l-.6.9h-.1ZM336.3,85.4c-.1-.3-.2-.6-.4-.9-2.1.2-4.3.3-5.8.4v-1.1c-.1,0,.8,0,.8,0,.4-.9.9-2.1,1.2-3.1h-2.1v-1h3v-1.9h-2.4v-1h2.4v-1.7h1.1v1.7h2.6v1h-2.6v1.9h3.1v1h-3.8c-.4,1-.9,2.2-1.3,3.1,1.1,0,2.2,0,3.4-.2-.3-.5-.7-1-1-1.5l.9-.5c.8,1,1.7,2.3,2.1,3.2l-1,.5h-.2Z"/>
        <path d="M343.7,75.4v.5c.1,1.5.7,6.5,4.9,8.4-.3.2-.6.6-.8.9-2.7-1.3-4-3.9-4.5-6-.5,2.1-1.7,4.6-4.3,6.1-.2-.3-.5-.6-.9-.8,4.5-2.4,4.4-7.6,4.5-9.1h1.2-.1Z"/>
        <path d="M353.6,77.8h-4.3v-.8h4.3v.8ZM353.2,84.8h-2.5v.5h-.9v-3.8h3.4v3.3ZM353.2,79.2c1-.7,1.2-1.6,1.2-2.3v-1.3h3.6v2.6q0,.3.2.3h.4c.2,0,.2,0,.2-1.2.2.2.6.3.9.4,0,1.3-.3,1.7-1,1.7h-.7c-.8,0-1-.3-1-1.2v-1.7h-1.6v.4c0,1-.2,2.2-1.4,3-.1-.2-.5-.5-.8-.7h0c0,0-3.4,0-3.4,0v-.8h3.4v.6h0ZM349.8,80h3.4v.8h-3.4v-.8ZM353.2,76.3h-3.3v-.8h3.3v.8ZM350.7,82.4v1.6h1.6v-1.6h-1.6ZM359.1,80.1c-.4,1.4-1,2.4-1.8,3.3.7.5,1.5.9,2.5,1.1-.2.2-.5.6-.7.9-1-.3-1.8-.7-2.6-1.3-.8.6-1.7,1-2.7,1.3-.1-.3-.4-.7-.6-.9.9-.2,1.7-.6,2.5-1.1-.6-.6-1.1-1.4-1.5-2.2l.9-.3c.3.7.7,1.3,1.3,1.9.5-.5,1-1.2,1.3-1.9h-4v-1h4.7l.7.2h0Z"/>
        <path d="M370.7,83.9v1h-10v-1h5.6c.5-1.4,1.1-3.6,1.4-5.2l1.2.2c-.4,1.7-1,3.7-1.5,5h3.3ZM370.3,78.2h-9.3v-1h4.1v-2.1h1.1v2.1h4.2v1h-.1ZM363.5,83.5c0-1.2-.5-3-1-4.4l1-.3c.6,1.4,1,3.2,1.1,4.4l-1.1.3Z"/>
        <path d="M373.5,78.6c-.4-.3-1.2-.6-1.8-.9l.5-.7c.6.2,1.4.5,1.8.8,0,0-.5.8-.5.8ZM381.9,83.4h-4.6v2.1h-1.1v-2.1h-4.4v-.9h4.4v-.9h1.1v.9h4.6v.9ZM372,81.1c.6-.5,1.5-1.4,2.2-2.3l.6.7c-.6.8-1.4,1.6-2.1,2.4,0,0-.7-.8-.7-.8ZM374.3,76.8c-.4-.3-1.1-.7-1.7-.9l.5-.7c.6.2,1.4.6,1.8.8l-.6.8h0ZM375.4,78.1c-.2.2-.4.4-.6.6-.2-.2-.6-.6-.8-.7.9-.7,1.8-1.7,2.3-2.8l1,.3c-.1.3-.3.6-.5.9h1.3c.2-.4.4-.9.5-1.2l1.1.2c-.2.3-.4.7-.6,1h2.3v.8h-2.4v.7h2.1v.8h-2.1v.7h2.1v.8h-2.1v.7h2.7v.8h-6.3v-3.5h0ZM378,77.2h-1.6v.7h1.6v-.7ZM378,78.6h-1.6v.7h1.6v-.7ZM378,80h-1.6v.7h1.6v-.7Z"/>
        <path d="M386,75.5c-.2.7-.5,1.5-.9,2.2v7.8h-1v-5.9c-.3.5-.6.9-.9,1.2,0-.3-.4-.8-.5-1.1.9-1.1,1.8-2.7,2.3-4.4l1,.3h0ZM393.2,79.1h-6.2v1.5c0,1.4-.2,3.5-1.1,4.8-.2-.2-.5-.5-.8-.6.8-1.2.9-2.9.9-4.2v-2.4h7.1v.9h.1ZM387.7,77h-1.7v-.9h1.7v-.9h1v.9h1.9v-.9h1v.9h1.6v.9h-1.6v.8h-1v-.8h-1.9v.8h-1v-.8ZM392.9,84.5c0,.4,0,.6-.3.8-.3,0-.7,0-1.3,0,0-.2-.1-.6-.2-.8h.9c.1,0,.2,0,.2-.2v-.8h-1.4v1.7h-.8v-1.7h-1.3v1.8h-.9v-5.6h5.3v4.7h-.2ZM388.5,80.6v.8h1.3v-.8h-1.3ZM389.8,82.9v-.8h-1.3v.8h1.3ZM390.6,80.6v.8h1.4v-.8h-1.4ZM392,82.9v-.8h-1.4v.8h1.4Z"/>
        <path d="M281.9,93.1h1.3l.8,4.3.4,2.6h0c.2-.9.4-1.8.6-2.6l1.1-4.3h1.1l1.1,4.3c.2.9.4,1.7.6,2.6h0c.1-.9.3-1.8.4-2.6l.8-4.3h1.2l-1.6,8.2h-1.6l-1.1-4.6c-.1-.6-.3-1.3-.4-1.9h0c-.1.6-.2,1.2-.4,1.9l-1.1,4.6h-1.6l-1.7-8.2h0Z"/>
        <path d="M292.2,97.2c0-2.7,1.7-4.3,3.8-4.3s1.9.5,2.5,1l-.7.8c-.4-.4-.9-.7-1.7-.7-1.5,0-2.6,1.2-2.6,3.1s.9,3.2,2.6,3.2,1,0,1.3-.4v-1.9h-1.6v-1.1h2.8v3.6c-.5.5-1.5,1-2.6,1-2.2,0-3.8-1.5-3.8-4.2h0Z"/>
        <path d="M302,97.1c-.5-.3-1.4-.9-2.1-1.2l.6-.8c.6.3,1.6.8,2.1,1.1l-.6.9ZM300.2,101.4c.6-.8,1.5-2.3,2.1-3.5l.8.7c-.6,1.2-1.3,2.5-2,3.5l-.9-.7ZM302.5,94.1c-.5-.3-1.4-.9-2.1-1.2l.6-.7c.6.3,1.6.8,2.1,1.1,0,0-.6.8-.6.8ZM307.2,96.2v1.7h2.3v4.3h-1v-.4h-3.7v.5h-1v-4.4h2.4v-1.7h-3.1v-1h3.1v-1.6c-.8,0-1.6.2-2.3.3,0-.2-.2-.6-.3-.9,1.9-.2,4.1-.6,5.3-1l.8.8c-.7.3-1.6.5-2.5.6v1.8h3v1h-3,0ZM308.5,98.8h-3.7v2h3.7v-2Z"/>
        <path d="M321.2,94.5v.5c-.1,4.6-.2,6.2-.6,6.7-.2.3-.4.4-.8.5h-1.4c0-.3-.1-.7-.3-1h1.2c.2,0,.3,0,.4-.2.2-.3.4-1.7.4-5.6h-1.3c-.1,3-.6,5.4-2.6,6.8-.2-.2-.5-.6-.8-.8l.2-.2c-1.6.2-3.2.4-4.4.5v-.9c.5,0,1.3,0,2.2-.2v-.9h-2v-.8h2v-.6h-2v-3.4h2v-.6h-2.3v-.8h2.3v-.6c-.7,0-1.4,0-2,0,0-.2-.1-.5-.2-.8,1.7,0,3.6-.3,4.8-.5l.5.8c-.6,0-1.3.2-2.1.3v.7h2.3v.6h1.2v-2.4h1v2.4h2.3v.4ZM312.3,96.6h1.2v-.7h-1.2v.7ZM313.5,97.9v-.7h-1.2v.7h1.2ZM314.4,100.7c.7,0,1.4,0,2.1-.2.9-1.3,1.2-3,1.3-5h-1.2v-.8h-2.2v.6h2.1v3.4h-2.1v.6h2.1v.8h-2.1v.8-.2ZM315.6,96.6v-.7h-1.2v.7h1.2ZM314.4,97.2v.7h1.2v-.7h-1.2Z"/>
        <path d="M326.3,94.6h-4v-.8h4v.8ZM326,101.6h-2.3v.5h-.9v-3.8h3.2v3.3h0ZM322.8,95.3h3.2v.8h-3.2v-.8ZM322.8,96.8h3.2v.8h-3.2v-.8ZM326,93.1h-3.1v-.8h3.1v.8ZM323.7,99.2v1.6h1.5v-1.6h-1.5ZM329.8,99.9v.9c-1.1.3-2.4.5-3.3.8l-.2-1c.4,0,.8,0,1.3-.2v-3h-1.1v-.9h3.1v.9h-1v2.8l1.3-.2h0ZM330.8,95.1c0,3.5.4,5.8.9,5.9.2,0,.3-.5.3-1.4.2.2.6.5.8.6-.2,1.7-.7,2.1-1.1,2.1-1.4,0-1.7-2.8-1.8-7.2h-3.4v-1h3.4v-2.2h1v2.2h1.7v1h-1.8ZM331.9,93.8c-.2-.4-.6-1-1-1.4l.7-.4c.4.4.9,1,1.1,1.4l-.8.4h0Z"/>
        <path d="M337.4,94.7c-.3.6-.8,1.2-1.2,1.7v5.8h-1v-4.7c-.4.4-.8.7-1.1,1-.1-.2-.5-.7-.7-.9,1.1-.8,2.4-2.1,3.1-3.4l1,.4h0ZM337,92.3c-.8,1-1.9,2.1-3,2.8-.1-.2-.4-.6-.6-.8.9-.6,2-1.6,2.6-2.4l1,.4ZM343.7,96.6h-1.6v4.3c0,.6-.1.9-.6,1.1-.4.2-1.1.2-2.1.2,0-.3-.2-.7-.3-1h1.7c.2,0,.3,0,.3-.2v-4.3h-3.5v-1h6.2v1h-.1ZM343.4,93.6h-5.4v-1h5.4v1Z"/>
        <path d="M283.7,112.9v6.2h-1v-9.8h4.2v3.7h-3.2ZM283.7,109.9v.7h2.2v-.7h-2.2ZM285.8,112.1v-.8h-2.2v.8h2.2ZM291.9,117.9c0,.5,0,.8-.4,1-.3.2-.8.2-1.5.2,0-.2-.1-.6-.2-.9,0,0-.2.2-.2.3-1-.3-1.8-.8-2.3-1.6-.4.6-1.1,1.1-2.4,1.6-.1-.2-.4-.5-.6-.7,1.4-.4,2-1,2.3-1.5h-2.1v-.8h2.3v-.8h-2.1v-.8h1.1c-.1-.3-.3-.6-.4-.8l.8-.2c.2.3.5.8.6,1.1h1.3c.2-.3.4-.8.5-1.1l.9.3c-.2.3-.4.6-.5.8h1.2v.8h-2.3v.8h2.5v.8h-2.3c.5.7,1.3,1.2,2.3,1.4l-.3.3h.9q.2,0,.2-.2v-5h-3.2v-3.7h4.2v8.7h-.3ZM288.7,109.9v.7h2.2v-.7h-2.2ZM290.9,112.1v-.8h-2.2v.8h2.2Z"/>
        <path d="M296.6,109.1c-.3.7-.6,1.4-.9,2.1v7.8h-1v-6.1c-.3.5-.7.9-1,1.3-.1-.3-.4-.8-.6-1.1,1-1.1,2-2.7,2.5-4.3,0,0,1,.3,1,.3ZM298.5,116.2c-.4.8-1.1,1.7-1.7,2.4-.2-.2-.6-.4-.8-.5.6-.6,1.2-1.4,1.5-2.1l1,.3h0ZM302.9,115.8c0-.2-.2-.5-.4-.7-.7,0-1.5,0-2.2,0v3.8h-1v-3.8c-1.1,0-2.1,0-3,0l-.2-1h2c.2-.2.4-.3.6-.5-.5-.5-1.4-1.2-2.2-1.6l.6-.7c.2,0,.4.3.7.4.3-.4.7-.9.9-1.3-.7,0-1.3,0-2,.2,0-.2-.2-.6-.3-.8,2-.2,4.4-.5,5.8-.9l.7.8c-.9.2-1.9.4-3,.6h0c-.5.7-1.1,1.4-1.6,2,.3.2.7.5.9.7.7-.7,1.3-1.5,1.8-2.2l1,.4c-.8,1-1.8,2.1-2.7,3h2.6c-.2-.3-.5-.7-.7-1l.8-.4c.7.8,1.4,1.8,1.7,2.6l-.9.4v-.2ZM302,115.9c.6.7,1.3,1.6,1.6,2.2l-.9.5c-.3-.6-.9-1.6-1.5-2.2l.8-.4h0Z"/>
        <path d="M314.4,109.2v9.8h-1.1v-.5h-7.3v.5h-1v-9.8h9.4ZM313.3,117.5v-7.3h-7.3v7.3h7.3ZM312.9,112.8h-1.4v3.3c0,.5-.1.8-.5.9s-.9.2-1.7.2c0-.3-.2-.6-.3-.9h1.3q.2,0,.2-.2v-3.3h-4v-.9h4v-1.3h1v1.3h1.4v.9ZM308,113.2c.5.6,1.1,1.4,1.3,1.9l-.8.4c-.2-.5-.7-1.4-1.3-2l.8-.4h0Z"/>
        <path d="M318.9,109.1c-.2.8-.6,1.5-.9,2.3v7.7h-1v-5.9c-.3.4-.5.8-.8,1.1-.1-.2-.4-.8-.6-1.1,1-1.1,1.8-2.7,2.4-4.3l1,.3h-.1ZM323.3,111.9c.6,1.8,1.7,3.6,2.9,4.6-.3.2-.6.5-.8.8-1.1-1-2-2.8-2.7-4.6v3.4h1.7v.9h-1.7v1.9h-1v-1.9h-1.7v-.9h1.7v-3.4c-.7,1.8-1.7,3.5-2.8,4.6-.2-.3-.5-.6-.7-.8,1.2-1,2.3-2.8,2.9-4.7h-2.5v-1h3v-2.1h1v2.1h3.2v1h-2.6.1Z"/>
        <path d="M335.1,111.5c-.3.2-.6.3-1,.5-.7.4-2.2,1.1-3.2,1.8-1,.6-1.6,1.3-1.6,2.1s.8,1.4,2.5,1.4,2.7-.2,3.6-.4v1.3c-.9.2-2.1.3-3.5.3-2.1,0-3.7-.6-3.7-2.4s.8-2.1,1.9-2.9c-.5-.9-1.1-2.2-1.6-3.4l1.1-.4c.4,1.2,1,2.3,1.4,3.2,1-.6,2.1-1.1,2.6-1.5.4-.2.6-.4.9-.6l.6,1h0Z"/>
        <path d="M341.4,117.5c.4,0,.7,0,1-.2,1.4-.3,2.7-1.4,2.7-3.1s-1-2.9-2.7-3.1c-.2,1-.4,2.1-.7,3.1-.7,2.3-1.6,3.5-2.7,3.5s-2.1-1.2-2.1-3.1,2.2-4.6,5-4.6,4.4,1.9,4.4,4.2-1.5,3.9-4.2,4.3l-.7-1.1h0ZM340.6,113.9c.3-.9.5-1.9.6-2.9-2,.3-3.2,2.1-3.2,3.4s.6,1.9,1,1.9,1-.7,1.5-2.4h.1Z"/>
        <path d="M349,112.9v6.2h-1v-9.8h4.2v3.7h-3.2ZM349,109.9v.7h2.2v-.7h-2.2ZM351.2,112.1v-.8h-2.2v.8h2.2ZM357.3,117.9c0,.5,0,.8-.4,1-.3.2-.8.2-1.5.2,0-.2-.1-.6-.2-.9,0,0-.2.2-.2.3-1-.3-1.8-.8-2.3-1.6-.4.6-1.1,1.1-2.4,1.6-.1-.2-.4-.5-.6-.7,1.4-.4,2-1,2.3-1.5h-2.1v-.8h2.3v-.8h-2.1v-.8h1.1c-.1-.3-.3-.6-.4-.8l.8-.2c.2.3.5.8.6,1.1h1.3c.2-.3.4-.8.5-1.1l.9.3c-.2.3-.4.6-.5.8h1.2v.8h-2.3v.8h2.5v.8h-2.3c.5.7,1.3,1.2,2.3,1.4,0,0-.2.2-.3.3h.9q.2,0,.2-.2v-5h-3.2v-3.7h4.2v8.7h-.3ZM354,109.9v.7h2.2v-.7h-2.2ZM356.2,112.1v-.8h-2.2v.8h2.2Z"/>
        <path d="M361.9,109.1c-.3.7-.6,1.4-.9,2.1v7.8h-1v-6.1c-.3.5-.7.9-1,1.3-.1-.3-.4-.8-.6-1.1,1-1.1,2-2.7,2.5-4.3,0,0,1,.3,1,.3ZM363.9,116.2c-.4.8-1.1,1.7-1.7,2.4-.2-.2-.6-.4-.8-.5.6-.6,1.2-1.4,1.5-2.1l1,.3h0ZM368.2,115.8c0-.2-.2-.5-.4-.7-.7,0-1.5,0-2.2,0v3.8h-1v-3.8c-1.1,0-2.1,0-3,0l-.2-1h2c.2-.2.4-.3.6-.5-.5-.5-1.4-1.2-2.2-1.6l.6-.7c.2,0,.4.3.7.4.3-.4.6-.9.9-1.3-.7,0-1.3,0-2,.2,0-.2-.2-.6-.3-.8,2-.2,4.4-.5,5.8-.9l.7.8c-.9.2-1.9.4-3,.6h0c-.5.7-1.1,1.4-1.6,2,.3.2.6.5.9.7.7-.7,1.3-1.5,1.8-2.2l1,.4c-.8,1-1.8,2.1-2.7,3h2.6c-.2-.3-.5-.7-.7-1l.8-.4c.7.8,1.4,1.8,1.7,2.6l-.9.4v-.2ZM367.3,115.9c.6.7,1.3,1.6,1.6,2.2l-.9.5c-.3-.6-.9-1.6-1.5-2.2l.8-.4h0Z"/>
        <path d="M373.2,115.5c-.1-.4-.5-1-.8-1.5v5h-1v-4.7c-.3,1.1-.8,2.1-1.2,2.7-.1-.3-.3-.7-.5-.9.7-.9,1.3-2.6,1.6-4h-1.4v-1h1.5v-2.4h1v2.4h1.2v1h-1.2v.7c.3.4,1.1,1.7,1.3,2l-.6.8h.1ZM380.3,117.2h-.7v.7c0,.5-.1.7-.4.9-.3,0-.8,0-1.5,0,0-.2-.2-.6-.3-.8h1.1c.1,0,.2,0,.2-.2v-.7h-3.5v1.7h-1v-1.7h-.7v-.8h.7v-2.8h2.2v-.5h-2.7v-.8h1.5v-.6h-1v-.7h1v-.6h-1.2v-.8h1.2v-.9h1v.9h1.5v-.9h1v.9h1.3v.8h-1.3v.6h1.2v.7h-1.2v.6h1.6v.8h-2.8v.5h2.3v2.8h.7v.8h-.2ZM375.1,114.4v.6h1.2v-.6h-1.2ZM375.1,116.4h1.2v-.7h-1.2v.7ZM376.1,111h1.5v-.6h-1.5v.6ZM376.1,112.3h1.5v-.6h-1.5v.6ZM377.3,114.4v.6h1.3v-.6h-1.3ZM378.6,116.4v-.7h-1.3v.7h1.3Z"/>
        <path d="M387.5,116.4c1,.7,2.5,1.2,4,1.4-.2.2-.5.6-.7.9-1.4-.3-3-1.1-4.1-1.9v2.2h-1v-2.2c-1.1.9-2.6,1.6-4,2-.1-.3-.4-.7-.7-.9,1.4-.3,2.9-.8,3.9-1.5h-3.7v-.8h4.5v-.6c-.2,0-.4.2-.7.3-.1-.2-.5-.6-.7-.7.3,0,.6-.2.8-.4-1.3.2-2.7.4-3.7.6v-.9c.3,0,.9,0,1.6-.2v-1.3h-1.5v-.7h3.9v.7h-1.5v1.2c.5,0,1-.2,1.5-.2v.6c.5-.4.6-.8.6-1.3v-1.1h4v2.4h.6s0,0,.1-.2v-.8c.2,0,.5.3.7.4,0,.4,0,.9-.1,1.1,0,.2-.2.3-.3.4-.1,0-.4,0-.5,0h-.5c-.2,0-.5,0-.7-.2s-.2-.4-.2-1v-1.4h-2v.4c0,.7-.2,1.4-.9,2h.7v.8h4.5v.8h-3.9ZM382.8,110.4c-.3.4-.6.8-.9,1.1-.2-.2-.6-.4-.9-.6.7-.5,1.3-1.4,1.6-2.2l1,.3c0,.2-.2.4-.3.6h2.7v.8c.4-.5.8-1.1,1-1.6l1,.2c0,.2-.2.4-.3.6h3.5v.8h-2.3c.2.3.4.6.5.8l-.9.3c-.1-.3-.4-.7-.7-1.1h-.8c-.3.4-.6.8-1,1.1-.2-.2-.7-.4-.9-.5.2-.2.4-.3.6-.5h-1.9c.2.3.3.6.4.8l-.8.3c0-.3-.3-.7-.5-1.1h-.3.2ZM387.5,112.7c.5.3,1.1.8,1.4,1.1l-.6.6c-.3-.4-.9-.9-1.4-1.2l.6-.5Z"/>
      </g>
      <g>
        <path class="st6" d="M287.2,132.2c-.2.4-.4.7-.6,1.1h6.5v6.9c0,.8-.2,1.3-.7,1.5-.5.3-1.3.3-2.5.3,0-.5-.3-1.2-.5-1.6.7,0,1.5,0,1.8,0,.2,0,.3,0,.3-.3v-.8h-5.1v2.7h-1.7v-6.1c-.6.6-1.2,1.2-1.8,1.6-.2-.4-.8-1-1.1-1.3,1.5-1,2.6-2.5,3.5-4.1h-3.1v-1.6h3.8c.2-.6.4-1.1.5-1.7l1.7.4c-.1.4-.3.9-.4,1.3h6.8v1.6h-7.5ZM291.5,134.8h-5.1v.9h5.1v-.9ZM291.5,138v-.9h-5.1v.9h5.1Z"/>
        <path class="st6" d="M295.8,140.5c.9-.7,1.5-1.9,1.7-3.2l1.5.4c-.3,1.4-.8,2.8-1.8,3.7l-1.4-.9ZM301.5,132.3h-5.3v-1.6h5.3v-1.7h1.7v1.7h5.5v1.6h-5.5v1.8h4.6v1.6h-5.9c.8.5,1.7,1.1,2.2,1.6l-1.2,1.1c-.5-.6-1.6-1.4-2.5-2l.9-.8h-4.2v-1.6h4.4v-1.8ZM303.8,140.3c.6,0,.7-.2.7-1.5.3.3,1.1.5,1.5.6-.2,1.9-.6,2.4-2.1,2.4h-2.3c-1.8,0-2.2-.5-2.2-1.9v-2.7h1.7v2.7c0,.4.1.5.8.5h1.9ZM306.6,136.9c1,1.1,2,2.5,2.4,3.5l-1.5.8c-.3-1-1.3-2.5-2.3-3.6l1.4-.7Z"/>
        <path class="st6" d="M314.3,135.8c-.6,1.2-1.9,3.1-2.7,3.9l-1.5-1c.9-.9,2.1-2.4,2.6-3.6l1.6.7ZM317.5,133.8v6.5c0,.8-.5,1.3-1.5,1.3s-1.6,0-2.3-.1l-.2-1.7c.6.1,1.2.2,1.6.2s.5-.1.5-.5c0-.5,0-5,0-5.6h0s-3.6,0-3.6,0c-.4,0-1,0-1.4,0v-1.9c.4,0,.9.1,1.4.1h3.6v-1.1c0-.4,0-1-.1-1.2h2.1c0,.2-.1.9-.1,1.2v1.1h3.3c.4,0,1,0,1.4,0v1.8c-.4,0-1,0-1.4,0h-3.3ZM320.3,135c.7.9,1.8,2.7,2.4,3.7l-1.7.9c-.6-1.2-1.6-2.9-2.3-3.8l1.5-.8ZM320.2,131.8c-.3-.6-.7-1.3-1.1-1.8l1.1-.5c.4.5.8,1.3,1.1,1.8l-1.1.5ZM322.1,131.4c-.3-.6-.7-1.3-1.1-1.8l1.1-.4c.4.5.8,1.3,1.1,1.8l-1.1.5Z"/>
        <path class="st6" d="M335.1,134.1c0,.2-.2.4-.3.6-.4,1.4-1,2.7-2.1,3.9-1.4,1.6-3.2,2.5-5,3l-1.4-1.6c2.1-.4,3.8-1.4,4.9-2.5.8-.8,1.2-1.6,1.4-2.4h-6.8c-.3,0-1,0-1.6,0v-1.8c.6,0,1.2,0,1.6,0h6.9c.4,0,.8,0,1-.1l1.2.8ZM325.5,130.1c.4,0,1,0,1.5,0h5.4c.4,0,1.1,0,1.5,0v1.8c-.4,0-1,0-1.5,0h-5.4c-.4,0-1,0-1.5,0v-1.8Z"/>
        <path class="st6" d="M342.4,137.7c2.4-1.4,4.2-3.6,5.1-5.4l1.1,2c-1.1,1.9-2.9,3.8-5.2,5.2-1.4.9-3.2,1.6-5.2,2l-1.2-1.8c2.2-.3,4-1,5.4-1.8ZM342.4,133.1l-1.4,1.5c-.7-.8-2.5-2.3-3.5-3l1.3-1.4c1,.7,2.8,2.1,3.6,3Z"/>
        <path class="st6" d="M359.9,133.7c.3,0,.9,0,1.3,0v1.8c-.4,0-.9,0-1.3,0h-3.4c0,1.4-.4,2.6-.9,3.6-.5,1-1.6,2.1-2.8,2.7l-1.6-1.2c1-.4,2-1.2,2.5-2,.6-.9.8-1.9.9-3.1h-3.9c-.4,0-1,0-1.3,0v-1.8c.4,0,.9,0,1.3,0h9.2ZM352.5,131.8c-.5,0-1.1,0-1.5,0v-1.8c.4,0,1,0,1.5,0h5.6c.5,0,1,0,1.5,0v1.8c-.5,0-1,0-1.5,0h-5.6Z"/>
        <path class="st6" d="M371.6,133.3c-.7.7-1.9,1.7-3.2,2.5v4.7c0,.5,0,1.2,0,1.5h-2.1c0-.3,0-1,0-1.5v-3.6c-1.2.6-2.8,1.2-4,1.5l-.9-1.6c1.8-.4,3.8-1.2,4.9-1.9,1.4-.8,2.9-2,3.6-2.9l1.4,1.3Z"/>
        <path class="st6" d="M385.1,131.3c-.2.2-.4.5-.5.7-.7,1.1-2,2.9-3.4,3.8l-1.4-1.2c1.1-.7,2.2-1.9,2.6-2.6h-7.3c-.6,0-1.1,0-1.7,0v-1.9c.5,0,1.1.1,1.7.1h7.5c.4,0,1.2,0,1.4-.1l1.1,1ZM379.4,133.2c0,3.5,0,6.3-3.9,8.4l-1.6-1.3c.4-.2,1-.4,1.5-.8,1.8-1.2,2.1-2.7,2.1-5s0-.8,0-1.3h2Z"/>
        <path class="st6" d="M386.4,135.8c.6-.6,1.7-2,2.7-3.2.8-1,1.6-1.1,2.7-.1.9.8,2,1.9,2.9,2.8.9,1,2.4,2.6,3.4,3.8l-1.5,1.6c-.9-1.1-2.2-2.7-3-3.7-.9-1-2.1-2.3-2.6-2.8-.5-.4-.7-.4-1.1,0-.5.7-1.6,2.1-2.1,2.9-.3.4-.7.9-.9,1.3l-1.7-1.7c.4-.4.7-.6,1.1-1.1ZM396,133.4l-1.3.5c-.4-.9-.8-1.6-1.3-2.3l1.2-.5c.4.6,1,1.6,1.3,2.2ZM398,132.5l-1.2.6c-.4-.9-.8-1.5-1.3-2.2l1.2-.5c.4.6,1,1.6,1.4,2.2Z"/>
        <path class="st6" d="M399.8,134.3c.5,0,1.5,0,2.3,0h7.5c.6,0,1.3,0,1.6,0v2.2c-.3,0-1.1,0-1.6,0h-7.5c-.8,0-1.7,0-2.3,0v-2.2Z"/>
        <path class="st6" d="M422.7,131.3c-.1.2-.4.6-.5.9-.5,1.1-1.3,2.6-2.2,3.9,1.4,1.2,3.1,3,3.9,4l-1.6,1.4c-.9-1.3-2.2-2.7-3.5-4-1.5,1.6-3.3,3-5.3,3.9l-1.4-1.5c2.3-.9,4.4-2.5,5.7-4,.9-1.1,1.8-2.4,2.1-3.4h-4.7c-.6,0-1.4,0-1.7,0v-2c.4,0,1.2,0,1.7,0h4.9c.6,0,1.2,0,1.5-.2l1.1.9Z"/>
      </g>
      <g>
        <path class="st6" d="M288.7,377.7c1.5,2.2,3.8,4.1,6.1,5.1-.4.4-.8,1-1.1,1.5-2.2-1.2-4.5-3.2-5.7-4.9-1.1,1.7-3.3,3.7-5.6,5-.2-.4-.7-1-1.1-1.3,2.4-1.2,4.7-3.5,5.7-5.3h1.7ZM289,388.9h5v1.5h-11.9v-1.5h1.5v-4.9h1.6v4.9h2v-7.3h1.8v3h3.8v1.5h-3.8v2.8Z"/>
        <path class="st6" d="M304.2,387.6c1.2.7,2.8,1.3,4.4,1.5-.4.4-.9,1.1-1.1,1.5-1.7-.4-3.4-1.3-4.7-2.4v2.5h-1.6v-2.4c-1.3,1-3,1.8-4.7,2.3-.2-.4-.7-1.1-1.1-1.4,1.6-.3,3.2-.9,4.4-1.6h-4v-1.4h5.4v-.6h-4v-1.2h4v-.6h-4.7v-1.3h2.7c-.1-.3-.3-.8-.5-1.1h.2s-2.9,0-2.9,0v-1.4h1.9c-.2-.5-.6-1.2-.9-1.7l1.4-.5c.4.6.9,1.4,1.1,2l-.7.3h1.3v-2.3h1.6v2.3h1v-2.3h1.6v2.3h1.2l-.5-.2c.3-.6.7-1.4.9-2l1.8.4c-.4.6-.8,1.3-1.1,1.8h1.8v1.4h-2.6c-.2.4-.4.8-.7,1.1h2.7v1.3h-4.9v.6h4.2v1.2h-4.2v.6h5.4v1.4h-4.1ZM300.4,381.4c.2.4.4.8.5,1.1h-.2s2.6,0,2.6,0c.2-.3.3-.7.5-1.1h-3.3Z"/>
        <path class="st6" d="M318.9,389.9c0-.2,0-.5,0-.7h-6.4c-.5,0-1.3,0-1.8,0v-2c.5,0,1.1,0,1.8,0h6.5v-5.8h-6.3c-.6,0-1.3,0-1.7,0v-1.9c.5,0,1.2,0,1.7,0h7c.4,0,1,0,1.2,0,0,.3,0,.9,0,1.3v7.3c0,.5,0,1.2,0,1.7h-2Z"/>
        <path class="st6" d="M333.4,388.5l-.8,1.8c-1.9-.8-6.3-1.8-8.6-2.1l.7-1.8c2.4.4,6.7,1.4,8.6,2.1ZM332.8,384.1l-.7,1.8c-1.6-.6-5.2-1.4-7.3-1.8l.6-1.7c2,.3,5.6,1.1,7.3,1.7ZM333.7,380.3l-.7,1.8c-1.6-.6-5.6-1.5-7.6-1.8l.7-1.7c1.8.2,5.9,1,7.6,1.7Z"/>
        <path class="st6" d="M339.1,385.2l-1.7.6c-.2-.8-.9-2.6-1.3-3.2l1.7-.6c.3.7,1,2.4,1.3,3.2ZM346.2,382.3c-.2.4-.3.7-.3,1-.4,1.4-1,2.9-1.9,4.1-1.3,1.7-3.1,2.9-4.7,3.5l-1.5-1.5c1.5-.4,3.5-1.5,4.7-2.9,1-1.2,1.6-3.1,1.8-4.8l2,.6ZM342.2,384.3l-1.7.6c-.2-.7-.8-2.4-1.1-3.1l1.7-.5c.3.6,1,2.4,1.1,3.1Z"/>
        <path class="st6" d="M356.9,386.4c-1.4-.8-3.5-1.6-5.1-2.1v4c0,.4,0,1.4.1,1.9h-2.2c0-.5.1-1.4.1-1.9v-8c0-.5,0-1.2-.1-1.7h2.2c0,.5-.1,1.1-.1,1.7v2.1c1.9.5,4.6,1.5,5.9,2.2l-.8,1.9Z"/>
        <path class="st6" d="M369.8,379.3c-.2.3-.4.9-.6,1.2-.4,1.1-1,2.5-1.9,3.8,1.2,1,2.4,2.1,3.3,3.1l-1.4,1.6c-1-1.1-2-2.1-3.1-3.1-1.2,1.5-2.8,3-5.2,4.3l-1.6-1.4c2.3-1.1,4-2.5,5.3-4.1-1-.8-2.3-1.8-3.8-2.6l1.2-1.4c1.1.7,2.6,1.7,3.7,2.5.7-1.1,1.2-2.2,1.5-3.3.1-.4.3-.9.3-1.3l2.1.8Z"/>
        <path class="st6" d="M377.6,386.4c2.4-1.4,4.2-3.6,5.1-5.4l1.1,2c-1.1,1.9-2.9,3.8-5.2,5.2-1.4.9-3.2,1.6-5.2,2l-1.2-1.8c2.2-.3,4-1,5.4-1.8ZM377.6,381.9l-1.4,1.5c-.7-.8-2.5-2.3-3.5-3l1.3-1.4c1,.7,2.8,2.1,3.6,3Z"/>
        <path class="st6" d="M393.9,386.4c-1.4-.8-3.5-1.6-5.1-2.1v4c0,.4,0,1.4.1,1.9h-2.2c0-.5.1-1.4.1-1.9v-8c0-.5,0-1.2-.1-1.7h2.2c0,.5-.1,1.1-.1,1.7v2.1c1.9.5,4.6,1.5,5.9,2.2l-.8,1.9Z"/>
        <path class="st6" d="M397.2,384.6c.6-.6,1.7-2,2.7-3.2.8-1,1.6-1.1,2.7-.1.9.8,2,1.9,2.9,2.8.9,1,2.4,2.6,3.4,3.8l-1.5,1.6c-.9-1.1-2.2-2.7-3-3.7-.9-1-2.1-2.3-2.6-2.8-.5-.4-.7-.4-1.1,0-.5.7-1.6,2.1-2.1,2.9-.3.4-.7.9-.9,1.3l-1.7-1.7c.4-.4.7-.6,1.1-1.1ZM406.8,382.1l-1.3.5c-.4-.9-.8-1.6-1.3-2.3l1.2-.5c.4.6,1,1.6,1.3,2.2ZM408.8,381.3l-1.2.6c-.4-.9-.8-1.5-1.3-2.2l1.2-.5c.4.6,1,1.6,1.4,2.2Z"/>
        <path class="st6" d="M410.6,383.1c.5,0,1.5,0,2.3,0h7.5c.6,0,1.3,0,1.6,0v2.2c-.3,0-1.1,0-1.6,0h-7.5c-.8,0-1.7,0-2.3,0v-2.2Z"/>
        <path class="st6" d="M433.4,380.1c-.1.2-.4.6-.5.9-.5,1.1-1.3,2.6-2.2,3.9,1.4,1.2,3.1,3,3.9,4l-1.6,1.4c-.9-1.3-2.2-2.7-3.5-4-1.5,1.6-3.3,3-5.3,3.9l-1.4-1.5c2.3-.9,4.4-2.5,5.7-4,.9-1,1.8-2.4,2.1-3.4h-4.7c-.6,0-1.4,0-1.7,0v-2c.4,0,1.2,0,1.7,0h4.9c.6,0,1.2,0,1.5-.2l1.1.9Z"/>
      </g>
      <g>
        <path class="st0" d="M292.6,41.3c.9.9,2.1,1.8,3.3,2.3-.4.3-.8.9-1.1,1.3-1.6-.8-3.1-2.1-4.1-3.6h-2.8c-.4.5-.8,1.1-1.2,1.5,1.1-.3,2.2-.7,2.9-1.1l1.3.6c-1.1.8-2.7,1.3-4.1,1.6-.2-.2-.4-.4-.6-.6-.7.6-1.5,1.2-2.4,1.6-.2-.4-.9-1-1.2-1.3,1.3-.6,2.5-1.4,3.4-2.4h-2.9v-1.4h3.9c.2-.3.3-.6.4-.9-1.4,0-2.6,0-3.7.1l-.2-1.5c.7,0,1.5,0,2.4,0,.5-.7,1-1.5,1.2-2.2l1.8.5c-.4.6-.8,1.2-1.2,1.7,1.2,0,2.6,0,3.9-.1-.3-.3-.7-.6-1-.8l1.3-.8c1.1.8,2.6,2.1,3.4,3l-1.4.9c-.2-.3-.5-.6-.8-.9-1.3,0-2.6.1-3.9.2-.1.3-.3.7-.4,1h7v1.4h-3ZM293.9,45.5c-1.8,1.8-4.9,2.7-8.5,3.1-.2-.4-.5-1-.8-1.4,3.2-.3,6.3-1,7.8-2.4l1.5.7ZM292.1,44c-1.4,1.1-3.5,1.8-5.6,2.3-.2-.4-.5-.9-.9-1.2,1.8-.3,4-.9,5.2-1.7l1.3.6Z"/>
        <path class="st0" d="M303.3,38s0,.5,0,.8c-.1,6-.2,8.1-.7,8.8-.3.5-.6.6-1.1.7-.4,0-1,0-1.7,0,0-.5-.2-1.2-.5-1.7.6,0,1.1,0,1.3,0s.3,0,.5-.3c.3-.4.4-2.1.5-6.8h-1.4c-.1,3.7-.6,6.9-2.4,9-.3-.4-.8-1-1.2-1.2,1.6-1.8,1.9-4.5,2-7.7h-1.6v-1.6h1.6c0-.7,0-1.5,0-2.3h1.6c0,.8,0,1.6,0,2.3h3ZM309.1,37v11.1h-1.7v-.9h-1.8v1h-1.6v-11.2h5.1ZM307.5,45.7v-7h-1.8v7h1.8Z"/>
        <path class="st0" d="M319.9,46.4c1.3.4,2.8,1,3.7,1.3l-1.8.8c-.8-.4-2.3-1-3.7-1.5l1.1-.7h-3.7l1.1.5c-1.2.7-2.9,1.3-4.4,1.7-.3-.3-.9-.9-1.2-1.2,1.3-.2,2.7-.6,3.7-1h-1.9v-4.2c-.3,0-.7.1-1,.2-.1-.4-.5-1-.8-1.3,1.7-.2,2.7-.6,3.3-1h-1.3c0,.1-1.5,0-1.5,0,.3-.7.6-1.7.9-2.5h2.7v-.6h-3.2v-1h3.2v-.6h1.5v.6h1.6v-.6h1.6v.6h3v2.5h-3v.5h3.9s0,.3,0,.4c0,.9-.2,1.4-.4,1.7-.2.2-.5.3-.8.3,0,0-.1,0-.2,0v4.8h-2.1ZM313.3,39.1h1.5c0-.2,0-.4,0-.5h-1.4l-.2.5ZM320.3,42h-6v.5h6v-.5ZM320.3,43.4h-6v.6h6v-.6ZM314.3,45.5h6v-.6h-6v.6ZM316.1,40.1c-.2.3-.4.6-.7.9h2.5v-.9h-1.9ZM318,38.6h-1.6c0,.2,0,.4,0,.5h1.6v-.5ZM316.4,37.6h1.6v-.6h-1.6v.6ZM319.6,37v.6h1.5v-.6h-1.5ZM319.6,40.1v.9h1.2c0-.2-.1-.3-.2-.5.3,0,.6,0,.8,0,.1,0,.2,0,.3,0,0,0,0-.2.1-.4h-2.2Z"/>
        <path class="st0" d="M326.8,39.2c-.3.3-.5.5-.8.7-.3-.3-1-.8-1.4-1.1,1.2-.8,2.3-2,2.9-3.3l1.6.5c-.2.3-.3.7-.5,1h8.4v1.5h-1.3v1.8h1.8v1.5h-1.8v1.8h1.6v1.5h-12.2v-1.5h1.7v-1.8h-1.9v-1.5h1.9v-1ZM324.8,47.9c.6-.6,1.2-1.7,1.6-2.7l1.6.4c-.3,1.1-.9,2.2-1.6,2.9l-1.6-.6ZM328.3,40.2h1v-1.8h-1v1.8ZM328.3,43.4h1v-1.8h-1v1.8ZM330.4,45.5c.2.9.3,2,.3,2.6l-1.6.2c0-.7-.1-1.8-.3-2.7l1.6-.2ZM331.7,40.2v-1.8h-1v1.8h1ZM330.7,41.7v1.8h1v-1.8h-1ZM333.2,45.5c.3.8.7,1.9.8,2.6l-1.7.3c0-.7-.4-1.8-.7-2.7l1.6-.3ZM334.2,38.4h-1.1v1.8h1.1v-1.8ZM334.2,41.7h-1.1v1.8h1.1v-1.8ZM336,45.2c.6.9,1.4,2,1.8,2.8l-1.7.6c-.3-.7-1-2-1.7-2.9l1.6-.5Z"/>
        <path class="st0" d="M342.5,37.5c-.2.5-.5.9-.7,1.4v9.6h-1.6v-7.2c-.3.4-.6.8-1,1.1-.2-.4-.6-1.3-.9-1.7,1.3-1.3,2.5-3.2,3.2-5.3l1.6.5c-.2.4-.4.9-.5,1.3h1.5c-.2-.4-.4-.9-.7-1.3l1.3-.4c.4.5.7,1.1.9,1.5l-.4.2h1.1v-1.7h1.6v1.7h1.1-.4c.3-.6.6-1.2.8-1.7l1.6.4c-.3.5-.7.9-1,1.3h1.5v2.3h-1.4v1.6h-6.4v-1.6h-1.3v-2.1ZM348.9,46.4c1.1.4,2.3.8,3,1.2l-1.3,1c-.7-.4-1.9-1-3.1-1.3l.8-.8h-2.8l1,.7c-1,.6-2.3,1.1-3.5,1.4-.2-.3-.6-.8-.9-1.1,1-.2,2.2-.6,3-1h-1.8v-4.7h7.7v4.7h-2ZM343.9,38.4v.5h6.1v-.5h-6.1ZM344.7,43.1h4.6v-.5h-4.6v.5ZM344.7,44.3h4.6v-.5h-4.6v.5ZM344.7,45.5h4.6v-.5h-4.6v.5ZM348.7,39.8h-3.4v.6h3.4v-.6Z"/>
      </g>
      <g class="st2">
        <path class="st0" d="M291.6,322.5c.9.9,2.1,1.8,3.3,2.3-.4.3-.8.9-1.1,1.3-1.6-.8-3.1-2.1-4.1-3.6h-2.8c-.4.5-.8,1.1-1.2,1.5,1.1-.3,2.2-.7,2.9-1.1l1.3.6c-1.1.8-2.7,1.3-4.1,1.6-.2-.2-.4-.4-.6-.6-.7.6-1.5,1.2-2.4,1.6-.2-.3-.9-1-1.2-1.3,1.3-.6,2.5-1.4,3.4-2.4h-2.9v-1.4h3.9c.2-.3.3-.6.4-.9-1.4,0-2.6,0-3.7.1l-.2-1.5c.7,0,1.5,0,2.4,0,.5-.7,1-1.5,1.2-2.2l1.8.5c-.4.6-.8,1.2-1.2,1.7,1.2,0,2.6,0,3.9-.1-.3-.3-.7-.6-1-.8l1.3-.8c1.1.8,2.6,2.1,3.4,3l-1.4.9c-.2-.3-.5-.6-.8-.9-1.3,0-2.6.1-3.9.2-.1.3-.3.7-.4,1h7v1.4h-3ZM293,326.6c-1.8,1.8-4.9,2.7-8.5,3.1-.2-.4-.5-1-.8-1.4,3.2-.3,6.3-1,7.8-2.4l1.5.7ZM291.1,325.1c-1.4,1.1-3.5,1.8-5.6,2.3-.2-.4-.5-.9-.9-1.2,1.8-.3,4-.9,5.2-1.7l1.3.6Z"/>
        <path class="st0" d="M302.3,319.1s0,.5,0,.8c-.1,6-.2,8.1-.7,8.8-.3.5-.6.6-1.1.7-.4,0-1,0-1.7,0,0-.5-.2-1.2-.5-1.7.6,0,1.1,0,1.3,0s.3,0,.5-.3c.3-.4.4-2.1.5-6.8h-1.4c-.1,3.7-.6,6.9-2.4,9-.3-.4-.8-1-1.2-1.2,1.6-1.8,1.9-4.5,2-7.7h-1.6v-1.6h1.6c0-.7,0-1.5,0-2.3h1.6c0,.8,0,1.6,0,2.3h3ZM308.2,318.2v11.1h-1.7v-.9h-1.8v1h-1.6v-11.2h5.1ZM306.5,326.8v-7h-1.8v7h1.8Z"/>
        <path class="st0" d="M319,327.6c1.3.4,2.8,1,3.7,1.3l-1.8.8c-.8-.4-2.3-1-3.7-1.5l1.1-.7h-3.7l1.1.5c-1.2.7-2.9,1.3-4.4,1.7-.3-.3-.9-.9-1.2-1.2,1.3-.2,2.7-.6,3.7-1h-1.9v-4.2c-.3,0-.7.1-1,.2-.1-.3-.5-1-.8-1.3,1.7-.2,2.7-.6,3.3-1h-1.3c0,.1-1.5,0-1.5,0,.3-.7.6-1.7.9-2.5h2.7v-.6h-3.2v-1h3.2v-.6h1.5v.6h1.6v-.6h1.6v.6h3v2.5h-3v.5h3.9s0,.3,0,.4c0,.9-.2,1.4-.4,1.7-.2.2-.5.3-.8.3,0,0-.1,0-.2,0v4.8h-2.1ZM312.4,320.3h1.5c0-.2,0-.3,0-.5h-1.4l-.2.5ZM319.4,323.1h-6v.5h6v-.5ZM319.4,324.6h-6v.6h6v-.6ZM313.4,326.6h6v-.6h-6v.6ZM315.2,321.3c-.2.3-.4.6-.7.9h2.5v-.9h-1.9ZM317.1,319.7h-1.6c0,.2,0,.4,0,.5h1.6v-.5ZM315.5,318.8h1.6v-.6h-1.6v.6ZM318.6,318.2v.6h1.5v-.6h-1.5ZM318.6,321.3v.9h1.2c0-.2-.1-.3-.2-.5.3,0,.6,0,.8,0,.1,0,.2,0,.3,0,0,0,0-.2.1-.4h-2.2Z"/>
        <path class="st0" d="M325.9,320.3c-.3.3-.5.5-.8.7-.3-.3-1-.8-1.4-1.1,1.2-.8,2.3-2,2.9-3.3l1.6.5c-.2.3-.3.7-.5,1h8.4v1.5h-1.3v1.8h1.8v1.5h-1.8v1.8h1.6v1.5h-12.2v-1.5h1.7v-1.8h-1.9v-1.5h1.9v-1ZM323.9,329.1c.6-.6,1.2-1.7,1.6-2.7l1.6.4c-.3,1.1-.9,2.2-1.6,2.9l-1.6-.6ZM327.4,321.3h1v-1.8h-1v1.8ZM327.4,324.6h1v-1.8h-1v1.8ZM329.5,326.7c.2.9.3,2,.3,2.6l-1.6.2c0-.7-.1-1.8-.3-2.7l1.6-.2ZM330.8,321.3v-1.8h-1v1.8h1ZM329.8,322.8v1.8h1v-1.8h-1ZM332.3,326.6c.3.8.7,1.9.8,2.6l-1.7.3c0-.7-.4-1.8-.7-2.7l1.6-.3ZM333.3,319.5h-1.1v1.8h1.1v-1.8ZM333.3,322.8h-1.1v1.8h1.1v-1.8ZM335.1,326.3c.6.9,1.4,2,1.8,2.8l-1.7.6c-.3-.7-1-2-1.7-2.9l1.6-.5Z"/>
        <path class="st0" d="M341.6,318.6c-.2.5-.5.9-.7,1.4v9.6h-1.6v-7.2c-.3.4-.6.8-1,1.1-.2-.4-.6-1.3-.9-1.7,1.3-1.3,2.5-3.2,3.2-5.3l1.6.5c-.2.4-.4.9-.5,1.3h1.5c-.2-.4-.4-.9-.7-1.3l1.3-.4c.4.5.7,1.1.9,1.5l-.4.2h1.1v-1.7h1.6v1.7h1.1-.4c.3-.6.6-1.2.8-1.7l1.6.4c-.3.5-.7.9-1,1.3h1.5v2.3h-1.4v1.6h-6.4v-1.6h-1.3v-2.1ZM348,327.6c1.1.4,2.3.8,3,1.2l-1.3,1c-.7-.4-1.9-1-3.1-1.3l.8-.8h-2.8l1,.7c-1,.6-2.3,1.1-3.5,1.4-.2-.3-.6-.8-.9-1.1,1-.2,2.2-.6,3-1h-1.8v-4.7h7.7v4.7h-2ZM343,319.6v.5h6.1v-.5h-6.1ZM343.8,324.2h4.6v-.5h-4.6v.5ZM343.8,325.5h4.6v-.5h-4.6v.5ZM343.8,326.7h4.6v-.5h-4.6v.5ZM347.8,321h-3.4v.6h3.4v-.6Z"/>
      </g>
      <g class="st2">
        <path class="st0" d="M292.8,499.3c.9.9,2.1,1.8,3.3,2.3-.4.3-.8.9-1.1,1.3-1.6-.8-3.1-2.1-4.1-3.6h-2.8c-.4.5-.8,1.1-1.2,1.5,1.1-.3,2.2-.7,2.9-1.1l1.3.6c-1.1.8-2.7,1.3-4.1,1.6-.2-.2-.4-.4-.6-.6-.7.6-1.5,1.2-2.4,1.6-.2-.3-.9-1-1.2-1.3,1.3-.6,2.5-1.4,3.4-2.4h-2.9v-1.4h3.9c.2-.3.3-.6.4-.9-1.4,0-2.6,0-3.7.1l-.2-1.5c.7,0,1.5,0,2.4,0,.5-.7,1-1.5,1.2-2.2l1.8.5c-.4.6-.8,1.2-1.2,1.7,1.2,0,2.6,0,3.9-.1-.3-.3-.7-.6-1-.8l1.3-.8c1.1.8,2.6,2.1,3.4,3l-1.4.9c-.2-.3-.5-.6-.8-.9-1.3,0-2.6.1-3.9.2-.1.3-.3.7-.4,1h7v1.4h-3ZM294.1,503.4c-1.8,1.8-4.9,2.7-8.5,3.1-.2-.4-.5-1-.8-1.4,3.2-.3,6.3-1,7.8-2.4l1.5.7ZM292.3,501.9c-1.4,1.1-3.5,1.8-5.6,2.3-.2-.4-.5-.9-.9-1.2,1.8-.3,4-.9,5.2-1.7l1.3.6Z"/>
        <path class="st0" d="M303.5,495.9s0,.5,0,.8c-.1,6-.2,8.1-.7,8.8-.3.5-.6.6-1.1.7-.4,0-1,0-1.7,0,0-.5-.2-1.2-.5-1.7.6,0,1.1,0,1.3,0s.3,0,.5-.3c.3-.4.4-2.1.5-6.8h-1.4c-.1,3.7-.6,6.9-2.4,9-.3-.4-.8-1-1.2-1.2,1.6-1.8,1.9-4.5,2-7.7h-1.6v-1.6h1.6c0-.7,0-1.5,0-2.3h1.6c0,.8,0,1.6,0,2.3h3ZM309.3,495v11.1h-1.7v-.9h-1.8v1h-1.6v-11.2h5.1ZM307.7,503.6v-7h-1.8v7h1.8Z"/>
        <path class="st0" d="M320.1,504.3c1.3.4,2.8,1,3.7,1.3l-1.8.8c-.8-.4-2.3-1-3.7-1.5l1.1-.7h-3.7l1.1.5c-1.2.7-2.9,1.3-4.4,1.7-.3-.3-.9-.9-1.2-1.2,1.3-.2,2.7-.6,3.7-1h-1.9v-4.2c-.3,0-.7.1-1,.2-.1-.3-.5-1-.8-1.3,1.7-.2,2.7-.6,3.3-1h-1.3c0,.1-1.5,0-1.5,0,.3-.7.6-1.7.9-2.5h2.7v-.6h-3.2v-1h3.2v-.6h1.5v.6h1.6v-.6h1.6v.6h3v2.5h-3v.5h3.9s0,.3,0,.4c0,.9-.2,1.4-.4,1.7-.2.2-.5.3-.8.3,0,0-.1,0-.2,0v4.8h-2.1ZM313.5,497h1.5c0-.2,0-.3,0-.5h-1.4l-.2.5ZM320.5,499.9h-6v.5h6v-.5ZM320.5,501.3h-6v.6h6v-.6ZM314.5,503.4h6v-.6h-6v.6ZM316.3,498c-.2.3-.4.6-.7.9h2.5v-.9h-1.9ZM318.2,496.5h-1.6c0,.2,0,.4,0,.5h1.6v-.5ZM316.6,495.5h1.6v-.6h-1.6v.6ZM319.8,495v.6h1.5v-.6h-1.5ZM319.8,498v.9h1.2c0-.2-.1-.3-.2-.5.3,0,.6,0,.8,0,.1,0,.2,0,.3,0,0,0,0-.2.1-.4h-2.2Z"/>
        <path class="st0" d="M330.2,496.6c-.2.4-.4.7-.6,1.1h6.5v6.9c0,.8-.2,1.3-.7,1.5-.5.3-1.3.3-2.5.3,0-.5-.3-1.2-.5-1.6.7,0,1.5,0,1.8,0,.2,0,.3,0,.3-.3v-.8h-5.1v2.7h-1.7v-6.1c-.6.6-1.2,1.2-1.8,1.6-.2-.4-.8-1-1.1-1.3,1.5-1,2.6-2.5,3.5-4.1h-3.1v-1.6h3.8c.2-.6.4-1.1.5-1.7l1.7.4c-.1.4-.3.9-.4,1.3h6.8v1.6h-7.5ZM334.5,499.2h-5.1v.9h5.1v-.9ZM334.5,502.4v-.9h-5.1v.9h5.1Z"/>
        <path class="st0" d="M342.7,495.4c-.2.5-.5.9-.7,1.4v9.6h-1.6v-7.2c-.3.4-.6.8-1,1.1-.2-.4-.6-1.3-.9-1.7,1.3-1.3,2.5-3.2,3.2-5.3l1.6.5c-.2.4-.4.9-.5,1.3h1.5c-.2-.4-.4-.9-.7-1.3l1.3-.4c.4.5.7,1.1.9,1.5l-.4.2h1.1v-1.7h1.6v1.7h1.1-.4c.3-.6.6-1.2.8-1.7l1.6.4c-.3.5-.7.9-1,1.3h1.5v2.3h-1.4v1.6h-6.4v-1.6h-1.3v-2.1ZM349.1,504.3c1.1.4,2.3.8,3,1.2l-1.3,1c-.7-.4-1.9-1-3.1-1.3l.8-.8h-2.8l1,.7c-1,.6-2.3,1.1-3.5,1.4-.2-.3-.6-.8-.9-1.1,1-.2,2.2-.6,3-1h-1.8v-4.7h7.7v4.7h-2ZM344.1,496.4v.5h6.1v-.5h-6.1ZM344.9,501h4.6v-.5h-4.6v.5ZM344.9,502.2h4.6v-.5h-4.6v.5ZM344.9,503.4h4.6v-.5h-4.6v.5ZM348.9,497.7h-3.4v.6h3.4v-.6Z"/>
      </g>
    </g>
  </g>
</svg>