<?xml version="1.0" encoding="UTF-8"?>
<svg id="_レイヤー_1" data-name="レイヤー_1" xmlns="http://www.w3.org/2000/svg" version="1.1" viewBox="0 0 334.07 72.64">
  <!-- Generator: Adobe Illustrator 29.2.1, SVG Export Plug-In . SVG Version: 2.1.0 Build 116)  -->
  <defs>
    <style>
      .st0 {
        fill: #c31829;
      }

      .st1 {
        fill: #040000;
      }
    </style>
  </defs>
  <g id="AIQMI">
    <g>
      <path class="st1" d="M334.01,5.4c0-.13-.07-.27-.14-.38-.07-.12-.18-.22-.5-.6-1.61-.02-3.45-.04-5.29-.05-1.87,0-3.74-.06-5.61.02-1.8.08-3.68-.43-5.43.46v55.68c3.48.67,13.38.67,17.03-.02v-30.94c-.02-8.34-.04-16.24-.06-24.15Z"/>
      <path class="st1" d="M279.94,4.57c-1.12,6.34-2.19,12.4-3.26,18.47-1.08,6.16-2.15,12.32-3.39,19.39-.62-1.45-1.02-2.03-1.13-2.66-1.83-10.46-3.62-20.93-5.43-31.4-.24-1.38-.25-2.85-1.29-4.01-3.08,0-6.09-.05-9.11.01-2.97.07-5.97-.32-8.86.27-2.08,11.12-6.89,52.63-6.47,56.36,2.37,0,4.8.08,7.21-.02,2.36-.1,4.8.45,7.15-.42.37-4.81.73-9.39,1.06-13.97.38-5.3.73-10.61,1.12-15.91.05-.72-.05-1.61,1.23-1.96,1.06,5.52,1.98,10.88,3.13,16.19,1.15,5.3,1.74,10.73,3.38,16.09,2.59,0,5.03.03,7.46,0,2.55-.04,5.11.17,7.81-.17,2.33-10.81,4.04-21.54,6.95-32.15.21.93.43,1.85.67,3.16.7,9.83,1.38,19.28,2.05,28.67,3.68.69,11.87.66,15.3-.06-2.3-18.61-4.6-37.23-6.93-56.11-6.38.14-12.49-.23-18.68.23Z"/>
      <path class="st1" d="M220.54,56.29c6.86-5.27,10.88-11.81,11.8-20.44,0-2.8.11-5.25-.09-7.68-.94-11.22-7.8-19.91-18.35-23.12-7.19-2.19-14.46-2.17-21.61.2-9.04,3-14.59,9.3-16.99,18.46-1.25,4.8-1.35,9.71-.64,14.55,1.59,10.88,7.46,18.45,18.06,22,2.59.87,5.29,1.3,8.04,1.38,2.58.08,5.16.38,7.74.44,4.15.1,7,2.18,9.05,5.62,1.01,1.7,2.11,3.34,3.12,4.92,5.14,0,10.03,0,14.91,0,.14,0,.31,0,.42-.08.1-.07.12-.23.32-.66-3.46-6.59-9.05-11.35-15.76-15.6ZM214.85,42.19c-1.49,3.72-4.43,5.96-8.48,6.43-1.7.2-3.44.24-5.14.11-4.96-.4-8.25-3.07-9.79-7.77-1.8-5.48-1.76-11.01-.05-16.51,1.19-3.84,3.75-6.37,7.59-7.58,2.71-.22,4.73-.45,6.71-.29,4.38.36,7.63,2.6,9.23,6.7,2.44,6.26,2.43,12.67-.06,18.91Z"/>
      <path class="st1" d="M161.76,4.37c-4.88.04-9.76.07-14.64.13-.23,0-.45.28-.84.55-.04.43-.12.98-.12,1.54.03,17.82.06,35.63.1,53.45,0,.14.03.3.11.41.08.11.23.16.35.24,4.1.48,13.02.43,16.24-.09.1-.26.29-.52.29-.78.02-17.68.03-35.35.04-53.45.04-1.48-.46-2.01-1.53-2Z"/>
      <path class="st1" d="M100.77,4.74c-2.29,5.58-17.49,52.23-18.19,55.83,3.8.68,12.6.61,15.78-.16.66-2.85,1.34-5.78,2.14-9.07.46-.59.81-1.02,1.15-1.03,4.87-.04,9.73-.03,14.56-.03,1.81,3.47,1.45,7.44,3.42,10.72,4.69,0,9.28.02,13.88-.02.64,0,1.27-.31,1.98-.49-6.18-18.78-12.26-37.29-18.31-55.7-3.57-.58-12.9-.59-16.41-.06ZM103.92,38.41c-.21-1.98.64-3.53.88-5.13.24-1.54.74-3.04,1.13-4.56.89-3.74,1.61-6.78,2.41-10.16.47.66.94,1.05,1.06,1.53,1.3,5.25,2.54,10.52,3.79,15.79.16.68.22,1.38.35,2.27-3.2.57-6.28.18-9.63.26Z"/>
    </g>
  </g>
  <g id="_ロゴ" data-name="ロゴ">
    <path id="_x3C_パス_x3E_" class="st0" d="M69.7,69.32c-.6-.6-12.46-11.41-12.46-11.41,0,0-17.17,0-18.11,0,.5.45,12.39,11.47,12.39,11.47,0,0,17.4-.02,18.17-.07Z"/>
    <path class="st0" d="M55.05,55.82c-.07-.09-6.14-5.51-6.14-5.51,0,0-18.19-.02-18.33-.02l6.12,5.56,18.35-.02Z"/>
    <path class="st0" d="M36.4,43.99c.58-.2,1.12-.33,1.61-.57,3.24-1.59,5.25-4.08,5.58-7.76.17-1.86-.16-3.65-1.14-5.25-1.65-2.71-4.02-4.4-7.23-4.72-.9-.09-1.84-.03-2.73.15-1.31.27-2.51.85-3.58,1.68-1.58,1.22-2.71,2.76-3.36,4.64-.38,1.07-.4,2.2-.38,3.32.02,1.17.37,2.25.84,3.29.79,1.72,2.05,3.05,3.62,4.06,1.03.66,2.19,1.07,3.43,1.25,1.11.16,2.19.06,3.34-.1Z"/>
    <path class="st0" d="M41.36,69.32c-8.17-7.63-21.02-19.14-28.45-26.04,0-.05-.03-17.86-.03-25.65C8.58,13.71,4.34,9.83,0,5.87v42.45c5.75,5.21,21.91,20.03,23.04,21.05,0,0,17.59-.02,18.32-.06Z"/>
    <path class="st0" d="M19.12,11.91l21.91.06,15.62,14.49.14,20.16s11.4,10.59,12.86,11.91V21.5C61.97,14.48,54.18,7.28,46.46.24c-3.78,0-40.93-.24-40.97-.24.06.06,13.64,11.91,13.64,11.91Z"/>
  </g>
</svg>