<?xml version="1.0" encoding="UTF-8"?>
<svg id="_レイヤー_1" xmlns="http://www.w3.org/2000/svg" version="1.1" viewBox="0 0 2139 385.1">
  <!-- Generator: Adobe Illustrator 29.2.1, SVG Export Plug-In . SVG Version: 2.1.0 Build 116)  -->
  <defs>
    <style>
      .st0 {
        fill: #040000;
      }

      .st1 {
        fill: #c31829;
      }
    </style>
  </defs>
  <g id="_x3010_黒文字_x3011_名称">
    <g id="AIQualityManagementInitiative">
      <g>
        <path class="st0" d="M1882.1,199.8h9.5c3.1,0,6.3.1,9.5-.1,1.6-4.9.9-9.4-.4-13.8-2.1-7.3-7-11.8-14.5-13.7-3.5-.9-6.9-1.1-10.4-.7-8.8,1-15.2,5.4-18.2,14-1.6,4.4-1.9,9-1.1,13.7,2,11.9,10.6,16.8,17.8,18.1,7.5,1.4,14.9.4,22-2.2.4-.1.7-.6,1.3-1-.5-1.6-.8-3.3-1.4-4.9-.7-1.7-.7-3.7-2-5.1-3,.8-5.7,1.7-8.5,2.3s-5.7.7-8.5-.6c-1.3-.6-2.4-1.5-3.4-2.5-.7-.7-1.5-1.7-.8-3.2,2.7-.2,5.5,0,8.8-.1h0l.3-.2h0ZM1872.8,190.3c-.8-2,0-3.4.6-4.8.6-.9.8-1.2,1-1.4,2.4-2.3,5.3-2.6,8.3-1.4,3.1,1.3,3.8,3.9,4,7.2-4.8.8-9.4.2-13.9.4h0Z"/>
        <path class="st0" d="M1833.4,172.8c-2,9.6-3.9,19.3-5.9,28.9-.3,1.3-.4,2.7-1.6,4-2.6-11.3-4.4-22.4-7.1-33.5h-15.5c-.4,0-.9.2-1.5.4,2.3,8,4.7,15.9,7.2,24.2,1.9,6.1,3.6,11.9,5.3,17.7.2.9.8,1.6,1.2,2.4h10.7c3.6,0,7.3.1,10.7,0,2-4.3,12.7-40.8,13.2-44.4-5.6-.6-13.3-.5-16.6.3h0Z"/>
        <path class="st0" d="M1789.3,172.2h-14.5c-.6,0-1.2.1-1.8.2-.2.4-.4.7-.4,1v40.5c0,1.2.2,2,.3,2.7,5,.7,13.3.6,16.7-.2,0-.6.2-1.2.2-1.8v-40.1c0-.7-.3-1.5-.5-2.3h0Z"/>
        <path class="st0" d="M1772.6,153v9.3c0,1.2.2,2.1,1.2,2.2,5.2.1,10.4.3,15.7-.1.5-4.1.6-7.9,0-11.7-6.3-.6-13.3-.5-16.9.4h0Z"/>
        <path class="st0" d="M1743.8,173.6c-.7-5.3.2-10.5-.6-15.8h-16c-.8,5.3.2,10.6-.6,16-2.9.1-5.7.2-8.8.4v10.7c3.1.2,5.9.3,8.8.5,0,1.4.2,2.5.2,3.6v11.9c0,1.7,0,3.5.3,5.2.9,5.5,3.9,9.3,9.4,10.9,5.3,1.6,15.1.9,20.7-1.4-.5-3.5-.6-7.1-1.8-10.8-1.6.3-3.1.7-4.7.8-5.4.7-7-.6-7.2-6v-11.5c0-3.9.2-1.8.3-2.8,3-.6,5.9-.2,8.7-.3,1.6-.1,3.1-.3,4.7-.9v-5.2c0-1.6,0-3.1-.2-4.6-4.6-.8-9.1.3-13.5-.7h.3Z"/>
        <path class="st0" d="M1708.8,190.4c0-2.2-.3-4.4-.6-6.6-.8-5.1-3.3-8.9-8.7-10.8-11-3.1-21.4-1.6-31.7,2,0,3.9.8,7.4,2.1,11,1.9-.6,3.5-1.1,5.2-1.6,4.3-1.4,8.7-2,13.2-1.7,3.1.2,3.7,1,3.8,4.8-1.6,0-3.1,0-4.7.2-4.3.3-8.6.9-12.5,2.7-4.9,2.3-8.3,5.8-9.3,11.3-1.1,6.6,2,14.2,10.9,15.7,5,.8,9.5-.2,13.5-3.1,1.2-.8,2.2-1.7,3.5-2.9.5,2,.9,3.6,1.3,5.4,5,.2,9.9.3,14.8,0,0-.7.2-1.2.2-1.6-.3-3.5-.8-6.9-.9-10.4v-14.3h-.1ZM1684.5,206.1c-2.7-.2-4.2-.8-4.4-3-.2-2.2.7-3.8,3-4.8,2.5-1.2,5.2-1.3,9.2-.6-.2,5.9-1.7,7.5-7.8,8.5h0Z"/>
        <path class="st0" d="M1635.1,172.6v43.3c0,.3.2.6.3.9,6.1.6,13.4.4,16.4-.3.5-4.6.5-39.9,0-43.7-3.6-.6-12-.7-16.8-.1h0Z"/>
        <path class="st0" d="M1635.3,152.5v11.6c3.1.4,14.1.6,16.2.2.2,0,.5-.4.8-1,0-3.8.5-7.3-.3-11-5.7.1-11.1-.2-16.6.3h0Z"/>
        <path class="st0" d="M1620,184.7c0-3.5.2-6.9-.3-10.7h-6.8c-2.2-.1-4.4.4-6.7-.5-.6-5.3.2-10.5-.5-15.8-5.5-.2-10.7-.1-16.1,0-.7,5.5.2,10.8-.6,16.1-2.9.1-5.7.2-8.8.4v5.5c0,1.7-.3,3.5.3,5.2,2.9.6,5.8-.2,8.7.7v18.3c.4,6.7,3.4,12.5,12.6,13.7,5.1.7,10.2,0,15.2-.8.9-.1,1.7-.6,2.7-.9-.9-3.8-.6-7.5-2.1-11.1-1.2.2-2.1.5-3,.6-1.6.2-3.2.4-4.7.4-2.2,0-3.2-1-3.6-3-.2-1.1-.4-2.2-.5-3.3v-12.4c0-4.1.2-.9.4-1.6,4.4-.8,8.8.2,13.5-.7h.3Z"/>
        <path class="st0" d="M1550.1,172.7v42.3c0,1.7.9,2,2,2h12.4c.9,0,1.8-.3,2.6-.4.5-7,.3-40.4-.2-44-4.3-.6-12.7-.6-16.8.1h0Z"/>
        <path class="st0" d="M1562.5,164.5c1.8,0,3.2-.2,4.7-.3.3-4.1.2-7.8,0-11.4-4.1-.7-12.3-.7-16.7-.1-.7,4.2-.7,8.1.2,11.8h11.8Z"/>
        <path class="st0" d="M1535,186.2c-.2-2.3-.8-4.7-1.6-6.9-1.3-3.7-3.9-6.1-7.8-7.2-3.4-1-6.9-1.3-10.7,0-3.5.9-5.8,3.2-8.6,5.3-.3-1.9-.5-3.4-.8-5h-14.5c-.6,4.3-.6,40.9,0,44.6h7.6c2.7,0,5.3.4,8.3-.4v-23.5c0-3,1.1-5.6,3.3-7.7,1.5-1.4,3.3-2,5.3-1.3,1.8.7,2.8,2.1,3,4,.2,2.5.5,5.1.6,7.6v17.2c0,1.3,0,2.5.2,3.9h15.6c0-1.3.3-2.6.3-3.8v-15.3c0-3.8,0-7.6-.5-11.5h.3Z"/>
        <path class="st0" d="M1475,154.1h-15.5c-1.2,0-2,.1-2.7.2,0,.7-.3,1.2-.3,1.6v58.7c0,.7.3,1.5.4,2.1,7.1.6,15,.4,18.4-.3,0-.6.2-1.2.2-1.8v-58.2c0-.7-.3-1.5-.5-2.3Z"/>
        <path class="st0" d="M1397.8,173.6c-.5-5.2,0-10.4-.3-15.5-5-.7-12.9-.6-16.3.1-.5,5.1.3,10.4-.6,15.8h-8.2c-.7,2.7-.3,5.1-.4,7.4,0,1.1,0,2.1.2,3.3,3,.8,5.9-.3,8.9.8v18.2c.3,5.4,2.2,9.9,7.8,12.5,7.8,2.6,15,1.5,22.6-.2-.3-2.2-.6-4.1-.8-5.9-.2-1.9-.3-3.7-1.3-5.4-1.8.3-3.4.7-4.9.9-5,.5-6.4-.5-6.7-5.5-.2-4,0-8,0-11.9s.2-1.8.3-2.8c4.6-.9,9.1.3,13.5-.8,0-3.6.5-7.1-.3-10.5-4.5-.6-8.8.3-13.3-.6h-.2,0Z"/>
        <path class="st0" d="M1360.9,179.9c-1.2-4.1-4.1-6.7-8.3-7.8-6.1-1.7-11.6-.6-16.6,3.4-.8.6-1.2,2.1-2.7,1.3,0-1.4-.2-2.8-.3-4.1-4.3-.7-11.1-.6-14.8.1,0,.4-.2.9-.2,1.3v40.6c0,.7.3,1.5.5,2.2h15.7c0-1.6.2-3,.2-4.4v-17.2c0-1.9.2-3.8.8-5.6.9-3,2.7-5.4,6.6-5.8,2.8.4,4,2,4.3,4.2.3,1.9.5,3.8.5,5.7v19.1c0,1.2,0,2.5.2,3.6,4.7.8,12.5.7,15.7-.1,0-.3.2-.6.2-.9v-26.3c0-3.1-.8-6.3-1.7-9.4h0Z"/>
        <path class="st0" d="M1291.9,172.2c-3.6-1-7.2-1.2-10.9-.8-8.8,1.1-15.2,5.4-18.1,14-1.4,4.1-1.8,8.4-1.2,12.7,1.5,10.7,8.7,17.6,19.5,19.2,4.6.7,9.2.3,13.8-.5,2.7-.5,5.6-.9,8.2-2.9-1.1-3.4-1.9-6.9-3.4-10-3.1.8-5.8,1.7-8.6,2.3-2.8.6-5.7.6-8.5-.6-2.4-1-4.3-2.6-4.4-5.7.8-.1,1.5-.2,2.5-.2h12.9c4.3,0,8.5.1,12.9-.1,1.4-5.2.7-10.1-.8-14.8-2.2-6.7-6.9-10.8-13.7-12.7h-.2ZM1288.4,190.3h-10.4c0-5.6,2.7-8.5,7.2-8.3s6.7,2.9,6.5,8.1c-1.1,0-2.2.1-3.3.2h0Z"/>
        <path class="st0" d="M1250,178.8c-.9-3.5-3.4-5.7-6.8-6.7-.9-.3-1.9-.5-3.2-.7-4.8,0-10.3,1.9-16.5,5.9-.5-.6-1-1.2-1.5-1.8-2.4-3.2-5.8-4.3-9.7-4.2-3.2,0-5.9,1.4-8.3,3.2-1.1.8-2.1,1.7-3.6,3-.2-2-.4-3.5-.5-4.9-5.3-.7-11-.6-14.7.2v41.9c0,.6.2,1.2.3,1.7,4.1.7,11.2.7,15.5,0,0-1.2.2-2.4.2-3.6v-19.1c0-1.4,0-2.9.2-4.3.2-1.7.8-3.4,2.2-4.7,2.2-2.1,5.7-1.3,6.5,1.5.5,1.7.6,3.5.6,5.2v22.5c0,.9,0,1.8.2,3.1,5.2-.2,10.1.2,15.2-.2,0-1.6.2-3,.2-4.4v-18.6c0-1.9.2-3.8.6-5.7.3-1.2.9-2.4,1.8-3.3,2.2-2.3,6.1-1.3,6.7,1.9.3,1.9.3,3.8.4,5.7v21.5c0,7.1.2,1.8.3,2.9,2.8.4,5.3.2,7.8.2s5,.5,7.3-.4c.2-.6.3-.9.3-1.2v-27.7c0-3-.7-6-1.5-8.9h0Z"/>
        <path class="st0" d="M1159.8,172.4c-3.1-.9-6.3-1.2-9.5-1-8.6.4-15.3,3.8-19.4,12.2-.8,2.9-1.7,5.6-2,8.2-1.6,16.9,9.6,24.8,20.1,25.8,6.3.6,12.4,0,18.3-2,1-.3,2-.9,3.1-1.4-1.2-3.5-2.2-6.8-3.4-10.3-1.4.5-2.6.8-3.8,1.2-2.9,1-5.8,1.7-8.9,1.5-1.9-.1-3.8-.5-5.5-1.3-2-.9-3.6-2.5-3.2-5.4h14c4.7-.1,9.5.4,14.2-.4.8-5.3.6-10.3-1.3-15.2-2.3-6.1-6.7-9.9-12.9-11.8h.2ZM1159,189.7c-3.2.7-9.5.8-13.9.1-.3-1.8.5-3.4,1.3-4.9,1-1.1,1.6-1.7,2.2-2.1,4.5-2.4,11.7.4,10.4,6.8h0Z"/>
        <path class="st0" d="M1115.2,211.7c-2.3-1.1-4.8-1.8-7.3-2.2-3.9-.6-7.9-.6-11.9-.9-1.7-.1-3.5-.5-5.1-.9-.5-.2-1.1-1.2-1.1-1.9s.8-1.2,1.7-1.2c2.5,0,5.1.1,7.6.1s6.9-.6,10.3-1.8c4.9-1.7,7.9-5.1,8.9-10.3.3-1.5.4-3.1.5-4.7v-12.9c0-.9-.2-1.8-.4-2.9h-6.9c-2.3,0-4.7-.2-7.1.2-.3,1.4-.6,2.5-.9,4.2-1-.8-1.8-1.3-2.5-1.9-3.8-2.8-8-3.7-12.6-3.3-6.9.7-12.1,5.2-13.8,11.9-1.2,4.5-.7,8.8,1.7,13.2,1,1.4,1.9,2.5,2.8,3.7-3,4.6-5.4,9.1-.3,13.8-1.3,1.4-2.7,2.5-3.7,3.8-4.4,5.4-3.4,11.8,2.7,15.5,2.9,1.8,6.1,2.8,9.5,2.9,4.7.2,9.5.2,14.3-.1,4.1-.3,8.1-1.5,11.7-3.6,3.9-2.3,6.4-5.6,7.2-10.2.8-4.8-.8-8.6-5.2-10.7v.2h0ZM1090.9,184.3c.9-2.3,2.7-3.5,5.2-3.5s3.8,1.4,4.7,3.4c1.3,3,1.3,6.2,0,9.3-.9,1.4-1.5,2.2-2.3,2.7-2.8,1.8-6.3.8-7.5-2.2-1.4-3.2-1.3-6.5,0-9.7h0ZM1101.2,226.4c-3.1,1.4-6.4,1.7-9.7,1-2.8-.6-3.9-2.5-3.3-5.3.6-3.1,2-4.3,5.2-4.2,2.4,0,4.7.3,7.1.5,2.3.8,3.7,1.6,3.7,3.5s-1,3.7-2.9,4.5h0Z"/>
        <path class="st0" d="M1061.6,185.3c-.7-7.5-4.4-11.6-11.6-13.1-7.6-1.6-15.2-1-22.7.8-2.3.6-4.6.9-6.6,2.5.7,3.5,1.4,6.9,2.1,10.4,3.7-1,7-1.9,10.8-2.9,2.9-.2,5.5-.3,8-.3s2.2.3,3,1.3,1,2.2.6,3.3c-4,.5-7.8.7-11.6,1.3-4.3.7-8.2,2.5-11.3,5.7-3.9,4.2-4.7,9.2-3.1,14.6,1.6,5.1,5.4,7.6,10.5,8.5,5.2.9,9.7-.4,13.9-3.5.9-.7,1.6-2,3.1-2.1.5,1.7.9,3.4,1.3,5.1h12.7c.7,0,1.4-.3,2.3-.5-1.4-7.5-1.2-14.8-1.2-22.1s0-6-.3-9h0ZM1043.5,203.9c-1.9,2-4.4,2.3-7,2.1-1.6-.1-2.6-.9-3.1-2.4s0-2.8.9-3.9c1.2-1.4,2.9-1.7,4.6-2.3,2.7-.3,4.5-.5,6.4,0,.5,2.6,0,4.8-1.8,6.6h0Z"/>
        <path class="st0" d="M1005.9,179.8c-1.5-4-4.2-6.6-8.4-7.8-5.9-1.6-11.3-.7-16.2,3.1-.8.6-1.3,1.9-2.9,1.7-.2-1.4-.3-2.9-.5-4.3-5.5-.7-11.9-.6-14.8.2-.6,11.3-.3,40.1.4,43.8,5.2.7,12.3.6,15.6-.2v-24.3c.3-3,1.5-5.5,4-7.3,3-2.1,6.6-.8,7.4,2.8.4,1.9.6,3.8.7,5.7v23.7c5.5-.2,10.7.4,15.6-.3.2-.6.4-.9.4-1.2v-24.9c0-3.6-.4-7.3-1.7-10.8h.4Z"/>
        <path class="st0" d="M949,191.9c0-2.2,0-4.5-.2-6.7-.7-7.4-4.5-11.5-11.8-13.1-8.9-1.9-17.7-.8-26.3,2-1,.3-1.9.9-2.9,1.4.8,3.7,1,7.1,2.3,10.5,1.8-.6,3.5-1.1,5.1-1.6,4.3-1.4,8.7-2,13.2-1.7,1.1,0,2.2.2,3,1.1.9,1,1.2,2.2.8,3.5-3.6.4-7.2.8-11.2,1.2-1.8.5-3.2.7-4.5,1.3-2.9,1.1-5.4,2.6-7.5,5-3.7,4.2-4.3,9.1-2.7,14.3,1.6,5.1,5.4,7.6,10.5,8.5,5.2.9,9.7-.5,13.9-3.5.9-.7,1.6-2,3-2,1.1,1.6,0,3.7,1.9,5h13.2c.3,0,.6-.2.8-.4,0-.3.3-.6.3-.8-1.3-7.9-.9-15.9-1-23.8h0v-.2h.1ZM932.4,200.8c-1.9,4.4-5,5.5-8.8,5.2-3-.2-4.5-3.6-2.5-5.9.8-.9,1.9-1.6,3-2.1,2.7-1.1,5.5-1.2,8.5-.6,0,1.2,0,2.3-.2,3.4h0Z"/>
        <path class="st0" d="M889.9,154.6s-.2-.2-.5-.4h-20c-2.4,13.6-4.9,27-7.3,40.5,0,.1-.2.2-.3.3,0,0-.3.1-.7.2-2.4-13.6-4.8-27.2-7.2-40.7-4.2-.6-16.8-.6-20.8,0-2.5,20.6-5.1,41.2-7.6,61.8,3.8.8,12.4.8,16.6,0,0-1.6.3-3.3.5-5,.7-8.6,1.4-17.1,2.1-25.7v-6.7c1.5,1.8,1.7,3.4,2,5.8,1.9,10.2,3.8,19.8,5.7,29.3.2,1,.7,2,1.1,3,5.7,0,11.1.1,16.7-.1.5-2.2.9-4.2,1.3-6.2,1.7-8.9,3.4-17.8,5.2-26.7.2-1.2,0-2.7,1.6-3.6.9,12.2,1.9,24.2,2.8,36.2,4.5.6,12.6.6,16.4,0,0-.3.3-.6.3-.8-2.4-20.2-4.9-40.4-7.4-60.7,0-.1,0-.3-.2-.4h-.3,0Z"/>
        <path class="st0" d="M771,172.4c-.4,1.3-.8,2.3-1,3.4-2,7.2-3.9,14.4-5.8,21.7-.3,1.1-.5,2.3-1.7,3.5-1.1-5.1-2-9.7-3.1-14.4s-1.7-9.6-3.2-14.2h-17.7c5.6,15.2,11.5,29.9,17,44.5-1.2,4.5-4.2,6.5-8.7,7.2-2.3.3-4.1.5-6.2.8.2,2.1.5,4,.7,5.9s.4,3.7.6,5.7c2.8.4,5.3.1,7.8-.2,9.4-1.2,16.2-6,20.3-14.7.7-1.6,1.4-3.2,2-4.8,5.1-13.7,10.1-27.4,15.2-41.1.3-1,.6-2,.9-3.4-5.8.1-11.3-.2-16.9.2h-.2,0Z"/>
        <path class="st0" d="M727.3,173.9h-7.1c-2.3-.2-4.2.5-6.1-.6,0-1-.2-1.9-.2-2.9v-10c0-.9-.2-1.8-.3-2.8-5.5-.2-10.7-.2-16.2,0-.2,2.8,0,5.3,0,7.8s.2,5.3-.2,8c-2.9,1-5.9-.2-8.8,1v5.3c0,1.7-.3,3.5.5,5.3h8.2c0,1.4.2,2.5.2,3.6v12.9c0,1.7,0,3.5.5,5.2,1.4,6.3,4.9,9.5,11.3,10.6,5.4.9,10.8.2,16.1-.7.9-.2,1.7-.6,2.5-.9-.3-2-.6-3.7-.8-5.4-.2-1.9-.3-3.7-1.2-5.5-2,.3-3.7.8-5.4.9-4.7.5-6-.6-6.3-5.4-.2-4.1,0-8.3,0-12.4s.3-1.8.6-2.6c4.5-.6,8.8.3,13.3-.6v-5.3c0-1.7.4-3.5-.5-5.4h.2-.3Z"/>
        <path class="st0" d="M674.8,172.4c-8.1-.6-13.7-.4-16.7.5v42.9c0,1,.9,1.2,2.2,1.3,5.2-.1,9.9.3,14.7-.3,0-.8.2-1.5.2-2.1v-40.5c0-.6-.3-1.2-.4-1.7h0Z"/>
        <path class="st0" d="M660.8,152.3c-.9,0-1.7.3-2.8.5v9.7c0,1.6.8,2.1,1.9,2.1h12.3c.9,0,1.8-.2,2.9-.3,0-4.1.6-8-.3-11.9h-14Z"/>
        <path class="st0" d="M642,152.3h-13.6c-.9,0-1.7.3-2.5.5,0,.6-.2.9-.2,1.2v60.6c0,.7.3,1.5.5,2.4h15c.5,0,.9-.2,1.3-.3.2-.4.4-.7.4-.9v-59.2c0-1.4.5-2.9-.8-4.3h-.2,0Z"/>
        <path class="st0" d="M610.1,199.2v-10c0-2.4-.3-4.8-.9-7.1-1.1-4.5-3.8-7.7-8.2-9.1-2-.6-4-1-6.4-1.5-11.7-.5-20.3.9-25.6,4.2.7,3.4.7,7.1,2.4,10.3,1.9-.6,3.6-1.2,5.2-1.7,4.1-1.3,8.4-1.9,12.7-1.6,3.1.2,3.6.8,4.1,4.8-1.5,0-3.1.1-4.6.2-5,.3-9.8,1-14.2,3.5-4.6,2.6-7.5,6.4-7.9,11.8-.6,8.5,4.5,13.4,10.9,14.5,5.4,1,10.1-.3,14.4-3.5.9-.7,1.9-1.5,2.9-2.3.6,2,1,3.6,1.5,5.4h7.3c2.5-.1,5,.5,7.7-.5-1.4-5.8-1.1-11.5-1.2-17.2h0v-.2h-.1ZM592.5,202.7c-2.3,2.9-4.9,3.4-7.7,3.2-1.5-.1-2.8-.6-3.3-2.2-.5-1.6-.3-3.2,1-4.3.8-.7,1.9-1.2,2.9-1.6,2.5-1,5.2-.9,8-.6.6,2.1-.2,3.8-1,5.5h0Z"/>
        <path class="st0" d="M555.1,172.9s-.2-.3-.5-.7c-5,.1-10.1-.2-15.5.2,0,1.5-.2,2.7-.2,4v16.2c0,1.7,0,3.5-.3,5.2-.2,2.3-1.3,4.3-3.1,5.8-.9.7-2.2,1.3-3.4,1.5-2.2.3-3.7-.9-4.1-3.1-.3-1.7-.3-3.5-.3-5.2v-21c0-1.1-.2-2.1-.3-3.6-5.4.1-10.5-.3-15.9.3v28.5c0,3,.3,6,1.4,8.9,1.4,3.9,4.2,6.3,8.2,7.3s2.5.4,4.2.6c5.8.2,10.1-2.4,14.3-6.1.5,2.1.8,3.6,1.2,5.4,5-.3,9.7.4,14.4-.5,0-.9.2-1.5.2-2.2v-41.1c0-.1,0-.3-.2-.4h-.1Z"/>
        <path class="st0" d="M487.4,211.8c1.2-1.1,2.1-1.9,3-2.8,4.9-4.6,8.1-10.2,9.5-16.8.9-4.3.8-8.6.2-12.9-2-14.8-11.6-22.4-21.2-24.9-7.6-2-15.1-2-22.6.4-10,3.2-16.5,10.1-19.1,20.2-2.2,8.5-1.9,17,1.7,25.6,5.2,10.3,13.4,15.5,24.3,16.6,3.6.3,7.3.5,11,.7s6.7,1.7,8.8,5c1.4,2.1,2.8,4.3,4.1,6.4,5.2.5,13.9.4,17.5-.2-.7-2.2-2.1-3.9-3.5-5.6-3.7-4.8-8.4-8.6-13.9-11.8h.2ZM481.2,195.5c-1.3,3.7-3.9,6.1-7.6,7.3-3.6.9-6.4.9-9.3.3-4.4-1-7.4-3.5-9-7.7-1.6-4.1-2-8.3-1.5-12.7.2-2.3.8-4.7,1.5-7,1.4-4.3,4.5-6.9,8.8-7.9,2.8-.7,5.7-.7,8.5,0,4.2,1,7.1,3.5,8.6,7.5,2.4,6.7,2.4,13.4,0,20.1h0Z"/>
        <path class="st0" d="M394,157c0-.9-.2-1.8-.3-2.9h-16c-.9,0-1.7.3-2.7.5v60.9c0,.4.3.8.6,1.5h17.1c1.7-1,1.3-2.4,1.3-3.6v-56.3h0Z"/>
        <path class="st0" d="M337.5,154.1h-12.7c-.4,1-.8,1.7-1,2.5-6.4,19.5-12.8,38.9-19.2,58.4-.2.6-.1,1.2-.1,1.7,5.9.5,13.9.4,17.4-.3.9-3.7,1.9-7.5,2.8-11.2,4.9-.6,13.7-.6,17.5.1.7,2.8,1.4,5.7,2.2,8.6.3,1,.7,2,1.1,3h8.8c2.8,0,5.6.2,8.4-.2-.7-4.6-18.9-59.5-20.6-62.8h-4.6v.2h0ZM328.6,192c-.2-.6-.5-1.1-.5-1.4,1.6-6.8,3.2-13.6,5-21,1.2,1.8,1.5,3.4,1.8,5,1.5,6.1,2.9,11.5,4,17.1-3.7.7-7,.3-10.3.3h0Z"/>
      </g>
    </g>
    <g id="AI品質マネジメントイニシアティブ">
      <g>
        <path class="st0" d="M2119.3,36.1c.6-.3,1.3-.6,1.9-.9.6-.3,1.2-.6,2.1-1.1-2.7-6.9-5.6-13.3-10.3-19-3.6,1.2-7.3,1.5-10.4,3.6,1.4,3,3.7,5.2,4.5,8.5-2.4.8-4.8.7-7.2.7h-58.4c-2.4,0-4.8-.2-7.2-.3-2.3,0-4.6-.8-7.2.1v20.4h56.5c4.5,0,9.1-.3,13.9.3-.2,1.3-.3,2.4-.6,3.4-3.8,13.2-10.9,24.4-20.8,33.8-10,9.5-21.8,16-34.7,20.8-1.3.5-2.6,1-4.2,1.7,1,1.2,1.7,2,2.5,2.8,4.4,4.4,8.2,9.4,11.2,14.9.3.6.7,1.3,1.2,1.7.3.3,1,0,1.9,0,3.8-1.9,7.3-3.5,10.7-5.3,24.6-13.2,42.5-32.3,52.3-58.6,2.6-6.8,4.7-13.9,6.3-21.1-1.4-1.9-2.7-3.6-3.9-5.4-.1-.2,0-.6,0-1.1h-.2.1Z"/>
        <path class="st0" d="M2129.5,11.7c-3.4,1.2-6.6,1.5-9.5,3.4,1.6,2.8,3.1,5.3,4.7,8.2,1.6,3.5,3,6.6,4.5,10,3.6-.8,6.8-1.8,9.8-3.6-2.1-6.8-4.9-12.8-9.5-17.9h0Z"/>
        <path class="st0" d="M1982.9,44c-5,4.4-9.4,8.8-14.4,12.6-14.1,10.8-29.9,18.4-46.9,23.6-1.5.5-3,1-4.4,1.5,3.5,5.8,6.7,11.2,10.1,16.8.2,0,.6.2.9,0,9.3-3.5,18.6-6.8,27.2-11.9.9-.5,1.9-.7,3-1.2v40.9c7.8.7,17.1.6,20.7-.3v-53.6c9.5-6.9,18.3-14.7,26.2-24.2-5.8-3.8-11-7.8-16.6-11.2-2,2.4-3.8,4.5-5.8,6.8h0v.2h0Z"/>
        <path class="st0" d="M1809.6,41.6h80.6v-16.8c0-1-.3-2-.5-2.9-5.1.2-9.9.6-14.7.6h-50.7c-3.7,0-7.3-.4-11.5-.6h-3.4v17.4c0,.7,0,1.4.2,2.2h0Z"/>
        <path class="st0" d="M1900.9,53.2c-4.1.2-8.1.5-12.1.5h-77.8c-3.5,0-7-.2-10.5-.4-1,0-2.1,0-3.5-.2v8.5c0,4.1-.3,7.8.3,11.3,5.1,0,9.9-.3,14.6-.3h13.8c4.7,0,9.5-.3,14.6.3-.4,2.7-.6,5.3-1.2,7.8-1.7,8.3-5.8,15.1-12.7,19.9-2.8,2-6,3.6-9.1,5.1-2.9,1.4-6,2.4-9.4,3.8,2.6,3,5.3,5.8,7.5,8.8,2.4,3.2,4.3,6.7,6.5,10.2,8.5-3.4,16.4-7.2,23-13.3,10.5-9.6,15.9-21.8,17.5-35.8.2-2.2,0-4.4,1.3-6.8,12.8,0,25.8-.2,38.7.3.7-5.1.7-14.8,0-19.5-.5,0-1-.3-1.5-.3h0Z"/>
        <path class="st0" d="M1770.8,24.1h-69.5c-4.1,0-8.1-.3-12.1-.4-1,0-2.1-.8-3,.2-.7,6.5-.5,16.4.3,20.1.2,0,.3.2.5.2,2,0,4.1-.3,6-.3,21.1,0,42.3,0,63.4-.2h5.5c0,0,.2.3.2.5v1c-4.7,8.7-11.6,15.1-20.5,19.2-.4.2-.9,0-1.5-.2v-6.7c0-2.1.6-4.3,0-6.6-7.2,0-14.1-.3-21.1,0-.3,0-.5.5-.9.8,1,6.5.4,13.1,0,19.7-1,12.8-6.9,22.6-17.9,29.4-4.5,2.8-9.4,4.9-14.5,6.7-.8.3-1.9.3-1.9,1.5,2.4,3,5,5.9,7.2,9s3.9,6.5,6,9.9c1.1-.5,1.9-.9,3.1-1.4,8.4-3.9,15.9-8.5,22.3-14.7,8.2-7.9,13.7-17.2,15.7-28.4.7-3.8,1.2-7.6,1.7-11.4,0-.8-.2-1.9,1.3-2.3,2.3,1.4,4.5,3.5,6.5,5.5,2.1,2.1,4,4.3,5.9,6.3.6-.2,1-.2,1.3-.4.9-.6,1.9-1.2,2.8-1.8,12.9-8.8,22.3-20.6,28.7-34.8,1.4-3.1,3-6.2,4.6-9.6-3.6-3.9-7.3-8-10.5-11.6-3.6.2-6.5.6-9.4.6v-.2h0l-.2.4Z"/>
        <path class="st0" d="M1658.7,42.2c-.7,1.8-1.2,3.3-1.9,4.9-.7,1.7-1.4,3.4-2.1,5.1-7.9,17.5-19.7,31.3-37.2,39.7-12.5,6-25.8,9.2-39.6,10.5-1.2,0-2.4.3-3.9.6,1,3.9,1.9,7.4,2.9,11.4,1.1,3.9,2.1,7.4,3.1,11.1,2.1-.4,3.9-.8,5.6-1.1,10.1-2,20.1-4.1,29.8-7.6,16.6-6,30.8-15.2,42.5-28.5,7.5-8.5,13-18.2,17.4-28.5.4-1,.6-2,.9-2.9-3.1-2.4-6-4.6-8.9-6.9-3-2.3-5.2-5.6-8.6-7.7h0Z"/>
        <path class="st0" d="M1604.9,85.1c2.5-3.2,8.5-14.2,10.2-18.8-6.6-4.5-13.7-8.4-21.4-11.8-4.2-1.8-7.9-3.7-12.2-4.9-3.6,5.7-7.2,11.2-10.9,16.9,6,2.9,11.9,5.3,17.5,8.4,5.8,3.1,11.2,6.8,16.9,10.2h0Z"/>
        <path class="st0" d="M1624.9,35.1c-10.9-6.2-22.2-11.4-34.3-15.4-3.6,5.8-7.4,11.1-10.5,17.1,12.1,4.3,23.2,9.9,34,16.8,4-4.5,9.7-14.7,10.8-18.4h0Z"/>
        <path class="st0" d="M1533.1,92.3h-59.6c-5.5,0-11-.5-16.5-.8h-2.1c-.8,4.5-.9,17.6,0,22h103.9c.7-7.2.6-18.3-.4-22.1-8.4,1.2-16.8.9-25.2.9h-.1Z"/>
        <path class="st0" d="M1467,52.7h79.4c.2-.5.5-.8.5-1.1v-18.8c0-.6-.6-1.3-1.4-1.9-4.5.2-8.6.7-12.6.7h-53.5c-3.3,0-6.6-.3-9.9-.5h-2.9v14.6c0,2.3-.5,4.7.5,7h0Z"/>
        <path class="st0" d="M1426.3,18c-6.1,8.7-13.7,15.3-21.6,21.5-18.1,14.2-38.4,24.2-60.5,30.7-1.3.4-2.6.9-4.1,1.5,2.4,3.6,4.6,7,7.1,10.7,1.9,2.9,2.5,6,4.5,8.5,1.5-.5,2.7-.9,3.8-1.3,11.2-4.1,22.1-8.8,32.5-14.7.8-.5,1.9-.6,3-1-.2,17.7.4,34.9-.5,52,5.3.7,18.1.7,22.9,0V59.6c11.5-8.3,22.1-18.1,32.3-29-3.5-2.3-6.6-4.5-9.8-6.6-3.2-2-6.1-4.5-9.7-6h0Z"/>
        <path class="st0" d="M1273.2,52.7V19c-.6-.2-1.2-.5-1.6-.5h-19.3c-.7,0-1.3.4-1.7.5.2,5.4.5,10.6.5,15.7v73.3c0,4.2-.2,8.5-.3,13.2v4.1c7.5.7,18.9.5,22.6-.2v-39.1c0-3.2-.2-6.5.2-10,5.7,1.9,10.6,4.2,15.5,6.7,4.7,2.4,9.4,4.9,14,7.6,4.7,2.7,9.3,5.7,13.9,8.5,4.1-6.1,9.7-16.4,11.1-20.6-8.5-5.3-17.4-10.1-26.6-14.2-9.2-4-18.6-7.5-28-11.3h-.3,0Z"/>
        <path class="st0" d="M1203,37.7c-.8,1.8-1.4,3.3-2.1,4.8-3.6,8.7-8.2,16.8-13.9,24.3-6.8,9.1-15.3,16.3-25.5,21.4-11.2,5.6-23.2,9.1-35.6,10.8-2.3.3-4.7.3-7,1.5,1.9,7.1,3.8,14,5.7,20.9.2.6.7,1.1,1.2,1.7,8.6-2.2,17-4.2,25.2-6.6,17.6-5.1,33.2-13.7,46.4-27,10.3-11.1,21.3-28.9,22.7-36.4-3-2.4-6.1-4.7-8.9-7.2s-5.4-5.4-8.3-8.3h.1Z"/>
        <path class="st0" d="M1131.7,50.4c2.4,1.7,4.7,3.5,6.9,5.4,2.1,1.7,4.1,3.7,6.1,5.5,2,1.7,3.6,4.1,6.1,5.5,2.5-3.3,4.9-6.3,7.2-9.4,2.3-3,4.7-6,6.9-9.4-2.6-2.3-5-4.3-7.6-6.5-11.5-9-21.6-15.4-26.3-16.6-4.3,5.3-8.7,10.7-13.3,16.3,2.5,1.6,4.8,3,7.1,4.5,2.3,1.5,4.6,3,6.8,4.6h.1Z"/>
        <path class="st0" d="M1073.8,69.8c8.5-13.9,14.7-28.4,20.8-43.4-7.3-2.9-14.6-5.1-21.9-7.4-2.4,6.4-4.5,12.6-7,18.7-2.5,6.2-5.5,12.3-9.5,18.1-1.7-1.2-3.2-2.2-4.7-3.2-6.9-4.6-13.8-9.1-20.6-13.7-1-.7-2.2-1.2-3.4-1.8-3.5,3.4-6.7,6.6-10.3,10.1-1.5,1.6-2.8,2.9-4.2,4.4,5.5,3.6,10.7,6.9,15.8,10.4,5.1,3.6,10.1,7.3,15.4,11.3-4.2,5.3-8.7,10-13.6,14-4.8,4-9.7,7.9-14.9,11.2-5.3,3.5-11.1,6.3-16.9,9.6,2.8,2.9,5.6,5.6,8,8.5s4.5,6.1,7.1,9.6c6-3.1,11.8-6.6,17.2-10.7,5.4-4.1,10.8-8.2,15.8-12.8,4.9-4.5,9.3-9.6,14.2-14.7,4,4.1,8,7.9,11.7,11.9s7.2,8.3,10.8,12.4c6.5-5.8,14.1-14,16-17.4-8-8.8-16.5-17.2-25.9-25h0Z"/>
        <path class="st0" d="M986.1,47.8c-1.9-1.6-3.2-3.8-5.6-5.1-1.9,4.4-3.5,8.5-5.3,12.4-9.6,20-24.6,34-45.6,41.3-9,3.1-18.3,5.3-27.9,6.1-1.9,0-3.9,0-5.9,1,2,7.5,3.9,14.7,5.9,22.1,1.2,0,2.1-.2,3-.3,3.4-.7,6.8-1.5,10.2-2.1,17.8-3.6,34.6-9.4,49.8-20.5,15.9-11.9,26.4-27.2,33.7-45.3-2.2-1.6-4.3-3-6.3-4.6s-3.9-3.4-5.9-5h-.1Z"/>
        <path class="st0" d="M927.1,85.7c1.7-3.2,3.5-6.2,5.1-9.3,1.6-3,3.5-5.9,4.8-9.3-3.4-2.9-7.2-4.7-11.1-7-6.8-3.2-13.3-6.3-19.7-9.3-.9-.4-2-.5-3.1-.7-3.5,5.5-6.8,10.7-10.2,16v.5c0,.2,0,.3.2.5,5.7,2.8,11.6,5.4,17.2,8.4,5.7,3.1,11.2,6.7,17,10.2h-.2Z"/>
        <path class="st0" d="M936.2,54.4c2.5-2.8,3.9-5.9,5.6-8.9,1.8-3.1,4.1-6,5.1-9.8-3.9-2.1-7.6-4.1-11.3-5.9-3.8-1.9-7.6-3.6-11.5-5.2-3.8-1.5-7.5-3.6-11.9-4.1-3.5,5.6-6.8,10.9-10.4,16.7,2.9,1.2,5.4,2.2,8.3,3.4,9.3,3.9,17.8,8.7,26.2,13.9h0Z"/>
        <path class="st0" d="M974.3,42.4c1.9-.6,3.8-1.1,5.6-1.9,2-.8,4.3-.9,5.9-2.9-2.9-6.5-5.9-12.9-10.6-18.6-3.9,1.5-7.9,2.1-11.5,4.3.9,1.4,1.6,2.6,2.6,4.1,2.8,5.2,5.3,10,8.1,15h0Z"/>
        <path class="st0" d="M991.6,36.2c3.9-1.5,7.4-2.8,11.3-4.2-2.8-6.9-6.1-13.1-10.7-18.6-4,1.2-7.6,2-10.8,4,2.5,4.4,4.8,8.6,7.3,13.1,1,2.1,2,3.8,2.9,5.8h0Z"/>
        <path class="st0" d="M852.5,72.4c-1.3-.5-2.7-.7-3.9-2.1,4.9-4.3,9.6-8.3,14-12.7,4.4-4.3,8.6-9,13-13.7-3-3.8-6-7.2-9-10.5-7.2,1-22.2,1.1-27.3,0v-17.2h-18.7c-1,0-2.1.3-3.1.5,0,5.9,1,11.6,0,17.5h-10.6c-3.5,0-7,0-10.5-.2-3.4,0-6.8-.7-10.8-.3.3,6.5-.4,12.6.4,18.7h45.5c2.5,0,5-.3,8.2.3-.9,1-1.4,1.5-1.9,2-6.4,5.6-13.2,10.5-20.8,14.4-11.5,5.9-23.6,10.1-36.1,13.3-2.3.6-4.5,1.2-6.9,1.7.2.8.3,1.4.6,1.8,3.3,4.7,5.9,9.7,8,15.1.2.6.8,1.1,1.5,1.9,5.8-2,11.6-3.8,17.2-6,5.6-2.2,11-4.7,16.9-7.4.4,2.3.2,4.3.2,6.2v19.3c0,2,0,4.1-.2,6.1,0,2.1-.9,4.2-.3,6.3,6.8.7,18.3.6,22.2-.3-1-12.9-.3-25.9-.6-39.4,1.7.6,2.9.8,4,1.4,9.9,4.5,19.4,9.7,28.2,16,1.1.8,2.4,1.4,3.7,2.2,3.9-5.8,7.5-11.3,11.2-17.2-1-1.2-2-2-3.1-2.7-9.8-6.1-20.3-11.1-31.1-15.2h.2v.2Z"/>
        <path class="st0" d="M751.2,27.2c-23.9,0-47.8.1-71.7,0-4,0-8.1-.4-12.1-.6-.8,0-1.7,0-2.9.1v13.5c0,2.7-.3,4.9.3,6.8.4.2.6.3.7.4.2,0,.3.2.5,0,1.3,0,2.5-.2,3.8-.3h66.6c19.7,0,1.1,0,1.6,0h.5c0,0,.2.3.2.5-3.7,8.9-17.8,24.9-26.2,29.7-6.4-6.7-13.2-13.1-20.5-18.6-9,5.4-13.9,9.1-16,11.9,3.5,3.2,7.2,6.3,10.5,9.7,13,13.1,24.9,27,34.7,42.7.6,1,1.5,1.9,2.4,2.9,5.9-4.9,12-9.1,17.7-14.1-1.6-2.2-3.1-4.3-4.6-6.3-1.5-2.1-3.2-4.1-4.7-6.1s-3.5-3.7-4.6-6.1c1.6-1.4,3-2.6,4.3-3.9,4.4-4.4,9-8.7,13.2-13.3,10.3-11.3,17.8-24.5,25.9-37.5-3.8-4.3-7.4-8.6-11-12.3-3.4.3-6.1.7-8.8.7h.2v.2Z"/>
        <path class="st0" d="M630.1,110c5.8-1.3,10.9,0,16-.3v-55.3c-1.3-.3-2.5-.7-3.6-.9v-6.3h11.8c1,0,2.1,0,3.2-.2-.3-5,.3-9.7-.5-14.3h-24.1c-4,0-8,.5-12.5-.6.8-.9,1.3-2,1.9-2,2.5-.3,5.1-.4,7.7-.5,8.1-.2,16.1-1.1,24.2-2.5-.2-.7,0-1.3-.5-1.7-2.8-3.9-5.6-7.7-8.4-11.6-1.2.1-2.1.1-2.9.3-12.3,2.8-24.7,3.8-37.2,3.8s-1.3.3-2.1.5v5.7c0,5.4-.9,10.6-2.3,15.8-.2.6-.9,1.1-1.6,1.9-.6-3.3.2-6.3-.6-9.1h-27.2c-1.4,0-2-.3-2.1-1.2,0-.4.6-1,.9-1.1,2.7-.3,5.5-.6,8.2-.7,6.6-.2,13.2-1.1,19.7-2.3.6-.1,1.5,0,1.8-1.5-2.6-3.9-5.5-8.1-8.5-12.6-13.1,3.8-26.5,4.4-40.1,4.7,0,1.1-.2,2-.2,2.9v8.8c-.6,8-2.1,15.7-7.6,22-.2.2-.2.7-.3,1.3,4,4.3,7.6,9.2,10.1,14.7,1.1,2.4,2.6.6,4,1.2v32.5c0,2.8-.5,5.4,0,8.1h8c3.1,0,5.5.3,7.4,1.1-4.4,2.2-8.9,2.6-13.4,3.4-4.6.9-9.5.3-14.2,1.5,2.8,5.4,5.5,10.5,8.1,15.6,9.9.2,33.1-6.5,41.5-13.2-3-2.2-6-4.3-9-6.5-.5-.3-.8-1-1.7-2.1,11.4.2,22.1-.2,32.7.3.2,0,.3.5.7,1-3,2.4-6.6,4.2-9.7,6.6,9.7,7.1,31,13.8,43,13.7.7-1.8,1.5-3.6,2.3-5.5.7-1.7,1.6-3.3,2.4-5,.8-1.8,2.3-3.2,2.9-5.5-4.9-.4-9.5-.6-14-1.2-4.6-.6-9.4-1-14.3-3.8h.3-.2ZM618,47.3c1,0,2.1-.3,3.1-.3s2.2,0,3.4.2c.9,2.2.6,4.3.3,6.8-1.5,0-2.9.3-4.3.4-2.1,0-3.3-.2-4.3-.3-.2-.6-.4-.7-.3-.9.7-1.9,1.4-3.8,2.1-5.9h0ZM590.2,47.4c2.4-.7,4.7-.4,7.2,0-.3,1.1-.6,2.1-1,3.3,1.3.9,2.5,1.9,3.6,2.8,0,.5,0,.7-.3.8h-7.6c-1.3-.5-1.9-.9-1.9-1.3v-5.7h0ZM580.1,66.7h47.1c.2,1.2.3,2.1.5,3-.6.3-.8.7-1.2.7h-45.2c-1.6,0-3.2,0-5.2-.2,0-1.1,0-1.9-.2-2.7,1.3-1.4,2.8-1,4.2-1h0v.2ZM576.1,80c.5,0,1.2-.6,1.8-.6h47.3c.7,0,1.4.2,2.3.4v3.2c-.5.2-.8.5-1.1.5h-49.7c-1.3-1.3-1-2.3-.6-3.6h0ZM572.9,53.8c-2.7.9-5.3.6-8.2.2.2-2.5,1-4.6,2.2-7h4.8c1.1,0,1.4,1,1.4,2,0,2.2,0,3.4-.2,4.9h0ZM624.9,96.9h-45.7c-.9,0-1.9,0-2.7-.3-.3,0-.5-.8-.7-1.3.5-1.5.9-2.3,1.4-2.4,1-.2,2.2-.2,3.3-.2h43c1.3,0,2.5.2,4,.2,0,1.3.2,2.3.3,3.5-1,0-1.9.4-2.8.4h0Z"/>
        <path class="st0" d="M527.2,25.1c0-2.5.4-4.5,0-6.6h-77.9c-.2,0-.4,0-.5.1-.1,0-.2.3-.3.4-.1.3-.3.7-.3,1,.6,14.3.6,28.6,0,42.9,0,.8.3,1.7.4,2.3h78.7V25.1h-.1ZM508.6,47.5c-.4.5-.6.6-.7.7s-.3.2-.5.2h-38.6c-12.9,0-1-.2-1.9-.4,0-1.6-.2-3.2-.2-4.8v-6.1c.5-.5.6-.7.7-.8s.3-.2.5-.2h38.6c12.9,0,1,.2,1.8.3.5,2,.2,4,.2,5.9v5.1h0v.2h.1Z"/>
        <path class="st0" d="M506.2,71.4h-16.1v57.6c5.7.2,11.3.2,17.1,0,.4-1.7.7-3.2,1.1-4.8,5,0,9.7-.5,14.4.2.2,1.6.5,3,.7,4.3,5.7.7,14.2.6,18.3-.1v-57.3h-35.5ZM523,106.9c-3,.5-5.7.2-8.4.3-2.9-.2-4.7.5-6.4-.6-.7-4.4-.7-13.4,0-18.1.5,0,.9-.4,1.4-.4h12.9c1.1,3.1.5,6.3.6,9.3,0,3.1.2,6.1,0,9.5h0Z"/>
        <path class="st0" d="M483.9,71.4h-50.3v57.3c6.6.7,14.6.6,18.2-.3.2-1.4.5-2.8.7-4.3h12.9c.5,1,.9,2,1.5,3.2h15.3c.5,0,1-.2,1.4-.3.2-.3.4-.4.5-.6v-35.3c0-6.6.2-13.1-.2-19.8h0ZM466.1,105.1c0,1.7-1.2,2.1-2.6,2.1h-11c-1.2-3.2-.5-6.3-.6-9.3,0-3.1-.3-6.1.3-9.5,4.4-.4,8.8-.2,13.3,0,.2,1.1.5,2.1.6,3.1v13.7h0Z"/>
        <path class="st0" d="M425.7,21.1h-25c-.2,0-.5.5-.6.5.1,8.1.2,15.9.3,24.4v67.2c0,1.5-.2,2.9-.2,4.4s-.8,2.8,0,4.6c8.6,0,17.1.2,25.7,0-.5-33.9-.4-67.4,0-101h-.2,0Z"/>
        <path class="st0" d="M362.5,22.7c-.1-.3-.3-.7-.5-1-.1-.1-.2-.2-.4-.4-.1-.1-.3-.2-.5-.3-15.7-.6-26.6-.3-30.7.5-1.4,4.4-2.7,8.7-4.3,13.1-5.4,15.2-10.9,30.4-16.4,45.6-4.7,12.9-9.4,25.8-14.1,38.8-.3.9-.6,1.9-.9,3,7.8.6,23.7.4,27.9-.2,1.2-7.7,3.8-15.1,6.4-22.8h23.3c3.8,0,7.6-.3,11.7.3,2.1,7.6,4.1,15.1,6.3,22.9,5.5.3,11.3,0,17.7,0s6.6.2,10-.3c-1.3-3.5-2.5-6.5-3.7-9.6-10.7-29.9-22-59.5-32-89.6,0,0,.2,0,.2,0ZM335.2,77.7c3.4-11.4,6.9-22.7,10.5-34,.6.2,1.1.2,1.2.5.7,2.1,1.4,4.2,2.1,6.3,3.1,9.5,5.8,18.3,8.5,27-3.8,1-16.5,1.2-22.3.3h0Z"/>
      </g>
    </g>
  </g>
  <g id="_ロゴ">
    <path id="_x3C_パス_x3E_" class="st1" d="M243.4,242.1c-2.1-2.1-43.5-39.8-43.5-39.8h-63.2c1.7,1.6,43.3,40.1,43.3,40.1,0,0,60.8,0,63.4-.2h0Z"/>
    <path class="st1" d="M192.2,194.9c-.2-.3-21.4-19.2-21.4-19.2h-64l21.4,19.4h64.1v-.2h0Z"/>
    <path class="st1" d="M127.1,153.6c2-.7,3.9-1.2,5.6-2,11.3-5.6,18.3-14.2,19.5-27.1.6-6.5-.6-12.7-4-18.3-5.8-9.5-14-15.4-25.2-16.5-3.1-.3-6.4,0-9.5.5-4.6.9-8.8,3-12.5,5.9-5.5,4.3-9.5,9.6-11.7,16.2-1.3,3.7-1.4,7.7-1.3,11.6,0,4.1,1.3,7.9,2.9,11.5,2.8,6,7.2,10.7,12.6,14.2,3.6,2.3,7.6,3.7,12,4.4,3.9.6,7.6.2,11.7-.3h0Z"/>
    <path class="st1" d="M144.4,242.1c-28.5-26.6-73.4-66.8-99.3-90.9V61.6C30,47.9,15.2,34.3,0,20.5v148.2c20.1,18.2,76.5,69.9,80.5,73.5,0,0,61.4,0,64-.2h-.1Z"/>
    <path class="st1" d="M66.8,41.6l76.5.2,54.5,50.6.5,70.4s39.8,37,44.9,41.6V75.1C216.4,50.6,189.2,25.4,162.2.8,149,.8,19.3,0,19.2,0c.2.2,47.6,41.6,47.6,41.6h0Z"/>
  </g>
  <g>
    <path d="M0,340.4v-30.4h14.6v3H3v27.4H0Z"/>
    <path d="M18.1,351v-19h16.3v18.7h-4.1v-1.6h-8.3v1.9h-3.9ZM30.3,336h-8.3v9.2h8.3v-9.2ZM48,311.9v16.1h-22.8v-16.1h22.8ZM43.8,324v-8.2h-14.6v8.2h14.6ZM38.5,332h16.8v18.7h-4.1v-1.6h-8.7v1.8h-4v-18.9ZM42.5,345.1h8.7v-9.2h-8.7v9.2Z"/>
    <path d="M71.4,320.1h-4.8c-.6,2.6-1.7,5.3-4.1,7.6-.6-.8-1.9-2.1-2.8-2.6,3.2-2.9,3.7-6.4,3.7-9.3v-4.2l2.9.7c3.6-.5,7.6-1.2,9.9-1.9l2.8,2.6c-.1.1-.3.2-.5.2s-.2,0-.3,0c-2.7.7-7.1,1.4-11,1.7,0,1.6,0,1.7,0,2h12.8v3.1h-4.7v5h-3.6v-5ZM77.4,346.1c-.2.2-.4.3-.7.3s-.3,0-.4,0c-3.4,1.8-8.7,3.6-13.1,4.8-.7-.8-2-2.2-2.8-2.9,4.4-.9,9.7-2.6,12.8-4.3l4.3,2.1ZM65.8,343.9v-17.8h28.9v17.8h-28.9ZM69.8,328.7v2.5h20.8v-2.5h-20.8ZM69.8,333.7v2.5h20.8v-2.5h-20.8ZM69.8,338.7v2.6h20.8v-2.6h-20.8ZM89.8,320.1h-5.4c-.7,2-2.1,4.2-4.6,5.8-.4-.9-1.7-2.2-2.5-2.8,3.6-2.3,4.3-5,4.3-7.5v-4l3.1.7c3.9-.4,7.9-1.1,10.4-1.9l2.8,2.6c-.2.1-.2.1-.9.1-2.9.8-7.6,1.4-11.9,1.8,0,1.3,0,1.5,0,1.9h14.6v3.1h-6.1v5.1h-3.7v-5.1ZM95,351.2c-2.6-1.4-7.3-3.4-11.9-5l3.4-2c4.7,1.6,10.1,3.6,13.2,5.1l-4.7,2Z"/>
    <path d="M140.1,330.1c0,0-.2,0-.3,0-.3,0-.5,0-.7-.2-3.3,1-7.8,2.6-11.2,4,0,1,.1,2,.1,3.3s0,2.5-.1,3.9l-4.4.3c.2-1.9.3-4.3.2-5.8-4.1,2-7.3,4.6-7.3,6.7s2.7,3.2,8.1,3.2,8.1-.2,10.9-.5v4c-2.4.3-6.2.3-10.9.3-8.3,0-12.3-1.9-12.3-6.9s4.8-7.5,11.1-10.7c-.2-2-1.1-3.2-2.6-3.2-3,0-6.2,1.7-9.9,5.8-1.1,1.3-2.8,3-4.7,4.7l-3-3c2-1.8,4.3-3.9,5.7-5.6,1.9-2.4,3.9-6.3,4.8-9.4h-2c-1.7,0-4.8,0-7,0v-3.9c2.6,0,5.6.1,7.5.1h2.6c.4-1.9.7-3.7,1-6l5.5.6c0,.4-.5.7-1,.8-.3,1.6-.7,3-1,4.4,3.2,0,8.9-.8,14-2.5l.7,4.1c-4.8,1.5-11.1,2-15.9,2.2-.9,2.8-1.8,5-2.6,6.2h0c1.7-1.4,4.3-2.4,6.5-2.4s4.7,1.9,5.3,5.3c3.5-1.6,7.8-3.2,11.2-4.5l1.7,4.5Z"/>
    <path d="M153.7,331.2h.8s2.1.2,2.1.2c0,.3,0,.8,0,1.2-.5,11.2-1,15.4-2.3,16.9-1.2,1.4-2.6,1.6-5.1,1.6s-2.2,0-3.3,0c0-1.1-.5-2.7-1.2-3.7,2,.1,4,.2,4.8.2s1.2,0,1.6-.5c.8-.8,1.3-4,1.7-12.1h-5.5l-.2,1.7-3.6-.6c.6-3.6,1.1-9.3,1.4-13.8h7.9v-6.4h-9.2v-3.9h13.2v15.2h-4v-1.3h-4.5c-.1,1.8-.3,3.6-.5,5.3h6.1ZM176.7,344.7c-.7-1.1-1.5-2.2-2.3-3.1l3.3-1.6c2.4,2.9,5,6.7,6,9.4l-3.5,1.7c-.3-.9-.8-2-1.4-3.1-7.2.5-14.6,1-19.4,1.3,0,.4-.4.6-.7.7l-1.4-4.6c2.9,0,6.6-.2,10.8-.4v-5.6h-8.3v-12.2h8.3v-4.1c-3.3.2-6.3.3-8.7.4,0,.4-.4.6-.7.7l-1.3-4.5c1.1,0,2.4,0,3.8,0,1.7-2.7,3.6-6.5,4.7-9.3l4.9,1.4c-.1.3-.5.5-1.1.5-1,2.2-2.6,4.9-4.2,7.3,3.4,0,7.2-.2,10.9-.3-1-1.2-2-2.3-3-3.4l3.4-1.7c2.7,2.7,5.7,6.4,7,9l-3.6,1.9c-.3-.7-.8-1.6-1.4-2.5l-5.8.3c0,.3-.3.6-1,.7v3.7h8.7v12.2h-8.7v5.5l4.6-.2ZM163.4,335.9h4.7v-5.2h-4.7v5.2ZM177,330.7h-4.9v5.2h4.9v-5.2Z"/>
    <path d="M222.9,323.1c-.2.5-.7.8-1.3.8-.5,2.7-1.2,5.9-1.9,8.6,2.1.9,4.6,2,6.8,3.2l-1.9,4.2c-2.2-1.1-4.3-2.2-6.3-3.1-2,5.9-5,10.3-9.3,13.2-.9-.8-2.4-1.9-3.5-2.5,4.3-2.8,7-6.8,8.9-12.6-3.7-1.5-7.2-2.5-10-2.9-2.9,9.9-5.4,13.4-11.2,13.4s-6.6-3.3-6.6-7.3c0-6.8,7.1-10.2,14.6-10.2.8-3.2,1.6-7.1,2.1-11-2,.2-8.2.7-11.5.9-.3.3-.6.5-1,.7l-.4-4.7c4.2-.1,12.1-.7,14.3-.9.5,0,.8-.3,1-.5l3.6,1.9c-.2.3-.6.6-1.1.7-.7,4.3-1.8,9.6-2.7,13.2,3,.3,6.4,1.3,10.1,2.7.7-2.4,1.3-5.8,1.8-9l5.6,1.2ZM200.3,331.7c-5.5,0-9.7,2.5-9.7,6.4s1,3.5,2.7,3.5c3,0,4.7-1.8,7-9.9Z"/>
    <path d="M259.1,326.8c-.1,0-.3,0-.4,0-.3,0-.7,0-1-.3-13,3.6-23.7,8.8-23.6,14,0,3.7,4,5,10.6,5s12.2-.6,15.2-1.1l.4,4.4c-3.1.4-8.8.8-15.8.8s-14.9-2-14.9-8.9c0-4.6,4.3-8.6,11-12.1-1.6-2.9-2.1-7.9-2-17.4l6.3.5c0,.6-.5,1-1.4,1,0,6.9,0,11.4,1.2,13.9,3.9-1.7,8.3-3.4,12.9-5l1.5,5Z"/>
    <path d="M274,312.4c0,.5-.5.9-1.3,1-.3,5.5-.8,16.2-.8,22.6s3,8.9,8,8.9,9.9-2.4,14.8-7.7c.5,1,1.9,3.1,2.6,3.8-5.3,5.6-11.2,8.4-17.4,8.4s-12.7-5-12.7-13.3.3-18.7.7-24l6.1.4Z"/>
    <path d="M297.6,315.9c1.3,0,3.2,0,4.4-.1,4.4-.3,24.8-1.7,31.3-1.9v4.6c-3.5-.1-5.8.1-9.2,2.4-5.6,3.6-11.7,10-11.7,15.3s4.3,8.7,14.4,9.9l-2.1,4.3c-12.4-1.6-17.1-6.6-17.1-14.2s5.4-12.9,12.6-17.6c-4.8.3-16.5,1.3-21.2,1.7-.1.3-.7.6-1,.7l-.4-5.2Z"/>
    <path d="M370.1,339.1h-4.2v-1.9h-7.3v2h-4.1v-14.1h-7.3v18.8h28v4h-28v3h-4.2v-25.9h-6.5v-4h6.5v-9.6l5.2.3c0,.3-.3.6-1,.7v8.6h7.3v-10.5l5.2.3c0,.4-.3.6-1,.7v9.5h7.3v-10l5.2.3c0,.4-.3.6-1,.7v9h6.7v4h-6.7v13.9ZM358.7,333.4h7.3v-8.2h-7.3v8.2Z"/>
    <path d="M415.6,330.4h-7.5c3,3.3,7.6,5.9,12.4,7.3-.9.8-2.1,2.4-2.7,3.4-3.4-1.2-6.6-3-9.4-5.4v15.3h-4v-16.4l3,.2c-1.5-1.3-2.8-2.9-3.9-4.5h-6.6c-1.1,1.5-2.5,3-4,4.3l3.7.2c0,.3-.3.6-1,.7v2c0,4.4-1.1,10.2-9.7,13.8-.5-1-1.8-2.4-2.7-3.1,7.6-3,8.3-7.5,8.3-10.9v-1.7c-2.8,2.3-6,4.2-9.3,5.4-.6-1-1.8-2.5-2.7-3.3,4.6-1.5,9.3-4.3,12.5-7.6h-7.3v-18.5h30.8v18.5ZM388.8,315.3v4.3h9.1v-4.3h-9.1ZM388.8,322.8v4.3h9.1v-4.3h-9.1ZM411.4,319.6v-4.3h-9.4v4.3h9.4ZM411.4,327.1v-4.3h-9.4v4.3h9.4Z"/>
    <path d="M433.4,313.7c0,.5-.5.7-1.4.8-1.6,7.4-2.3,15.2-2.3,19.3s0,5.6.4,7.3c.7-1.7,2.5-5.8,3-7.3l2.2,3c-1.6,3.7-3,6.1-3.6,8.1-.2.7-.3,1.4-.3,2s0,1,.2,1.5l-4.3.7c-1.4-4.2-2-9.4-2-15.2s.9-13.8,2.1-21.1l5.9.9ZM460.2,345.8c-1.5,0-3.1.1-4.7.1-3,0-5.8-.1-7.9-.4-5.7-.8-8.2-3.9-8.2-7.5s1.6-5.6,3.9-8.5l4.1,1.5c-2.1,2.1-3.5,4.2-3.5,6.5,0,4,5.4,4.3,10.4,4.3s4.1,0,6-.3v4.3ZM440.2,318.5c5.3-.1,13.1-.7,18.6-1.7l.4,4.3c-5.3.9-13.9,1.5-18.9,1.6v-4.2Z"/>
    <path d="M474.5,327.6v14.2c2.9,4.8,8.7,4.8,16.3,4.8s10.9-.1,14.8-.4c-.5,1-1.1,2.9-1.3,4-3.2.1-8.1.2-12.6.2-9.5,0-14.8,0-18.9-5.2-2.1,1.8-4.3,3.6-6.2,5,0,.4-.1.7-.5.8l-2.1-4.4c2-1.2,4.5-3,6.6-4.6v-10.6h-6.1v-3.8h10ZM468,311.3c2.8,1.9,6.1,4.8,7.6,7l-3.1,3c-1.4-2.2-4.6-5.3-7.4-7.3l2.9-2.6ZM482.6,337.1v7h-3.9v-22.7h11.4c-2.3-1.1-5-2.3-7.3-3.2l2.6-2.2c1.7.6,3.8,1.4,5.7,2.3,1.7-.9,3.4-1.9,4.9-3h-17.2v-3.2h21.2l.6-.2,3,2c-.2.3-.5.4-.8.4-2.1,1.8-5.1,4-8.1,5.6,1.1.6,2.2,1.1,3,1.6h5.5v18.9c0,3.6-1.5,4-7.6,4-.1-1-.6-2.4-1.1-3.3,1.1,0,2.1,0,2.9,0,1.7,0,1.9,0,1.9-.7v-3.1h-6.6v6.8h-3.7v-6.8h-6.4ZM489,324.5h-6.4v3.2h6.4v-3.2ZM482.6,334h6.4v-3.3h-6.4v3.3ZM499.3,327.7v-3.2h-6.6v3.2h6.6ZM492.7,334h6.6v-3.3h-6.6v3.3Z"/>
    <path d="M545.4,313.4v32.5c0,4.5-2,5-10.5,5-.2-1.1-.8-2.9-1.4-4,1.7,0,3.4,0,4.7,0,2.9,0,3,0,3-1.1v-8h-10.9v12.6h-4v-12.6h-10.1c-.7,4.9-2.3,9.9-5.6,13.5-.6-.8-2.3-2.3-3.2-2.7,4.8-5.4,5.3-13.2,5.3-19.4v-15.8h32.7ZM516.9,329.2c0,1.5,0,3.1-.2,4.7h9.7v-6.4h-9.5v1.7ZM526.4,317.3h-9.5v6.4h9.5v-6.4ZM541.3,323.7v-6.4h-10.9v6.4h10.9ZM530.4,334h10.9v-6.4h-10.9v6.4Z"/>
    <path d="M551.9,317.8c2.7,0,16.1-.4,19.1-.6,0-.6-.2-5.3-.3-6.4l5.9.3c0,.4-.4.8-1.2,1,0,1.1,0,3.2,0,5.1,5.5-.2,11.2-.3,13.9-.3v4.1c-3.3,0-8.5,0-13.9.2,0,1.6,0,3.2,0,4.3,0,1.5.1,2.6.2,4,.6,1.7.6,3.7.6,4.8,0,8.9-6.1,14.1-13.1,16.8-.7-1-2.2-2.5-3.2-3.4,5.6-2,9.2-4.9,10.5-8.3h0c-.7.9-2,1.5-3.4,1.5-3.9,0-7.5-3.1-7.5-7.8s3.9-8.3,8.1-8.3,2.6.3,3.4,1c0-.2,0-.3,0-.5,0-.8,0-2.6-.1-4.1-7.2.2-14.3.4-19.1.7v-4ZM572,332.9c0-3.1-1.3-4.7-3.8-4.7s-4.4,1.9-4.4,4.8,2,4.3,4.1,4.3,4.1-2.1,4.1-4.4Z"/>
    <path d="M604.7,329c2.6-1.3,6.6-2,9.5-2,6.7,0,11.2,4,11.2,10.6s-6.9,12.3-15.9,12.3-9.6-2.4-9.6-6.6,3.4-6.1,7.4-6.1,8.1,3.5,8.8,7.3c2.8-1.1,4.8-3.6,4.8-6.9s-3.3-6.9-8.2-6.9-12.1,2.7-15.1,5.6c-1.1,1.1-2.9,2.9-4,4.1l-3.1-3c3.4-3.6,15.1-14.7,21-20.1-2.3.3-10.4.7-14.6.9,0,.3-.6.6-1,.7l-.4-5c5.7,0,17.5-.4,20.5-.9l.7-.3,3,3.6c-.3.3-.7.4-1.2.5-2.6,2-10.2,9-13.7,12.2h0ZM608.8,346.1c1,0,2.4-.2,3.3-.3-.4-2.8-2.5-5-5.1-5s-3.5,1-3.5,2.6,3,2.8,5.3,2.8Z"/>
    <path d="M633.4,313.1h28.9v37.2h-4.4v-2.7h-20.3v2.9h-4.2v-37.4ZM658,317.2h-20.3v10.9h20.3v-10.9ZM637.6,343.4h20.3v-11.2h-20.3v11.2Z"/>
    <path d="M708.6,323.5h-14.6c3.6,7.1,9.6,13.7,16.3,17.1-1,.8-2.4,2.5-3.1,3.6-6.3-3.6-11.8-9.9-15.7-17v11.8h7.9v4.2h-7.9v7.9h-4.3v-7.9h-8.1v-4.2h8.1v-11.8c-3.9,7.3-9.4,13.4-15.6,17.2-.7-1-2-2.6-3-3.4,6.5-3.4,12.5-10.2,16.1-17.4h-14.5v-4.2h17v-8.9l5.4.3c0,.3-.3.6-1,.7v7.9h17.1v4.2Z"/>
    <path d="M744.8,329.6h-4.7v5.9h10v3.8h-10v6.1c0,1.5.3,1.7,1.7,1.7h4.3c1.3,0,1.5-.9,1.7-5.3.9.7,2.6,1.4,3.7,1.6-.4,5.7-1.5,7.4-5,7.4h-5.4c-4.2,0-5.2-1.2-5.2-5.4v-6.1h-7c-.8,4.7-3.6,9.1-12,12-.5-1-1.8-2.5-2.6-3.3,6.9-2.3,9.5-5.4,10.4-8.8h-9.4v-3.8h9.9v-5.9h-4.3v-1.4c-2,1.5-4,2.7-6.1,3.7-.6-1-1.7-2.3-2.5-3.1,2.8-1.2,5.6-3,8.1-5.3-1.2-1.3-3.3-3-4.9-4.3l2.6-2.2c1.6,1.1,3.5,2.7,4.8,3.9,1.4-1.6,2.6-3.4,3.6-5.2h-10.2v-3.6h12.5l.7-.2c1.3.7,2.1,1,2.9,1.4,0,.2-.3.4-.6.5-1.7,4.6-4.4,8.6-7.8,11.8h18.4c-3.9-3.8-6.9-8.7-9-14.1l3.6-1.1c.7,1.8,1.5,3.5,2.5,5.2,1.7-1.5,3.6-3.3,4.8-4.7l3.6,2.6c-.1.2-.3.3-.7.3s-.3,0-.4,0c-1.4,1.3-3.6,3.1-5.5,4.5.8,1,1.6,2,2.5,2.9,2-1.6,4.3-3.6,5.7-5.3l3.5,2.6c-.2.3-.6.3-1,.3-1.5,1.3-3.8,3.2-5.9,4.6,2.3,1.9,4.9,3.5,7.6,4.6-1,.8-2.2,2.4-2.9,3.6-2.1-1-4-2.2-5.9-3.6v1.6ZM735.9,335.4v-5.9h-6.7v5.9h6.7Z"/>
    <path d="M778.9,319.5c-.1.4-.6.7-1.2.7-1.7,14.2-6.1,24.4-13.4,24.4s-7.6-3.9-7.6-11c0-10.8,8.5-19.2,19.7-19.2s18.3,7.6,18.3,16.5-5.6,15.4-16.3,18.1c-.7-1-1.7-2.5-2.7-3.7,9.9-2,14.5-6.7,14.5-14.2s-4.7-12.6-13.8-12.6-1.2,0-1.8,0l4.3,1ZM773.4,318.8c-7.6,1.3-12.4,7.8-12.4,14.7s1.5,6.8,3.5,6.8c4.7,0,8-10.5,8.9-21.5Z"/>
    <path d="M824.6,347.2h-5.3l-3-9.8h-10.2l-2.9,9.8h-5.2l10.2-33.2h6.2l10.2,33.2ZM815.5,333.6l-2.6-8.7c-.6-2.2-1.2-4.5-1.7-6.6h0c-.5,2-1,4.5-1.6,6.5l-2.6,8.7h8.6Z"/>
    <path d="M829.2,314h5v33.2h-5v-33.2Z"/>
    <path d="M843.3,317.7h29.7v4.1h-12.8v19.3h15.9v4.1h-35.8v-4.1h15.5v-19.3h-12.5v-4.1Z"/>
    <path d="M912.5,317.6v29.8h-4.5v-2.3h-26.3v-4.1h26.3v-19.3h-25.9v-4.1h30.4Z"/>
    <path d="M920.8,323.9c3.9,1,8.6,2.6,11.4,4l-1.9,3.8c-2.8-1.4-7.6-3.1-11.4-4.1l1.8-3.6ZM922.7,344.7c13.7-4.5,23.4-11.7,29.2-24.7.9.8,2.8,2.2,3.8,2.8-5.9,12.6-16.2,20.8-29.1,25.2.1.4-.1.9-.6,1.1l-3.3-4.5ZM925.9,313.2c3.9,1.1,8.4,2.8,11.4,4.3l-2,3.7c-3.1-1.7-7.3-3.3-11.3-4.5l1.9-3.5Z"/>
    <path d="M987,316.4c-.2.3-.4.5-.7.6-2.4,5.6-4.9,9.9-8.4,14.6,4.5,3.6,11.3,9.7,15.2,14l-3.8,3.3c-3.6-4.2-10.1-10.6-14.2-13.9-4,4.6-10.1,10.5-16,13.9-.7-1-2.2-2.5-3.2-3.3,11.3-6.2,20.5-17.5,24.5-26.8h-20.4v-4.1h22.8l.8-.3,3.5,1.9Z"/>
    <path d="M1031.6,329.6h-14.2l.8.2c0,.3-.4.6-1,.6-1.1,7.6-4,14.7-13.2,19.3-.7-.7-2.3-2.3-3.3-3,8.7-4.3,11-9.9,11.9-17.1h-16.2v-4h35v4ZM1027.3,317.4h-26.7v-4h26.7v4Z"/>
    <path d="M1067.2,348.8c-.7-1.6-1.4-3.1-2.2-4.7-9.3,1-22.6,2-29.2,2.3,0,.4-.4.8-.9.9l-1.5-5.3c1.3,0,2.8,0,4.5,0,2.8-8.3,6.6-20.9,8.9-29.4l5.6,1.5c-.1.5-.6.7-1.3.7-2.2,7.6-5.7,18.6-8.6,27,6.1-.3,15.3-.9,20.5-1.4-2-3.4-4.6-6.9-6.8-9.6l3.6-2c4.4,5,9.4,13,11.7,18l-4.3,2Z"/>
    <path d="M1110.6,330.1c0,0-.2,0-.3,0-.3,0-.5,0-.7-.2-3.3,1-7.8,2.6-11.2,4,0,1,.1,2,.1,3.3s0,2.5-.1,3.9l-4.4.3c.2-1.9.3-4.3.2-5.8-4.1,2-7.3,4.6-7.3,6.7s2.7,3.2,8.1,3.2,8.1-.2,10.9-.5v4c-2.4.3-6.2.3-10.9.3-8.3,0-12.3-1.9-12.3-6.9s4.8-7.5,11.1-10.7c-.2-2-1.1-3.2-2.6-3.2-3,0-6.2,1.7-9.9,5.8-1.1,1.3-2.8,3-4.7,4.7l-3-3c2-1.8,4.3-3.9,5.7-5.6,1.9-2.4,3.9-6.3,4.8-9.4h-2c-1.7,0-4.8,0-7,0v-3.9c2.6,0,5.6.1,7.5.1h2.6c.4-1.9.7-3.7,1-6l5.5.6c0,.4-.5.7-1,.8-.3,1.6-.7,3-1,4.4,3.2,0,8.9-.8,14-2.5l.7,4.1c-4.8,1.5-11.1,2-15.9,2.2-.9,2.8-1.8,5-2.6,6.2h0c1.7-1.4,4.3-2.4,6.5-2.4s4.7,1.9,5.3,5.3c3.5-1.6,7.8-3.2,11.2-4.5l1.7,4.5Z"/>
    <path d="M1146.2,326.7l3,1.7c-.1.3-.4.5-.7.6-2.4,5.7-6.1,10.2-10.7,13.5,4.6,2.3,10.1,3.9,16.5,4.6-.9,1-2,2.8-2.6,4-7.1-1.1-13.1-3-18-6-5.3,2.9-11.3,4.7-17.9,5.9-.4-1.1-1.5-3-2.3-3.9,6-.9,11.7-2.3,16.5-4.6-3.4-2.8-6.3-6.3-8.4-10.5l3.1-1.1h-7.4v-4h14.4v-6.1h-16.8v-4.1h16.8v-6.3l5.3.3c0,.4-.3.6-1,.7v5.3h17.1v4.1h-17.1v6.1h9.6l.7-.2ZM1125.6,330.9c2,3.8,4.8,6.9,8.4,9.4,3.7-2.4,6.8-5.5,8.9-9.4h-17.3Z"/>
    <path d="M1173.5,334.7c1.3-.7,2.7-.9,4-.9,2.3,0,3.9,1.8,3.9,4.3s0,2.5,0,3.4c0,3.9,2.2,3.9,5.2,3.9s4.2-.1,5.9-.4c0,2.7.1,4.2.1,4.3-1.7.2-3.8.3-5.7.3s-3.3,0-4.3-.2c-3.3-.4-5.3-2.6-5.3-5.4,0-1,0-2.9,0-4.1s-.7-2.5-2-2.5c-2.1,0-5,1.2-7.5,3.6-2.3,2.3-7,6.9-8.3,8.5,0,0-.7-.9-3.3-3.3,4.3-4.2,16.9-16.2,20.9-20-3,.3-11.6.8-16.3,1-.2.3-.3.5-.7.5l-.3-4.7c6-.1,17.2-.6,21.6-1l.7-.4,3.3,3.1c-.3.2-.6.3-1.1.3-2.7,2.3-7.4,6.6-10.8,9.7h0ZM1183,318.4c-4.6-1.3-12.6-2.5-18.2-2.9l1-4c5.9.3,13.3,1.3,18.3,2.7l-1.1,4.2Z"/>
    <path d="M1205.7,329c2.6-1.3,6.6-2,9.5-2,6.7,0,11.2,4,11.2,10.6s-6.9,12.3-15.9,12.3-9.6-2.4-9.6-6.6,3.4-6.1,7.4-6.1,8.1,3.5,8.8,7.3c2.8-1.1,4.8-3.6,4.8-6.9s-3.3-6.9-8.2-6.9-12.1,2.7-15.1,5.6c-1.1,1.1-2.9,2.9-4,4.1l-3.1-3c3.4-3.6,15.1-14.7,21-20.1-2.3.3-10.4.7-14.6.9,0,.3-.6.6-1,.7l-.4-5c5.7,0,17.5-.4,20.5-.9l.7-.3,3,3.6c-.3.3-.7.4-1.2.5-2.6,2-10.2,9-13.7,12.2h0ZM1209.8,346.1c1,0,2.4-.2,3.3-.3-.4-2.8-2.5-5-5.1-5s-3.5,1-3.5,2.6,3,2.8,5.3,2.8Z"/>
    <path d="M1269.7,340.8h-13.9c4,2.7,9.6,5,15,6-.9.9-2.1,2.6-2.7,3.7-5.8-1.5-11.7-4.5-15.9-8.3v8.9h-4v-8.6c-4.2,3.5-10.2,6.4-15.7,7.9-.6-1-1.8-2.6-2.7-3.5,5.3-1.1,11-3.4,14.9-6.2h-13.7v-3.5h17.2v-2.7h-13.1v-3.1h13.1v-2.6h-15.2v-3.3h9.1c-.4-1.2-1.1-2.8-1.9-4l1-.2h0s-10,0-10,0v-3.4h6.6c-.7-1.7-2-4.2-3.2-6l3.6-1.2c1.4,1.9,3,4.6,3.6,6.3l-2.3.9h5v-7.6l4.9.3c0,.4-.4.7-1,.8v6.5h4.4v-7.6l5,.3c0,.4-.4.7-1,.8v6.5h4.6l-1.6-.6c1.1-1.8,2.5-4.6,3.2-6.5l4.7,1.5c-.1.3-.5.5-1,.4-.8,1.5-2,3.6-3.2,5.2h6.5v3.4h-8.9l.8.3c-.1.3-.5.4-1,.4-.5,1-1.3,2.4-2.1,3.5h9.5v3.3h-15.7v2.6h13.6v3.1h-13.6v2.7h17.5v3.5ZM1254.3,325.5c.7-1.1,1.4-2.7,2-4.1h-11.9c.8,1.3,1.6,2.9,1.9,4l-1.3.3h9.6-.4Z"/>
    <path d="M1309.3,330.4h-7.5c3,3.3,7.6,5.9,12.4,7.3-.9.8-2.1,2.4-2.7,3.4-3.4-1.2-6.6-3-9.4-5.4v15.3h-4v-16.4l3,.2c-1.5-1.3-2.8-2.9-3.9-4.5h-6.6c-1.1,1.5-2.5,3-4,4.3l3.7.2c0,.3-.3.6-1,.7v2c0,4.4-1.1,10.2-9.7,13.8-.5-1-1.8-2.4-2.7-3.1,7.6-3,8.3-7.5,8.3-10.9v-1.7c-2.8,2.3-6,4.2-9.3,5.4-.6-1-1.8-2.5-2.7-3.3,4.6-1.5,9.3-4.3,12.5-7.6h-7.3v-18.5h30.8v18.5ZM1282.5,315.3v4.3h9.1v-4.3h-9.1ZM1282.5,322.8v4.3h9.1v-4.3h-9.1ZM1305.1,319.6v-4.3h-9.4v4.3h9.4ZM1305.1,327.1v-4.3h-9.4v4.3h9.4Z"/>
    <path d="M1318.7,312.3h37.1v38.7h-4.3v-1.9h-28.7v1.9h-4.1v-38.7ZM1322.8,345.2h28.7v-28.9h-28.7v28.9ZM1349.9,323.2v3.5h-5.9v12.7c0,3.9-1.7,4.3-8.7,4.2-.2-1-.7-2.5-1.2-3.5,1.3,0,2.6,0,3.6,0,2.3,0,2.4,0,2.4-.8v-12.6h-15.4v-3.5h15.4v-5.5l4.8.2c0,.4-.3.7-1,.7v4.6h5.9ZM1332.6,337.7c-.8-2.2-2.9-5.5-5-7.8l3-1.6c2.1,2.3,4.3,5.4,5.2,7.6l-3.1,1.7Z"/>
    <path d="M1374.5,312.2c-.2.3-.5.5-1.1.5-1.1,2.9-2.4,5.8-3.8,8.6l1.3.4c0,.3-.3.6-1,.7v28.8h-4v-23.5c-1.4,2.2-3,4.2-4.5,5.9-.4-1-1.4-3.1-2-4.1,4-4.3,7.9-11.6,10.4-18.8l4.7,1.6ZM1400.6,324h-10.3c2.6,6.6,6.9,13.2,11.3,16.8-1,.7-2.3,2.2-3.1,3.2-4.1-3.9-8-10.4-10.6-17.2v12.6h6.4v3.7h-6.4v8.1h-4v-8.1h-6.3v-3.7h6.3v-12.3c-2.7,6.9-6.6,13.2-10.9,17.1-.7-1-2-2.4-3-3.1,4.6-3.6,8.9-10.3,11.6-17h-9.6v-4h11.9v-9.2l5,.3c0,.3-.3.6-1,.7v8.2h12.7v4Z"/>
    <path d="M1440.7,330.1c0,0-.2,0-.3,0-.3,0-.5,0-.7-.2-3.3,1-7.8,2.6-11.2,4,0,1,.1,2,.1,3.3s0,2.5-.1,3.9l-4.4.3c.2-1.9.3-4.3.2-5.8-4.1,2-7.3,4.6-7.3,6.7s2.7,3.2,8.1,3.2,8.1-.2,10.9-.5v4c-2.4.3-6.2.3-10.9.3-8.3,0-12.3-1.9-12.3-6.9s4.8-7.5,11.1-10.7c-.2-2-1.1-3.2-2.6-3.2-3,0-6.2,1.7-9.9,5.8-1.1,1.3-2.8,3-4.7,4.7l-3-3c2-1.8,4.3-3.9,5.7-5.6,1.9-2.4,3.9-6.3,4.8-9.4h-2c-1.7,0-4.8,0-7,0v-3.9c2.6,0,5.6.1,7.5.1h2.6c.4-1.9.7-3.7,1-6l5.5.6c0,.4-.5.7-1,.8-.3,1.6-.7,3-1,4.4,3.2,0,8.9-.8,14-2.5l.7,4.1c-4.8,1.5-11.1,2-15.9,2.2-.9,2.8-1.8,5-2.6,6.2h0c1.7-1.4,4.3-2.4,6.5-2.4s4.7,1.9,5.3,5.3c3.5-1.6,7.8-3.2,11.2-4.5l1.7,4.5Z"/>
    <path d="M1453.8,326.1c1.2,1.7,4.5,6.6,5.3,7.9l-2.2,3c-.6-1.4-1.9-3.9-3-6v20h-3.8v-18.8c-1.3,4.2-3,8.1-4.8,10.7-.4-1.1-1.3-2.6-2-3.6,2.6-3.6,5.2-10.2,6.4-15.8h-5.4v-3.8h5.8v-9.3l4.8.3c0,.3-.3.6-1,.7v8.4h4.8v3.8h-4.8v2.6ZM1484.5,340.9v3.1h-2.6v3.1c0,3.8-2,3.9-7.8,3.9-.2-1-.7-2.3-1.1-3.3,1,0,1.9,0,2.6,0,2.2,0,2.4,0,2.4-.7v-3.1h-13.4v7h-3.8v-7h-3.1v-3.1h3.1v-10.9h8.4v-2.2h-10.8v-3h5.8v-2.5h-3.9v-2.9h3.9v-2.3h-4.8v-3h4.8v-3.7l4.9.3c0,.3-.3.6-1,.7v2.8h6.1v-3.7l4.9.3c0,.4-.3.6-1,.7v2.8h5.4v3h-5.4v2.3h4.6v2.9h-4.6v2.5h6.1v3h-11.2v2.2h8.8v10.9h2.6ZM1469.3,333h-4.6v2.4h4.6v-2.4ZM1464.7,338.2v2.6h4.6v-2.6h-4.6ZM1468.2,317.1v2.3h6.1v-2.3h-6.1ZM1468.2,322.3v2.5h6.1v-2.5h-6.1ZM1478,333h-5v2.4h5v-2.4ZM1473,340.9h5v-2.6h-5v2.6Z"/>
    <path d="M1527.2,340.6h-14.8c4,2.7,10,4.8,15.6,5.7-.9.8-2,2.5-2.6,3.5-5.6-1.3-11.8-4.1-16-7.6v8.8h-4v-8.8c-4.2,3.5-10.3,6.3-15.9,7.8-.6-1-1.7-2.6-2.6-3.4,5.5-1,11.4-3.3,15.3-6h-14.5v-3.3h17.6v-2.3c-.8.5-1.7.9-2.7,1.3-.5-.7-2-2.2-2.7-2.7,1.3-.5,2.4-1,3.2-1.5h0c-5.1.9-10.3,1.8-13.7,2.3,0,.3-.3.5-.6.6l-1.3-3.8c1.9-.2,4.3-.5,7-.8v-5.4h-6v-3h15.6v3h-5.9v4.9l6-.8v2.1c1.9-1.6,2.3-3.3,2.3-5.1v-4.4h15.7v8.4c0,1.4,0,1.6.7,1.6,1.3,0,1.4,0,1.7-.1.4-.3.5-.8.6-4.2.7.6,1.9,1.2,2.8,1.4-.2,4.1-.3,6.1-4,6.1h-2.1c-3.6,0-3.6-2.5-3.6-4.9v-5.6h-8.1v1.6c0,2.6-.7,5.3-3,7.4l3.3.2c0,.4-.3.6-1,.7v2.7h17.8v3.3ZM1497.3,321.2c-.3-1.1-1.1-2.8-2-4.2h-1.5c-1.1,1.6-2.4,3.1-3.6,4.2-.7-.7-2.2-1.6-3.1-2.1,2.5-2,4.9-5.6,6.3-8.9l4.4,1.4c-.2.3-.6.4-1,.4-.3.6-.6,1.1-.9,1.7h10.9v2.9c1.7-1.8,3.1-4.1,4-6.4l4.6,1.3c-.1.3-.5.5-1,.5-.3.6-.6,1.2-.9,1.7h14v3.3h-8.9c.8,1.1,1.6,2.3,2,3.2l-3.5,1.1c-.5-1.2-1.6-2.9-2.7-4.3h-3.2c-1.1,1.5-2.4,2.8-3.7,3.8-.8-.6-2.3-1.4-3.3-1.9.7-.5,1.5-1.2,2.2-1.9h-7.3c.7,1.2,1.3,2.3,1.6,3.2l-3.3,1ZM1515.6,332.9c-1.2-1.4-3.5-3.3-5.5-4.6l2.3-2.1c2,1.2,4.5,3.1,5.7,4.4l-2.5,2.4Z"/>
    <path d="M1531.2,317.8c2.7,0,16.1-.4,19.1-.6,0-.6-.2-5.3-.3-6.4l5.9.3c0,.4-.4.8-1.2,1,0,1.1,0,3.2,0,5.1,5.5-.2,11.2-.3,13.9-.3v4.1c-3.3,0-8.5,0-13.9.2,0,1.6,0,3.2,0,4.3,0,1.5.1,2.6.2,4,.6,1.7.6,3.7.6,4.8,0,8.9-6.1,14.1-13.1,16.8-.7-1-2.2-2.5-3.2-3.4,5.6-2,9.2-4.9,10.5-8.3h0c-.7.9-2,1.5-3.4,1.5-3.9,0-7.5-3.1-7.5-7.8s3.9-8.3,8.1-8.3,2.6.3,3.4,1c0-.2,0-.3,0-.5,0-.8,0-2.6-.1-4.1-7.2.2-14.3.4-19.1.7v-4ZM1551.2,332.9c0-3.1-1.3-4.7-3.8-4.7s-4.4,1.9-4.4,4.8,2,4.3,4.1,4.3,4.1-2.1,4.1-4.4Z"/>
    <path d="M1584,329c2.6-1.3,6.6-2,9.5-2,6.7,0,11.2,4,11.2,10.6s-6.9,12.3-15.9,12.3-9.6-2.4-9.6-6.6,3.4-6.1,7.4-6.1,8.1,3.5,8.8,7.3c2.8-1.1,4.8-3.6,4.8-6.9s-3.3-6.9-8.2-6.9-12.1,2.7-15.1,5.6c-1.1,1.1-2.9,2.9-4,4.1l-3.1-3c3.4-3.6,15.1-14.7,21-20.1-2.3.3-10.4.7-14.6.9,0,.3-.6.6-1,.7l-.4-5c5.7,0,17.5-.4,20.5-.9l.7-.3,3,3.6c-.3.3-.7.4-1.2.5-2.6,2-10.2,9-13.7,12.2h0ZM1588.1,346.1c1,0,2.4-.2,3.3-.3-.4-2.8-2.5-5-5.1-5s-3.5,1-3.5,2.6,3,2.8,5.3,2.8Z"/>
    <path d="M1619.6,345c0,3.3-2.7,6.1-6.1,6.1s-6.1-2.7-6.1-6.1,2.7-6.1,6.1-6.1,6.1,2.8,6.1,6.1ZM1617.8,345c0-2.3-1.9-4.3-4.3-4.3s-4.3,1.9-4.3,4.3,1.9,4.3,4.3,4.3,4.3-2,4.3-4.3Z"/>
    <path d="M1643.7,320.7v30.3h-14.6v-3h11.6v-27.3h3Z"/>
    <path d="M1681.8,326.8c-.1,0-.3,0-.4,0-.3,0-.7,0-1-.3-13,3.6-23.7,8.8-23.6,14,0,3.7,4,5,10.6,5s12.2-.6,15.2-1.1l.4,4.4c-3.1.4-8.8.8-15.8.8s-14.9-2-14.9-8.9c0-4.6,4.3-8.6,11-12.1-1.6-2.9-2.1-7.9-2-17.4l6.3.5c0,.6-.5,1-1.4,1,0,6.9,0,11.4,1.2,13.9,3.9-1.7,8.3-3.4,12.9-5l1.5,5Z"/>
    <path d="M1694.8,316.4c0,.4-.6.7-1.2.7-.6,3.4-1,7.7-1,11.6,0,11.8,3.9,14.4,6.1,14.4,1.6,0,3.6-4.4,4.9-8.6.9.8,2.5,2.1,3.6,2.6-2.5,7.7-5.3,10.6-8.6,10.6-6.1,0-9.6-7.6-10.1-15.2-.1-1.6-.2-3.5-.2-5.4,0-3.8.2-8,.7-11.9l5.9,1.1ZM1721.3,337c-1.3-7.7-5-12.7-10.6-15.9l2.7-3.3c6.2,3.3,11.1,9.5,12.4,17.8l-4.5,1.4Z"/>
    <path d="M1729.6,326.2c6.6-1.8,14.9-3.6,18.2-3.6,6.3,0,10.8,3.3,10.7,10.5,0,8.2-6.3,13.9-18.5,17.4-.6-1.1-1.9-2.8-2.9-3.8,11.3-2.7,16.6-7.8,16.6-13.4s-1.8-6.5-6.2-6.5-9.9,1.5-15.4,3.5c0,.4-.4.9-.9,1.1l-1.7-5.2ZM1736.2,311.3c6,.4,12.8,1.6,17.3,3.2l-1.2,4.3c-4.6-1.6-11.7-2.9-17.2-3.3l1.1-4.2Z"/>
    <path d="M1786,319.5c-.1.4-.6.7-1.2.7-1.7,14.2-6.1,24.4-13.4,24.4s-7.6-3.9-7.6-11c0-10.8,8.5-19.2,19.7-19.2s18.3,7.6,18.3,16.5-5.6,15.4-16.3,18.1c-.7-1-1.7-2.5-2.7-3.7,9.9-2,14.5-6.7,14.5-14.2s-4.7-12.6-13.8-12.6-1.2,0-1.8,0l4.3,1ZM1780.4,318.8c-7.6,1.3-12.4,7.8-12.4,14.7s1.5,6.8,3.5,6.8c4.7,0,8-10.5,8.9-21.5Z"/>
    <path d="M1823.1,312.5c-.1.6-.7.8-1.4.9-.5,2.3-1.2,6.2-1.7,8.8,1.6-.2,3.2-.3,4.2-.3,6.9,0,9.1,4.6,9.1,11.3s-.3,6-1.3,9.2c-1.3,4.9-4.2,7.3-8.1,7.3s-4.2-.8-7.9-3.7c.6-1.1,1.2-2.4,1.5-3.7,3.2,2.4,5,2.9,6.3,2.9,2.1,0,3.3-1.5,4.1-4.1.7-2.3,1.1-6.1,1.1-8,0-4.6-1.5-7.1-5.2-7.1-1.2,0-2.8,0-4.7.3-2.1,8.4-4.5,16-8.5,23l-4-1.9c3.9-6.6,6.2-12.9,8.1-20.6l-7.2,1-.3-4.3,8.3-.9c.6-3.2,1.2-7,1.7-10.7l5.9.7ZM1835.6,318.7c-1-1.9-3.6-4.7-5.3-6.1l2-1.5c2,1.6,4.4,4.1,5.5,6l-2.2,1.6ZM1841.3,336.4c-1.2-5.9-4.3-11.4-7.9-14.5l3.6-2.3c4.2,3.6,7.6,9.3,8.9,15.2l-4.5,1.6ZM1842.4,316.9c-1-1.8-3.6-4.6-5.4-6l2.1-1.5c2,1.6,4.3,4.2,5.5,6l-2.2,1.5Z"/>
    <path d="M1876.8,327c.4,3.2,1,6.3,1.6,8.9,2-2.2,3.7-4.6,5-7.1l4.4,1.7c-.2.4-.6.5-1,.5-1.9,3.3-4.3,6.5-7.1,9.4,1.4,4,3.1,6.6,4.9,6.6s1.7-2.3,1.9-7.7c.9,1,2.3,2,3.4,2.4-.7,7.5-2.1,9.5-5.6,9.5s-5.9-2.7-8-7.7c-2.7,2.3-5.7,4.4-8.8,6-.6-1-1.8-2.4-2.8-3.3,3.6-1.7,7.1-4,10.2-6.8-1.1-3.6-1.9-7.9-2.4-12.4h-9.8v6.2l7.4-1.5.3,3.6-7.7,1.8v8.9c0,4.4-1.9,5-9.7,5-.2-1.2-.9-3-1.4-4.2,1.5,0,3,0,4.2,0,2.5,0,2.8,0,2.8-1v-7.9c-2.8.7-5.4,1.3-7.5,1.7,0,.4-.4.6-.7.7l-1.5-4.7c2.6-.4,6-1,9.7-1.8v-7h-8.9v-3.9h8.9v-6.1c-2.6.4-5.2.8-7.6,1.1-.2-1-.7-2.5-1.3-3.4,6.2-.9,13.2-2.3,17.5-3.9l3,3.6c-.1.1-.3.2-.6.2s-.3,0-.4,0c-2,.6-4.4,1.2-7,1.7h1.5c0,.5-.3.7-1,.8v6h9.4c-.3-4.1-.5-8.3-.6-12.4l5.4.3c0,.4-.4.7-1.1.8,0,3.7.1,7.6.5,11.3h12.6v3.9h-12.1ZM1881.5,311.5c2.6,2.1,5.5,5,6.8,7.3l-3.3,2.3c-1.2-2.2-4-5.3-6.6-7.4l3.1-2.2Z"/>
    <path d="M1922.9,321.1l3.5,1.8c-.2.3-.4.5-.7.7-1.9,5-5.4,11.3-9,16.2,2.3,1.5,4.3,3.1,5.7,4.5l-2.8,3.9c-3.3-3.6-10.5-8.3-16.5-11.1l2.6-3.4c2.3,1,4.9,2.3,7.3,3.8,2.7-3.6,5.2-8.2,6.9-12.1h-13.7c-2.5,4.9-5.6,9.6-9.3,13.2-.9-.7-2.7-1.8-3.9-2.3,6.5-5.9,11.2-15.6,13.6-23.5l5.3,1.4c-.1.3-.5.6-1.2.5-.7,2.1-1.6,4.3-2.6,6.6h14.1l.8-.2Z"/>
    <path d="M1953.6,319.5c-.1.4-.6.7-1.2.7-1.7,14.2-6.1,24.4-13.4,24.4s-7.6-3.9-7.6-11c0-10.8,8.5-19.2,19.7-19.2s18.3,7.6,18.3,16.5-5.6,15.4-16.3,18.1c-.7-1-1.7-2.5-2.7-3.7,9.9-2,14.5-6.7,14.5-14.2s-4.7-12.6-13.8-12.6-1.2,0-1.8,0l4.3,1ZM1948.1,318.8c-7.6,1.3-12.4,7.8-12.4,14.7s1.5,6.8,3.5,6.8c4.7,0,8-10.5,8.9-21.5Z"/>
    <path d="M1991.6,310.7c0,.4-.3.6-1,.7v11.6c0,5.9-1.9,11.6-11.3,14.6l3.3,1.1c-1,4.2-2.7,8.3-6.3,10.6l-3.4-2.3c3.2-2,5-5.4,5.9-9.2h-.4c-.4-.7-1.6-2.2-2.4-3,4.6-1,7.3-2.7,8.7-4.7l-9.3,1.5c0,.3-.3.6-.7.7l-1.3-4c3.3-.3,8-.9,12.8-1.4.2-.8.3-1.6.3-2.4h-10.5v-3.4h10.6v-2.8h-11.9v-3.4h11.9v-4.4l4.9.3ZM1988.8,345.2c0,1.2.4,1.4,2.5,1.4h6.6c1.8,0,2.1-.6,2.3-4.8.9.7,2.6,1.2,3.7,1.5-.5,5.6-1.7,7-5.6,7h-7.5c-4.9,0-6.1-1.2-6.1-5.1v-8l5,.3c0,.4-.3.6-1,.7v7ZM1995.4,341.4c-1.5-2-4.8-4.7-7.8-6.4l2.9-2.3c2.9,1.6,6.3,4.1,7.9,6.2l-3.1,2.6ZM2000.1,330.8v4.7h-4v-25.1l4.9.3c0,.3-.3.6-1,.7v3.5h12.3v3.4h-12.3v2.8h10.7v3.4h-10.7v2.8h12.6v3.5h-12.6ZM2010,349.1c-1.1-3-4.3-7.3-7.5-10.3l3.4-1.8c3.3,2.9,6.6,7,7.9,10.1l-3.7,2Z"/>
    <path d="M2037.2,335.8h-4.4c-.1,0-.3.1-.6.1v11.5c0,3.1-1.2,3.6-6,3.6-.1-1-.6-2.3-1.1-3.2,1.4,0,2.7,0,3.1,0,.4,0,.5-.2.5-.6v-11.6h-4.7v-15.9h3.9c.3-1.3.5-2.7.7-4h-6.6v12.6c0,6.5-.4,15.9-3,21.9-.6-.6-2.2-1.7-3-2.1,2.3-5.7,2.5-13.9,2.5-19.9v-16.2h18.8v3.6h-4c-.2.2-.4.3-.9.3-.2,1.1-.6,2.5-.9,3.7h5.7v15.9ZM2028.2,338.7c0,.3-.4.5-.9.4-.6,2.9-1.7,6.2-3,8.3-.7-.5-1.9-1.1-2.6-1.4,1.2-2,2.2-5.2,2.7-8.3l3.8,1ZM2027.4,322.8v3.6h6.5v-3.6h-6.5ZM2027.4,329.2v3.6h6.5v-3.6h-6.5ZM2036.1,337.7c1.1,2.2,2.2,5.2,2.6,6.9l-2.9,1.1c-.4-1.8-1.5-4.9-2.5-7.2l2.7-.9ZM2046.6,345.3c-.1.2-.4.3-.8.3-1.5,1.9-4.8,4.2-7.6,5.6-.6-.7-1.8-1.9-2.6-2.6,2.7-1.2,5.9-3.5,7.4-5.3l3.6,2ZM2039.5,319.6h5.3c.2-1.2.5-2.5.7-3.7h-7.3v-3.5h19.1v3.5h-7.9c-.3,1.1-.6,2.5-.9,3.7h7.4v23.1h-16.3v-23.1ZM2052.1,326.4v-3.6h-9.1v3.6h9.1ZM2052.1,332.9v-3.6h-9.1v3.6h9.1ZM2052.1,339.6v-3.7h-9.1v3.7h9.1ZM2054.7,351.1c-1.2-1.6-3.9-4.1-6-5.9l3-1.9c2.1,1.7,4.8,4,6.2,5.6l-3.1,2.2Z"/>
    <path d="M2059.9,315.9c1.3,0,3.2,0,4.4-.1,4.4-.3,24.8-1.7,31.3-1.9v4.6c-3.5-.1-5.8.1-9.2,2.4-5.6,3.6-11.7,10-11.7,15.3s4.3,8.7,14.4,9.9l-2.1,4.3c-12.4-1.6-17.1-6.6-17.1-14.2s5.4-12.9,12.6-17.6c-5.1.4-16.5,1.3-21.2,1.7-.1.3-.7.6-1,.7l-.4-5.2ZM2088.6,325.5c2,1.5,4.3,4.1,5.6,6l-2.1,1.6c-1.1-1.7-3.7-4.6-5.4-5.9l2-1.7ZM2093.5,321.6c2,1.6,4.4,4,5.6,5.9l-2.1,1.7c-1.1-1.7-3.5-4.4-5.4-6l2-1.6Z"/>
    <path d="M2101.5,317.8c2.7,0,16.1-.4,19.1-.6,0-.6-.2-5.3-.3-6.4l5.9.3c0,.4-.4.8-1.2,1,0,1.1,0,3.2,0,5.1,5.5-.2,11.2-.3,13.9-.3v4.1c-3.3,0-8.5,0-13.9.2,0,1.6,0,3.2,0,4.3,0,1.5.1,2.6.2,4,.6,1.7.6,3.7.6,4.8,0,8.9-6.1,14.1-13.1,16.8-.7-1-2.2-2.5-3.2-3.4,5.6-2,9.2-4.9,10.5-8.3h0c-.7.9-2,1.5-3.4,1.5-3.9,0-7.5-3.1-7.5-7.8s3.9-8.3,8.1-8.3,2.6.3,3.4,1c0-.2,0-.3,0-.5,0-.8,0-2.6-.1-4.1-7.2.2-14.3.4-19.1.7v-4ZM2121.5,332.9c0-3.1-1.3-4.7-3.8-4.7s-4.4,1.9-4.4,4.8,2,4.3,4.1,4.3,4.1-2.1,4.1-4.4Z"/>
  </g>
</svg>